<svg width="58" height="78" fill="none" xmlns="http://www.w3.org/2000/svg"><path d="M29 0C16.87 0 7 9.91 7 22.092c0 15.117 19.688 37.31 20.526 38.248.787.88 2.162.88 2.948 0C31.312 59.403 51 37.21 51 22.092 51 9.91 41.13 0 29 0zm0 33.207c-6.103 0-11.069-4.986-11.069-11.115 0-6.129 4.966-11.115 11.069-11.115 6.103 0 11.069 4.986 11.069 11.115 0 6.129-4.966 11.115-11.069 11.115z" fill="#4CCA4C" filter="url(#filter0_d)"/><defs><filter id="filter0_d" x="0" y="0" width="58" height="78" filterUnits="userSpaceOnUse" color-interpolation-filters="sRGB"><feFlood flood-opacity="0" result="BackgroundImageFix"/><feColorMatrix in="SourceAlpha" values="0 0 0 0 0 0 0 0 0 0 0 0 0 0 0 0 0 0 127 0"/><feOffset dy="10"/><feGaussianBlur stdDeviation="3.5"/><feColorMatrix values="0 0 0 0 1 0 0 0 0 1 0 0 0 0 1 0 0 0 0.7 0"/><feBlend in2="BackgroundImageFix" result="effect1_dropShadow"/><feBlend in="SourceGraphic" in2="effect1_dropShadow" result="shape"/></filter></defs></svg>