<svg width="28" height="24" fill="none" xmlns="http://www.w3.org/2000/svg"><path d="M1.623 3.52h24.754c.897 0 1.623-.74 1.623-1.655C28 .953 27.274.21 26.377.21H1.623C.726.21 0 .953 0 1.865 0 2.781.726 3.52 1.623 3.52zm24.754 6.825H1.623C.726 10.345 0 11.088 0 12c0 .916.726 1.655 1.623 1.655h24.754c.897 0 1.623-.74 1.623-1.655 0-.912-.726-1.655-1.623-1.655zm0 10.134H1.623C.726 20.48 0 21.222 0 22.134c0 .916.726 1.656 1.623 1.656h24.754c.897 0 1.623-.74 1.623-1.655 0-.913-.726-1.656-1.623-1.656z" fill="#412ABD"/></svg>