<svg width="18" height="18" fill="none" xmlns="http://www.w3.org/2000/svg"><path d="M13.685 11.907c-.588-.58-1.322-.58-1.907 0-.445.442-.891.884-1.33 1.334-.12.123-.22.15-.367.067-.288-.157-.595-.284-.872-.457-1.292-.813-2.375-1.858-3.334-3.034-.476-.584-.899-1.21-1.195-1.914-.06-.142-.048-.236.068-.352.445-.43.88-.873 1.318-1.315.61-.614.61-1.333-.004-1.951-.348-.352-.696-.697-1.045-1.049-.36-.36-.715-.723-1.078-1.079-.589-.573-1.323-.573-1.907.004-.45.442-.88.895-1.337 1.33-.423.4-.637.891-.682 1.464-.071.933.157 1.813.48 2.671.659 1.776 1.663 3.352 2.88 4.798a17.824 17.824 0 0 0 5.903 4.619c1.034.502 2.105.887 3.27.951.802.045 1.498-.157 2.057-.783.382-.427.813-.816 1.217-1.225.6-.607.603-1.34.008-1.94a568.464 568.464 0 0 0-2.143-2.139zM12.97 8.922l1.382-.236a6.178 6.178 0 0 0-1.727-3.333 6.144 6.144 0 0 0-3.521-1.757l-.195 1.39a4.767 4.767 0 0 1 2.727 1.36 4.767 4.767 0 0 1 1.334 2.576zM15.13 2.914A10.192 10.192 0 0 0 9.288 0l-.194 1.39a8.837 8.837 0 0 1 5.049 2.517 8.83 8.83 0 0 1 2.476 4.775L18 8.446a10.266 10.266 0 0 0-2.87-5.532z" fill="#412ABD"/></svg>