<svg width="75" height="75" fill="none" xmlns="http://www.w3.org/2000/svg"><path d="M37.5 4.018c-18.492 0-33.482 14.99-33.482 33.482 0 18.492 14.99 33.482 33.482 33.482 18.492 0 33.482-14.99 33.482-33.482C70.962 19.017 55.983 4.039 37.5 4.018zM9.663 21.428a1.34 1.34 0 0 1 1.83-.49l1.16.67a1.341 1.341 0 0 1 .004 2.326c-.416.24-.93.236-1.344-.006l-1.16-.67a1.34 1.34 0 0 1-.49-1.83zm2.99 31.964l-1.16.67a1.34 1.34 0 0 1-1.34-2.32l1.16-.67a1.34 1.34 0 1 1 1.34 2.32zm-.6-14.553H6.697a1.34 1.34 0 1 1 0-2.678h5.358a1.34 1.34 0 1 1 0 2.678zM36.162 6.696a1.34 1.34 0 1 1 2.678 0v5.358a1.34 1.34 0 1 1-2.678 0V6.696zM21.429 9.663a1.34 1.34 0 0 1 1.83.49l.67 1.16a1.34 1.34 0 1 1-2.32 1.34l-.671-1.16a1.34 1.34 0 0 1 .49-1.83zm2.5 54.024l-.67 1.16a1.343 1.343 0 0 1-1.162.678 1.342 1.342 0 0 1-1.16-2.018l.67-1.16a1.339 1.339 0 0 1 2.321 1.34zm14.91 4.617a1.34 1.34 0 1 1-2.678 0v-5.358a1.34 1.34 0 1 1 2.678 0v5.358zM37.5 41.518a4.019 4.019 0 0 1-3.772-2.679h-9.62a1.34 1.34 0 1 1 0-2.678h9.62a4.015 4.015 0 0 1 2.433-2.433V18.75a1.34 1.34 0 1 1 2.678 0v14.978a4.008 4.008 0 0 1-1.339 7.79zm16.071 23.82c-.64.369-1.46.15-1.83-.491l-.67-1.16a1.34 1.34 0 1 1 2.32-1.34l.671 1.16c.37.642.15 1.46-.49 1.83zm.491-53.84l-.67 1.16a1.34 1.34 0 1 1-2.32-1.34l.67-1.16a1.34 1.34 0 0 1 2.32 1.34zm8.286 10.116l1.16-.67a1.34 1.34 0 0 1 1.339 2.32l-1.16.67a1.34 1.34 0 1 1-1.34-2.32zm2.99 31.957a1.34 1.34 0 0 1-1.83.491l-1.16-.67a1.341 1.341 0 0 1-.005-2.326c.416-.24.93-.236 1.344.006l1.16.67c.64.37.86 1.189.49 1.83zm2.966-14.732h-5.358a1.34 1.34 0 1 1 0-2.678h5.358a1.34 1.34 0 1 1 0 2.678z" fill="#EAEAEA"/><path d="M38.84 37.5a1.34 1.34 0 1 1-2.68 0 1.34 1.34 0 0 1 2.68 0z" fill="#EAEAEA"/><path d="M37.5 0C16.79 0 0 16.79 0 37.5S16.79 75 37.5 75 75 58.21 75 37.5C74.977 16.8 58.2.024 37.5 0zm0 73.66c-19.971 0-36.16-16.189-36.16-36.16 0-19.971 16.189-36.16 36.16-36.16 19.971 0 36.16 16.189 36.16 36.16-.021 19.962-16.198 36.139-36.16 36.16z" fill="#EAEAEA"/></svg>