<svg width="633" height="235" fill="none" xmlns="http://www.w3.org/2000/svg"><path d="M4.08 226.842a4.08 4.08 0 1 1 0 8.158 4.08 4.08 0 0 1 0-8.158zM17.649 226.842a4.08 4.08 0 1 1 0 8.158 4.08 4.08 0 0 1 0-8.158zM31.24 226.842a4.08 4.08 0 1 1 0 8.158 4.08 4.08 0 0 1 0-8.158zM44.83 226.842a4.08 4.08 0 1 1 .002 8.158 4.08 4.08 0 0 1-.001-8.158zM58.4 226.842a4.08 4.08 0 1 1 .001 8.158 4.08 4.08 0 0 1 0-8.158zM71.991 226.842a4.08 4.08 0 1 1 .001 8.158 4.08 4.08 0 0 1 0-8.158zM85.582 226.842a4.08 4.08 0 1 1 .001 8.158 4.08 4.08 0 0 1 0-8.158zM99.151 226.842a4.08 4.08 0 1 1 0 8.159 4.08 4.08 0 0 1 0-8.159zM112.743 226.842a4.079 4.079 0 1 1 0 8.158 4.08 4.08 0 1 1 0-8.158zM126.334 226.842a4.079 4.079 0 1 1 0 8.158 4.08 4.08 0 1 1 0-8.158zM139.903 226.842a4.08 4.08 0 1 1 0 8.16 4.08 4.08 0 0 1 0-8.16zM153.494 226.842a4.08 4.08 0 1 1 0 8.16 4.08 4.08 0 0 1 0-8.16zM167.085 226.842a4.08 4.08 0 1 1 0 8.16 4.08 4.08 0 0 1 0-8.16zM180.654 226.842a4.08 4.08 0 1 1 0 8.16 4.08 4.08 0 0 1 0-8.16zM194.246 226.842a4.079 4.079 0 1 1 0 8.158 4.08 4.08 0 1 1 0-8.158zM207.815 226.842a4.079 4.079 0 1 1 0 8.158 4.079 4.079 0 1 1 0-8.158zM221.406 226.842a4.079 4.079 0 1 1 0 8.158 4.08 4.08 0 1 1 0-8.158zM234.997 226.842a4.08 4.08 0 1 1 0 8.16 4.08 4.08 0 0 1 0-8.16zM248.566 226.842a4.08 4.08 0 1 1 0 8.16 4.08 4.08 0 0 1 0-8.16zM262.157 226.842a4.08 4.08 0 1 1 0 8.16 4.08 4.08 0 0 1 0-8.16zM275.749 226.842a4.079 4.079 0 1 1 0 8.158 4.079 4.079 0 1 1 0-8.158zM289.317 226.842a4.079 4.079 0 1 1 .002 8.158 4.079 4.079 0 0 1-.002-8.158zM302.909 226.842a4.079 4.079 0 1 1 0 8.158 4.08 4.08 0 1 1 0-8.158zM316.5 226.842a4.079 4.079 0 1 1 0 8.158 4.08 4.08 0 1 1 0-8.158zM330.069 226.842a4.08 4.08 0 1 1 0 8.16 4.08 4.08 0 0 1 0-8.16zM343.66 226.842a4.08 4.08 0 1 1 0 8.16 4.08 4.08 0 0 1 0-8.16zM357.251 226.842a4.079 4.079 0 1 1 .002 8.158 4.079 4.079 0 0 1-.002-8.158zM370.82 226.842a4.08 4.08 0 1 1 0 8.16 4.08 4.08 0 0 1 0-8.16zM384.412 226.842a4.079 4.079 0 1 1 0 8.158 4.08 4.08 0 1 1 0-8.158zM398.003 226.842a4.079 4.079 0 1 1 0 8.158 4.08 4.08 0 1 1 0-8.158zM411.572 226.842a4.079 4.079 0 1 1 0 8.158 4.08 4.08 0 1 1 0-8.158zM425.163 226.842a4.08 4.08 0 1 1 0 8.16 4.08 4.08 0 0 1 0-8.16zM438.754 226.842a4.08 4.08 0 1 1 0 8.16 4.08 4.08 0 0 1 0-8.16zM452.323 226.842a4.08 4.08 0 1 1 0 8.16 4.08 4.08 0 0 1 0-8.16zM465.915 226.842a4.079 4.079 0 1 1 0 8.158 4.079 4.079 0 1 1 0-8.158zM479.483 226.842a4.079 4.079 0 1 1 .002 8.158 4.079 4.079 0 0 1-.002-8.158zM493.075 226.842a4.079 4.079 0 1 1 0 8.158 4.08 4.08 0 1 1 0-8.158zM506.666 226.842a4.079 4.079 0 1 1 0 8.158 4.08 4.08 0 1 1 0-8.158zM520.235 226.842a4.08 4.08 0 1 1 0 8.16 4.08 4.08 0 0 1 0-8.16zM533.826 226.842a4.08 4.08 0 1 1 0 8.16 4.08 4.08 0 0 1 0-8.16zM547.417 226.842a4.079 4.079 0 1 1 .002 8.158 4.079 4.079 0 0 1-.002-8.158zM560.986 226.842a4.079 4.079 0 1 1 .002 8.158 4.079 4.079 0 0 1-.002-8.158zM574.578 226.842a4.079 4.079 0 1 1 0 8.158 4.08 4.08 0 1 1 0-8.158zM588.169 226.842a4.079 4.079 0 1 1 0 8.158 4.08 4.08 0 1 1 0-8.158zM601.738 226.842a4.08 4.08 0 1 1 0 8.16 4.08 4.08 0 0 1 0-8.16zM615.329 226.842a4.08 4.08 0 1 1 0 8.16 4.08 4.08 0 0 1 0-8.16zM628.92 226.842a4.079 4.079 0 1 1 .002 8.158 4.079 4.079 0 0 1-.002-8.158zM4.08 213.274a4.08 4.08 0 1 1 0 8.158 4.08 4.08 0 0 1 0-8.158zM17.649 213.274a4.08 4.08 0 1 1 0 8.158 4.08 4.08 0 0 1 0-8.158zM31.24 213.274a4.08 4.08 0 1 1 0 8.158 4.08 4.08 0 0 1 0-8.158zM44.83 213.274a4.08 4.08 0 1 1 .002 8.158 4.08 4.08 0 0 1-.001-8.158zM58.4 213.274a4.08 4.08 0 1 1 .001 8.158 4.08 4.08 0 0 1 0-8.158zM71.991 213.274a4.08 4.08 0 1 1 .001 8.158 4.08 4.08 0 0 1 0-8.158zM85.582 213.274a4.08 4.08 0 1 1 .001 8.158 4.08 4.08 0 0 1 0-8.158zM99.151 213.274a4.08 4.08 0 1 1 0 8.159 4.08 4.08 0 0 1 0-8.159zM112.743 213.274a4.079 4.079 0 1 1 0 8.158 4.08 4.08 0 1 1 0-8.158zM126.334 213.274a4.079 4.079 0 1 1 0 8.158 4.08 4.08 0 1 1 0-8.158zM139.903 213.274a4.08 4.08 0 1 1 0 8.16 4.08 4.08 0 0 1 0-8.16zM153.494 213.274a4.08 4.08 0 1 1 0 8.16 4.08 4.08 0 0 1 0-8.16zM167.085 213.274a4.08 4.08 0 1 1 0 8.16 4.08 4.08 0 0 1 0-8.16zM180.654 213.274a4.08 4.08 0 1 1 0 8.16 4.08 4.08 0 0 1 0-8.16zM194.246 213.274a4.079 4.079 0 1 1 0 8.158 4.08 4.08 0 1 1 0-8.158zM207.815 213.274a4.079 4.079 0 1 1 0 8.158 4.079 4.079 0 1 1 0-8.158zM221.406 213.274a4.079 4.079 0 1 1 0 8.158 4.08 4.08 0 1 1 0-8.158zM234.997 213.274a4.08 4.08 0 1 1 0 8.16 4.08 4.08 0 0 1 0-8.16zM248.566 213.274a4.08 4.08 0 1 1 0 8.16 4.08 4.08 0 0 1 0-8.16zM262.157 213.274a4.08 4.08 0 1 1 0 8.16 4.08 4.08 0 0 1 0-8.16zM275.749 213.274a4.079 4.079 0 1 1 0 8.158 4.079 4.079 0 1 1 0-8.158zM289.317 213.274a4.079 4.079 0 1 1 .002 8.158 4.079 4.079 0 0 1-.002-8.158zM302.909 213.274a4.079 4.079 0 1 1 0 8.158 4.08 4.08 0 1 1 0-8.158zM316.5 213.274a4.079 4.079 0 1 1 0 8.158 4.08 4.08 0 1 1 0-8.158zM330.069 213.274a4.08 4.08 0 1 1 0 8.16 4.08 4.08 0 0 1 0-8.16zM343.66 213.274a4.08 4.08 0 1 1 0 8.16 4.08 4.08 0 0 1 0-8.16zM357.251 213.274a4.079 4.079 0 1 1 .002 8.158 4.079 4.079 0 0 1-.002-8.158zM370.82 213.274a4.08 4.08 0 1 1 0 8.16 4.08 4.08 0 0 1 0-8.16zM384.412 213.274a4.079 4.079 0 1 1 0 8.158 4.08 4.08 0 1 1 0-8.158zM398.003 213.274a4.079 4.079 0 1 1 0 8.158 4.08 4.08 0 1 1 0-8.158zM411.572 213.274a4.079 4.079 0 1 1 0 8.158 4.08 4.08 0 1 1 0-8.158zM425.163 213.274a4.08 4.08 0 1 1 0 8.16 4.08 4.08 0 0 1 0-8.16zM438.754 213.274a4.08 4.08 0 1 1 0 8.16 4.08 4.08 0 0 1 0-8.16zM452.323 213.274a4.08 4.08 0 1 1 0 8.16 4.08 4.08 0 0 1 0-8.16zM465.915 213.274a4.079 4.079 0 1 1 0 8.158 4.079 4.079 0 1 1 0-8.158zM479.483 213.274a4.079 4.079 0 1 1 .002 8.158 4.079 4.079 0 0 1-.002-8.158zM493.075 213.274a4.079 4.079 0 1 1 0 8.158 4.08 4.08 0 1 1 0-8.158zM506.666 213.274a4.079 4.079 0 1 1 0 8.158 4.08 4.08 0 1 1 0-8.158zM520.235 213.274a4.08 4.08 0 1 1 0 8.16 4.08 4.08 0 0 1 0-8.16zM533.826 213.274a4.08 4.08 0 1 1 0 8.16 4.08 4.08 0 0 1 0-8.16zM547.417 213.274a4.079 4.079 0 1 1 .002 8.158 4.079 4.079 0 0 1-.002-8.158zM560.986 213.274a4.079 4.079 0 1 1 .002 8.158 4.079 4.079 0 0 1-.002-8.158zM574.578 213.274a4.079 4.079 0 1 1 0 8.158 4.08 4.08 0 1 1 0-8.158zM588.169 213.274a4.079 4.079 0 1 1 0 8.158 4.08 4.08 0 1 1 0-8.158zM601.738 213.274a4.08 4.08 0 1 1 0 8.16 4.08 4.08 0 0 1 0-8.16zM615.329 213.274a4.08 4.08 0 1 1 0 8.16 4.08 4.08 0 0 1 0-8.16zM628.92 213.274a4.079 4.079 0 1 1 .002 8.158 4.079 4.079 0 0 1-.002-8.158zM4.08 199.683a4.08 4.08 0 1 1-.001 8.16 4.08 4.08 0 0 1 0-8.16zM17.649 199.683a4.08 4.08 0 1 1-.001 8.16 4.08 4.08 0 0 1 0-8.16zM31.24 199.683a4.08 4.08 0 1 1-.001 8.16 4.08 4.08 0 0 1 0-8.16zM44.83 199.683a4.08 4.08 0 1 1 0 8.16 4.08 4.08 0 0 1 0-8.16zM58.4 199.683a4.08 4.08 0 1 1 0 8.16 4.08 4.08 0 0 1 0-8.16zM71.991 199.683a4.08 4.08 0 1 1 0 8.16 4.08 4.08 0 0 1 0-8.16zM85.582 199.683a4.08 4.08 0 1 1 0 8.16 4.08 4.08 0 0 1 0-8.16zM99.151 199.683a4.08 4.08 0 1 1-.001 8.16 4.08 4.08 0 0 1 .001-8.16zM112.743 199.683a4.08 4.08 0 1 1-.001 8.16 4.08 4.08 0 0 1 .001-8.16zM126.334 199.683a4.08 4.08 0 1 1-.001 8.16 4.08 4.08 0 0 1 .001-8.16zM139.903 199.683a4.08 4.08 0 1 1 0 8.16 4.08 4.08 0 0 1 0-8.16zM153.494 199.683a4.08 4.08 0 1 1 0 8.16 4.08 4.08 0 0 1 0-8.16zM167.085 199.683a4.08 4.08 0 1 1 0 8.16 4.08 4.08 0 0 1 0-8.16zM180.654 199.683a4.08 4.08 0 1 1 0 8.16 4.08 4.08 0 0 1 0-8.16zM194.246 199.683a4.08 4.08 0 1 1-.001 8.16 4.08 4.08 0 0 1 .001-8.16zM207.815 199.683a4.08 4.08 0 1 1-.001 8.16 4.08 4.08 0 0 1 .001-8.16zM221.406 199.683a4.08 4.08 0 1 1-.001 8.16 4.08 4.08 0 0 1 .001-8.16zM234.997 199.683a4.08 4.08 0 1 1 0 8.16 4.08 4.08 0 0 1 0-8.16zM248.566 199.683a4.08 4.08 0 1 1 0 8.16 4.08 4.08 0 0 1 0-8.16zM262.157 199.683a4.08 4.08 0 1 1 0 8.16 4.08 4.08 0 0 1 0-8.16zM275.749 199.683a4.08 4.08 0 1 1-.001 8.16 4.08 4.08 0 0 1 .001-8.16zM289.317 199.683a4.08 4.08 0 1 1 0 8.16 4.08 4.08 0 0 1 0-8.16zM302.909 199.683a4.08 4.08 0 1 1-.001 8.16 4.08 4.08 0 0 1 .001-8.16zM316.5 199.683a4.08 4.08 0 1 1-.001 8.16 4.08 4.08 0 0 1 .001-8.16zM330.069 199.683a4.08 4.08 0 1 1 0 8.16 4.08 4.08 0 0 1 0-8.16zM343.66 199.683a4.08 4.08 0 1 1 0 8.16 4.08 4.08 0 0 1 0-8.16zM357.251 199.683a4.08 4.08 0 1 1 0 8.16 4.08 4.08 0 0 1 0-8.16zM370.82 199.683a4.08 4.08 0 1 1 0 8.16 4.08 4.08 0 0 1 0-8.16zM384.412 199.683a4.08 4.08 0 1 1-.001 8.16 4.08 4.08 0 0 1 .001-8.16zM398.003 199.683a4.08 4.08 0 1 1-.001 8.16 4.08 4.08 0 0 1 .001-8.16zM411.572 199.683a4.08 4.08 0 1 1-.001 8.16 4.08 4.08 0 0 1 .001-8.16zM425.163 199.683a4.08 4.08 0 1 1 0 8.16 4.08 4.08 0 0 1 0-8.16zM438.754 199.683a4.08 4.08 0 1 1 0 8.16 4.08 4.08 0 0 1 0-8.16zM452.323 199.683a4.08 4.08 0 1 1 0 8.16 4.08 4.08 0 0 1 0-8.16zM465.915 199.683a4.08 4.08 0 1 1-.001 8.16 4.08 4.08 0 0 1 .001-8.16zM479.483 199.683a4.08 4.08 0 1 1 0 8.16 4.08 4.08 0 0 1 0-8.16zM493.075 199.683a4.08 4.08 0 1 1-.001 8.16 4.08 4.08 0 0 1 .001-8.16zM506.666 199.683a4.08 4.08 0 1 1-.001 8.16 4.08 4.08 0 0 1 .001-8.16zM520.235 199.683a4.08 4.08 0 1 1 0 8.16 4.08 4.08 0 0 1 0-8.16zM533.826 199.683a4.08 4.08 0 1 1 0 8.16 4.08 4.08 0 0 1 0-8.16zM547.417 199.683a4.08 4.08 0 1 1 0 8.16 4.08 4.08 0 0 1 0-8.16zM560.986 199.683a4.08 4.08 0 1 1 0 8.16 4.08 4.08 0 0 1 0-8.16zM574.578 199.683a4.08 4.08 0 1 1-.001 8.16 4.08 4.08 0 0 1 .001-8.16zM588.169 199.683a4.08 4.08 0 1 1-.001 8.16 4.08 4.08 0 0 1 .001-8.16zM601.738 199.683a4.08 4.08 0 1 1 0 8.16 4.08 4.08 0 0 1 0-8.16zM615.329 199.683a4.08 4.08 0 1 1 0 8.16 4.08 4.08 0 0 1 0-8.16zM628.92 199.683a4.08 4.08 0 1 1 0 8.16 4.08 4.08 0 0 1 0-8.16zM4.08 186.093a4.08 4.08 0 1 1-.001 8.16 4.08 4.08 0 0 1 0-8.16zM17.649 186.093a4.08 4.08 0 1 1-.001 8.16 4.08 4.08 0 0 1 0-8.16zM31.24 186.093a4.08 4.08 0 1 1-.001 8.16 4.08 4.08 0 0 1 0-8.16zM44.83 186.093a4.08 4.08 0 1 1 0 8.16 4.08 4.08 0 0 1 0-8.16zM58.4 186.093a4.08 4.08 0 1 1 0 8.16 4.08 4.08 0 0 1 0-8.16zM71.991 186.093a4.08 4.08 0 1 1 0 8.16 4.08 4.08 0 0 1 0-8.16zM85.582 186.093a4.08 4.08 0 1 1 0 8.16 4.08 4.08 0 0 1 0-8.16zM99.151 186.093a4.08 4.08 0 1 1-.001 8.16 4.08 4.08 0 0 1 .001-8.16zM112.743 186.093a4.08 4.08 0 1 1-.001 8.16 4.08 4.08 0 0 1 .001-8.16zM126.334 186.093a4.08 4.08 0 1 1-.001 8.16 4.08 4.08 0 0 1 .001-8.16zM139.903 186.093a4.08 4.08 0 1 1 0 8.16 4.08 4.08 0 0 1 0-8.16zM153.494 186.093a4.08 4.08 0 1 1 0 8.16 4.08 4.08 0 0 1 0-8.16zM167.085 186.093a4.08 4.08 0 1 1 0 8.16 4.08 4.08 0 0 1 0-8.16zM180.654 186.093a4.08 4.08 0 1 1 0 8.16 4.08 4.08 0 0 1 0-8.16zM194.246 186.093a4.08 4.08 0 1 1-.001 8.16 4.08 4.08 0 0 1 .001-8.16zM207.815 186.093a4.08 4.08 0 1 1-.001 8.16 4.08 4.08 0 0 1 .001-8.16zM221.406 186.093a4.08 4.08 0 1 1-.001 8.16 4.08 4.08 0 0 1 .001-8.16zM234.997 186.093a4.08 4.08 0 1 1 0 8.16 4.08 4.08 0 0 1 0-8.16zM248.566 186.093a4.08 4.08 0 1 1 0 8.16 4.08 4.08 0 0 1 0-8.16zM262.157 186.093a4.08 4.08 0 1 1 0 8.16 4.08 4.08 0 0 1 0-8.16zM275.749 186.093a4.08 4.08 0 1 1-.001 8.16 4.08 4.08 0 0 1 .001-8.16zM289.317 186.093a4.08 4.08 0 1 1 0 8.16 4.08 4.08 0 0 1 0-8.16zM302.909 186.093a4.08 4.08 0 1 1-.001 8.16 4.08 4.08 0 0 1 .001-8.16zM316.5 186.093a4.08 4.08 0 1 1-.001 8.16 4.08 4.08 0 0 1 .001-8.16zM330.069 186.093a4.08 4.08 0 1 1 0 8.16 4.08 4.08 0 0 1 0-8.16zM343.66 186.093a4.08 4.08 0 1 1 0 8.16 4.08 4.08 0 0 1 0-8.16zM357.251 186.093a4.08 4.08 0 1 1 0 8.16 4.08 4.08 0 0 1 0-8.16zM370.82 186.093a4.08 4.08 0 1 1 0 8.16 4.08 4.08 0 0 1 0-8.16zM384.412 186.093a4.08 4.08 0 1 1-.001 8.16 4.08 4.08 0 0 1 .001-8.16zM398.003 186.093a4.08 4.08 0 1 1-.001 8.16 4.08 4.08 0 0 1 .001-8.16zM411.572 186.093a4.08 4.08 0 1 1-.001 8.16 4.08 4.08 0 0 1 .001-8.16zM425.163 186.093a4.08 4.08 0 1 1 0 8.16 4.08 4.08 0 0 1 0-8.16zM438.754 186.093a4.08 4.08 0 1 1 0 8.16 4.08 4.08 0 0 1 0-8.16zM452.323 186.093a4.08 4.08 0 1 1 0 8.16 4.08 4.08 0 0 1 0-8.16zM465.915 186.093a4.08 4.08 0 1 1-.001 8.16 4.08 4.08 0 0 1 .001-8.16zM479.483 186.093a4.08 4.08 0 1 1 0 8.16 4.08 4.08 0 0 1 0-8.16zM493.075 186.093a4.08 4.08 0 1 1-.001 8.16 4.08 4.08 0 0 1 .001-8.16zM506.666 186.093a4.08 4.08 0 1 1-.001 8.16 4.08 4.08 0 0 1 .001-8.16zM520.235 186.093a4.08 4.08 0 1 1 0 8.16 4.08 4.08 0 0 1 0-8.16zM533.826 186.093a4.08 4.08 0 1 1 0 8.16 4.08 4.08 0 0 1 0-8.16zM547.417 186.093a4.08 4.08 0 1 1 0 8.16 4.08 4.08 0 0 1 0-8.16zM560.986 186.093a4.08 4.08 0 1 1 0 8.16 4.08 4.08 0 0 1 0-8.16zM574.578 186.093a4.08 4.08 0 1 1-.001 8.16 4.08 4.08 0 0 1 .001-8.16zM588.169 186.093a4.08 4.08 0 1 1-.001 8.16 4.08 4.08 0 0 1 .001-8.16zM601.738 186.093a4.08 4.08 0 1 1 0 8.16 4.08 4.08 0 0 1 0-8.16zM615.329 186.093a4.08 4.08 0 1 1 0 8.16 4.08 4.08 0 0 1 0-8.16zM628.92 186.093a4.08 4.08 0 1 1 0 8.16 4.08 4.08 0 0 1 0-8.16zM4.08 172.814a3.791 3.791 0 1 1 0 7.582 3.791 3.791 0 0 1 0-7.582zM17.649 172.814a3.791 3.791 0 1 1 0 7.582 3.791 3.791 0 0 1 0-7.582zM31.24 172.814a3.791 3.791 0 1 1 0 7.582 3.791 3.791 0 0 1 0-7.582zM44.831 172.814a3.791 3.791 0 1 1 0 7.582 3.791 3.791 0 0 1 0-7.582zM58.4 172.814a3.791 3.791 0 1 1 0 7.582 3.791 3.791 0 0 1 0-7.582zM71.991 172.814a3.791 3.791 0 1 1 .001 7.582 3.791 3.791 0 0 1 0-7.582zM85.582 172.814a3.791 3.791 0 1 1 .001 7.582 3.791 3.791 0 0 1 0-7.582zM99.151 172.814a3.791 3.791 0 1 1 0 7.583 3.791 3.791 0 0 1 0-7.583zM112.743 172.814a3.79 3.79 0 1 1 0 7.582 3.792 3.792 0 0 1 0-7.582zM126.334 172.814a3.79 3.79 0 1 1 0 7.581 3.79 3.79 0 0 1 0-7.581zM139.903 172.814a3.79 3.79 0 1 1 0 7.582 3.792 3.792 0 0 1 0-7.582zM153.494 172.814a3.791 3.791 0 1 1 .001 7.583 3.791 3.791 0 0 1-.001-7.583zM167.085 172.814a3.791 3.791 0 1 1 .001 7.583 3.791 3.791 0 0 1-.001-7.583zM180.654 172.814a3.791 3.791 0 1 1 .001 7.583 3.791 3.791 0 0 1-.001-7.583zM194.245 172.814a3.791 3.791 0 1 1 .001 7.583 3.791 3.791 0 0 1-.001-7.583zM207.815 172.814a3.79 3.79 0 1 1 0 7.582 3.792 3.792 0 0 1 0-7.582zM221.406 172.814a3.79 3.79 0 1 1 0 7.582 3.792 3.792 0 0 1 0-7.582zM234.997 172.814a3.79 3.79 0 1 1 0 7.581 3.79 3.79 0 0 1 0-7.581zM248.566 172.814a3.79 3.79 0 1 1 0 7.581 3.79 3.79 0 0 1 0-7.581zM262.157 172.814a3.791 3.791 0 1 1 .001 7.583 3.791 3.791 0 0 1-.001-7.583zM275.748 172.814a3.791 3.791 0 1 1 .001 7.583 3.791 3.791 0 0 1-.001-7.583zM289.318 172.814a3.791 3.791 0 1 1 0 7.583 3.791 3.791 0 0 1 0-7.583zM302.909 172.814a3.79 3.79 0 1 1 0 7.582 3.792 3.792 0 0 1 0-7.582zM316.5 172.814a3.79 3.79 0 1 1 0 7.581 3.79 3.79 0 0 1 0-7.581zM330.069 172.814a3.79 3.79 0 1 1 0 7.581 3.79 3.79 0 0 1 0-7.581zM343.66 172.814a3.791 3.791 0 1 1 .001 7.583 3.791 3.791 0 0 1-.001-7.583zM357.251 172.814a3.791 3.791 0 1 1 .001 7.583 3.791 3.791 0 0 1-.001-7.583zM370.82 172.814a3.791 3.791 0 1 1 .001 7.583 3.791 3.791 0 0 1-.001-7.583zM384.412 172.814a3.791 3.791 0 1 1 0 7.583 3.791 3.791 0 0 1 0-7.583zM398.003 172.814a3.79 3.79 0 1 1 0 7.581 3.79 3.79 0 0 1 0-7.581zM411.572 172.814a3.79 3.79 0 1 1 0 7.582 3.792 3.792 0 0 1 0-7.582zM425.163 172.814a3.79 3.79 0 1 1 0 7.581 3.79 3.79 0 0 1 0-7.581zM438.754 172.814a3.791 3.791 0 1 1 .001 7.583 3.791 3.791 0 0 1-.001-7.583zM452.323 172.814a3.791 3.791 0 1 1 .001 7.583 3.791 3.791 0 0 1-.001-7.583zM465.914 172.814a3.791 3.791 0 1 1 .001 7.583 3.791 3.791 0 0 1-.001-7.583zM479.484 172.814a3.79 3.79 0 1 1 0 7.582 3.792 3.792 0 0 1 0-7.582zM493.075 172.814a3.79 3.79 0 1 1 0 7.582 3.792 3.792 0 0 1 0-7.582zM506.666 172.814a3.79 3.79 0 1 1 0 7.581 3.79 3.79 0 0 1 0-7.581zM520.235 172.814a3.79 3.79 0 1 1 0 7.581 3.79 3.79 0 0 1 0-7.581zM533.826 172.814a3.791 3.791 0 1 1 .001 7.583 3.791 3.791 0 0 1-.001-7.583zM547.417 172.814a3.791 3.791 0 1 1 .001 7.583 3.791 3.791 0 0 1-.001-7.583zM560.987 172.814a3.791 3.791 0 1 1 0 7.583 3.791 3.791 0 0 1 0-7.583zM574.578 172.814a3.79 3.79 0 1 1 0 7.582 3.792 3.792 0 0 1 0-7.582zM588.169 172.814a3.79 3.79 0 1 1 0 7.581 3.79 3.79 0 0 1 0-7.581zM601.738 172.814a3.79 3.79 0 1 1 0 7.581 3.79 3.79 0 0 1 0-7.581zM615.329 172.814a3.791 3.791 0 1 1 .001 7.583 3.791 3.791 0 0 1-.001-7.583zM628.92 172.814a3.791 3.791 0 1 1 .001 7.583 3.791 3.791 0 0 1-.001-7.583zM4.08 159.556a3.46 3.46 0 1 1-.001 6.918 3.46 3.46 0 0 1 0-6.918zM17.648 159.556a3.46 3.46 0 1 1 0 6.918 3.46 3.46 0 0 1 0-6.918zM31.24 159.556a3.46 3.46 0 1 1 0 6.918 3.46 3.46 0 0 1 0-6.918zM44.83 159.556a3.46 3.46 0 1 1 0 6.918 3.46 3.46 0 0 1 0-6.918zM58.4 159.556a3.46 3.46 0 1 1 0 6.918 3.46 3.46 0 0 1 0-6.918zM71.991 159.556a3.46 3.46 0 1 1 0 6.918 3.46 3.46 0 0 1 0-6.918zM85.582 159.556a3.46 3.46 0 1 1 0 6.918 3.46 3.46 0 0 1 0-6.918zM99.151 159.556a3.459 3.459 0 1 1 0 6.917 3.459 3.459 0 0 1 0-6.917zM112.743 159.556a3.46 3.46 0 1 1 0 6.919 3.46 3.46 0 0 1 0-6.919zM126.334 159.556a3.46 3.46 0 1 1 0 6.919 3.46 3.46 0 0 1 0-6.919zM139.903 159.556a3.46 3.46 0 1 1 0 6.919 3.46 3.46 0 0 1 0-6.919zM153.494 159.556a3.46 3.46 0 1 1 0 6.919 3.46 3.46 0 0 1 0-6.919zM167.085 159.556a3.459 3.459 0 1 1 0 6.918 3.459 3.459 0 0 1 0-6.918zM180.654 159.556a3.459 3.459 0 1 1 0 6.918 3.459 3.459 0 0 1 0-6.918zM194.246 159.556a3.459 3.459 0 1 1-.001 6.917 3.459 3.459 0 0 1 .001-6.917zM207.815 159.556a3.459 3.459 0 1 1-.001 6.917 3.459 3.459 0 0 1 .001-6.917zM221.406 159.556a3.46 3.46 0 1 1 0 6.919 3.46 3.46 0 0 1 0-6.919zM234.997 159.556a3.46 3.46 0 1 1 0 6.919 3.46 3.46 0 0 1 0-6.919zM248.566 159.556a3.46 3.46 0 1 1 0 6.919 3.46 3.46 0 0 1 0-6.919zM262.157 159.556a3.46 3.46 0 1 1 0 6.919 3.46 3.46 0 0 1 0-6.919zM275.749 159.556a3.459 3.459 0 1 1-.001 6.917 3.459 3.459 0 0 1 .001-6.917zM289.317 159.556a3.459 3.459 0 1 1 0 6.918 3.459 3.459 0 0 1 0-6.918zM302.909 159.556a3.46 3.46 0 1 1 0 6.919 3.46 3.46 0 0 1 0-6.919zM316.5 159.556a3.46 3.46 0 1 1 0 6.919 3.46 3.46 0 0 1 0-6.919zM330.069 159.556a3.46 3.46 0 1 1 0 6.919 3.46 3.46 0 0 1 0-6.919zM343.66 159.556a3.46 3.46 0 1 1 0 6.919 3.46 3.46 0 0 1 0-6.919zM357.251 159.556a3.459 3.459 0 1 1 0 6.918 3.459 3.459 0 0 1 0-6.918zM370.82 159.556a3.459 3.459 0 1 1 0 6.918 3.459 3.459 0 0 1 0-6.918zM384.412 159.556a3.459 3.459 0 1 1-.001 6.917 3.459 3.459 0 0 1 .001-6.917zM398.003 159.556a3.46 3.46 0 1 1 0 6.919 3.46 3.46 0 0 1 0-6.919zM411.572 159.556a3.46 3.46 0 1 1 0 6.919 3.46 3.46 0 0 1 0-6.919zM425.163 159.556a3.46 3.46 0 1 1 0 6.919 3.46 3.46 0 0 1 0-6.919zM438.754 159.556a3.459 3.459 0 1 1 0 6.918 3.459 3.459 0 0 1 0-6.918zM452.323 159.556a3.46 3.46 0 1 1 0 6.919 3.46 3.46 0 0 1 0-6.919zM465.915 159.556a3.459 3.459 0 1 1-.001 6.917 3.459 3.459 0 0 1 .001-6.917zM479.483 159.556a3.459 3.459 0 1 1 0 6.918 3.459 3.459 0 0 1 0-6.918zM493.075 159.556a3.46 3.46 0 1 1 0 6.919 3.46 3.46 0 0 1 0-6.919zM506.666 159.556a3.46 3.46 0 1 1 0 6.919 3.46 3.46 0 0 1 0-6.919zM520.235 159.556a3.46 3.46 0 1 1 0 6.919 3.46 3.46 0 0 1 0-6.919zM533.826 159.556a3.46 3.46 0 1 1 0 6.919 3.46 3.46 0 0 1 0-6.919zM547.417 159.556a3.459 3.459 0 1 1 0 6.918 3.459 3.459 0 0 1 0-6.918zM560.986 159.556a3.459 3.459 0 1 1 0 6.918 3.459 3.459 0 0 1 0-6.918zM574.578 159.556a3.46 3.46 0 1 1 0 6.919 3.46 3.46 0 0 1 0-6.919zM588.169 159.556a3.46 3.46 0 1 1 0 6.919 3.46 3.46 0 0 1 0-6.919zM601.738 159.556a3.46 3.46 0 1 1 0 6.919 3.46 3.46 0 0 1 0-6.919zM615.329 159.556a3.46 3.46 0 1 1 0 6.919 3.46 3.46 0 0 1 0-6.919zM628.92 159.556a3.459 3.459 0 1 1 0 6.918 3.459 3.459 0 0 1 0-6.918zM4.08 146.299a3.126 3.126 0 1 1 0 6.251 3.126 3.126 0 0 1 0-6.251zM17.649 146.299a3.126 3.126 0 1 1 0 6.252 3.126 3.126 0 0 1 0-6.252zM31.24 146.299a3.126 3.126 0 1 1 0 6.251 3.126 3.126 0 0 1 0-6.251zM44.831 146.299a3.126 3.126 0 1 1 0 6.252 3.126 3.126 0 0 1 0-6.252zM58.4 146.299a3.126 3.126 0 1 1 0 6.252 3.126 3.126 0 0 1 0-6.252zM71.991 146.299a3.126 3.126 0 1 1 .001 6.251 3.126 3.126 0 0 1 0-6.251zM85.582 146.299a3.126 3.126 0 1 1 .001 6.251 3.126 3.126 0 0 1 0-6.251zM99.152 146.299a3.126 3.126 0 1 1 0 6.252 3.126 3.126 0 0 1 0-6.252zM112.743 146.299a3.126 3.126 0 1 1 0 6.252 3.126 3.126 0 0 1 0-6.252zM126.334 146.299a3.125 3.125 0 1 1 .001 6.25 3.125 3.125 0 0 1-.001-6.25zM139.903 146.299a3.126 3.126 0 1 1 0 6.252 3.126 3.126 0 0 1 0-6.252zM153.494 146.299a3.125 3.125 0 1 1 .001 6.25 3.125 3.125 0 0 1-.001-6.25zM167.085 146.299a3.126 3.126 0 1 1 .002 6.252 3.126 3.126 0 0 1-.002-6.252zM180.655 146.299a3.126 3.126 0 1 1 0 6.252 3.126 3.126 0 0 1 0-6.252zM194.246 146.299a3.126 3.126 0 1 1 0 6.252 3.126 3.126 0 0 1 0-6.252zM207.815 146.299a3.126 3.126 0 1 1 0 6.252 3.126 3.126 0 0 1 0-6.252zM221.406 146.299a3.126 3.126 0 1 1 0 6.252 3.126 3.126 0 0 1 0-6.252zM234.997 146.299a3.125 3.125 0 1 1 .001 6.25 3.125 3.125 0 0 1-.001-6.25zM248.566 146.299a3.125 3.125 0 1 1 .001 6.25 3.125 3.125 0 0 1-.001-6.25zM262.157 146.299a3.126 3.126 0 1 1 .002 6.252 3.126 3.126 0 0 1-.002-6.252zM275.748 146.299a3.126 3.126 0 1 1 .002 6.252 3.126 3.126 0 0 1-.002-6.252zM289.318 146.299a3.126 3.126 0 1 1 0 6.252 3.126 3.126 0 0 1 0-6.252zM302.909 146.299a3.126 3.126 0 1 1 0 6.252 3.126 3.126 0 0 1 0-6.252zM316.5 146.299a3.125 3.125 0 1 1 .001 6.25 3.125 3.125 0 0 1-.001-6.25zM330.069 146.299a3.126 3.126 0 1 1 0 6.252 3.126 3.126 0 0 1 0-6.252zM343.66 146.299a3.125 3.125 0 1 1 .001 6.25 3.125 3.125 0 0 1-.001-6.25zM357.251 146.299a3.126 3.126 0 1 1 .002 6.252 3.126 3.126 0 0 1-.002-6.252zM370.821 146.299a3.126 3.126 0 1 1 0 6.252 3.126 3.126 0 0 1 0-6.252zM384.412 146.299a3.126 3.126 0 1 1 0 6.252 3.126 3.126 0 0 1 0-6.252zM398.003 146.299a3.126 3.126 0 1 1 0 6.252 3.126 3.126 0 0 1 0-6.252zM411.572 146.299a3.126 3.126 0 1 1 0 6.252 3.126 3.126 0 0 1 0-6.252zM425.163 146.299a3.125 3.125 0 1 1 .001 6.25 3.125 3.125 0 0 1-.001-6.25zM438.754 146.299a3.125 3.125 0 1 1 .001 6.25 3.125 3.125 0 0 1-.001-6.25zM452.323 146.299a3.126 3.126 0 1 1 .002 6.252 3.126 3.126 0 0 1-.002-6.252zM465.914 146.299a3.126 3.126 0 1 1 .002 6.252 3.126 3.126 0 0 1-.002-6.252zM479.484 146.299a3.126 3.126 0 1 1 0 6.252 3.126 3.126 0 0 1 0-6.252zM493.075 146.299a3.126 3.126 0 1 1 0 6.252 3.126 3.126 0 0 1 0-6.252zM506.666 146.299a3.125 3.125 0 1 1 .001 6.25 3.125 3.125 0 0 1-.001-6.25zM520.235 146.299a3.125 3.125 0 1 1 .001 6.25 3.125 3.125 0 0 1-.001-6.25zM533.826 146.299a3.126 3.126 0 1 1 .002 6.252 3.126 3.126 0 0 1-.002-6.252zM547.417 146.299a3.126 3.126 0 1 1 .002 6.252 3.126 3.126 0 0 1-.002-6.252zM560.987 146.299a3.126 3.126 0 1 1 0 6.252 3.126 3.126 0 0 1 0-6.252zM574.578 146.299a3.126 3.126 0 1 1 0 6.252 3.126 3.126 0 0 1 0-6.252zM588.169 146.299a3.125 3.125 0 1 1 .001 6.25 3.125 3.125 0 0 1-.001-6.25zM601.738 146.299a3.126 3.126 0 1 1 0 6.252 3.126 3.126 0 0 1 0-6.252zM615.329 146.299a3.126 3.126 0 1 1 .002 6.252 3.126 3.126 0 0 1-.002-6.252zM628.92 146.299a3.126 3.126 0 1 1 .002 6.252 3.126 3.126 0 0 1-.002-6.252zM4.08 133.063a2.794 2.794 0 1 1 0 5.588 2.794 2.794 0 0 1 0-5.588zM17.649 133.063a2.794 2.794 0 1 1-.001 5.588 2.794 2.794 0 0 1 0-5.588zM31.24 133.063a2.794 2.794 0 1 1 0 5.588 2.794 2.794 0 0 1 0-5.588zM44.831 133.063a2.794 2.794 0 1 1 0 5.588 2.794 2.794 0 0 1 0-5.588zM58.4 133.063a2.794 2.794 0 1 1 0 5.588 2.794 2.794 0 0 1 0-5.588zM71.991 133.063a2.794 2.794 0 1 1 0 5.588 2.794 2.794 0 0 1 0-5.588zM85.583 133.063a2.794 2.794 0 1 1-.001 5.588 2.794 2.794 0 0 1 0-5.588zM99.151 133.063a2.794 2.794 0 1 1 0 5.588 2.794 2.794 0 0 1 0-5.588zM112.743 133.063a2.793 2.793 0 1 1 0 5.587 2.793 2.793 0 0 1 0-5.587zM126.334 133.063a2.794 2.794 0 1 1 0 5.588 2.794 2.794 0 0 1 0-5.588zM139.903 133.063a2.794 2.794 0 1 1 0 5.588 2.794 2.794 0 0 1 0-5.588zM153.494 133.063a2.794 2.794 0 1 1 0 5.588 2.794 2.794 0 0 1 0-5.588zM167.085 133.063a2.794 2.794 0 1 1 0 5.588 2.794 2.794 0 0 1 0-5.588zM180.654 133.063a2.794 2.794 0 1 1 0 5.588 2.794 2.794 0 0 1 0-5.588zM194.246 133.063a2.793 2.793 0 1 1 0 5.587 2.793 2.793 0 0 1 0-5.587zM207.815 133.063a2.794 2.794 0 1 1-.002 5.588 2.794 2.794 0 0 1 .002-5.588zM221.406 133.063a2.794 2.794 0 1 1 0 5.588 2.794 2.794 0 0 1 0-5.588zM234.997 133.063a2.794 2.794 0 1 1 0 5.588 2.794 2.794 0 0 1 0-5.588zM248.566 133.063a2.794 2.794 0 1 1 0 5.588 2.794 2.794 0 0 1 0-5.588zM262.157 133.063a2.794 2.794 0 1 1 0 5.588 2.794 2.794 0 0 1 0-5.588zM275.749 133.063a2.793 2.793 0 1 1 0 5.587 2.793 2.793 0 0 1 0-5.587zM289.318 133.063a2.794 2.794 0 1 1-.002 5.588 2.794 2.794 0 0 1 .002-5.588zM302.909 133.063a2.794 2.794 0 1 1 0 5.588 2.794 2.794 0 0 1 0-5.588zM316.5 133.063a2.794 2.794 0 1 1 0 5.588 2.794 2.794 0 0 1 0-5.588zM330.069 133.063a2.794 2.794 0 1 1 0 5.588 2.794 2.794 0 0 1 0-5.588zM343.66 133.063a2.794 2.794 0 1 1 0 5.588 2.794 2.794 0 0 1 0-5.588zM357.252 133.063a2.794 2.794 0 1 1-.002 5.588 2.794 2.794 0 0 1 .002-5.588zM370.82 133.063a2.794 2.794 0 1 1 0 5.588 2.794 2.794 0 0 1 0-5.588zM384.412 133.063a2.793 2.793 0 1 1 0 5.587 2.793 2.793 0 0 1 0-5.587zM398.003 133.063a2.794 2.794 0 1 1 0 5.588 2.794 2.794 0 0 1 0-5.588zM411.572 133.063a2.794 2.794 0 1 1 0 5.588 2.794 2.794 0 0 1 0-5.588zM425.163 133.063a2.794 2.794 0 1 1 0 5.588 2.794 2.794 0 0 1 0-5.588zM438.754 133.063a2.794 2.794 0 1 1 0 5.588 2.794 2.794 0 0 1 0-5.588zM452.323 133.063a2.794 2.794 0 1 1 0 5.588 2.794 2.794 0 0 1 0-5.588zM465.914 133.063a2.794 2.794 0 1 1 0 5.588 2.794 2.794 0 0 1 0-5.588zM479.484 133.063a2.794 2.794 0 1 1-.002 5.588 2.794 2.794 0 0 1 .002-5.588zM493.075 133.063a2.794 2.794 0 1 1-.002 5.588 2.794 2.794 0 0 1 .002-5.588zM506.666 133.063a2.794 2.794 0 1 1 0 5.588 2.794 2.794 0 0 1 0-5.588zM520.235 133.063a2.794 2.794 0 1 1 0 5.588 2.794 2.794 0 0 1 0-5.588zM533.826 133.063a2.794 2.794 0 1 1 0 5.588 2.794 2.794 0 0 1 0-5.588zM547.417 133.063a2.794 2.794 0 1 1 0 5.588 2.794 2.794 0 0 1 0-5.588zM560.987 133.063a2.794 2.794 0 1 1-.002 5.588 2.794 2.794 0 0 1 .002-5.588zM574.578 133.063a2.793 2.793 0 1 1 0 5.587 2.793 2.793 0 0 1 0-5.587zM588.169 133.063a2.794 2.794 0 1 1 0 5.588 2.794 2.794 0 0 1 0-5.588zM601.738 133.063a2.794 2.794 0 1 1 0 5.588 2.794 2.794 0 0 1 0-5.588zM615.329 133.063a2.794 2.794 0 1 1 0 5.588 2.794 2.794 0 0 1 0-5.588zM628.92 133.063a2.794 2.794 0 1 1 0 5.588 2.794 2.794 0 0 1 0-5.588zM4.08 119.783a2.484 2.484 0 1 1-.001 4.967 2.484 2.484 0 0 1 0-4.967zM17.649 119.783a2.483 2.483 0 1 1 0 4.967 2.483 2.483 0 0 1 0-4.967zM31.24 119.783a2.484 2.484 0 1 1 0 4.967 2.484 2.484 0 0 1 0-4.967zM44.831 119.783a2.484 2.484 0 1 1 0 4.967 2.484 2.484 0 0 1 0-4.967zM58.4 119.783a2.484 2.484 0 1 1 0 4.967 2.484 2.484 0 0 1 0-4.967zM71.991 119.783a2.484 2.484 0 1 1 0 4.967 2.484 2.484 0 0 1 0-4.967zM85.582 119.783a2.484 2.484 0 1 1 0 4.967 2.484 2.484 0 0 1 0-4.967zM99.152 119.783a2.484 2.484 0 1 1-.001 4.967 2.484 2.484 0 0 1 0-4.967zM112.743 119.783a2.484 2.484 0 1 1-.001 4.967 2.484 2.484 0 0 1 .001-4.967zM126.334 119.783a2.484 2.484 0 1 1-.001 4.967 2.484 2.484 0 0 1 .001-4.967zM139.903 119.783a2.484 2.484 0 1 1-.001 4.967 2.484 2.484 0 0 1 .001-4.967zM153.494 119.783a2.483 2.483 0 1 1 0 4.966 2.483 2.483 0 0 1 0-4.966zM167.085 119.783a2.484 2.484 0 1 1 0 4.968 2.484 2.484 0 0 1 0-4.968zM180.655 119.783a2.484 2.484 0 1 1-.001 4.967 2.484 2.484 0 0 1 .001-4.967zM194.246 119.783a2.484 2.484 0 1 1-.001 4.967 2.484 2.484 0 0 1 .001-4.967zM207.815 119.783a2.484 2.484 0 1 1-.001 4.967 2.484 2.484 0 0 1 .001-4.967zM221.406 119.783a2.484 2.484 0 1 1-.001 4.967 2.484 2.484 0 0 1 .001-4.967zM234.997 119.783a2.483 2.483 0 1 1 0 4.966 2.483 2.483 0 0 1 0-4.966zM248.566 119.783a2.483 2.483 0 1 1 0 4.966 2.483 2.483 0 0 1 0-4.966zM262.157 119.783a2.484 2.484 0 1 1 0 4.968 2.484 2.484 0 0 1 0-4.968zM275.749 119.783a2.484 2.484 0 1 1-.001 4.967 2.484 2.484 0 0 1 .001-4.967zM289.318 119.783a2.484 2.484 0 1 1-.001 4.967 2.484 2.484 0 0 1 .001-4.967zM302.909 119.783a2.484 2.484 0 1 1-.001 4.967 2.484 2.484 0 0 1 .001-4.967zM316.5 119.783a2.484 2.484 0 1 1-.001 4.967 2.484 2.484 0 0 1 .001-4.967zM330.069 119.783a2.484 2.484 0 1 1-.001 4.967 2.484 2.484 0 0 1 .001-4.967zM343.66 119.783a2.484 2.484 0 1 1-.001 4.967 2.484 2.484 0 0 1 .001-4.967zM357.251 119.783a2.484 2.484 0 1 1 0 4.968 2.484 2.484 0 0 1 0-4.968zM370.82 119.783a2.484 2.484 0 1 1 0 4.968 2.484 2.484 0 0 1 0-4.968zM384.412 119.783a2.484 2.484 0 1 1-.001 4.967 2.484 2.484 0 0 1 .001-4.967zM398.003 119.783a2.484 2.484 0 1 1-.001 4.967 2.484 2.484 0 0 1 .001-4.967zM411.572 119.783a2.484 2.484 0 1 1-.001 4.967 2.484 2.484 0 0 1 .001-4.967zM425.163 119.783a2.484 2.484 0 1 1-.001 4.967 2.484 2.484 0 0 1 .001-4.967zM438.754 119.783a2.484 2.484 0 1 1 0 4.968 2.484 2.484 0 0 1 0-4.968zM452.323 119.783a2.483 2.483 0 1 1 0 4.966 2.483 2.483 0 0 1 0-4.966zM465.915 119.783a2.484 2.484 0 1 1-.001 4.967 2.484 2.484 0 0 1 .001-4.967zM479.483 119.783a2.484 2.484 0 1 1 0 4.968 2.484 2.484 0 0 1 0-4.968zM493.075 119.783a2.484 2.484 0 1 1-.001 4.967 2.484 2.484 0 0 1 .001-4.967zM506.666 119.783a2.484 2.484 0 1 1-.001 4.967 2.484 2.484 0 0 1 .001-4.967zM520.235 119.783a2.483 2.483 0 1 1 0 4.966 2.483 2.483 0 0 1 0-4.966zM533.826 119.783a2.483 2.483 0 1 1 0 4.966 2.483 2.483 0 0 1 0-4.966zM547.417 119.783a2.484 2.484 0 1 1 0 4.968 2.484 2.484 0 0 1 0-4.968zM560.986 119.783a2.484 2.484 0 1 1 0 4.968 2.484 2.484 0 0 1 0-4.968zM574.578 119.783a2.484 2.484 0 1 1-.001 4.967 2.484 2.484 0 0 1 .001-4.967zM588.169 119.783a2.484 2.484 0 1 1-.001 4.967 2.484 2.484 0 0 1 .001-4.967zM601.738 119.783a2.484 2.484 0 1 1-.001 4.967 2.484 2.484 0 0 1 .001-4.967zM615.329 119.783a2.484 2.484 0 1 1-.001 4.967 2.484 2.484 0 0 1 .001-4.967zM628.92 119.783a2.484 2.484 0 1 1 0 4.968 2.484 2.484 0 0 1 0-4.968zM4.08 106.504a2.172 2.172 0 1 1 .001 4.344 2.172 2.172 0 0 1-.001-4.344zM17.649 106.504a2.172 2.172 0 1 1 .001 4.344 2.172 2.172 0 0 1-.001-4.344zM31.24 106.504a2.172 2.172 0 1 1 .001 4.344 2.172 2.172 0 0 1-.001-4.344zM44.831 106.504a2.172 2.172 0 1 1 .001 4.344 2.172 2.172 0 0 1-.001-4.344zM58.4 106.504a2.172 2.172 0 1 1 .002 4.344 2.172 2.172 0 0 1-.002-4.344zM71.991 106.504a2.172 2.172 0 1 1 .002 4.344 2.172 2.172 0 0 1-.002-4.344zM85.583 106.504a2.172 2.172 0 1 1 .001 4.344 2.172 2.172 0 0 1-.001-4.344zM99.151 106.504a2.172 2.172 0 1 1 0 4.345 2.173 2.173 0 0 1 0-4.345zM112.743 106.504a2.172 2.172 0 1 1 .001 4.345 2.172 2.172 0 0 1-.001-4.345zM126.334 106.504a2.172 2.172 0 1 1 .001 4.345 2.172 2.172 0 0 1-.001-4.345zM139.903 106.504a2.172 2.172 0 1 1 .001 4.345 2.172 2.172 0 0 1-.001-4.345zM153.494 106.504a2.172 2.172 0 1 1 .001 4.345 2.172 2.172 0 0 1-.001-4.345zM167.085 106.504a2.172 2.172 0 1 1 .001 4.345 2.172 2.172 0 0 1-.001-4.345zM180.654 106.504a2.172 2.172 0 1 1 .001 4.345 2.172 2.172 0 0 1-.001-4.345zM194.245 106.504a2.172 2.172 0 1 1 0 4.345 2.172 2.172 0 0 1 0-4.345zM207.815 106.504a2.171 2.171 0 1 1 0 4.345 2.173 2.173 0 0 1 0-4.345zM221.406 106.504a2.172 2.172 0 1 1 .001 4.345 2.172 2.172 0 0 1-.001-4.345zM234.997 106.504a2.172 2.172 0 1 1 .001 4.345 2.172 2.172 0 0 1-.001-4.345zM248.566 106.504a2.172 2.172 0 1 1 .001 4.345 2.172 2.172 0 0 1-.001-4.345zM262.157 106.504a2.172 2.172 0 1 1 .001 4.345 2.172 2.172 0 0 1-.001-4.345zM275.748 106.504a2.172 2.172 0 1 1 .001 4.345 2.172 2.172 0 0 1-.001-4.345zM289.318 106.504a2.171 2.171 0 1 1 0 4.345 2.173 2.173 0 0 1 0-4.345zM302.909 106.504a2.171 2.171 0 1 1 0 4.345 2.173 2.173 0 0 1 0-4.345zM316.5 106.504a2.172 2.172 0 1 1 .001 4.345 2.172 2.172 0 0 1-.001-4.345zM330.069 106.504a2.172 2.172 0 1 1 .001 4.345 2.172 2.172 0 0 1-.001-4.345zM343.66 106.504a2.172 2.172 0 1 1 .001 4.345 2.172 2.172 0 0 1-.001-4.345zM357.251 106.504a2.172 2.172 0 1 1 .001 4.345 2.172 2.172 0 0 1-.001-4.345zM370.82 106.504a2.172 2.172 0 1 1 .001 4.345 2.172 2.172 0 0 1-.001-4.345zM384.412 106.504a2.171 2.171 0 1 1 0 4.345 2.173 2.173 0 0 1 0-4.345zM398.003 106.504a2.172 2.172 0 1 1 .001 4.345 2.172 2.172 0 0 1-.001-4.345zM411.572 106.504a2.172 2.172 0 1 1 .001 4.345 2.172 2.172 0 0 1-.001-4.345zM425.163 106.504a2.172 2.172 0 1 1 .001 4.345 2.172 2.172 0 0 1-.001-4.345zM438.754 106.504a2.172 2.172 0 1 1 .001 4.345 2.172 2.172 0 0 1-.001-4.345zM452.323 106.504a2.172 2.172 0 1 1 .001 4.345 2.172 2.172 0 0 1-.001-4.345zM465.914 106.504a2.172 2.172 0 1 1 .001 4.345 2.172 2.172 0 0 1-.001-4.345zM479.484 106.504a2.171 2.171 0 1 1 0 4.345 2.173 2.173 0 0 1 0-4.345zM493.075 106.504a2.171 2.171 0 1 1 0 4.345 2.173 2.173 0 0 1 0-4.345zM506.666 106.504a2.172 2.172 0 1 1 .001 4.345 2.172 2.172 0 0 1-.001-4.345zM520.235 106.504a2.172 2.172 0 1 1 .001 4.345 2.172 2.172 0 0 1-.001-4.345zM533.826 106.504a2.172 2.172 0 1 1 .001 4.345 2.172 2.172 0 0 1-.001-4.345zM547.417 106.504a2.172 2.172 0 1 1 .001 4.345 2.172 2.172 0 0 1-.001-4.345zM560.987 106.504a2.171 2.171 0 1 1 0 4.345 2.173 2.173 0 0 1 0-4.345zM574.578 106.504a2.171 2.171 0 1 1 0 4.345 2.173 2.173 0 0 1 0-4.345zM588.169 106.504a2.172 2.172 0 1 1 .001 4.345 2.172 2.172 0 0 1-.001-4.345zM601.738 106.504a2.172 2.172 0 1 1 .001 4.345 2.172 2.172 0 0 1-.001-4.345zM615.329 106.504a2.172 2.172 0 1 1 .001 4.345 2.172 2.172 0 0 1-.001-4.345zM628.92 106.504a2.172 2.172 0 1 1 .001 4.345 2.172 2.172 0 0 1-.001-4.345zM4.08 93.246a1.862 1.862 0 1 1 0 3.725 1.862 1.862 0 0 1 0-3.725zM17.649 93.246a1.862 1.862 0 1 1 0 3.725 1.862 1.862 0 0 1 0-3.725zM31.24 93.246a1.862 1.862 0 1 1 0 3.725 1.862 1.862 0 0 1 0-3.725zM44.83 93.246a1.862 1.862 0 1 1 .001 3.725 1.862 1.862 0 0 1 0-3.725zM58.4 93.246a1.862 1.862 0 1 1 0 3.725 1.862 1.862 0 0 1 0-3.725zM71.991 93.246a1.862 1.862 0 1 1 0 3.725 1.862 1.862 0 0 1 0-3.725zM85.582 93.246a1.862 1.862 0 1 1 0 3.725 1.862 1.862 0 0 1 0-3.725zM99.151 93.246a1.863 1.863 0 1 1 0 3.725 1.863 1.863 0 0 1 0-3.725zM112.743 93.246a1.862 1.862 0 1 1 0 3.725 1.862 1.862 0 0 1 0-3.725zM126.334 93.246a1.862 1.862 0 1 1 0 3.725 1.862 1.862 0 0 1 0-3.725zM139.903 93.246a1.862 1.862 0 1 1 0 3.724 1.862 1.862 0 0 1 0-3.724zM153.494 93.246a1.862 1.862 0 1 1 0 3.724 1.862 1.862 0 0 1 0-3.724zM167.085 93.246a1.863 1.863 0 1 1 0 3.725 1.863 1.863 0 0 1 0-3.725zM180.654 93.246a1.863 1.863 0 1 1 0 3.725 1.863 1.863 0 0 1 0-3.725zM194.246 93.246a1.862 1.862 0 1 1 0 3.725 1.862 1.862 0 0 1 0-3.725zM207.815 93.246a1.862 1.862 0 1 1 0 3.725 1.862 1.862 0 0 1 0-3.725zM221.406 93.246a1.862 1.862 0 1 1 0 3.725 1.862 1.862 0 0 1 0-3.725zM234.997 93.246a1.862 1.862 0 1 1 0 3.725 1.862 1.862 0 0 1 0-3.725zM248.566 93.246a1.863 1.863 0 1 1 0 3.725 1.863 1.863 0 0 1 0-3.725zM262.157 93.246a1.863 1.863 0 1 1 0 3.725 1.863 1.863 0 0 1 0-3.725zM275.749 93.246a1.862 1.862 0 1 1 0 3.725 1.862 1.862 0 0 1 0-3.725zM289.317 93.246a1.863 1.863 0 1 1 0 3.725 1.863 1.863 0 0 1 0-3.725zM302.909 93.246a1.862 1.862 0 1 1 0 3.725 1.862 1.862 0 0 1 0-3.725zM316.5 93.246a1.862 1.862 0 1 1 0 3.725 1.862 1.862 0 0 1 0-3.725zM330.069 93.246a1.862 1.862 0 1 1 0 3.724 1.862 1.862 0 0 1 0-3.724zM343.66 93.246a1.863 1.863 0 1 1 0 3.725 1.863 1.863 0 0 1 0-3.725zM357.251 93.246a1.863 1.863 0 1 1 0 3.725 1.863 1.863 0 0 1 0-3.725zM370.82 93.246a1.863 1.863 0 1 1 0 3.725 1.863 1.863 0 0 1 0-3.725zM384.412 93.246a1.862 1.862 0 1 1 0 3.725 1.862 1.862 0 0 1 0-3.725zM398.003 93.246a1.862 1.862 0 1 1 0 3.725 1.862 1.862 0 0 1 0-3.725zM411.572 93.246a1.862 1.862 0 1 1 0 3.724 1.862 1.862 0 0 1 0-3.724zM425.163 93.246a1.862 1.862 0 1 1 0 3.724 1.862 1.862 0 0 1 0-3.724zM438.754 93.246a1.863 1.863 0 1 1 0 3.725 1.863 1.863 0 0 1 0-3.725zM452.323 93.246a1.863 1.863 0 1 1 0 3.725 1.863 1.863 0 0 1 0-3.725zM465.915 93.246a1.862 1.862 0 1 1 0 3.725 1.862 1.862 0 0 1 0-3.725zM479.483 93.246a1.863 1.863 0 1 1 0 3.725 1.863 1.863 0 0 1 0-3.725zM493.075 93.246a1.862 1.862 0 1 1 0 3.725 1.862 1.862 0 0 1 0-3.725zM506.666 93.246a1.862 1.862 0 1 1 0 3.724 1.862 1.862 0 0 1 0-3.724zM520.235 93.246a1.862 1.862 0 1 1 0 3.724 1.862 1.862 0 0 1 0-3.724zM533.826 93.246a1.863 1.863 0 1 1 0 3.725 1.863 1.863 0 0 1 0-3.725zM547.417 93.246a1.863 1.863 0 1 1 0 3.725 1.863 1.863 0 0 1 0-3.725zM560.986 93.246a1.863 1.863 0 1 1 0 3.725 1.863 1.863 0 0 1 0-3.725zM574.578 93.246a1.862 1.862 0 1 1 0 3.725 1.862 1.862 0 0 1 0-3.725zM588.169 93.246a1.862 1.862 0 1 1 0 3.725 1.862 1.862 0 0 1 0-3.725zM601.738 93.246a1.862 1.862 0 1 1 0 3.724 1.862 1.862 0 0 1 0-3.724zM615.329 93.246a1.862 1.862 0 1 1 0 3.724 1.862 1.862 0 0 1 0-3.724zM628.92 93.246a1.863 1.863 0 1 1 0 3.725 1.863 1.863 0 0 1 0-3.725zM4.08 79.944a1.574 1.574 0 1 1 0 3.148 1.574 1.574 0 0 1 0-3.148zM17.649 79.944a1.574 1.574 0 1 1 0 3.149 1.574 1.574 0 0 1 0-3.149zM31.24 79.944a1.574 1.574 0 1 1 0 3.149 1.574 1.574 0 0 1 0-3.149zM44.831 79.944a1.574 1.574 0 1 1 0 3.149 1.574 1.574 0 0 1 0-3.149zM58.4 79.944a1.574 1.574 0 1 1 0 3.149 1.574 1.574 0 0 1 0-3.149zM71.991 79.944a1.574 1.574 0 1 1 0 3.149 1.574 1.574 0 0 1 0-3.149zM85.582 79.944a1.574 1.574 0 1 1 0 3.148 1.574 1.574 0 0 1 0-3.148zM99.151 79.944a1.574 1.574 0 1 1 0 3.149 1.574 1.574 0 0 1 0-3.149zM112.743 79.944a1.574 1.574 0 1 1 0 3.149 1.574 1.574 0 0 1 0-3.149zM126.334 79.944a1.574 1.574 0 1 1 0 3.149 1.574 1.574 0 0 1 0-3.149zM139.903 79.944a1.574 1.574 0 1 1 0 3.149 1.574 1.574 0 0 1 0-3.149zM153.494 79.944a1.574 1.574 0 1 1 0 3.147 1.574 1.574 0 0 1 0-3.147zM167.085 79.944a1.574 1.574 0 1 1 0 3.147 1.574 1.574 0 0 1 0-3.147zM180.654 79.944a1.574 1.574 0 1 1 .001 3.15 1.574 1.574 0 0 1-.001-3.15zM194.246 79.944a1.574 1.574 0 1 1 0 3.149 1.574 1.574 0 0 1 0-3.149zM207.815 79.944a1.574 1.574 0 1 1 0 3.149 1.574 1.574 0 0 1 0-3.149zM221.406 79.944a1.574 1.574 0 1 1 0 3.149 1.574 1.574 0 0 1 0-3.149zM234.997 79.944a1.574 1.574 0 1 1 0 3.149 1.574 1.574 0 0 1 0-3.149zM248.566 79.944a1.574 1.574 0 1 1 0 3.149 1.574 1.574 0 0 1 0-3.149zM262.157 79.944a1.574 1.574 0 1 1 .001 3.15 1.574 1.574 0 0 1-.001-3.15zM275.748 79.944a1.574 1.574 0 1 1 .001 3.15 1.574 1.574 0 0 1-.001-3.15zM289.318 79.944a1.574 1.574 0 1 1 0 3.149 1.574 1.574 0 0 1 0-3.149zM302.909 79.944a1.574 1.574 0 1 1 0 3.149 1.574 1.574 0 0 1 0-3.149zM316.5 79.944a1.574 1.574 0 1 1 0 3.149 1.574 1.574 0 0 1 0-3.149zM330.069 79.944a1.574 1.574 0 1 1 0 3.149 1.574 1.574 0 0 1 0-3.149zM343.66 79.944a1.574 1.574 0 1 1 0 3.147 1.574 1.574 0 0 1 0-3.147zM357.251 79.944a1.574 1.574 0 1 1 0 3.147 1.574 1.574 0 0 1 0-3.147zM370.82 79.944a1.574 1.574 0 1 1 .001 3.15 1.574 1.574 0 0 1-.001-3.15zM384.412 79.944a1.574 1.574 0 1 1 0 3.149 1.574 1.574 0 0 1 0-3.149zM398.003 79.944a1.574 1.574 0 1 1 0 3.149 1.574 1.574 0 0 1 0-3.149zM411.572 79.944a1.574 1.574 0 1 1 0 3.149 1.574 1.574 0 0 1 0-3.149zM425.163 79.944a1.574 1.574 0 1 1 0 3.147 1.574 1.574 0 0 1 0-3.147zM438.754 79.944a1.574 1.574 0 1 1 0 3.147 1.574 1.574 0 0 1 0-3.147zM452.323 79.944a1.574 1.574 0 1 1 .001 3.15 1.574 1.574 0 0 1-.001-3.15zM465.914 79.944a1.574 1.574 0 1 1 .001 3.15 1.574 1.574 0 0 1-.001-3.15zM479.484 79.944a1.574 1.574 0 1 1 0 3.149 1.574 1.574 0 0 1 0-3.149zM493.075 79.944a1.574 1.574 0 1 1 0 3.149 1.574 1.574 0 0 1 0-3.149zM506.666 79.944a1.574 1.574 0 1 1 0 3.149 1.574 1.574 0 0 1 0-3.149zM520.235 79.944a1.574 1.574 0 1 1 0 3.149 1.574 1.574 0 0 1 0-3.149zM533.826 79.944a1.574 1.574 0 1 1 0 3.147 1.574 1.574 0 0 1 0-3.147zM547.417 79.944a1.574 1.574 0 1 1 .001 3.15 1.574 1.574 0 0 1-.001-3.15zM560.987 79.944a1.574 1.574 0 1 1 0 3.149 1.574 1.574 0 0 1 0-3.149zM574.578 79.944a1.574 1.574 0 1 1 0 3.149 1.574 1.574 0 0 1 0-3.149zM588.169 79.944a1.574 1.574 0 1 1 0 3.149 1.574 1.574 0 0 1 0-3.149zM601.738 79.944a1.574 1.574 0 1 1 0 3.149 1.574 1.574 0 0 1 0-3.149zM615.329 79.944a1.574 1.574 0 1 1 0 3.147 1.574 1.574 0 0 1 0-3.147zM628.92 79.944a1.574 1.574 0 1 1 0 3.147 1.574 1.574 0 0 1 0-3.147zM4.08 66.642a1.286 1.286 0 1 1 0 2.572 1.286 1.286 0 0 1 0-2.572zM17.648 66.642a1.286 1.286 0 1 1 0 2.572 1.286 1.286 0 0 1 0-2.572zM31.24 66.642a1.286 1.286 0 1 1 0 2.572 1.286 1.286 0 0 1 0-2.572zM44.83 66.642a1.286 1.286 0 1 1 .001 2.572 1.286 1.286 0 0 1 0-2.572zM58.4 66.642a1.286 1.286 0 1 1 0 2.572 1.286 1.286 0 0 1 0-2.572zM71.991 66.642a1.286 1.286 0 1 1 0 2.572 1.286 1.286 0 0 1 0-2.572zM85.582 66.642a1.286 1.286 0 1 1 0 2.572 1.286 1.286 0 0 1 0-2.572zM99.151 66.642a1.286 1.286 0 1 1 0 2.572 1.286 1.286 0 0 1 0-2.572zM112.743 66.642a1.286 1.286 0 1 1 0 2.573 1.286 1.286 0 0 1 0-2.573zM126.334 66.642a1.286 1.286 0 1 1 0 2.573 1.286 1.286 0 0 1 0-2.573zM139.903 66.642a1.286 1.286 0 1 1 0 2.573 1.286 1.286 0 0 1 0-2.573zM153.494 66.642a1.286 1.286 0 1 1 0 2.573 1.286 1.286 0 0 1 0-2.573zM167.085 66.642a1.285 1.285 0 1 1 .001 2.571 1.285 1.285 0 0 1-.001-2.57zM180.654 66.642a1.285 1.285 0 1 1 .001 2.571 1.285 1.285 0 0 1-.001-2.57zM194.246 66.642a1.286 1.286 0 1 1 0 2.573 1.286 1.286 0 0 1 0-2.573zM207.815 66.642a1.285 1.285 0 1 1 0 2.57 1.285 1.285 0 0 1 0-2.57zM221.406 66.642a1.286 1.286 0 1 1 0 2.573 1.286 1.286 0 0 1 0-2.573zM234.997 66.642a1.286 1.286 0 1 1 0 2.573 1.286 1.286 0 0 1 0-2.573zM248.566 66.642a1.286 1.286 0 1 1 0 2.573 1.286 1.286 0 0 1 0-2.573zM262.157 66.642a1.286 1.286 0 1 1 0 2.573 1.286 1.286 0 0 1 0-2.573zM275.749 66.642a1.285 1.285 0 1 1 0 2.57 1.285 1.285 0 0 1 0-2.57zM289.317 66.642a1.285 1.285 0 1 1 .001 2.571 1.285 1.285 0 0 1-.001-2.57zM302.909 66.642a1.286 1.286 0 1 1 0 2.573 1.286 1.286 0 0 1 0-2.573zM316.5 66.642a1.286 1.286 0 1 1 0 2.573 1.286 1.286 0 0 1 0-2.573zM330.069 66.642a1.286 1.286 0 1 1 0 2.573 1.286 1.286 0 0 1 0-2.573zM343.66 66.642a1.286 1.286 0 1 1 0 2.573 1.286 1.286 0 0 1 0-2.573zM357.251 66.642a1.285 1.285 0 1 1 .001 2.571 1.285 1.285 0 0 1-.001-2.57zM370.82 66.642a1.285 1.285 0 1 1 .001 2.571 1.285 1.285 0 0 1-.001-2.57zM384.412 66.642a1.286 1.286 0 1 1 0 2.573 1.286 1.286 0 0 1 0-2.573zM398.003 66.642a1.286 1.286 0 1 1 0 2.573 1.286 1.286 0 0 1 0-2.573zM411.572 66.642a1.286 1.286 0 1 1 0 2.573 1.286 1.286 0 0 1 0-2.573zM425.163 66.642a1.286 1.286 0 1 1 0 2.573 1.286 1.286 0 0 1 0-2.573zM438.754 66.642a1.285 1.285 0 1 1 .001 2.571 1.285 1.285 0 0 1-.001-2.57zM452.323 66.642a1.286 1.286 0 1 1 0 2.573 1.286 1.286 0 0 1 0-2.573zM465.915 66.642a1.286 1.286 0 1 1 0 2.573 1.286 1.286 0 0 1 0-2.573zM479.483 66.642a1.285 1.285 0 1 1 .001 2.571 1.285 1.285 0 0 1-.001-2.57zM493.075 66.642a1.286 1.286 0 1 1 0 2.573 1.286 1.286 0 0 1 0-2.573zM506.666 66.642a1.286 1.286 0 1 1 0 2.573 1.286 1.286 0 0 1 0-2.573zM520.235 66.642a1.286 1.286 0 1 1 0 2.573 1.286 1.286 0 0 1 0-2.573zM533.826 66.642a1.286 1.286 0 1 1 0 2.573 1.286 1.286 0 0 1 0-2.573zM547.417 66.642a1.285 1.285 0 1 1 .001 2.571 1.285 1.285 0 0 1-.001-2.57zM560.986 66.642a1.285 1.285 0 1 1 .001 2.571 1.285 1.285 0 0 1-.001-2.57zM574.578 66.642a1.286 1.286 0 1 1 0 2.573 1.286 1.286 0 0 1 0-2.573zM588.169 66.642a1.286 1.286 0 1 1 0 2.573 1.286 1.286 0 0 1 0-2.573zM601.738 66.642a1.286 1.286 0 1 1 0 2.573 1.286 1.286 0 0 1 0-2.573zM615.329 66.642a1.286 1.286 0 1 1 0 2.573 1.286 1.286 0 0 1 0-2.573zM628.92 66.642a1.285 1.285 0 1 1 .001 2.571 1.285 1.285 0 0 1-.001-2.57zM4.08 53.363a.998.998 0 1 1 0 1.995.998.998 0 0 1 0-1.995zM17.649 53.363a.998.998 0 1 1 0 1.995.998.998 0 0 1 0-1.995zM31.24 53.363a.998.998 0 1 1 0 1.995.998.998 0 0 1 0-1.995zM44.831 53.363a.998.998 0 1 1 0 1.995.998.998 0 0 1 0-1.995zM58.4 53.363a.998.998 0 1 1 0 1.995.998.998 0 0 1 0-1.995zM71.991 53.363a.998.998 0 1 1 0 1.995.998.998 0 0 1 0-1.995zM85.582 53.363a.998.998 0 1 1 0 1.995.998.998 0 0 1 0-1.995zM99.151 53.363a.997.997 0 1 1 0 1.994.997.997 0 0 1 0-1.994zM112.743 53.363a.997.997 0 1 1 0 1.994.997.997 0 0 1 0-1.994zM126.334 53.363a.998.998 0 1 1 0 1.995.998.998 0 0 1 0-1.995zM139.903 53.363a.998.998 0 1 1 0 1.995.998.998 0 0 1 0-1.995zM153.494 53.363a.998.998 0 1 1 0 1.995.998.998 0 0 1 0-1.995zM167.085 53.363a.998.998 0 1 1 0 1.995.998.998 0 0 1 0-1.995zM180.654 53.363a.998.998 0 1 1 0 1.995.998.998 0 0 1 0-1.995zM194.246 53.363a.997.997 0 1 1 0 1.994.997.997 0 0 1 0-1.994zM207.815 53.363a.997.997 0 1 1 0 1.994.997.997 0 0 1 0-1.994zM221.406 53.363a.997.997 0 1 1 0 1.994.997.997 0 0 1 0-1.994zM234.997 53.363a.998.998 0 1 1 0 1.995.998.998 0 0 1 0-1.995zM248.566 53.363a.998.998 0 1 1 0 1.995.998.998 0 0 1 0-1.995zM262.157 53.363a.998.998 0 1 1 0 1.995.998.998 0 0 1 0-1.995zM275.748 53.363a.998.998 0 1 1 0 1.995.998.998 0 0 1 0-1.995zM289.318 53.363a.997.997 0 1 1 0 1.994.997.997 0 0 1 0-1.994zM302.909 53.363a.997.997 0 1 1 0 1.994.997.997 0 0 1 0-1.994zM316.5 53.363a.998.998 0 1 1 0 1.995.998.998 0 0 1 0-1.995zM330.069 53.363a.998.998 0 1 1 0 1.995.998.998 0 0 1 0-1.995zM343.66 53.363a.998.998 0 1 1 0 1.995.998.998 0 0 1 0-1.995zM357.251 53.363a.998.998 0 1 1 0 1.995.998.998 0 0 1 0-1.995zM370.82 53.363a.998.998 0 1 1 0 1.995.998.998 0 0 1 0-1.995zM384.412 53.363a.997.997 0 1 1 0 1.994.997.997 0 0 1 0-1.994zM398.003 53.363a.998.998 0 1 1 0 1.995.998.998 0 0 1 0-1.995zM411.572 53.363a.998.998 0 1 1 0 1.995.998.998 0 0 1 0-1.995zM425.163 53.363a.998.998 0 1 1 0 1.995.998.998 0 0 1 0-1.995zM438.754 53.363a.998.998 0 1 1 0 1.995.998.998 0 0 1 0-1.995zM452.323 53.363a.998.998 0 1 1 0 1.995.998.998 0 0 1 0-1.995zM465.914 53.363a.998.998 0 1 1 0 1.995.998.998 0 0 1 0-1.995zM479.484 53.363a.997.997 0 1 1 0 1.994.997.997 0 0 1 0-1.994zM493.075 53.363a.997.997 0 1 1 0 1.994.997.997 0 0 1 0-1.994zM506.666 53.363a.998.998 0 1 1 0 1.995.998.998 0 0 1 0-1.995zM520.235 53.363a.998.998 0 1 1 0 1.995.998.998 0 0 1 0-1.995zM533.826 53.363a.998.998 0 1 1 0 1.995.998.998 0 0 1 0-1.995zM547.417 53.363a.998.998 0 1 1 0 1.995.998.998 0 0 1 0-1.995zM560.987 53.363a.997.997 0 1 1 0 1.994.997.997 0 0 1 0-1.994zM574.578 53.363a.997.997 0 1 1 0 1.994.997.997 0 0 1 0-1.994zM588.169 53.363a.998.998 0 1 1 0 1.995.998.998 0 0 1 0-1.995zM601.738 53.363a.998.998 0 1 1 0 1.995.998.998 0 0 1 0-1.995zM615.329 53.363a.998.998 0 1 1 0 1.995.998.998 0 0 1 0-1.995zM628.92 53.363a.998.998 0 1 1 0 1.995.998.998 0 0 1 0-1.995zM4.08 40.06a.71.71 0 1 1 0 1.42.71.71 0 0 1 0-1.42zM17.648 40.06a.71.71 0 1 1 0 1.42.71.71 0 0 1 0-1.42zM31.24 40.06a.71.71 0 1 1 0 1.42.71.71 0 0 1 0-1.42zM44.83 40.06a.71.71 0 1 1 0 1.42.71.71 0 0 1 0-1.42zM58.4 40.06a.71.71 0 1 1 0 1.42.71.71 0 0 1 0-1.42zM71.991 40.06a.71.71 0 1 1 0 1.42.71.71 0 0 1 0-1.42zM85.582 40.06a.71.71 0 1 1 0 1.42.71.71 0 0 1 0-1.42zM99.151 40.06a.71.71 0 1 1 0 1.42.71.71 0 0 1 0-1.42zM112.743 40.06a.709.709 0 1 1 0 1.419.709.709 0 0 1 0-1.418zM126.334 40.06a.709.709 0 1 1 0 1.419.709.709 0 0 1 0-1.418zM139.903 40.06a.709.709 0 1 1 0 1.419.709.709 0 0 1 0-1.418zM153.494 40.06a.71.71 0 1 1 0 1.42.71.71 0 0 1 0-1.42zM167.085 40.06a.71.71 0 1 1 0 1.42.71.71 0 0 1 0-1.42zM180.654 40.06a.71.71 0 1 1 0 1.42.71.71 0 0 1 0-1.42zM194.246 40.06a.71.71 0 1 1-.001 1.42.71.71 0 0 1 .001-1.42zM207.815 40.06a.71.71 0 1 1-.001 1.42.71.71 0 0 1 .001-1.42zM221.406 40.06a.709.709 0 1 1 0 1.419.709.709 0 0 1 0-1.418zM234.997 40.06a.709.709 0 1 1 0 1.419.709.709 0 0 1 0-1.418zM248.566 40.06a.71.71 0 1 1 0 1.42.71.71 0 0 1 0-1.42zM262.157 40.06a.71.71 0 1 1 0 1.42.71.71 0 0 1 0-1.42zM275.749 40.06a.71.71 0 1 1-.001 1.42.71.71 0 0 1 .001-1.42zM289.317 40.06a.71.71 0 1 1 0 1.42.71.71 0 0 1 0-1.42zM302.909 40.06a.709.709 0 1 1 0 1.419.709.709 0 0 1 0-1.418zM316.5 40.06a.709.709 0 1 1 0 1.419.709.709 0 0 1 0-1.418zM330.069 40.06a.71.71 0 1 1 0 1.42.71.71 0 0 1 0-1.42zM343.66 40.06a.71.71 0 1 1 0 1.42.71.71 0 0 1 0-1.42zM357.251 40.06a.71.71 0 1 1 0 1.42.71.71 0 0 1 0-1.42zM370.82 40.06a.71.71 0 1 1 0 1.42.71.71 0 0 1 0-1.42zM384.412 40.06a.709.709 0 1 1 0 1.419.709.709 0 0 1 0-1.418zM398.003 40.06a.709.709 0 1 1 0 1.419.709.709 0 0 1 0-1.418zM411.572 40.06a.709.709 0 1 1 0 1.419.709.709 0 0 1 0-1.418zM425.163 40.06a.71.71 0 1 1 0 1.42.71.71 0 0 1 0-1.42zM438.754 40.06a.71.71 0 1 1 0 1.42.71.71 0 0 1 0-1.42zM452.323 40.06a.71.71 0 1 1 0 1.42.71.71 0 0 1 0-1.42zM465.915 40.06a.71.71 0 1 1-.001 1.42.71.71 0 0 1 .001-1.42zM479.483 40.06a.71.71 0 1 1 0 1.42.71.71 0 0 1 0-1.42zM493.075 40.06a.709.709 0 1 1 0 1.419.709.709 0 0 1 0-1.418zM506.666 40.06a.709.709 0 1 1 0 1.419.709.709 0 0 1 0-1.418zM520.235 40.06a.71.71 0 1 1 0 1.42.71.71 0 0 1 0-1.42zM533.826 40.06a.71.71 0 1 1 0 1.42.71.71 0 0 1 0-1.42zM547.417 40.06a.71.71 0 1 1 0 1.42.71.71 0 0 1 0-1.42zM560.986 40.06a.71.71 0 1 1 0 1.42.71.71 0 0 1 0-1.42zM574.578 40.06a.709.709 0 1 1 0 1.419.709.709 0 0 1 0-1.418zM588.169 40.06a.709.709 0 1 1 0 1.419.709.709 0 0 1 0-1.418zM601.738 40.06a.71.71 0 1 1 0 1.42.71.71 0 0 1 0-1.42zM615.329 40.06a.71.71 0 1 1 0 1.42.71.71 0 0 1 0-1.42zM628.92 40.06a.71.71 0 1 1 0 1.42.71.71 0 0 1 0-1.42zM4.08 26.715a.466.466 0 1 1 0 .93.466.466 0 0 1 0-.93zM17.649 26.715a.466.466 0 1 1 0 .93.466.466 0 0 1 0-.93zM31.24 26.715a.466.466 0 1 1 0 .93.466.466 0 0 1 0-.93zM44.831 26.715a.466.466 0 1 1 0 .93.466.466 0 0 1 0-.93zM58.4 26.715a.466.466 0 1 1 0 .93.466.466 0 0 1 0-.93zM71.991 26.715a.466.466 0 1 1 0 .93.466.466 0 0 1 0-.93zM85.582 26.715a.466.466 0 1 1 0 .93.466.466 0 0 1 0-.93zM99.151 26.715a.466.466 0 1 1 0 .93.466.466 0 0 1 0-.93zM112.743 26.715a.465.465 0 1 1 0 .93.465.465 0 0 1 0-.93zM126.334 26.715a.466.466 0 1 1 0 .932.466.466 0 0 1 0-.932zM139.903 26.715a.465.465 0 1 1 0 .93.465.465 0 0 1 0-.93zM153.494 26.715a.466.466 0 1 1 0 .932.466.466 0 0 1 0-.932zM167.085 26.715a.466.466 0 1 1 0 .932.466.466 0 0 1 0-.932zM180.654 26.715a.465.465 0 1 1 .001.93.465.465 0 0 1-.001-.93zM194.245 26.715a.465.465 0 1 1 .001.93.465.465 0 0 1-.001-.93zM207.815 26.715a.465.465 0 1 1 0 .93.465.465 0 0 1 0-.93zM221.406 26.715a.465.465 0 1 1 0 .93.465.465 0 0 1 0-.93zM234.997 26.715a.466.466 0 1 1 0 .932.466.466 0 0 1 0-.932zM248.566 26.715a.466.466 0 1 1 0 .932.466.466 0 0 1 0-.932zM262.157 26.715a.466.466 0 1 1 0 .932.466.466 0 0 1 0-.932zM275.748 26.715a.465.465 0 1 1 .001.93.465.465 0 0 1-.001-.93zM289.318 26.715a.465.465 0 1 1 0 .93.465.465 0 0 1 0-.93zM302.909 26.715a.465.465 0 1 1 0 .93.465.465 0 0 1 0-.93zM316.5 26.715a.466.466 0 1 1 0 .932.466.466 0 0 1 0-.932zM330.069 26.715a.465.465 0 1 1 0 .93.465.465 0 0 1 0-.93zM343.66 26.715a.466.466 0 1 1 0 .932.466.466 0 0 1 0-.932zM357.251 26.715a.465.465 0 1 1 .001.93.465.465 0 0 1-.001-.93zM370.82 26.715a.465.465 0 1 1 .001.93.465.465 0 0 1-.001-.93zM384.412 26.715a.465.465 0 1 1 0 .93.465.465 0 0 1 0-.93zM398.003 26.715a.466.466 0 1 1 0 .932.466.466 0 0 1 0-.932zM411.572 26.715a.465.465 0 1 1 0 .93.465.465 0 0 1 0-.93zM425.163 26.715a.466.466 0 1 1 0 .932.466.466 0 0 1 0-.932zM438.754 26.715a.466.466 0 1 1 0 .932.466.466 0 0 1 0-.932zM452.323 26.715a.466.466 0 1 1 0 .932.466.466 0 0 1 0-.932zM465.914 26.715a.465.465 0 1 1 .001.93.465.465 0 0 1-.001-.93zM479.484 26.715a.465.465 0 1 1 0 .93.465.465 0 0 1 0-.93zM493.075 26.715a.465.465 0 1 1 0 .93.465.465 0 0 1 0-.93zM506.666 26.715a.466.466 0 1 1 0 .932.466.466 0 0 1 0-.932zM520.235 26.715a.466.466 0 1 1 0 .932.466.466 0 0 1 0-.932zM533.826 26.715a.466.466 0 1 1 0 .932.466.466 0 0 1 0-.932zM547.417 26.715a.466.466 0 1 1 0 .932.466.466 0 0 1 0-.932zM560.987 26.715a.465.465 0 1 1 0 .93.465.465 0 0 1 0-.93zM574.578 26.715a.465.465 0 1 1 0 .93.465.465 0 0 1 0-.93zM588.169 26.715a.466.466 0 1 1 0 .932.466.466 0 0 1 0-.932zM601.738 26.715a.465.465 0 1 1 0 .93.465.465 0 0 1 0-.93zM615.329 26.715a.466.466 0 1 1 0 .932.466.466 0 0 1 0-.932zM628.92 26.715a.466.466 0 1 1 0 .932.466.466 0 0 1 0-.932zM4.08 13.39a.222.222 0 1 1 0 .444.222.222 0 0 1 0-.444zM17.649 13.39a.222.222 0 1 1 0 .444.222.222 0 0 1 0-.444zM31.24 13.39a.222.222 0 1 1 0 .444.222.222 0 0 1 0-.444zM44.831 13.39a.222.222 0 1 1 0 .444.222.222 0 0 1 0-.444zM58.4 13.39a.222.222 0 1 1 0 .444.222.222 0 0 1 0-.444zM71.991 13.39a.222.222 0 1 1 0 .444.222.222 0 0 1 0-.444zM85.582 13.39a.222.222 0 1 1 0 .444.222.222 0 0 1 0-.444zM99.152 13.39a.222.222 0 1 1 0 .444.222.222 0 0 1 0-.444zM112.743 13.39a.221.221 0 1 1 0 .443.221.221 0 0 1 0-.443zM126.334 13.39a.222.222 0 1 1 0 0zM139.903 13.39a.222.222 0 1 1 0 0zM153.494 13.39a.222.222 0 1 1 0 .444.222.222 0 0 1 0-.444zM167.085 13.39a.222.222 0 1 1 0 .444.222.222 0 0 1 0-.444zM180.654 13.39a.222.222 0 1 1 0 .444.222.222 0 0 1 0-.444zM194.246 13.39a.221.221 0 1 1 0 .443.221.221 0 0 1 0-.443zM207.815 13.39a.221.221 0 1 1 0 .443.221.221 0 0 1 0-.443zM221.406 13.39a.222.222 0 1 1 0 0zM234.997 13.39a.222.222 0 1 1 0 0zM248.566 13.39a.222.222 0 1 1 0 .444.222.222 0 0 1 0-.444zM262.157 13.39a.222.222 0 1 1 0 .444.222.222 0 0 1 0-.444zM275.749 13.39a.221.221 0 1 1 0 .443.221.221 0 0 1 0-.443zM289.317 13.39a.222.222 0 1 1 0 .444.222.222 0 0 1 0-.444zM302.909 13.39a.221.221 0 1 1 0 .443.221.221 0 0 1 0-.443zM316.5 13.39a.222.222 0 1 1 0 0zM330.069 13.39a.222.222 0 1 1 0 0zM343.66 13.39a.222.222 0 1 1 0 .444.222.222 0 0 1 0-.444zM357.251 13.39a.222.222 0 1 1 0 .444.222.222 0 0 1 0-.444zM370.82 13.39a.222.222 0 1 1 0 .444.222.222 0 0 1 0-.444zM384.412 13.39a.221.221 0 1 1 0 .443.221.221 0 0 1 0-.443zM398.003 13.39a.221.221 0 1 1 0 .443.221.221 0 0 1 0-.443zM411.572 13.39a.222.222 0 1 1 0 0zM425.163 13.39a.222.222 0 1 1 0 0zM438.754 13.39a.222.222 0 1 1 0 .444.222.222 0 0 1 0-.444zM452.323 13.39a.222.222 0 1 1 0 .444.222.222 0 0 1 0-.444zM465.915 13.39a.221.221 0 1 1 0 .443.221.221 0 0 1 0-.443zM479.483 13.39a.222.222 0 1 1 0 .444.222.222 0 0 1 0-.444zM493.075 13.39a.222.222 0 1 1 0 0zM506.666 13.39a.222.222 0 1 1 0 0zM520.235 13.39a.222.222 0 1 1 0 0zM533.826 13.39a.222.222 0 1 1 0 .444.222.222 0 0 1 0-.444zM547.417 13.39a.222.222 0 1 1 0 .444.222.222 0 0 1 0-.444zM560.986 13.39a.222.222 0 1 1 0 .444.222.222 0 0 1 0-.444zM574.578 13.39a.221.221 0 1 1 0 .443.221.221 0 0 1 0-.443zM588.169 13.39a.222.222 0 1 1 0 0zM601.738 13.39a.222.222 0 1 1 0 0zM615.329 13.39a.222.222 0 1 1 0 0zM628.92 13.39a.222.222 0 1 1 0 .444.222.222 0 0 1 0-.444zM4.08 0a.022.022 0 1 1 0 .044.022.022 0 0 1 0-.044zM17.649 0a.022.022 0 1 1 0 .044.022.022 0 0 1 0-.044zM31.24 0a.022.022 0 1 1 0 .044.022.022 0 0 1 0-.044zM44.831 0c.012 0 .022.01.022.022A.022.022 0 1 1 44.831 0zM58.4 0a.022.022 0 1 1 0 .044.022.022 0 0 1 0-.044zM71.991 0a.022.022 0 1 1 0 .044.022.022 0 0 1 0-.044zM85.583 0c.012 0 .022.01.022.022A.022.022 0 1 1 85.583 0zM99.151 0a.022.022 0 1 1 0 .044.022.022 0 0 1 0-.044zM112.743 0a.022.022 0 0 1 0 .044.022.022 0 0 1 0-.044zM126.334 0a.022.022 0 0 1 0 .044.022.022 0 0 1 0-.044zM139.903 0a.022.022 0 0 1 0 .044.022.022 0 0 1 0-.044zM153.494 0a.022.022 0 0 1 0 .044.022.022 0 0 1 0-.044zM167.085 0c.013 0 .023.01.023.022 0 .012-.01.022-.023.022a.022.022 0 0 1 0-.044zM180.654 0c.013 0 .023.01.023.022 0 .012-.01.022-.023.022a.022.022 0 0 1 0-.044zM194.246 0a.022.022 0 0 1 0 .044.022.022 0 0 1-.022-.022c0-.012.009-.022.022-.022zM207.815 0a.022.022 0 0 1 0 .044.022.022 0 0 1-.023-.022c0-.012.01-.022.023-.022zM221.406 0a.022.022 0 0 1 0 .044.022.022 0 0 1 0-.044zM234.997 0a.022.022 0 0 1 0 .044.022.022 0 0 1 0-.044zM248.566 0a.022.022 0 0 1 0 .044.022.022 0 0 1 0-.044zM262.157 0c.013 0 .022.01.022.022a.022.022 0 0 1-.022.022.022.022 0 0 1 0-.044zM275.749 0a.022.022 0 0 1 0 .044.022.022 0 0 1-.023-.022c0-.012.01-.022.023-.022zM289.318 0a.022.022 0 0 1 0 .044.022.022 0 0 1-.023-.022c0-.012.01-.022.023-.022zM302.909 0a.022.022 0 0 1 0 .044.022.022 0 0 1 0-.044zM316.5 0a.022.022 0 0 1 0 .044.022.022 0 0 1 0-.044zM330.069 0a.022.022 0 0 1 0 .044.022.022 0 0 1 0-.044zM343.66 0a.022.022 0 0 1 0 .044.022.022 0 0 1 0-.044zM357.252 0a.022.022 0 0 1 0 .044.022.022 0 0 1-.023-.022c0-.012.01-.022.023-.022zM370.82 0c.013 0 .023.01.023.022 0 .012-.01.022-.023.022a.022.022 0 0 1 0-.044zM384.412 0a.022.022 0 0 1 0 .044.022.022 0 0 1 0-.044zM398.003 0a.022.022 0 0 1 0 .044.022.022 0 0 1 0-.044zM411.572 0a.022.022 0 0 1 0 .044.022.022 0 0 1 0-.044zM425.163 0a.022.022 0 0 1 0 .044.022.022 0 0 1 0-.044zM438.754 0a.022.022 0 0 1 0 .044.022.022 0 0 1 0-.044zM452.323 0c.013 0 .023.01.023.022 0 .012-.01.022-.023.022a.022.022 0 0 1 0-.044zM465.914 0c.013 0 .023.01.023.022 0 .012-.01.022-.023.022a.022.022 0 0 1 0-.044zM479.484 0a.022.022 0 0 1 0 .044.022.022 0 0 1-.023-.022c0-.012.01-.022.023-.022zM493.075 0a.022.022 0 0 1 0 .044.022.022 0 0 1-.023-.022c0-.012.01-.022.023-.022zM506.666 0a.022.022 0 0 1 0 .044.022.022 0 0 1 0-.044zM520.235 0a.022.022 0 0 1 0 .044.022.022 0 0 1 0-.044zM533.826 0c.013 0 .022.01.022.022a.022.022 0 0 1-.022.022.022.022 0 0 1 0-.044zM547.417 0c.013 0 .023.01.023.022 0 .012-.01.022-.023.022a.022.022 0 0 1 0-.044zM560.987 0a.022.022 0 0 1 0 .044.022.022 0 0 1-.023-.022c0-.012.01-.022.023-.022zM574.578 0a.022.022 0 0 1 0 .044.022.022 0 0 1 0-.044zM588.169 0a.022.022 0 0 1 0 .044.022.022 0 0 1 0-.044zM601.738 0a.022.022 0 0 1 0 .044.022.022 0 0 1 0-.044zM615.329 0a.022.022 0 0 1 0 .044.022.022 0 0 1 0-.044zM628.92 0a.022.022 0 0 1 0 .044.022.022 0 0 1 0-.044z" fill="#fff" fill-opacity=".05"/></svg>