<svg width="633" height="235" fill="none" xmlns="http://www.w3.org/2000/svg"><path d="M4.08 8.158A4.08 4.08 0 1 0 4.08 0a4.08 4.08 0 0 0 0 8.158zM17.649 8.158a4.08 4.08 0 1 0 0-8.158 4.08 4.08 0 0 0 0 8.158zM31.24 8.158a4.08 4.08 0 1 0 0-8.158 4.08 4.08 0 0 0 0 8.158zM44.83 8.158A4.08 4.08 0 1 0 44.832 0a4.08 4.08 0 0 0 0 8.158zM58.4 8.158A4.08 4.08 0 1 0 58.4 0a4.08 4.08 0 0 0 0 8.158zM71.991 8.158a4.08 4.08 0 1 0 0-8.158 4.08 4.08 0 0 0 0 8.158zM85.582 8.158a4.08 4.08 0 1 0 0-8.158 4.08 4.08 0 0 0 0 8.158zM99.151 8.158a4.08 4.08 0 1 0 0-8.159 4.08 4.08 0 0 0 0 8.16zM112.743 8.158a4.079 4.079 0 1 0 0-8.157 4.079 4.079 0 0 0 0 8.157zM126.334 8.158a4.079 4.079 0 1 0 0-8.157 4.079 4.079 0 0 0 0 8.157zM139.903 8.158a4.08 4.08 0 1 0 0-8.16 4.08 4.08 0 0 0 0 8.16zM153.494 8.158a4.08 4.08 0 1 0 0-8.16 4.08 4.08 0 0 0 0 8.16zM167.085 8.158a4.08 4.08 0 1 0 0-8.16 4.08 4.08 0 0 0 0 8.16zM180.654 8.158a4.08 4.08 0 1 0 0-8.16 4.08 4.08 0 0 0 0 8.16zM194.246 8.158a4.079 4.079 0 1 0 0-8.157 4.079 4.079 0 0 0 0 8.157zM207.815 8.158a4.079 4.079 0 1 0 0-8.157 4.079 4.079 0 0 0 0 8.157zM221.406 8.158a4.079 4.079 0 1 0 0-8.157 4.079 4.079 0 0 0 0 8.157zM234.997 8.158a4.08 4.08 0 1 0 0-8.16 4.08 4.08 0 0 0 0 8.16zM248.566 8.158a4.08 4.08 0 1 0 0-8.16 4.08 4.08 0 0 0 0 8.16zM262.157 8.158a4.08 4.08 0 1 0 0-8.16 4.08 4.08 0 0 0 0 8.16zM275.749 8.158a4.079 4.079 0 1 0 0-8.157 4.079 4.079 0 0 0 0 8.157zM289.317 8.158A4.08 4.08 0 1 0 289.319 0a4.08 4.08 0 0 0-.002 8.158zM302.909 8.158a4.079 4.079 0 1 0 0-8.157 4.079 4.079 0 0 0 0 8.157zM316.5 8.158a4.079 4.079 0 1 0 0-8.157 4.079 4.079 0 0 0 0 8.157zM330.069 8.158a4.08 4.08 0 1 0 0-8.16 4.08 4.08 0 0 0 0 8.16zM343.66 8.158a4.08 4.08 0 1 0 0-8.16 4.08 4.08 0 0 0 0 8.16zM357.251 8.158A4.08 4.08 0 1 0 357.253 0a4.08 4.08 0 0 0-.002 8.158zM370.82 8.158a4.08 4.08 0 1 0 0-8.16 4.08 4.08 0 0 0 0 8.16zM384.412 8.158a4.079 4.079 0 1 0 0-8.157 4.079 4.079 0 0 0 0 8.157zM398.003 8.158a4.079 4.079 0 1 0 0-8.157 4.079 4.079 0 0 0 0 8.157zM411.572 8.158a4.079 4.079 0 1 0 0-8.157 4.079 4.079 0 0 0 0 8.157zM425.163 8.158a4.08 4.08 0 1 0 0-8.16 4.08 4.08 0 0 0 0 8.16zM438.754 8.158a4.08 4.08 0 1 0 0-8.16 4.08 4.08 0 0 0 0 8.16zM452.323 8.158a4.08 4.08 0 1 0 0-8.16 4.08 4.08 0 0 0 0 8.16zM465.915 8.158a4.079 4.079 0 1 0 0-8.157 4.079 4.079 0 0 0 0 8.157zM479.483 8.158A4.08 4.08 0 1 0 479.485 0a4.08 4.08 0 0 0-.002 8.158zM493.075 8.158a4.079 4.079 0 1 0 0-8.157 4.079 4.079 0 0 0 0 8.157zM506.666 8.158a4.079 4.079 0 1 0 0-8.157 4.079 4.079 0 0 0 0 8.157zM520.235 8.158a4.08 4.08 0 1 0 0-8.16 4.08 4.08 0 0 0 0 8.16zM533.826 8.158a4.08 4.08 0 1 0 0-8.16 4.08 4.08 0 0 0 0 8.16zM547.417 8.158A4.08 4.08 0 1 0 547.419 0a4.08 4.08 0 0 0-.002 8.158zM560.986 8.158A4.08 4.08 0 1 0 560.988 0a4.08 4.08 0 0 0-.002 8.158zM574.578 8.158a4.079 4.079 0 1 0 0-8.157 4.079 4.079 0 0 0 0 8.157zM588.169 8.158a4.079 4.079 0 1 0 0-8.157 4.079 4.079 0 0 0 0 8.157zM601.738 8.158a4.08 4.08 0 1 0 0-8.16 4.08 4.08 0 0 0 0 8.16zM615.329 8.158a4.08 4.08 0 1 0 0-8.16 4.08 4.08 0 0 0 0 8.16zM628.92 8.158A4.08 4.08 0 1 0 628.922 0a4.08 4.08 0 0 0-.002 8.158zM4.08 21.726a4.08 4.08 0 1 0 0-8.158 4.08 4.08 0 0 0 0 8.158zM17.649 21.726a4.08 4.08 0 1 0 0-8.158 4.08 4.08 0 0 0 0 8.158zM31.24 21.726a4.08 4.08 0 1 0 0-8.158 4.08 4.08 0 0 0 0 8.158zM44.83 21.726a4.08 4.08 0 1 0 .001-8.158 4.08 4.08 0 0 0 0 8.158zM58.4 21.726a4.08 4.08 0 1 0 0-8.158 4.08 4.08 0 0 0 0 8.158zM71.991 21.726a4.08 4.08 0 1 0 0-8.158 4.08 4.08 0 0 0 0 8.158zM85.582 21.726a4.08 4.08 0 1 0 0-8.158 4.08 4.08 0 0 0 0 8.158zM99.151 21.726a4.08 4.08 0 1 0 0-8.159 4.08 4.08 0 0 0 0 8.16zM112.743 21.726a4.079 4.079 0 1 0 0-8.157 4.079 4.079 0 0 0 0 8.157zM126.334 21.726a4.079 4.079 0 1 0 0-8.157 4.079 4.079 0 0 0 0 8.157zM139.903 21.726a4.08 4.08 0 1 0 0-8.16 4.08 4.08 0 0 0 0 8.16zM153.494 21.726a4.08 4.08 0 1 0 0-8.16 4.08 4.08 0 0 0 0 8.16zM167.085 21.726a4.08 4.08 0 1 0 0-8.16 4.08 4.08 0 0 0 0 8.16zM180.654 21.726a4.08 4.08 0 1 0 0-8.16 4.08 4.08 0 0 0 0 8.16zM194.246 21.726a4.079 4.079 0 1 0 0-8.157 4.079 4.079 0 0 0 0 8.157zM207.815 21.726a4.079 4.079 0 1 0 0-8.157 4.079 4.079 0 0 0 0 8.157zM221.406 21.726a4.079 4.079 0 1 0 0-8.157 4.079 4.079 0 0 0 0 8.157zM234.997 21.726a4.08 4.08 0 1 0 0-8.16 4.08 4.08 0 0 0 0 8.16zM248.566 21.726a4.08 4.08 0 1 0 0-8.16 4.08 4.08 0 0 0 0 8.16zM262.157 21.726a4.08 4.08 0 1 0 0-8.16 4.08 4.08 0 0 0 0 8.16zM275.749 21.726a4.079 4.079 0 1 0 0-8.157 4.079 4.079 0 0 0 0 8.157zM289.317 21.726a4.08 4.08 0 1 0 .002-8.158 4.08 4.08 0 0 0-.002 8.158zM302.909 21.726a4.079 4.079 0 1 0 0-8.157 4.079 4.079 0 0 0 0 8.157zM316.5 21.726a4.079 4.079 0 1 0 0-8.157 4.079 4.079 0 0 0 0 8.157zM330.069 21.726a4.08 4.08 0 1 0 0-8.16 4.08 4.08 0 0 0 0 8.16zM343.66 21.726a4.08 4.08 0 1 0 0-8.16 4.08 4.08 0 0 0 0 8.16zM357.251 21.726a4.08 4.08 0 1 0 .002-8.158 4.08 4.08 0 0 0-.002 8.158zM370.82 21.726a4.08 4.08 0 1 0 0-8.16 4.08 4.08 0 0 0 0 8.16zM384.412 21.726a4.079 4.079 0 1 0 0-8.157 4.079 4.079 0 0 0 0 8.157zM398.003 21.726a4.079 4.079 0 1 0 0-8.157 4.079 4.079 0 0 0 0 8.157zM411.572 21.726a4.079 4.079 0 1 0 0-8.157 4.079 4.079 0 0 0 0 8.157zM425.163 21.726a4.08 4.08 0 1 0 0-8.16 4.08 4.08 0 0 0 0 8.16zM438.754 21.726a4.08 4.08 0 1 0 0-8.16 4.08 4.08 0 0 0 0 8.16zM452.323 21.726a4.08 4.08 0 1 0 0-8.16 4.08 4.08 0 0 0 0 8.16zM465.915 21.726a4.079 4.079 0 1 0 0-8.157 4.079 4.079 0 0 0 0 8.157zM479.483 21.726a4.08 4.08 0 1 0 .002-8.158 4.08 4.08 0 0 0-.002 8.158zM493.075 21.726a4.079 4.079 0 1 0 0-8.157 4.079 4.079 0 0 0 0 8.157zM506.666 21.726a4.079 4.079 0 1 0 0-8.157 4.079 4.079 0 0 0 0 8.157zM520.235 21.726a4.08 4.08 0 1 0 0-8.16 4.08 4.08 0 0 0 0 8.16zM533.826 21.726a4.08 4.08 0 1 0 0-8.16 4.08 4.08 0 0 0 0 8.16zM547.417 21.726a4.08 4.08 0 1 0 .002-8.158 4.08 4.08 0 0 0-.002 8.158zM560.986 21.726a4.08 4.08 0 1 0 .002-8.158 4.08 4.08 0 0 0-.002 8.158zM574.578 21.726a4.079 4.079 0 1 0 0-8.157 4.079 4.079 0 0 0 0 8.157zM588.169 21.726a4.079 4.079 0 1 0 0-8.157 4.079 4.079 0 0 0 0 8.157zM601.738 21.726a4.08 4.08 0 1 0 0-8.16 4.08 4.08 0 0 0 0 8.16zM615.329 21.726a4.08 4.08 0 1 0 0-8.16 4.08 4.08 0 0 0 0 8.16zM628.92 21.726a4.08 4.08 0 1 0 .002-8.158 4.08 4.08 0 0 0-.002 8.158zM4.08 35.316a4.08 4.08 0 1 0 0-8.158 4.08 4.08 0 0 0 0 8.158zM17.649 35.316a4.08 4.08 0 1 0 0-8.158 4.08 4.08 0 0 0 0 8.158zM31.24 35.316a4.08 4.08 0 1 0 0-8.158 4.08 4.08 0 0 0 0 8.158zM44.83 35.316a4.08 4.08 0 1 0 .001-8.158 4.08 4.08 0 0 0 0 8.158zM58.4 35.316a4.08 4.08 0 1 0 0-8.158 4.08 4.08 0 0 0 0 8.158zM71.991 35.316a4.08 4.08 0 1 0 0-8.158 4.08 4.08 0 0 0 0 8.158zM85.582 35.316a4.08 4.08 0 1 0 0-8.158 4.08 4.08 0 0 0 0 8.158zM99.151 35.316a4.08 4.08 0 1 0 0-8.159 4.08 4.08 0 0 0 0 8.16zM112.743 35.316a4.079 4.079 0 1 0 0-8.157 4.079 4.079 0 0 0 0 8.157zM126.334 35.316a4.079 4.079 0 1 0 0-8.157 4.079 4.079 0 0 0 0 8.157zM139.903 35.316a4.08 4.08 0 1 0 0-8.16 4.08 4.08 0 0 0 0 8.16zM153.494 35.316a4.08 4.08 0 1 0 0-8.16 4.08 4.08 0 0 0 0 8.16zM167.085 35.316a4.08 4.08 0 1 0 0-8.16 4.08 4.08 0 0 0 0 8.16zM180.654 35.316a4.08 4.08 0 1 0 0-8.16 4.08 4.08 0 0 0 0 8.16zM194.246 35.316a4.079 4.079 0 1 0 0-8.157 4.079 4.079 0 0 0 0 8.157zM207.815 35.316a4.079 4.079 0 1 0 0-8.157 4.079 4.079 0 0 0 0 8.157zM221.406 35.316a4.079 4.079 0 1 0 0-8.157 4.079 4.079 0 0 0 0 8.157zM234.997 35.316a4.08 4.08 0 1 0 0-8.16 4.08 4.08 0 0 0 0 8.16zM248.566 35.316a4.08 4.08 0 1 0 0-8.16 4.08 4.08 0 0 0 0 8.16zM262.157 35.316a4.08 4.08 0 1 0 0-8.16 4.08 4.08 0 0 0 0 8.16zM275.749 35.316a4.079 4.079 0 1 0 0-8.157 4.079 4.079 0 0 0 0 8.157zM289.317 35.316a4.08 4.08 0 1 0 .002-8.158 4.08 4.08 0 0 0-.002 8.158zM302.909 35.316a4.079 4.079 0 1 0 0-8.157 4.079 4.079 0 0 0 0 8.157zM316.5 35.316a4.079 4.079 0 1 0 0-8.157 4.079 4.079 0 0 0 0 8.157zM330.069 35.316a4.08 4.08 0 1 0 0-8.16 4.08 4.08 0 0 0 0 8.16zM343.66 35.316a4.08 4.08 0 1 0 0-8.16 4.08 4.08 0 0 0 0 8.16zM357.251 35.316a4.08 4.08 0 1 0 .002-8.158 4.08 4.08 0 0 0-.002 8.158zM370.82 35.316a4.08 4.08 0 1 0 0-8.16 4.08 4.08 0 0 0 0 8.16zM384.412 35.316a4.079 4.079 0 1 0 0-8.157 4.079 4.079 0 0 0 0 8.157zM398.003 35.316a4.079 4.079 0 1 0 0-8.157 4.079 4.079 0 0 0 0 8.157zM411.572 35.316a4.079 4.079 0 1 0 0-8.157 4.079 4.079 0 0 0 0 8.157zM425.163 35.316a4.08 4.08 0 1 0 0-8.16 4.08 4.08 0 0 0 0 8.16zM438.754 35.316a4.08 4.08 0 1 0 0-8.16 4.08 4.08 0 0 0 0 8.16zM452.323 35.316a4.08 4.08 0 1 0 0-8.16 4.08 4.08 0 0 0 0 8.16zM465.915 35.316a4.079 4.079 0 1 0 0-8.157 4.079 4.079 0 0 0 0 8.157zM479.483 35.316a4.08 4.08 0 1 0 .002-8.158 4.08 4.08 0 0 0-.002 8.158zM493.075 35.316a4.079 4.079 0 1 0 0-8.157 4.079 4.079 0 0 0 0 8.157zM506.666 35.316a4.079 4.079 0 1 0 0-8.157 4.079 4.079 0 0 0 0 8.157zM520.235 35.316a4.08 4.08 0 1 0 0-8.16 4.08 4.08 0 0 0 0 8.16zM533.826 35.316a4.08 4.08 0 1 0 0-8.16 4.08 4.08 0 0 0 0 8.16zM547.417 35.316a4.08 4.08 0 1 0 .002-8.158 4.08 4.08 0 0 0-.002 8.158zM560.986 35.316a4.08 4.08 0 1 0 .002-8.158 4.08 4.08 0 0 0-.002 8.158zM574.578 35.316a4.079 4.079 0 1 0 0-8.157 4.079 4.079 0 0 0 0 8.157zM588.169 35.316a4.079 4.079 0 1 0 0-8.157 4.079 4.079 0 0 0 0 8.157zM601.738 35.316a4.08 4.08 0 1 0 0-8.16 4.08 4.08 0 0 0 0 8.16zM615.329 35.316a4.08 4.08 0 1 0 0-8.16 4.08 4.08 0 0 0 0 8.16zM628.92 35.316a4.08 4.08 0 1 0 .002-8.158 4.08 4.08 0 0 0-.002 8.158zM4.08 48.907a4.08 4.08 0 1 0 0-8.16 4.08 4.08 0 0 0 0 8.16zM17.649 48.907a4.08 4.08 0 1 0 0-8.16 4.08 4.08 0 0 0 0 8.16zM31.24 48.907a4.08 4.08 0 1 0 0-8.16 4.08 4.08 0 0 0 0 8.16zM44.83 48.907a4.08 4.08 0 1 0 .001-8.16 4.08 4.08 0 0 0 0 8.16zM58.4 48.907a4.08 4.08 0 1 0 0-8.159 4.08 4.08 0 0 0 0 8.159zM71.991 48.907a4.08 4.08 0 1 0 0-8.16 4.08 4.08 0 0 0 0 8.16zM85.582 48.907a4.08 4.08 0 1 0 0-8.16 4.08 4.08 0 0 0 0 8.16zM99.151 48.907a4.08 4.08 0 1 0 0-8.16 4.08 4.08 0 0 0 0 8.16zM112.743 48.907a4.079 4.079 0 1 0 0-8.158 4.079 4.079 0 0 0 0 8.158zM126.334 48.907a4.079 4.079 0 1 0 0-8.158 4.079 4.079 0 0 0 0 8.158zM139.903 48.907a4.08 4.08 0 1 0 0-8.16 4.08 4.08 0 0 0 0 8.16zM153.494 48.907a4.08 4.08 0 1 0 0-8.16 4.08 4.08 0 0 0 0 8.16zM167.085 48.907a4.08 4.08 0 1 0 0-8.16 4.08 4.08 0 0 0 0 8.16zM180.654 48.907a4.08 4.08 0 1 0 0-8.16 4.08 4.08 0 0 0 0 8.16zM194.246 48.907a4.079 4.079 0 1 0 0-8.158 4.079 4.079 0 0 0 0 8.158zM207.815 48.907a4.079 4.079 0 1 0 0-8.158 4.079 4.079 0 0 0 0 8.158zM221.406 48.907a4.079 4.079 0 1 0 0-8.158 4.079 4.079 0 0 0 0 8.158zM234.997 48.907a4.08 4.08 0 1 0 0-8.16 4.08 4.08 0 0 0 0 8.16zM248.566 48.907a4.08 4.08 0 1 0 0-8.16 4.08 4.08 0 0 0 0 8.16zM262.157 48.907a4.08 4.08 0 1 0 0-8.16 4.08 4.08 0 0 0 0 8.16zM275.749 48.907a4.079 4.079 0 1 0 0-8.158 4.079 4.079 0 0 0 0 8.158zM289.317 48.907a4.08 4.08 0 1 0 .002-8.159 4.08 4.08 0 0 0-.002 8.159zM302.909 48.907a4.079 4.079 0 1 0 0-8.158 4.079 4.079 0 0 0 0 8.158zM316.5 48.907a4.079 4.079 0 1 0 0-8.158 4.079 4.079 0 0 0 0 8.158zM330.069 48.907a4.08 4.08 0 1 0 0-8.16 4.08 4.08 0 0 0 0 8.16zM343.66 48.907a4.08 4.08 0 1 0 0-8.16 4.08 4.08 0 0 0 0 8.16zM357.251 48.907a4.08 4.08 0 1 0 .002-8.159 4.08 4.08 0 0 0-.002 8.159zM370.82 48.907a4.08 4.08 0 1 0 0-8.16 4.08 4.08 0 0 0 0 8.16zM384.412 48.907a4.079 4.079 0 1 0 0-8.158 4.079 4.079 0 0 0 0 8.158zM398.003 48.907a4.079 4.079 0 1 0 0-8.158 4.079 4.079 0 0 0 0 8.158zM411.572 48.907a4.079 4.079 0 1 0 0-8.158 4.079 4.079 0 0 0 0 8.158zM425.163 48.907a4.08 4.08 0 1 0 0-8.16 4.08 4.08 0 0 0 0 8.16zM438.754 48.907a4.08 4.08 0 1 0 0-8.16 4.08 4.08 0 0 0 0 8.16zM452.323 48.907a4.08 4.08 0 1 0 0-8.16 4.08 4.08 0 0 0 0 8.16zM465.915 48.907a4.079 4.079 0 1 0 0-8.158 4.079 4.079 0 0 0 0 8.158zM479.483 48.907a4.08 4.08 0 1 0 .002-8.159 4.08 4.08 0 0 0-.002 8.159zM493.075 48.907a4.079 4.079 0 1 0 0-8.158 4.079 4.079 0 0 0 0 8.158zM506.666 48.907a4.079 4.079 0 1 0 0-8.158 4.079 4.079 0 0 0 0 8.158zM520.235 48.907a4.08 4.08 0 1 0 0-8.16 4.08 4.08 0 0 0 0 8.16zM533.826 48.907a4.08 4.08 0 1 0 0-8.16 4.08 4.08 0 0 0 0 8.16zM547.417 48.907a4.08 4.08 0 1 0 .002-8.159 4.08 4.08 0 0 0-.002 8.159zM560.986 48.907a4.08 4.08 0 1 0 .002-8.159 4.08 4.08 0 0 0-.002 8.159zM574.578 48.907a4.079 4.079 0 1 0 0-8.158 4.079 4.079 0 0 0 0 8.158zM588.169 48.907a4.079 4.079 0 1 0 0-8.158 4.079 4.079 0 0 0 0 8.158zM601.738 48.907a4.08 4.08 0 1 0 0-8.16 4.08 4.08 0 0 0 0 8.16zM615.329 48.907a4.08 4.08 0 1 0 0-8.16 4.08 4.08 0 0 0 0 8.16zM628.92 48.907a4.08 4.08 0 1 0 .002-8.159 4.08 4.08 0 0 0-.002 8.159zM4.08 62.186a3.791 3.791 0 1 0 0-7.582 3.791 3.791 0 0 0 0 7.582zM17.649 62.186a3.791 3.791 0 1 0 0-7.582 3.791 3.791 0 0 0 0 7.582zM31.24 62.186a3.791 3.791 0 1 0 0-7.582 3.791 3.791 0 0 0 0 7.582zM44.831 62.186a3.791 3.791 0 1 0 0-7.582 3.791 3.791 0 0 0 0 7.582zM58.4 62.186a3.791 3.791 0 1 0 0-7.582 3.791 3.791 0 0 0 0 7.582zM71.991 62.186a3.791 3.791 0 1 0 0-7.582 3.791 3.791 0 0 0 0 7.582zM85.582 62.186a3.791 3.791 0 1 0 0-7.582 3.791 3.791 0 0 0 0 7.582zM99.151 62.186a3.792 3.792 0 1 0 0-7.583 3.792 3.792 0 0 0 0 7.583zM112.743 62.186a3.79 3.79 0 1 0 0-7.581 3.79 3.79 0 0 0 0 7.581zM126.334 62.186a3.79 3.79 0 1 0 0-7.581 3.79 3.79 0 0 0 0 7.581zM139.903 62.186a3.79 3.79 0 1 0 0-7.581 3.79 3.79 0 0 0 0 7.581zM153.494 62.186a3.792 3.792 0 1 0 0-7.583 3.792 3.792 0 0 0 0 7.583zM167.085 62.186a3.792 3.792 0 1 0 0-7.583 3.792 3.792 0 0 0 0 7.583zM180.654 62.186a3.792 3.792 0 1 0 0-7.583 3.792 3.792 0 0 0 0 7.583zM194.245 62.186a3.792 3.792 0 1 0 0-7.583 3.792 3.792 0 0 0 0 7.583zM207.815 62.186a3.79 3.79 0 1 0 0-7.581 3.79 3.79 0 0 0 0 7.581zM221.406 62.186a3.79 3.79 0 1 0 0-7.581 3.79 3.79 0 0 0 0 7.581zM234.997 62.186a3.79 3.79 0 1 0 0-7.581 3.79 3.79 0 0 0 0 7.581zM248.566 62.186a3.79 3.79 0 1 0 0-7.581 3.79 3.79 0 0 0 0 7.581zM262.157 62.186a3.792 3.792 0 1 0 0-7.583 3.792 3.792 0 0 0 0 7.583zM275.748 62.186a3.792 3.792 0 1 0 0-7.583 3.792 3.792 0 0 0 0 7.583zM289.318 62.186a3.791 3.791 0 1 0 0-7.583 3.791 3.791 0 0 0 0 7.583zM302.909 62.186a3.79 3.79 0 1 0 0-7.581 3.79 3.79 0 0 0 0 7.581zM316.5 62.186a3.79 3.79 0 1 0 0-7.581 3.79 3.79 0 0 0 0 7.581zM330.069 62.186a3.79 3.79 0 1 0 0-7.581 3.79 3.79 0 0 0 0 7.581zM343.66 62.186a3.792 3.792 0 1 0 0-7.583 3.792 3.792 0 0 0 0 7.583zM357.251 62.186a3.792 3.792 0 1 0 0-7.583 3.792 3.792 0 0 0 0 7.583zM370.82 62.186a3.792 3.792 0 1 0 0-7.583 3.792 3.792 0 0 0 0 7.583zM384.412 62.186a3.791 3.791 0 1 0 0-7.583 3.791 3.791 0 0 0 0 7.583zM398.003 62.186a3.79 3.79 0 1 0 0-7.581 3.79 3.79 0 0 0 0 7.581zM411.572 62.186a3.79 3.79 0 1 0 0-7.581 3.79 3.79 0 0 0 0 7.581zM425.163 62.186a3.79 3.79 0 1 0 0-7.581 3.79 3.79 0 0 0 0 7.581zM438.754 62.186a3.792 3.792 0 1 0 0-7.583 3.792 3.792 0 0 0 0 7.583zM452.323 62.186a3.792 3.792 0 1 0 0-7.583 3.792 3.792 0 0 0 0 7.583zM465.914 62.186a3.792 3.792 0 1 0 0-7.583 3.792 3.792 0 0 0 0 7.583zM479.484 62.186a3.79 3.79 0 1 0 0-7.581 3.79 3.79 0 0 0 0 7.581zM493.075 62.186a3.79 3.79 0 1 0 0-7.581 3.79 3.79 0 0 0 0 7.581zM506.666 62.186a3.79 3.79 0 1 0 0-7.581 3.79 3.79 0 0 0 0 7.581zM520.235 62.186a3.79 3.79 0 1 0 0-7.581 3.79 3.79 0 0 0 0 7.581zM533.826 62.186a3.792 3.792 0 1 0 0-7.583 3.792 3.792 0 0 0 0 7.583zM547.417 62.186a3.792 3.792 0 1 0 0-7.583 3.792 3.792 0 0 0 0 7.583zM560.987 62.186a3.791 3.791 0 1 0 0-7.583 3.791 3.791 0 0 0 0 7.583zM574.578 62.186a3.79 3.79 0 1 0 0-7.581 3.79 3.79 0 0 0 0 7.581zM588.169 62.186a3.79 3.79 0 1 0 0-7.581 3.79 3.79 0 0 0 0 7.581zM601.738 62.186a3.79 3.79 0 1 0 0-7.581 3.79 3.79 0 0 0 0 7.581zM615.329 62.186a3.792 3.792 0 1 0 0-7.583 3.792 3.792 0 0 0 0 7.583zM628.92 62.186a3.792 3.792 0 1 0 0-7.583 3.792 3.792 0 0 0 0 7.583zM4.08 75.444a3.459 3.459 0 1 0 0-6.917 3.459 3.459 0 0 0 0 6.917zM17.648 75.444a3.459 3.459 0 1 0 0-6.917 3.459 3.459 0 0 0 0 6.917zM31.24 75.444a3.459 3.459 0 1 0 0-6.917 3.459 3.459 0 0 0 0 6.917zM44.83 75.444a3.459 3.459 0 1 0 .001-6.917 3.459 3.459 0 0 0 0 6.917zM58.4 75.444a3.459 3.459 0 1 0 0-6.917 3.459 3.459 0 0 0 0 6.917zM71.991 75.444a3.459 3.459 0 1 0 0-6.917 3.459 3.459 0 0 0 0 6.917zM85.582 75.444a3.459 3.459 0 1 0 0-6.917 3.459 3.459 0 0 0 0 6.917zM99.151 75.444a3.458 3.458 0 1 0 .001-6.917 3.458 3.458 0 0 0 0 6.917zM112.743 75.444a3.459 3.459 0 1 0 0-6.918 3.459 3.459 0 0 0 0 6.918zM126.334 75.444a3.459 3.459 0 1 0 0-6.918 3.459 3.459 0 0 0 0 6.918zM139.903 75.444a3.459 3.459 0 1 0 0-6.918 3.459 3.459 0 0 0 0 6.918zM153.494 75.444a3.459 3.459 0 1 0 0-6.918 3.459 3.459 0 0 0 0 6.918zM167.085 75.444a3.458 3.458 0 1 0 .001-6.917 3.458 3.458 0 0 0-.001 6.917zM180.654 75.444a3.458 3.458 0 1 0 .001-6.917 3.458 3.458 0 0 0-.001 6.917zM194.246 75.444a3.458 3.458 0 1 0 0-6.916 3.458 3.458 0 0 0 0 6.916zM207.815 75.444a3.458 3.458 0 1 0 0-6.916 3.458 3.458 0 0 0 0 6.916zM221.406 75.444a3.459 3.459 0 1 0 0-6.918 3.459 3.459 0 0 0 0 6.918zM234.997 75.444a3.459 3.459 0 1 0 0-6.918 3.459 3.459 0 0 0 0 6.918zM248.566 75.444a3.459 3.459 0 1 0 0-6.918 3.459 3.459 0 0 0 0 6.918zM262.157 75.444a3.459 3.459 0 1 0 0-6.918 3.459 3.459 0 0 0 0 6.918zM275.749 75.444a3.458 3.458 0 1 0 0-6.916 3.458 3.458 0 0 0 0 6.916zM289.317 75.444a3.458 3.458 0 1 0 .001-6.917 3.458 3.458 0 0 0-.001 6.917zM302.909 75.444a3.459 3.459 0 1 0 0-6.918 3.459 3.459 0 0 0 0 6.918zM316.5 75.444a3.459 3.459 0 1 0 0-6.918 3.459 3.459 0 0 0 0 6.918zM330.069 75.444a3.459 3.459 0 1 0 0-6.918 3.459 3.459 0 0 0 0 6.918zM343.66 75.444a3.459 3.459 0 1 0 0-6.918 3.459 3.459 0 0 0 0 6.918zM357.251 75.444a3.458 3.458 0 1 0 .001-6.917 3.458 3.458 0 0 0-.001 6.917zM370.82 75.444a3.458 3.458 0 1 0 .001-6.917 3.458 3.458 0 0 0-.001 6.917zM384.412 75.444a3.458 3.458 0 1 0 0-6.916 3.458 3.458 0 0 0 0 6.916zM398.003 75.444a3.459 3.459 0 1 0 0-6.918 3.459 3.459 0 0 0 0 6.918zM411.572 75.444a3.459 3.459 0 1 0 0-6.918 3.459 3.459 0 0 0 0 6.918zM425.163 75.444a3.459 3.459 0 1 0 0-6.918 3.459 3.459 0 0 0 0 6.918zM438.754 75.444a3.458 3.458 0 1 0 .001-6.917 3.458 3.458 0 0 0-.001 6.917zM452.323 75.444a3.459 3.459 0 1 0 0-6.918 3.459 3.459 0 0 0 0 6.918zM465.915 75.444a3.458 3.458 0 1 0 0-6.916 3.458 3.458 0 0 0 0 6.916zM479.483 75.444a3.458 3.458 0 1 0 .001-6.917 3.458 3.458 0 0 0-.001 6.917zM493.075 75.444a3.459 3.459 0 1 0 0-6.918 3.459 3.459 0 0 0 0 6.918zM506.666 75.444a3.459 3.459 0 1 0 0-6.918 3.459 3.459 0 0 0 0 6.918zM520.235 75.444a3.459 3.459 0 1 0 0-6.918 3.459 3.459 0 0 0 0 6.918zM533.826 75.444a3.459 3.459 0 1 0 0-6.918 3.459 3.459 0 0 0 0 6.918zM547.417 75.444a3.458 3.458 0 1 0 .001-6.917 3.458 3.458 0 0 0-.001 6.917zM560.986 75.444a3.458 3.458 0 1 0 .001-6.917 3.458 3.458 0 0 0-.001 6.917zM574.578 75.444a3.459 3.459 0 1 0 0-6.918 3.459 3.459 0 0 0 0 6.918zM588.169 75.444a3.459 3.459 0 1 0 0-6.918 3.459 3.459 0 0 0 0 6.918zM601.738 75.444a3.459 3.459 0 1 0 0-6.918 3.459 3.459 0 0 0 0 6.918zM615.329 75.444a3.459 3.459 0 1 0 0-6.918 3.459 3.459 0 0 0 0 6.918zM628.92 75.444a3.458 3.458 0 1 0 .001-6.917 3.458 3.458 0 0 0-.001 6.917zM4.08 88.701a3.126 3.126 0 1 0 0-6.252 3.126 3.126 0 0 0 0 6.252zM17.649 88.701a3.126 3.126 0 1 0 0-6.252 3.126 3.126 0 0 0 0 6.252zM31.24 88.701a3.126 3.126 0 1 0 0-6.252 3.126 3.126 0 0 0 0 6.252zM44.831 88.701a3.126 3.126 0 1 0 0-6.252 3.126 3.126 0 0 0 0 6.252zM58.4 88.701a3.126 3.126 0 1 0 0-6.252 3.126 3.126 0 0 0 0 6.252zM71.991 88.701a3.126 3.126 0 1 0 0-6.252 3.126 3.126 0 0 0 0 6.252zM85.582 88.701a3.126 3.126 0 1 0 0-6.252 3.126 3.126 0 0 0 0 6.252zM99.152 88.701a3.126 3.126 0 1 0 0-6.252 3.126 3.126 0 0 0 0 6.252zM112.743 88.701a3.126 3.126 0 1 0 0-6.252 3.126 3.126 0 0 0 0 6.252zM126.334 88.701a3.126 3.126 0 1 0 0-6.25 3.126 3.126 0 0 0 0 6.25zM139.903 88.701a3.126 3.126 0 1 0 0-6.252 3.126 3.126 0 0 0 0 6.252zM153.494 88.701a3.126 3.126 0 1 0 0-6.25 3.126 3.126 0 0 0 0 6.25zM167.085 88.701a3.126 3.126 0 1 0 .001-6.252 3.126 3.126 0 0 0-.001 6.252zM180.655 88.701a3.126 3.126 0 1 0 0-6.252 3.126 3.126 0 0 0 0 6.252zM194.246 88.701a3.126 3.126 0 1 0 0-6.252 3.126 3.126 0 0 0 0 6.252zM207.815 88.701a3.126 3.126 0 1 0 0-6.252 3.126 3.126 0 0 0 0 6.252zM221.406 88.701a3.126 3.126 0 1 0 0-6.252 3.126 3.126 0 0 0 0 6.252zM234.997 88.701a3.126 3.126 0 1 0 0-6.25 3.126 3.126 0 0 0 0 6.25zM248.566 88.701a3.126 3.126 0 1 0 0-6.25 3.126 3.126 0 0 0 0 6.25zM262.157 88.701a3.126 3.126 0 1 0 .001-6.252 3.126 3.126 0 0 0-.001 6.252zM275.748 88.701a3.126 3.126 0 1 0 .001-6.252 3.126 3.126 0 0 0-.001 6.252zM289.318 88.701a3.126 3.126 0 1 0 0-6.252 3.126 3.126 0 0 0 0 6.252zM302.909 88.701a3.126 3.126 0 1 0 0-6.252 3.126 3.126 0 0 0 0 6.252zM316.5 88.701a3.126 3.126 0 1 0 0-6.25 3.126 3.126 0 0 0 0 6.25zM330.069 88.701a3.126 3.126 0 1 0 0-6.252 3.126 3.126 0 0 0 0 6.252zM343.66 88.701a3.126 3.126 0 1 0 0-6.25 3.126 3.126 0 0 0 0 6.25zM357.251 88.701a3.126 3.126 0 1 0 .001-6.252 3.126 3.126 0 0 0-.001 6.252zM370.821 88.701a3.126 3.126 0 1 0 0-6.252 3.126 3.126 0 0 0 0 6.252zM384.412 88.701a3.126 3.126 0 1 0 0-6.252 3.126 3.126 0 0 0 0 6.252zM398.003 88.701a3.126 3.126 0 1 0 0-6.252 3.126 3.126 0 0 0 0 6.252zM411.572 88.701a3.126 3.126 0 1 0 0-6.252 3.126 3.126 0 0 0 0 6.252zM425.163 88.701a3.126 3.126 0 1 0 0-6.25 3.126 3.126 0 0 0 0 6.25zM438.754 88.701a3.126 3.126 0 1 0 0-6.25 3.126 3.126 0 0 0 0 6.25zM452.323 88.701a3.126 3.126 0 1 0 .001-6.252 3.126 3.126 0 0 0-.001 6.252zM465.914 88.701a3.126 3.126 0 1 0 .001-6.252 3.126 3.126 0 0 0-.001 6.252zM479.484 88.701a3.126 3.126 0 1 0 0-6.252 3.126 3.126 0 0 0 0 6.252zM493.075 88.701a3.126 3.126 0 1 0 0-6.252 3.126 3.126 0 0 0 0 6.252zM506.666 88.701a3.126 3.126 0 1 0 0-6.25 3.126 3.126 0 0 0 0 6.25zM520.235 88.701a3.126 3.126 0 1 0 0-6.25 3.126 3.126 0 0 0 0 6.25zM533.826 88.701a3.126 3.126 0 1 0 .001-6.252 3.126 3.126 0 0 0-.001 6.252zM547.417 88.701a3.126 3.126 0 1 0 .001-6.252 3.126 3.126 0 0 0-.001 6.252zM560.987 88.701a3.126 3.126 0 1 0 0-6.252 3.126 3.126 0 0 0 0 6.252zM574.578 88.701a3.126 3.126 0 1 0 0-6.252 3.126 3.126 0 0 0 0 6.252zM588.169 88.701a3.126 3.126 0 1 0 0-6.25 3.126 3.126 0 0 0 0 6.25zM601.738 88.701a3.126 3.126 0 1 0 0-6.252 3.126 3.126 0 0 0 0 6.252zM615.329 88.701a3.126 3.126 0 1 0 .001-6.252 3.126 3.126 0 0 0-.001 6.252zM628.92 88.701a3.126 3.126 0 1 0 .001-6.252 3.126 3.126 0 0 0-.001 6.252zM4.08 101.937a2.794 2.794 0 1 0 0-5.588 2.794 2.794 0 0 0 0 5.588zM17.649 101.937a2.794 2.794 0 1 0 0-5.588 2.794 2.794 0 0 0 0 5.588zM31.24 101.937a2.794 2.794 0 1 0 0-5.587 2.794 2.794 0 0 0 0 5.587zM44.831 101.937a2.794 2.794 0 1 0 0-5.587 2.794 2.794 0 0 0 0 5.587zM58.4 101.937a2.794 2.794 0 1 0 0-5.588 2.794 2.794 0 0 0 0 5.588zM71.991 101.937a2.794 2.794 0 1 0 0-5.587 2.794 2.794 0 0 0 0 5.587zM85.583 101.937a2.794 2.794 0 1 0 0-5.588 2.794 2.794 0 0 0 0 5.588zM99.151 101.937a2.794 2.794 0 1 0 0-5.588 2.794 2.794 0 0 0 0 5.588zM112.743 101.937a2.793 2.793 0 1 0 0-5.586 2.793 2.793 0 0 0 0 5.586zM126.334 101.937a2.794 2.794 0 1 0 0-5.588 2.794 2.794 0 0 0 0 5.588zM139.903 101.937a2.794 2.794 0 1 0 0-5.588 2.794 2.794 0 0 0 0 5.588zM153.494 101.937a2.794 2.794 0 1 0 0-5.588 2.794 2.794 0 0 0 0 5.588zM167.085 101.937a2.794 2.794 0 1 0 0-5.588 2.794 2.794 0 0 0 0 5.588zM180.654 101.937a2.794 2.794 0 1 0 0-5.588 2.794 2.794 0 0 0 0 5.588zM194.246 101.937a2.793 2.793 0 1 0 0-5.586 2.793 2.793 0 0 0 0 5.586zM207.815 101.937a2.794 2.794 0 1 0-.002-5.588 2.794 2.794 0 0 0 .002 5.588zM221.406 101.937a2.794 2.794 0 1 0 0-5.588 2.794 2.794 0 0 0 0 5.588zM234.997 101.937a2.794 2.794 0 1 0 0-5.588 2.794 2.794 0 0 0 0 5.588zM248.566 101.937a2.794 2.794 0 1 0 0-5.588 2.794 2.794 0 0 0 0 5.588zM262.157 101.937a2.794 2.794 0 1 0 0-5.588 2.794 2.794 0 0 0 0 5.588zM275.749 101.937a2.793 2.793 0 1 0 0-5.586 2.793 2.793 0 0 0 0 5.586zM289.318 101.937a2.794 2.794 0 1 0-.002-5.588 2.794 2.794 0 0 0 .002 5.588zM302.909 101.937a2.794 2.794 0 1 0 0-5.588 2.794 2.794 0 0 0 0 5.588zM316.5 101.937a2.794 2.794 0 1 0 0-5.588 2.794 2.794 0 0 0 0 5.588zM330.069 101.937a2.794 2.794 0 1 0 0-5.588 2.794 2.794 0 0 0 0 5.588zM343.66 101.937a2.794 2.794 0 1 0 0-5.588 2.794 2.794 0 0 0 0 5.588zM357.252 101.937a2.794 2.794 0 1 0-.002-5.588 2.794 2.794 0 0 0 .002 5.588zM370.82 101.937a2.794 2.794 0 1 0 0-5.588 2.794 2.794 0 0 0 0 5.588zM384.412 101.937a2.793 2.793 0 1 0 0-5.586 2.793 2.793 0 0 0 0 5.586zM398.003 101.937a2.794 2.794 0 1 0 0-5.588 2.794 2.794 0 0 0 0 5.588zM411.572 101.937a2.794 2.794 0 1 0 0-5.588 2.794 2.794 0 0 0 0 5.588zM425.163 101.937a2.794 2.794 0 1 0 0-5.588 2.794 2.794 0 0 0 0 5.588zM438.754 101.937a2.794 2.794 0 1 0 0-5.588 2.794 2.794 0 0 0 0 5.588zM452.323 101.937a2.794 2.794 0 1 0 0-5.588 2.794 2.794 0 0 0 0 5.588zM465.914 101.937a2.794 2.794 0 1 0 0-5.588 2.794 2.794 0 0 0 0 5.588zM479.484 101.937a2.794 2.794 0 1 0-.002-5.588 2.794 2.794 0 0 0 .002 5.588zM493.075 101.937a2.794 2.794 0 1 0-.002-5.588 2.794 2.794 0 0 0 .002 5.588zM506.666 101.937a2.794 2.794 0 1 0 0-5.588 2.794 2.794 0 0 0 0 5.588zM520.235 101.937a2.794 2.794 0 1 0 0-5.588 2.794 2.794 0 0 0 0 5.588zM533.826 101.937a2.794 2.794 0 1 0 0-5.588 2.794 2.794 0 0 0 0 5.588zM547.417 101.937a2.794 2.794 0 1 0 0-5.588 2.794 2.794 0 0 0 0 5.588zM560.987 101.937a2.794 2.794 0 1 0-.002-5.588 2.794 2.794 0 0 0 .002 5.588zM574.578 101.937a2.793 2.793 0 1 0 0-5.586 2.793 2.793 0 0 0 0 5.586zM588.169 101.937a2.794 2.794 0 1 0 0-5.588 2.794 2.794 0 0 0 0 5.588zM601.738 101.937a2.794 2.794 0 1 0 0-5.588 2.794 2.794 0 0 0 0 5.588zM615.329 101.937a2.794 2.794 0 1 0 0-5.588 2.794 2.794 0 0 0 0 5.588zM628.92 101.937a2.794 2.794 0 1 0 0-5.588 2.794 2.794 0 0 0 0 5.588zM4.08 115.217a2.484 2.484 0 1 0-.001-4.967 2.484 2.484 0 0 0 0 4.967zM17.649 115.217a2.483 2.483 0 1 0 0-4.967 2.483 2.483 0 0 0 0 4.967zM31.24 115.217a2.484 2.484 0 1 0 0-4.967 2.484 2.484 0 0 0 0 4.967zM44.831 115.217a2.484 2.484 0 1 0 0-4.967 2.484 2.484 0 0 0 0 4.967zM58.4 115.217a2.484 2.484 0 1 0 0-4.967 2.484 2.484 0 0 0 0 4.967zM71.991 115.217a2.484 2.484 0 1 0 0-4.967 2.484 2.484 0 0 0 0 4.967zM85.582 115.217a2.484 2.484 0 1 0 0-4.967 2.484 2.484 0 0 0 0 4.967zM99.152 115.217a2.484 2.484 0 1 0-.001-4.967 2.484 2.484 0 0 0 0 4.967zM112.743 115.217a2.484 2.484 0 1 0-.001-4.967 2.484 2.484 0 0 0 .001 4.967zM126.334 115.217a2.484 2.484 0 1 0-.001-4.967 2.484 2.484 0 0 0 .001 4.967zM139.903 115.217a2.484 2.484 0 1 0-.001-4.967 2.484 2.484 0 0 0 .001 4.967zM153.494 115.217a2.483 2.483 0 1 0 0-4.966 2.483 2.483 0 0 0 0 4.966zM167.085 115.217a2.484 2.484 0 1 0 0-4.968 2.484 2.484 0 0 0 0 4.968zM180.655 115.217a2.484 2.484 0 1 0-.001-4.967 2.484 2.484 0 0 0 .001 4.967zM194.246 115.217a2.484 2.484 0 1 0-.001-4.967 2.484 2.484 0 0 0 .001 4.967zM207.815 115.217a2.484 2.484 0 1 0-.001-4.967 2.484 2.484 0 0 0 .001 4.967zM221.406 115.217a2.484 2.484 0 1 0-.001-4.967 2.484 2.484 0 0 0 .001 4.967zM234.997 115.217a2.483 2.483 0 1 0 0-4.966 2.483 2.483 0 0 0 0 4.966zM248.566 115.217a2.483 2.483 0 1 0 0-4.966 2.483 2.483 0 0 0 0 4.966zM262.157 115.217a2.484 2.484 0 1 0 0-4.968 2.484 2.484 0 0 0 0 4.968zM275.749 115.217a2.484 2.484 0 1 0-.001-4.967 2.484 2.484 0 0 0 .001 4.967zM289.318 115.217a2.484 2.484 0 1 0-.001-4.967 2.484 2.484 0 0 0 .001 4.967zM302.909 115.217a2.484 2.484 0 1 0-.001-4.967 2.484 2.484 0 0 0 .001 4.967zM316.5 115.217a2.484 2.484 0 1 0-.001-4.967 2.484 2.484 0 0 0 .001 4.967zM330.069 115.217a2.484 2.484 0 1 0-.001-4.967 2.484 2.484 0 0 0 .001 4.967zM343.66 115.217a2.484 2.484 0 1 0-.001-4.967 2.484 2.484 0 0 0 .001 4.967zM357.251 115.217a2.484 2.484 0 1 0 0-4.968 2.484 2.484 0 0 0 0 4.968zM370.82 115.217a2.484 2.484 0 1 0 0-4.968 2.484 2.484 0 0 0 0 4.968zM384.412 115.217a2.484 2.484 0 1 0-.001-4.967 2.484 2.484 0 0 0 .001 4.967zM398.003 115.217a2.484 2.484 0 1 0-.001-4.967 2.484 2.484 0 0 0 .001 4.967zM411.572 115.217a2.484 2.484 0 1 0-.001-4.967 2.484 2.484 0 0 0 .001 4.967zM425.163 115.217a2.484 2.484 0 1 0-.001-4.967 2.484 2.484 0 0 0 .001 4.967zM438.754 115.217a2.484 2.484 0 1 0 0-4.968 2.484 2.484 0 0 0 0 4.968zM452.323 115.217a2.483 2.483 0 1 0 0-4.966 2.483 2.483 0 0 0 0 4.966zM465.915 115.217a2.484 2.484 0 1 0-.001-4.967 2.484 2.484 0 0 0 .001 4.967zM479.483 115.217a2.484 2.484 0 1 0 0-4.968 2.484 2.484 0 0 0 0 4.968zM493.075 115.217a2.484 2.484 0 1 0-.001-4.967 2.484 2.484 0 0 0 .001 4.967zM506.666 115.217a2.484 2.484 0 1 0-.001-4.967 2.484 2.484 0 0 0 .001 4.967zM520.235 115.217a2.483 2.483 0 1 0 0-4.966 2.483 2.483 0 0 0 0 4.966zM533.826 115.217a2.483 2.483 0 1 0 0-4.966 2.483 2.483 0 0 0 0 4.966zM547.417 115.217a2.484 2.484 0 1 0 0-4.968 2.484 2.484 0 0 0 0 4.968zM560.986 115.217a2.484 2.484 0 1 0 0-4.968 2.484 2.484 0 0 0 0 4.968zM574.578 115.217a2.484 2.484 0 1 0-.001-4.967 2.484 2.484 0 0 0 .001 4.967zM588.169 115.217a2.484 2.484 0 1 0-.001-4.967 2.484 2.484 0 0 0 .001 4.967zM601.738 115.217a2.484 2.484 0 1 0-.001-4.967 2.484 2.484 0 0 0 .001 4.967zM615.329 115.217a2.484 2.484 0 1 0-.001-4.967 2.484 2.484 0 0 0 .001 4.967zM628.92 115.217a2.484 2.484 0 1 0 0-4.968 2.484 2.484 0 0 0 0 4.968zM4.08 128.496a2.172 2.172 0 1 0 .001-4.344 2.172 2.172 0 0 0-.001 4.344zM17.649 128.496a2.172 2.172 0 1 0 .001-4.344 2.172 2.172 0 0 0-.001 4.344zM31.24 128.496a2.172 2.172 0 1 0 .001-4.344 2.172 2.172 0 0 0-.001 4.344zM44.831 128.496a2.172 2.172 0 1 0 .001-4.344 2.172 2.172 0 0 0-.001 4.344zM58.4 128.496a2.172 2.172 0 1 0 .002-4.344 2.172 2.172 0 0 0-.002 4.344zM71.991 128.496a2.172 2.172 0 1 0 .002-4.344 2.172 2.172 0 0 0-.002 4.344zM85.583 128.496a2.172 2.172 0 1 0 .001-4.344 2.172 2.172 0 0 0-.001 4.344zM99.151 128.496a2.172 2.172 0 1 0 0-4.345 2.173 2.173 0 0 0 0 4.345zM112.743 128.496a2.172 2.172 0 1 0 .001-4.345 2.172 2.172 0 0 0-.001 4.345zM126.334 128.496a2.172 2.172 0 1 0 .001-4.345 2.172 2.172 0 0 0-.001 4.345zM139.903 128.496a2.172 2.172 0 1 0 .001-4.345 2.172 2.172 0 0 0-.001 4.345zM153.494 128.496a2.172 2.172 0 1 0 .001-4.345 2.172 2.172 0 0 0-.001 4.345zM167.085 128.496a2.172 2.172 0 1 0 .001-4.345 2.172 2.172 0 0 0-.001 4.345zM180.654 128.496a2.172 2.172 0 1 0 .001-4.345 2.172 2.172 0 0 0-.001 4.345zM194.245 128.496a2.172 2.172 0 1 0 0-4.345 2.172 2.172 0 0 0 0 4.345zM207.815 128.496a2.171 2.171 0 1 0 0-4.345 2.173 2.173 0 0 0 0 4.345zM221.406 128.496a2.172 2.172 0 1 0 .001-4.345 2.172 2.172 0 0 0-.001 4.345zM234.997 128.496a2.172 2.172 0 1 0 .001-4.345 2.172 2.172 0 0 0-.001 4.345zM248.566 128.496a2.172 2.172 0 1 0 .001-4.345 2.172 2.172 0 0 0-.001 4.345zM262.157 128.496a2.172 2.172 0 1 0 .001-4.345 2.172 2.172 0 0 0-.001 4.345zM275.748 128.496a2.172 2.172 0 1 0 .001-4.345 2.172 2.172 0 0 0-.001 4.345zM289.318 128.496a2.171 2.171 0 1 0 0-4.345 2.173 2.173 0 0 0 0 4.345zM302.909 128.496a2.171 2.171 0 1 0 0-4.345 2.173 2.173 0 0 0 0 4.345zM316.5 128.496a2.172 2.172 0 1 0 .001-4.345 2.172 2.172 0 0 0-.001 4.345zM330.069 128.496a2.172 2.172 0 1 0 .001-4.345 2.172 2.172 0 0 0-.001 4.345zM343.66 128.496a2.172 2.172 0 1 0 .001-4.345 2.172 2.172 0 0 0-.001 4.345zM357.251 128.496a2.172 2.172 0 1 0 .001-4.345 2.172 2.172 0 0 0-.001 4.345zM370.82 128.496a2.172 2.172 0 1 0 .001-4.345 2.172 2.172 0 0 0-.001 4.345zM384.412 128.496a2.171 2.171 0 1 0 0-4.345 2.173 2.173 0 0 0 0 4.345zM398.003 128.496a2.172 2.172 0 1 0 .001-4.345 2.172 2.172 0 0 0-.001 4.345zM411.572 128.496a2.172 2.172 0 1 0 .001-4.345 2.172 2.172 0 0 0-.001 4.345zM425.163 128.496a2.172 2.172 0 1 0 .001-4.345 2.172 2.172 0 0 0-.001 4.345zM438.754 128.496a2.172 2.172 0 1 0 .001-4.345 2.172 2.172 0 0 0-.001 4.345zM452.323 128.496a2.172 2.172 0 1 0 .001-4.345 2.172 2.172 0 0 0-.001 4.345zM465.914 128.496a2.172 2.172 0 1 0 .001-4.345 2.172 2.172 0 0 0-.001 4.345zM479.484 128.496a2.171 2.171 0 1 0 0-4.345 2.173 2.173 0 0 0 0 4.345zM493.075 128.496a2.171 2.171 0 1 0 0-4.345 2.173 2.173 0 0 0 0 4.345zM506.666 128.496a2.172 2.172 0 1 0 .001-4.345 2.172 2.172 0 0 0-.001 4.345zM520.235 128.496a2.172 2.172 0 1 0 .001-4.345 2.172 2.172 0 0 0-.001 4.345zM533.826 128.496a2.172 2.172 0 1 0 .001-4.345 2.172 2.172 0 0 0-.001 4.345zM547.417 128.496a2.172 2.172 0 1 0 .001-4.345 2.172 2.172 0 0 0-.001 4.345zM560.987 128.496a2.171 2.171 0 1 0 0-4.345 2.173 2.173 0 0 0 0 4.345zM574.578 128.496a2.171 2.171 0 1 0 0-4.345 2.173 2.173 0 0 0 0 4.345zM588.169 128.496a2.172 2.172 0 1 0 .001-4.345 2.172 2.172 0 0 0-.001 4.345zM601.738 128.496a2.172 2.172 0 1 0 .001-4.345 2.172 2.172 0 0 0-.001 4.345zM615.329 128.496a2.172 2.172 0 1 0 .001-4.345 2.172 2.172 0 0 0-.001 4.345zM628.92 128.496a2.172 2.172 0 1 0 .001-4.345 2.172 2.172 0 0 0-.001 4.345zM4.08 141.754a1.862 1.862 0 1 0 0-3.725 1.862 1.862 0 0 0 0 3.725zM17.649 141.754a1.862 1.862 0 1 0 0-3.725 1.862 1.862 0 0 0 0 3.725zM31.24 141.754a1.862 1.862 0 1 0 0-3.725 1.862 1.862 0 0 0 0 3.725zM44.83 141.754a1.862 1.862 0 1 0 0-3.725 1.862 1.862 0 0 0 0 3.725zM58.4 141.754a1.862 1.862 0 1 0 0-3.725 1.862 1.862 0 0 0 0 3.725zM71.991 141.754a1.862 1.862 0 1 0 0-3.725 1.862 1.862 0 0 0 0 3.725zM85.582 141.754a1.862 1.862 0 1 0 0-3.725 1.862 1.862 0 0 0 0 3.725zM99.151 141.754a1.863 1.863 0 1 0 0-3.725 1.863 1.863 0 0 0 0 3.725zM112.743 141.754a1.862 1.862 0 1 0 0-3.725 1.862 1.862 0 0 0 0 3.725zM126.334 141.754a1.862 1.862 0 1 0 0-3.725 1.862 1.862 0 0 0 0 3.725zM139.903 141.754a1.862 1.862 0 1 0 0-3.724 1.862 1.862 0 0 0 0 3.724zM153.494 141.754a1.862 1.862 0 1 0 0-3.724 1.862 1.862 0 0 0 0 3.724zM167.085 141.754a1.863 1.863 0 1 0 0-3.725 1.863 1.863 0 0 0 0 3.725zM180.654 141.754a1.863 1.863 0 1 0 0-3.725 1.863 1.863 0 0 0 0 3.725zM194.246 141.754a1.862 1.862 0 1 0 0-3.725 1.862 1.862 0 0 0 0 3.725zM207.815 141.754a1.862 1.862 0 1 0 0-3.725 1.862 1.862 0 0 0 0 3.725zM221.406 141.754a1.862 1.862 0 1 0 0-3.725 1.862 1.862 0 0 0 0 3.725zM234.997 141.754a1.862 1.862 0 1 0 0-3.725 1.862 1.862 0 0 0 0 3.725zM248.566 141.754a1.863 1.863 0 1 0 0-3.725 1.863 1.863 0 0 0 0 3.725zM262.157 141.754a1.863 1.863 0 1 0 0-3.725 1.863 1.863 0 0 0 0 3.725zM275.749 141.754a1.862 1.862 0 1 0 0-3.725 1.862 1.862 0 0 0 0 3.725zM289.317 141.754a1.863 1.863 0 1 0 0-3.725 1.863 1.863 0 0 0 0 3.725zM302.909 141.754a1.862 1.862 0 1 0 0-3.725 1.862 1.862 0 0 0 0 3.725zM316.5 141.754a1.862 1.862 0 1 0 0-3.725 1.862 1.862 0 0 0 0 3.725zM330.069 141.754a1.862 1.862 0 1 0 0-3.724 1.862 1.862 0 0 0 0 3.724zM343.66 141.754a1.863 1.863 0 1 0 0-3.725 1.863 1.863 0 0 0 0 3.725zM357.251 141.754a1.863 1.863 0 1 0 0-3.725 1.863 1.863 0 0 0 0 3.725zM370.82 141.754a1.863 1.863 0 1 0 0-3.725 1.863 1.863 0 0 0 0 3.725zM384.412 141.754a1.862 1.862 0 1 0 0-3.725 1.862 1.862 0 0 0 0 3.725zM398.003 141.754a1.862 1.862 0 1 0 0-3.725 1.862 1.862 0 0 0 0 3.725zM411.572 141.754a1.862 1.862 0 1 0 0-3.724 1.862 1.862 0 0 0 0 3.724zM425.163 141.754a1.862 1.862 0 1 0 0-3.724 1.862 1.862 0 0 0 0 3.724zM438.754 141.754a1.863 1.863 0 1 0 0-3.725 1.863 1.863 0 0 0 0 3.725zM452.323 141.754a1.863 1.863 0 1 0 0-3.725 1.863 1.863 0 0 0 0 3.725zM465.915 141.754a1.862 1.862 0 1 0 0-3.725 1.862 1.862 0 0 0 0 3.725zM479.483 141.754a1.863 1.863 0 1 0 0-3.725 1.863 1.863 0 0 0 0 3.725zM493.075 141.754a1.862 1.862 0 1 0 0-3.725 1.862 1.862 0 0 0 0 3.725zM506.666 141.754a1.862 1.862 0 1 0 0-3.724 1.862 1.862 0 0 0 0 3.724zM520.235 141.754a1.862 1.862 0 1 0 0-3.724 1.862 1.862 0 0 0 0 3.724zM533.826 141.754a1.863 1.863 0 1 0 0-3.725 1.863 1.863 0 0 0 0 3.725zM547.417 141.754a1.863 1.863 0 1 0 0-3.725 1.863 1.863 0 0 0 0 3.725zM560.986 141.754a1.863 1.863 0 1 0 0-3.725 1.863 1.863 0 0 0 0 3.725zM574.578 141.754a1.862 1.862 0 1 0 0-3.725 1.862 1.862 0 0 0 0 3.725zM588.169 141.754a1.862 1.862 0 1 0 0-3.725 1.862 1.862 0 0 0 0 3.725zM601.738 141.754a1.862 1.862 0 1 0 0-3.724 1.862 1.862 0 0 0 0 3.724zM615.329 141.754a1.862 1.862 0 1 0 0-3.724 1.862 1.862 0 0 0 0 3.724zM628.92 141.754a1.863 1.863 0 1 0 0-3.725 1.863 1.863 0 0 0 0 3.725zM4.08 155.056a1.574 1.574 0 1 0 0-3.149 1.574 1.574 0 0 0 0 3.149zM17.649 155.056a1.574 1.574 0 1 0 0-3.149 1.574 1.574 0 0 0 0 3.149zM31.24 155.056a1.574 1.574 0 1 0 0-3.149 1.574 1.574 0 0 0 0 3.149zM44.831 155.056a1.574 1.574 0 1 0 0-3.149 1.574 1.574 0 0 0 0 3.149zM58.4 155.056a1.574 1.574 0 1 0 0-3.149 1.574 1.574 0 0 0 0 3.149zM71.991 155.056a1.574 1.574 0 1 0 0-3.149 1.574 1.574 0 0 0 0 3.149zM85.582 155.056a1.574 1.574 0 1 0 0-3.148 1.574 1.574 0 0 0 0 3.148zM99.151 155.056a1.574 1.574 0 1 0 0-3.149 1.574 1.574 0 0 0 0 3.149zM112.743 155.056a1.574 1.574 0 1 0 0-3.149 1.574 1.574 0 0 0 0 3.149zM126.334 155.056a1.574 1.574 0 1 0 0-3.149 1.574 1.574 0 0 0 0 3.149zM139.903 155.056a1.574 1.574 0 1 0 0-3.149 1.574 1.574 0 0 0 0 3.149zM153.494 155.056a1.574 1.574 0 1 0 0-3.147 1.574 1.574 0 0 0 0 3.147zM167.085 155.056a1.574 1.574 0 1 0 0-3.147 1.574 1.574 0 0 0 0 3.147zM180.654 155.056a1.575 1.575 0 1 0 0-3.15 1.575 1.575 0 0 0 0 3.15zM194.246 155.056a1.574 1.574 0 1 0 0-3.149 1.574 1.574 0 0 0 0 3.149zM207.815 155.056a1.574 1.574 0 1 0 0-3.149 1.574 1.574 0 0 0 0 3.149zM221.406 155.056a1.574 1.574 0 1 0 0-3.149 1.574 1.574 0 0 0 0 3.149zM234.997 155.056a1.574 1.574 0 1 0 0-3.149 1.574 1.574 0 0 0 0 3.149zM248.566 155.056a1.574 1.574 0 1 0 0-3.149 1.574 1.574 0 0 0 0 3.149zM262.157 155.056a1.575 1.575 0 1 0 0-3.15 1.575 1.575 0 0 0 0 3.15zM275.748 155.056a1.575 1.575 0 1 0 0-3.15 1.575 1.575 0 0 0 0 3.15zM289.318 155.056a1.574 1.574 0 1 0 0-3.149 1.574 1.574 0 0 0 0 3.149zM302.909 155.056a1.574 1.574 0 1 0 0-3.149 1.574 1.574 0 0 0 0 3.149zM316.5 155.056a1.574 1.574 0 1 0 0-3.149 1.574 1.574 0 0 0 0 3.149zM330.069 155.056a1.574 1.574 0 1 0 0-3.149 1.574 1.574 0 0 0 0 3.149zM343.66 155.056a1.574 1.574 0 1 0 0-3.147 1.574 1.574 0 0 0 0 3.147zM357.251 155.056a1.574 1.574 0 1 0 0-3.147 1.574 1.574 0 0 0 0 3.147zM370.82 155.056a1.575 1.575 0 1 0 0-3.15 1.575 1.575 0 0 0 0 3.15zM384.412 155.056a1.574 1.574 0 1 0 0-3.149 1.574 1.574 0 0 0 0 3.149zM398.003 155.056a1.574 1.574 0 1 0 0-3.149 1.574 1.574 0 0 0 0 3.149zM411.572 155.056a1.574 1.574 0 1 0 0-3.149 1.574 1.574 0 0 0 0 3.149zM425.163 155.056a1.574 1.574 0 1 0 0-3.147 1.574 1.574 0 0 0 0 3.147zM438.754 155.056a1.574 1.574 0 1 0 0-3.147 1.574 1.574 0 0 0 0 3.147zM452.323 155.056a1.575 1.575 0 1 0 0-3.15 1.575 1.575 0 0 0 0 3.15zM465.914 155.056a1.575 1.575 0 1 0 0-3.15 1.575 1.575 0 0 0 0 3.15zM479.484 155.056a1.574 1.574 0 1 0 0-3.149 1.574 1.574 0 0 0 0 3.149zM493.075 155.056a1.574 1.574 0 1 0 0-3.149 1.574 1.574 0 0 0 0 3.149zM506.666 155.056a1.574 1.574 0 1 0 0-3.149 1.574 1.574 0 0 0 0 3.149zM520.235 155.056a1.574 1.574 0 1 0 0-3.149 1.574 1.574 0 0 0 0 3.149zM533.826 155.056a1.574 1.574 0 1 0 0-3.147 1.574 1.574 0 0 0 0 3.147zM547.417 155.056a1.575 1.575 0 1 0 0-3.15 1.575 1.575 0 0 0 0 3.15zM560.987 155.056a1.574 1.574 0 1 0 0-3.149 1.574 1.574 0 0 0 0 3.149zM574.578 155.056a1.574 1.574 0 1 0 0-3.149 1.574 1.574 0 0 0 0 3.149zM588.169 155.056a1.574 1.574 0 1 0 0-3.149 1.574 1.574 0 0 0 0 3.149zM601.738 155.056a1.574 1.574 0 1 0 0-3.149 1.574 1.574 0 0 0 0 3.149zM615.329 155.056a1.574 1.574 0 1 0 0-3.147 1.574 1.574 0 0 0 0 3.147zM628.92 155.056a1.574 1.574 0 1 0 0-3.147 1.574 1.574 0 0 0 0 3.147zM4.08 168.358a1.286 1.286 0 1 0 0-2.572 1.286 1.286 0 0 0 0 2.572zM17.648 168.358a1.286 1.286 0 1 0 0-2.572 1.286 1.286 0 0 0 0 2.572zM31.24 168.358a1.286 1.286 0 1 0 0-2.572 1.286 1.286 0 0 0 0 2.572zM44.83 168.358a1.286 1.286 0 1 0 0-2.572 1.286 1.286 0 0 0 0 2.572zM58.4 168.358a1.286 1.286 0 1 0 0-2.572 1.286 1.286 0 0 0 0 2.572zM71.991 168.358a1.286 1.286 0 1 0 0-2.572 1.286 1.286 0 0 0 0 2.572zM85.582 168.358a1.286 1.286 0 1 0 0-2.572 1.286 1.286 0 0 0 0 2.572zM99.151 168.358a1.286 1.286 0 1 0 0-2.572 1.286 1.286 0 0 0 0 2.572zM112.743 168.358a1.286 1.286 0 1 0 0-2.573 1.286 1.286 0 0 0 0 2.573zM126.334 168.358a1.286 1.286 0 1 0 0-2.573 1.286 1.286 0 0 0 0 2.573zM139.903 168.358a1.286 1.286 0 1 0 0-2.573 1.286 1.286 0 0 0 0 2.573zM153.494 168.358a1.286 1.286 0 1 0 0-2.573 1.286 1.286 0 0 0 0 2.573zM167.085 168.358a1.286 1.286 0 1 0 0-2.571 1.286 1.286 0 0 0 0 2.571zM180.654 168.358a1.286 1.286 0 1 0 0-2.571 1.286 1.286 0 0 0 0 2.571zM194.246 168.358a1.286 1.286 0 1 0 0-2.573 1.286 1.286 0 0 0 0 2.573zM207.815 168.358a1.285 1.285 0 1 0 0-2.57 1.285 1.285 0 0 0 0 2.57zM221.406 168.358a1.286 1.286 0 1 0 0-2.573 1.286 1.286 0 0 0 0 2.573zM234.997 168.358a1.286 1.286 0 1 0 0-2.573 1.286 1.286 0 0 0 0 2.573zM248.566 168.358a1.286 1.286 0 1 0 0-2.573 1.286 1.286 0 0 0 0 2.573zM262.157 168.358a1.286 1.286 0 1 0 0-2.573 1.286 1.286 0 0 0 0 2.573zM275.749 168.358a1.285 1.285 0 1 0 0-2.57 1.285 1.285 0 0 0 0 2.57zM289.317 168.358a1.286 1.286 0 1 0 0-2.571 1.286 1.286 0 0 0 0 2.571zM302.909 168.358a1.286 1.286 0 1 0 0-2.573 1.286 1.286 0 0 0 0 2.573zM316.5 168.358a1.286 1.286 0 1 0 0-2.573 1.286 1.286 0 0 0 0 2.573zM330.069 168.358a1.286 1.286 0 1 0 0-2.573 1.286 1.286 0 0 0 0 2.573zM343.66 168.358a1.286 1.286 0 1 0 0-2.573 1.286 1.286 0 0 0 0 2.573zM357.251 168.358a1.286 1.286 0 1 0 0-2.571 1.286 1.286 0 0 0 0 2.571zM370.82 168.358a1.286 1.286 0 1 0 0-2.571 1.286 1.286 0 0 0 0 2.571zM384.412 168.358a1.286 1.286 0 1 0 0-2.573 1.286 1.286 0 0 0 0 2.573zM398.003 168.358a1.286 1.286 0 1 0 0-2.573 1.286 1.286 0 0 0 0 2.573zM411.572 168.358a1.286 1.286 0 1 0 0-2.573 1.286 1.286 0 0 0 0 2.573zM425.163 168.358a1.286 1.286 0 1 0 0-2.573 1.286 1.286 0 0 0 0 2.573zM438.754 168.358a1.286 1.286 0 1 0 0-2.571 1.286 1.286 0 0 0 0 2.571zM452.323 168.358a1.286 1.286 0 1 0 0-2.573 1.286 1.286 0 0 0 0 2.573zM465.915 168.358a1.286 1.286 0 1 0 0-2.573 1.286 1.286 0 0 0 0 2.573zM479.483 168.358a1.286 1.286 0 1 0 0-2.571 1.286 1.286 0 0 0 0 2.571zM493.075 168.358a1.286 1.286 0 1 0 0-2.573 1.286 1.286 0 0 0 0 2.573zM506.666 168.358a1.286 1.286 0 1 0 0-2.573 1.286 1.286 0 0 0 0 2.573zM520.235 168.358a1.286 1.286 0 1 0 0-2.573 1.286 1.286 0 0 0 0 2.573zM533.826 168.358a1.286 1.286 0 1 0 0-2.573 1.286 1.286 0 0 0 0 2.573zM547.417 168.358a1.286 1.286 0 1 0 0-2.571 1.286 1.286 0 0 0 0 2.571zM560.986 168.358a1.286 1.286 0 1 0 0-2.571 1.286 1.286 0 0 0 0 2.571zM574.578 168.358a1.286 1.286 0 1 0 0-2.573 1.286 1.286 0 0 0 0 2.573zM588.169 168.358a1.286 1.286 0 1 0 0-2.573 1.286 1.286 0 0 0 0 2.573zM601.738 168.358a1.286 1.286 0 1 0 0-2.573 1.286 1.286 0 0 0 0 2.573zM615.329 168.358a1.286 1.286 0 1 0 0-2.573 1.286 1.286 0 0 0 0 2.573zM628.92 168.358a1.286 1.286 0 1 0 0-2.571 1.286 1.286 0 0 0 0 2.571zM4.08 181.637a.997.997 0 1 0 0-1.994.997.997 0 0 0 0 1.994zM17.649 181.637a.997.997 0 1 0 0-1.994.997.997 0 0 0 0 1.994zM31.24 181.637a.997.997 0 1 0 0-1.994.997.997 0 0 0 0 1.994zM44.831 181.637a.997.997 0 1 0 .001-1.994.997.997 0 0 0-.001 1.994zM58.4 181.637a.997.997 0 1 0 .001-1.994.997.997 0 0 0-.001 1.994zM71.991 181.637a.997.997 0 1 0 .001-1.994.997.997 0 0 0 0 1.994zM85.582 181.637a.997.997 0 1 0 .002-1.994.997.997 0 0 0-.002 1.994zM99.151 181.637a.997.997 0 1 0 .002-1.994.997.997 0 0 0-.002 1.994zM112.743 181.637a.997.997 0 1 0 .001-1.993.997.997 0 0 0-.001 1.993zM126.334 181.637a.997.997 0 1 0 .001-1.995.997.997 0 0 0-.001 1.995zM139.903 181.637a.997.997 0 1 0 .001-1.995.997.997 0 0 0-.001 1.995zM153.494 181.637a.997.997 0 1 0 .001-1.995.997.997 0 0 0-.001 1.995zM167.085 181.637a.997.997 0 1 0 .001-1.995.997.997 0 0 0-.001 1.995zM180.654 181.637a.997.997 0 1 0 .001-1.995.997.997 0 0 0-.001 1.995zM194.246 181.637a.997.997 0 1 0 .001-1.993.997.997 0 0 0-.001 1.993zM207.815 181.637a.997.997 0 1 0 .001-1.993.997.997 0 0 0-.001 1.993zM221.406 181.637a.997.997 0 1 0 .001-1.993.997.997 0 0 0-.001 1.993zM234.997 181.637a.997.997 0 1 0 .001-1.995.997.997 0 0 0-.001 1.995zM248.566 181.637a.997.997 0 1 0 .001-1.995.997.997 0 0 0-.001 1.995zM262.157 181.637a.997.997 0 1 0 .001-1.995.997.997 0 0 0-.001 1.995zM275.748 181.637a.997.997 0 1 0 .001-1.995.997.997 0 0 0-.001 1.995zM289.318 181.637a.997.997 0 1 0 .001-1.993.997.997 0 0 0-.001 1.993zM302.909 181.637a.997.997 0 1 0 .001-1.993.997.997 0 0 0-.001 1.993zM316.5 181.637a.997.997 0 1 0 .001-1.995.997.997 0 0 0-.001 1.995zM330.069 181.637a.997.997 0 1 0 .001-1.995.997.997 0 0 0-.001 1.995zM343.66 181.637a.997.997 0 1 0 .001-1.995.997.997 0 0 0-.001 1.995zM357.251 181.637a.997.997 0 1 0 .001-1.995.997.997 0 0 0-.001 1.995zM370.82 181.637a.997.997 0 1 0 .001-1.995.997.997 0 0 0-.001 1.995zM384.412 181.637a.997.997 0 1 0 .001-1.993.997.997 0 0 0-.001 1.993zM398.003 181.637a.997.997 0 1 0 .001-1.995.997.997 0 0 0-.001 1.995zM411.572 181.637a.997.997 0 1 0 .001-1.995.997.997 0 0 0-.001 1.995zM425.163 181.637a.997.997 0 1 0 .001-1.995.997.997 0 0 0-.001 1.995zM438.754 181.637a.997.997 0 1 0 .001-1.995.997.997 0 0 0-.001 1.995zM452.323 181.637a.997.997 0 1 0 .001-1.995.997.997 0 0 0-.001 1.995zM465.914 181.637a.997.997 0 1 0 .001-1.995.997.997 0 0 0-.001 1.995zM479.484 181.637a.997.997 0 1 0 .001-1.993.997.997 0 0 0-.001 1.993zM493.075 181.637a.997.997 0 1 0 .001-1.993.997.997 0 0 0-.001 1.993zM506.666 181.637a.997.997 0 1 0 .001-1.995.997.997 0 0 0-.001 1.995zM520.235 181.637a.997.997 0 1 0 .001-1.995.997.997 0 0 0-.001 1.995zM533.826 181.637a.997.997 0 1 0 .001-1.995.997.997 0 0 0-.001 1.995zM547.417 181.637a.997.997 0 1 0 .001-1.995.997.997 0 0 0-.001 1.995zM560.987 181.637a.997.997 0 1 0 .001-1.993.997.997 0 0 0-.001 1.993zM574.578 181.637a.997.997 0 1 0 .001-1.993.997.997 0 0 0-.001 1.993zM588.169 181.637a.997.997 0 1 0 .001-1.995.997.997 0 0 0-.001 1.995zM601.738 181.637a.997.997 0 1 0 .001-1.995.997.997 0 0 0-.001 1.995zM615.329 181.637a.997.997 0 1 0 .001-1.995.997.997 0 0 0-.001 1.995zM628.92 181.637a.997.997 0 1 0 .001-1.995.997.997 0 0 0-.001 1.995zM4.08 194.939a.709.709 0 1 0 0-1.418.709.709 0 0 0 0 1.418zM17.648 194.939a.709.709 0 1 0 .001-1.418.709.709 0 0 0 0 1.418zM31.24 194.939a.709.709 0 1 0 0-1.418.709.709 0 0 0 0 1.418zM44.83 194.939a.709.709 0 1 0 .002-1.418.709.709 0 0 0-.001 1.418zM58.4 194.939a.709.709 0 1 0 .001-1.418.709.709 0 0 0 0 1.418zM71.991 194.939a.709.709 0 1 0 .001-1.418.709.709 0 0 0 0 1.418zM85.582 194.939a.709.709 0 1 0 .001-1.418.709.709 0 0 0 0 1.418zM99.151 194.939a.709.709 0 1 0 .001-1.418.709.709 0 0 0 0 1.418zM112.743 194.939a.708.708 0 1 0 .001-1.417.708.708 0 0 0-.001 1.417zM126.334 194.939a.708.708 0 1 0 .001-1.417.708.708 0 0 0-.001 1.417zM139.903 194.939a.708.708 0 1 0 .001-1.417.708.708 0 0 0-.001 1.417zM153.494 194.939a.71.71 0 1 0 .001-1.419.71.71 0 0 0-.001 1.419zM167.085 194.939a.71.71 0 1 0 .001-1.419.71.71 0 0 0-.001 1.419zM180.654 194.939a.71.71 0 1 0 .001-1.419.71.71 0 0 0-.001 1.419zM194.246 194.939a.71.71 0 1 0 0-1.418.71.71 0 0 0 0 1.418zM207.815 194.939a.71.71 0 1 0 0-1.418.71.71 0 0 0 0 1.418zM221.406 194.939a.708.708 0 1 0 .001-1.417.708.708 0 0 0-.001 1.417zM234.997 194.939a.708.708 0 1 0 .001-1.417.708.708 0 0 0-.001 1.417zM248.566 194.939a.71.71 0 1 0 .001-1.419.71.71 0 0 0-.001 1.419zM262.157 194.939a.71.71 0 1 0 .001-1.419.71.71 0 0 0-.001 1.419zM275.749 194.939a.71.71 0 1 0 0-1.418.71.71 0 0 0 0 1.418zM289.317 194.939a.71.71 0 1 0 .001-1.419.71.71 0 0 0-.001 1.419zM302.909 194.939a.708.708 0 1 0 .001-1.417.708.708 0 0 0-.001 1.417zM316.5 194.939a.708.708 0 1 0 .001-1.417.708.708 0 0 0-.001 1.417zM330.069 194.939a.71.71 0 1 0 .001-1.419.71.71 0 0 0-.001 1.419zM343.66 194.939a.71.71 0 1 0 .001-1.419.71.71 0 0 0-.001 1.419zM357.251 194.939a.71.71 0 1 0 .001-1.419.71.71 0 0 0-.001 1.419zM370.82 194.939a.71.71 0 1 0 .001-1.419.71.71 0 0 0-.001 1.419zM384.412 194.939a.708.708 0 1 0 .001-1.417.708.708 0 0 0-.001 1.417zM398.003 194.939a.708.708 0 1 0 .001-1.417.708.708 0 0 0-.001 1.417zM411.572 194.939a.708.708 0 1 0 .001-1.417.708.708 0 0 0-.001 1.417zM425.163 194.939a.71.71 0 1 0 .001-1.419.71.71 0 0 0-.001 1.419zM438.754 194.939a.71.71 0 1 0 .001-1.419.71.71 0 0 0-.001 1.419zM452.323 194.939a.71.71 0 1 0 .001-1.419.71.71 0 0 0-.001 1.419zM465.915 194.939a.71.71 0 1 0 0-1.418.71.71 0 0 0 0 1.418zM479.483 194.939a.71.71 0 1 0 .001-1.419.71.71 0 0 0-.001 1.419zM493.075 194.939a.708.708 0 1 0 .001-1.417.708.708 0 0 0-.001 1.417zM506.666 194.939a.708.708 0 1 0 .001-1.417.708.708 0 0 0-.001 1.417zM520.235 194.939a.71.71 0 1 0 .001-1.419.71.71 0 0 0-.001 1.419zM533.826 194.939a.71.71 0 1 0 .001-1.419.71.71 0 0 0-.001 1.419zM547.417 194.939a.71.71 0 1 0 .001-1.419.71.71 0 0 0-.001 1.419zM560.986 194.939a.71.71 0 1 0 .001-1.419.71.71 0 0 0-.001 1.419zM574.578 194.939a.708.708 0 1 0 .001-1.417.708.708 0 0 0-.001 1.417zM588.169 194.939a.708.708 0 1 0 .001-1.417.708.708 0 0 0-.001 1.417zM601.738 194.939a.71.71 0 1 0 .001-1.419.71.71 0 0 0-.001 1.419zM615.329 194.939a.71.71 0 1 0 .001-1.419.71.71 0 0 0-.001 1.419zM628.92 194.939a.71.71 0 1 0 .001-1.419.71.71 0 0 0-.001 1.419zM4.08 208.285a.465.465 0 1 0 0-.93.465.465 0 0 0 0 .93zM17.649 208.285a.465.465 0 1 0 0-.93.465.465 0 0 0 0 .93zM31.24 208.285a.465.465 0 1 0 0-.93.465.465 0 0 0 0 .93zM44.831 208.285a.465.465 0 1 0 0-.93.465.465 0 0 0 0 .93zM58.4 208.285a.465.465 0 1 0 0-.93.465.465 0 0 0 0 .93zM71.991 208.285a.465.465 0 1 0 .001-.93.465.465 0 0 0 0 .93zM85.582 208.285a.465.465 0 1 0 .001-.93.465.465 0 0 0 0 .93zM99.151 208.285a.465.465 0 1 0 .001-.93.465.465 0 0 0 0 .93zM112.743 208.285a.465.465 0 1 0 0-.93.465.465 0 0 0 0 .93zM126.334 208.285a.466.466 0 1 0 0-.931.466.466 0 0 0 0 .931zM139.903 208.285a.465.465 0 1 0 0-.93.465.465 0 0 0 0 .93zM153.494 208.285a.466.466 0 1 0 0-.931.466.466 0 0 0 0 .931zM167.085 208.285a.466.466 0 1 0 0-.931.466.466 0 0 0 0 .931zM180.654 208.285a.465.465 0 1 0 .002-.93.465.465 0 0 0-.002.93zM194.245 208.285a.465.465 0 1 0 .002-.93.465.465 0 0 0-.002.93zM207.815 208.285a.465.465 0 1 0 0-.93.465.465 0 0 0 0 .93zM221.406 208.285a.465.465 0 1 0 0-.93.465.465 0 0 0 0 .93zM234.997 208.285a.466.466 0 1 0 0-.931.466.466 0 0 0 0 .931zM248.566 208.285a.466.466 0 1 0 0-.931.466.466 0 0 0 0 .931zM262.157 208.285a.466.466 0 1 0 0-.931.466.466 0 0 0 0 .931zM275.748 208.285a.465.465 0 1 0 .002-.93.465.465 0 0 0-.002.93zM289.318 208.285a.465.465 0 1 0 0-.93.465.465 0 0 0 0 .93zM302.909 208.285a.465.465 0 1 0 0-.93.465.465 0 0 0 0 .93zM316.5 208.285a.466.466 0 1 0 0-.931.466.466 0 0 0 0 .931zM330.069 208.285a.465.465 0 1 0 0-.93.465.465 0 0 0 0 .93zM343.66 208.285a.466.466 0 1 0 0-.931.466.466 0 0 0 0 .931zM357.251 208.285a.465.465 0 1 0 .002-.93.465.465 0 0 0-.002.93zM370.82 208.285a.465.465 0 1 0 .002-.93.465.465 0 0 0-.002.93zM384.412 208.285a.465.465 0 1 0 0-.93.465.465 0 0 0 0 .93zM398.003 208.285a.466.466 0 1 0 0-.931.466.466 0 0 0 0 .931zM411.572 208.285a.465.465 0 1 0 0-.93.465.465 0 0 0 0 .93zM425.163 208.285a.466.466 0 1 0 0-.931.466.466 0 0 0 0 .931zM438.754 208.285a.466.466 0 1 0 0-.931.466.466 0 0 0 0 .931zM452.323 208.285a.466.466 0 1 0 0-.931.466.466 0 0 0 0 .931zM465.914 208.285a.465.465 0 1 0 .002-.93.465.465 0 0 0-.002.93zM479.484 208.285a.465.465 0 1 0 0-.93.465.465 0 0 0 0 .93zM493.075 208.285a.465.465 0 1 0 0-.93.465.465 0 0 0 0 .93zM506.666 208.285a.466.466 0 1 0 0-.931.466.466 0 0 0 0 .931zM520.235 208.285a.466.466 0 1 0 0-.931.466.466 0 0 0 0 .931zM533.826 208.285a.466.466 0 1 0 0-.931.466.466 0 0 0 0 .931zM547.417 208.285a.466.466 0 1 0 0-.931.466.466 0 0 0 0 .931zM560.987 208.285a.465.465 0 1 0 0-.93.465.465 0 0 0 0 .93zM574.578 208.285a.465.465 0 1 0 0-.93.465.465 0 0 0 0 .93zM588.169 208.285a.466.466 0 1 0 0-.931.466.466 0 0 0 0 .931zM601.738 208.285a.465.465 0 1 0 0-.93.465.465 0 0 0 0 .93zM615.329 208.285a.466.466 0 1 0 0-.931.466.466 0 0 0 0 .931zM628.92 208.285a.466.466 0 1 0 0-.931.466.466 0 0 0 0 .931zM4.08 221.609a.221.221 0 1 0 0-.443.221.221 0 0 0 0 .443zM17.649 221.609a.221.221 0 1 0 0-.443.221.221 0 0 0 0 .443zM31.24 221.609a.221.221 0 1 0 0-.443.221.221 0 0 0 0 .443zM44.831 221.609a.221.221 0 1 0 0-.443.221.221 0 0 0 0 .443zM58.4 221.609a.221.221 0 1 0 0-.443.221.221 0 0 0 0 .443zM71.991 221.609a.221.221 0 1 0 .001-.443.221.221 0 0 0 0 .443zM85.582 221.609a.221.221 0 1 0 .001-.443.221.221 0 0 0 0 .443zM99.152 221.609a.221.221 0 1 0 0-.443.221.221 0 0 0 0 .443zM112.743 221.609a.221.221 0 1 0 0-.442.221.221 0 0 0 0 .442zM126.334 221.609a.222.222 0 1 0 0-.444.222.222 0 0 0 0 .444zM139.903 221.609a.222.222 0 1 0 0-.444.222.222 0 0 0 0 .444zM153.494 221.609a.221.221 0 1 0 0-.443.222.222 0 0 0 0 .443zM167.085 221.609a.221.221 0 1 0 .001-.443.221.221 0 0 0-.001.443zM180.654 221.609a.221.221 0 1 0 .001-.443.221.221 0 0 0-.001.443zM194.246 221.609a.221.221 0 1 0 0-.442.221.221 0 0 0 0 .442zM207.815 221.609a.221.221 0 1 0 0-.442.221.221 0 0 0 0 .442zM221.406 221.609a.222.222 0 1 0 0-.444.222.222 0 0 0 0 .444zM234.997 221.609a.222.222 0 1 0 0-.444.222.222 0 0 0 0 .444zM248.566 221.609a.221.221 0 1 0 0-.443.222.222 0 0 0 0 .443zM262.157 221.609a.221.221 0 1 0 0-.443.222.222 0 0 0 0 .443zM275.749 221.609a.221.221 0 1 0 0-.442.221.221 0 0 0 0 .442zM289.317 221.609a.221.221 0 1 0 .001-.443.221.221 0 0 0-.001.443zM302.909 221.609a.221.221 0 1 0 0-.442.221.221 0 0 0 0 .442zM316.5 221.609a.222.222 0 1 0 0-.444.222.222 0 0 0 0 .444zM330.069 221.609a.222.222 0 1 0 0-.444.222.222 0 0 0 0 .444zM343.66 221.609a.221.221 0 1 0 0-.443.222.222 0 0 0 0 .443zM357.251 221.609a.221.221 0 1 0 .001-.443.221.221 0 0 0-.001.443zM370.82 221.609a.221.221 0 1 0 .001-.443.221.221 0 0 0-.001.443zM384.412 221.609a.221.221 0 1 0 0-.442.221.221 0 0 0 0 .442zM398.003 221.609a.221.221 0 1 0 0-.442.221.221 0 0 0 0 .442zM411.572 221.609a.222.222 0 1 0 0-.444.222.222 0 0 0 0 .444zM425.163 221.609a.222.222 0 1 0 0-.444.222.222 0 0 0 0 .444zM438.754 221.609a.221.221 0 1 0 .001-.443.221.221 0 0 0-.001.443zM452.323 221.609a.221.221 0 1 0 .001-.443.221.221 0 0 0-.001.443zM465.915 221.609a.221.221 0 1 0 0-.442.221.221 0 0 0 0 .442zM479.483 221.609a.221.221 0 1 0 .001-.443.221.221 0 0 0-.001.443zM493.075 221.609a.222.222 0 1 0 0-.444.222.222 0 0 0 0 .444zM506.666 221.609a.222.222 0 1 0 0-.444.222.222 0 0 0 0 .444zM520.235 221.609a.222.222 0 1 0 0-.444.222.222 0 0 0 0 .444zM533.826 221.609a.221.221 0 1 0 0-.443.222.222 0 0 0 0 .443zM547.417 221.609a.221.221 0 1 0 .001-.443.221.221 0 0 0-.001.443zM560.986 221.609a.221.221 0 1 0 .001-.443.221.221 0 0 0-.001.443zM574.578 221.609a.221.221 0 1 0 0-.442.221.221 0 0 0 0 .442zM588.169 221.609a.222.222 0 1 0 0-.444.222.222 0 0 0 0 .444zM601.738 221.609a.222.222 0 1 0 0-.444.222.222 0 0 0 0 .444zM615.329 221.609a.222.222 0 1 0 0-.444.222.222 0 0 0 0 .444zM628.92 221.609a.221.221 0 1 0 .001-.443.221.221 0 0 0-.001.443zM4.08 235c.012 0 .022-.01.022-.022a.022.022 0 0 0-.045 0c0 .012.01.022.023.022zM17.649 235c.012 0 .022-.01.022-.022a.022.022 0 0 0-.045 0c0 .012.01.022.023.022zM31.24 235c.012 0 .022-.01.022-.022a.022.022 0 0 0-.044 0c0 .012.01.022.022.022zM44.831 235c.012 0 .022-.01.022-.022a.022.022 0 0 0-.044 0c0 .012.01.022.022.022zM58.4 235c.012 0 .022-.01.022-.022a.022.022 0 0 0-.044 0c0 .012.01.022.022.022zM71.991 235c.013 0 .022-.01.022-.022a.022.022 0 0 0-.044 0c0 .012.01.022.022.022zM85.583 235c.012 0 .022-.01.022-.022a.022.022 0 0 0-.045 0c0 .012.01.022.023.022zM99.151 235c.013 0 .023-.01.023-.022a.022.022 0 0 0-.045 0c0 .012.01.022.022.022zM112.743 235c.012 0 .022-.01.022-.022a.022.022 0 0 0-.022-.022.022.022 0 0 0-.022.022c0 .012.01.022.022.022zM126.334 235c.012 0 .022-.01.022-.022a.022.022 0 0 0-.022-.022.022.022 0 0 0-.022.022c0 .012.01.022.022.022zM139.903 235c.012 0 .022-.01.022-.022a.022.022 0 0 0-.022-.022.022.022 0 0 0-.022.022c0 .012.01.022.022.022zM153.494 235c.012 0 .022-.01.022-.022a.022.022 0 0 0-.022-.022.022.022 0 0 0-.022.022c0 .012.01.022.022.022zM167.085 235c.013 0 .023-.01.023-.022a.022.022 0 0 0-.023-.022.022.022 0 0 0-.022.022c0 .012.01.022.022.022zM180.654 235c.013 0 .023-.01.023-.022a.022.022 0 0 0-.023-.022.022.022 0 0 0-.022.022c0 .012.01.022.022.022zM194.246 235c.012 0 .022-.01.022-.022a.022.022 0 0 0-.022-.022.022.022 0 0 0-.022.022c0 .012.009.022.022.022zM207.815 235c.012 0 .022-.01.022-.022a.022.022 0 0 0-.022-.022.022.022 0 0 0-.023.022c0 .012.01.022.023.022zM221.406 235c.012 0 .022-.01.022-.022a.022.022 0 0 0-.022-.022.022.022 0 0 0-.022.022c0 .012.01.022.022.022zM234.997 235c.012 0 .022-.01.022-.022a.022.022 0 0 0-.022-.022.022.022 0 0 0-.022.022c0 .012.01.022.022.022zM248.566 235c.012 0 .022-.01.022-.022a.022.022 0 0 0-.022-.022.022.022 0 0 0-.022.022c0 .012.01.022.022.022zM262.157 235c.013 0 .022-.01.022-.022a.022.022 0 0 0-.022-.022.022.022 0 0 0-.022.022c0 .012.01.022.022.022zM275.749 235c.012 0 .022-.01.022-.022a.022.022 0 0 0-.022-.022.022.022 0 0 0-.023.022c0 .012.01.022.023.022zM289.318 235c.012 0 .022-.01.022-.022a.022.022 0 0 0-.022-.022.022.022 0 0 0-.023.022c0 .012.01.022.023.022zM302.909 235c.012 0 .022-.01.022-.022a.022.022 0 0 0-.022-.022.022.022 0 0 0-.022.022c0 .012.01.022.022.022zM316.5 235c.012 0 .022-.01.022-.022a.022.022 0 0 0-.022-.022.022.022 0 0 0-.022.022c0 .012.01.022.022.022zM330.069 235c.012 0 .022-.01.022-.022a.022.022 0 0 0-.022-.022.022.022 0 0 0-.022.022c0 .012.01.022.022.022zM343.66 235c.012 0 .022-.01.022-.022a.022.022 0 0 0-.022-.022.022.022 0 0 0-.022.022c0 .012.01.022.022.022zM357.252 235c.012 0 .022-.01.022-.022a.022.022 0 0 0-.022-.022.022.022 0 0 0-.023.022c0 .012.01.022.023.022zM370.82 235c.013 0 .023-.01.023-.022a.022.022 0 0 0-.023-.022.022.022 0 0 0-.022.022c0 .012.01.022.022.022zM384.412 235c.012 0 .022-.01.022-.022a.022.022 0 0 0-.022-.022.022.022 0 0 0-.022.022c0 .012.01.022.022.022zM398.003 235c.012 0 .022-.01.022-.022a.022.022 0 0 0-.022-.022.022.022 0 0 0-.022.022c0 .012.01.022.022.022zM411.572 235c.012 0 .022-.01.022-.022a.022.022 0 0 0-.022-.022.022.022 0 0 0-.022.022c0 .012.01.022.022.022zM425.163 235c.012 0 .022-.01.022-.022a.022.022 0 0 0-.022-.022.022.022 0 0 0-.022.022c0 .012.01.022.022.022zM438.754 235c.012 0 .022-.01.022-.022a.022.022 0 0 0-.022-.022.022.022 0 0 0-.022.022c0 .012.01.022.022.022zM452.323 235c.013 0 .023-.01.023-.022a.022.022 0 0 0-.023-.022.022.022 0 0 0-.022.022c0 .012.01.022.022.022zM465.914 235c.013 0 .023-.01.023-.022a.022.022 0 0 0-.023-.022.022.022 0 0 0-.022.022c0 .012.01.022.022.022zM479.484 235c.012 0 .022-.01.022-.022a.022.022 0 0 0-.022-.022.022.022 0 0 0-.023.022c0 .012.01.022.023.022zM493.075 235c.012 0 .022-.01.022-.022a.022.022 0 0 0-.022-.022.022.022 0 0 0-.023.022c0 .012.01.022.023.022zM506.666 235c.012 0 .022-.01.022-.022a.022.022 0 0 0-.022-.022.022.022 0 0 0-.022.022c0 .012.01.022.022.022zM520.235 235c.012 0 .022-.01.022-.022a.022.022 0 0 0-.022-.022.022.022 0 0 0-.022.022c0 .012.01.022.022.022zM533.826 235c.013 0 .022-.01.022-.022a.022.022 0 0 0-.022-.022.022.022 0 0 0-.022.022c0 .012.01.022.022.022zM547.417 235c.013 0 .023-.01.023-.022a.022.022 0 0 0-.023-.022.022.022 0 0 0-.022.022c0 .012.01.022.022.022zM560.987 235c.012 0 .022-.01.022-.022a.022.022 0 0 0-.022-.022.022.022 0 0 0-.023.022c0 .012.01.022.023.022zM574.578 235c.012 0 .022-.01.022-.022a.022.022 0 0 0-.022-.022.022.022 0 0 0-.022.022c0 .012.01.022.022.022zM588.169 235c.012 0 .022-.01.022-.022a.022.022 0 0 0-.022-.022.022.022 0 0 0-.022.022c0 .012.01.022.022.022zM601.738 235c.012 0 .022-.01.022-.022a.022.022 0 0 0-.022-.022.022.022 0 0 0-.022.022c0 .012.01.022.022.022zM615.329 235c.012 0 .022-.01.022-.022a.022.022 0 0 0-.022-.022.022.022 0 0 0-.022.022c0 .012.01.022.022.022zM628.92 235c.012 0 .022-.01.022-.022a.022.022 0 0 0-.022-.022.022.022 0 0 0-.022.022c0 .012.01.022.022.022z" fill="#fff" fill-opacity=".05"/></svg>