<svg width="92" height="98" fill="none" xmlns="http://www.w3.org/2000/svg"><path d="M84.398 34.66a4.21 4.21 0 0 0 1.214 2.96 4.126 4.126 0 0 0 2.932 1.227c-1.1 0-2.154.442-2.932 1.227a4.21 4.21 0 0 0-1.214 2.962 4.21 4.21 0 0 0-1.215-2.962 4.126 4.126 0 0 0-2.932-1.227c1.1 0 2.154-.44 2.932-1.226a4.21 4.21 0 0 0 1.215-2.962z" fill="#fff"/><path d="M85.727 46.535h-2.659v-3.5a2.87 2.87 0 0 0-.827-2.01 2.812 2.812 0 0 0-1.99-.835h-3.456v-2.685h3.447a2.813 2.813 0 0 0 1.99-.836 2.87 2.87 0 0 0 .828-2.01v-3.49h2.658v3.481c.002.754.3 1.477.828 2.01a2.812 2.812 0 0 0 1.99.836v2.685a2.812 2.812 0 0 0-1.99.836 2.87 2.87 0 0 0-.828 2.01l.009 3.508zm-1.905-7.688c.206.18.398.374.576.582.177-.208.37-.402.576-.582a5.578 5.578 0 0 1-.576-.581c-.178.208-.37.402-.576.581zM92 40.19h-3.456v-2.685h3.447L92 40.19zM35.203 57.175L4.997 16.905a1.495 1.495 0 0 1 .425-2.16 1.46 1.46 0 0 1 .78-.212H64.32c.268 0 .53.075.757.218a1.462 1.462 0 0 1 .386 2.109L35.203 57.175zM8.56 17.218l26.644 35.51 26.644-35.51H8.56z" fill="#fff"/><path d="M64.328 17.218H6.202a1.46 1.46 0 0 1-.76-.21A1.498 1.498 0 0 1 4.98 14.9L14.958-.001h40.502l10.057 14.963a1.46 1.46 0 0 1-.448 2.056c-.223.136-.479.208-.74.208v-.01zM8.391 14.533h53.634L54.05 2.685H16.366L8.39 14.533z" fill="#fff"/><path d="M63.424 16.636L54.75 3.732l-8.675 12.904h-2.197L35.203 3.732 26.53 16.636H24.33L15.657 3.732 6.982 16.636l-2.197-1.512L14.558.59h2.198l8.674 12.895L34.105.591h2.206l8.666 12.895L53.65.591h2.198l9.773 14.533-2.198 1.512z" fill="#fff"/><path d="M35.203 56.298c-.295 0-.58-.1-.813-.284a1.343 1.343 0 0 1-.471-.727L23.817 14.909l2.579-.653 8.807 35.223 8.808-35.223 2.578.653-10.092 40.369c-.072.291-.238.55-.472.736a1.321 1.321 0 0 1-.822.284zM11.625 98H0V59.958h11.625V98zm-8.967-2.685h6.309V62.643H2.658v32.672z" fill="#fff"/><path d="M17.606 65.014h-7.31V67.7h7.31v-2.685z" fill="#fff"/><path d="M46.59 78.903l-.94-2.515a20.881 20.881 0 0 0 9.724-7.7 21.204 21.204 0 0 0 3.7-11.907 20.941 20.941 0 0 0-5.91-14.605 4.258 4.258 0 0 0-1.53-1.015 4.224 4.224 0 0 0-1.81-.273 4.396 4.396 0 0 0-1.825.533 4.444 4.444 0 0 0-1.436 1.257 4.552 4.552 0 0 0 .443 5.807 12.1 12.1 0 0 1 3.26 8.054 12.239 12.239 0 0 1-3.206 8.428 12.003 12.003 0 0 1-8.073 3.877 11.863 11.863 0 0 1-5.994-1.251 12 12 0 0 1-4.596-4.083 12.186 12.186 0 0 1-.867-11.92 4.566 4.566 0 0 0-.372-4.653 4.386 4.386 0 0 0-1.738-1.42 4.338 4.338 0 0 0-2.205-.37c-.75.061-1.472.318-2.093.747a4.356 4.356 0 0 0-1.451 1.697 21.21 21.21 0 0 0-2.038 10.506c.283 4.743 1.922 10.13 3.27 12.403l-2.296 1.378c-1.772-2.971-3.358-8.949-3.641-13.62a23.927 23.927 0 0 1 2.321-11.849 7.137 7.137 0 0 1 2.352-2.698 7.026 7.026 0 0 1 6.864-.61 7.101 7.101 0 0 1 2.781 2.243 7.265 7.265 0 0 1 .63 7.4 9.478 9.478 0 0 0 .659 9.252 9.334 9.334 0 0 0 3.555 3.18 9.227 9.227 0 0 0 4.646.993 9.329 9.329 0 0 0 6.293-3.001 9.512 9.512 0 0 0 2.506-6.557 9.41 9.41 0 0 0-2.534-6.264 7.182 7.182 0 0 1-1.863-3.56 7.227 7.227 0 0 1 .334-4.01 7.152 7.152 0 0 1 2.424-3.196 7.045 7.045 0 0 1 3.748-1.369 6.875 6.875 0 0 1 2.934.43 6.93 6.93 0 0 1 2.488 1.628 23.632 23.632 0 0 1 6.628 16.475 23.916 23.916 0 0 1-4.162 13.456 23.553 23.553 0 0 1-10.98 8.702z" fill="#fff"/><path d="M53.882 84.219l-.142-2.685 29.949-1.593a4.244 4.244 0 0 0 1.642-.431 4.285 4.285 0 0 0 1.347-1.042 4.361 4.361 0 0 0 1.042-3.19 4.355 4.355 0 0 0-1.483-2.936 4.27 4.27 0 0 0-3.098-1.037l-28.681 2.14-.195-2.686 28.69-2.12a6.874 6.874 0 0 1 2.684.36 6.924 6.924 0 0 1 2.343 1.372 7 7 0 0 1 1.644 2.171 7.064 7.064 0 0 1-1.018 7.719 6.945 6.945 0 0 1-2.15 1.661 6.885 6.885 0 0 1-2.617.704l-29.957 1.593z" fill="#fff"/><path d="M56.274 90.197l-.089-2.685 14.7-.52 6.681-6.407 1.825 1.951-7.398 7.106-15.72.555z" fill="#fff"/><path d="M57.541 94.966l-47.263-.823.045-2.685 46.483.806 7.77-4.868 1.4 2.281-8.435 5.29z" fill="#fff"/></svg>