<svg width="34" height="40" fill="none" xmlns="http://www.w3.org/2000/svg"><path fill-rule="evenodd" clip-rule="evenodd" d="M3.68 0C1.647 0 0 1.628 0 3.636v32.728C0 38.372 1.647 40 3.68 40h26.64c2.033 0 3.68-1.628 3.68-3.636V3.636C34 1.628 32.353 0 30.32 0H3.68zm4.112 9.697c-1.174 0-2.125.814-2.125 1.818s.951 1.818 2.125 1.818h18.416c1.174 0 2.125-.814 2.125-1.818s-.951-1.818-2.125-1.818H7.792zm0 6.06c-1.174 0-2.125.815-2.125 1.819s.951 1.818 2.125 1.818h18.416c1.174 0 2.125-.814 2.125-1.818 0-1.005-.951-1.819-2.125-1.819H7.792zm-2.125 7.88c0-1.005.951-1.819 2.125-1.819h18.416c1.174 0 2.125.814 2.125 1.818s-.951 1.819-2.125 1.819H7.792c-1.174 0-2.125-.815-2.125-1.819zm2.125 4.242c-1.174 0-2.125.814-2.125 1.818s.951 1.818 2.125 1.818h18.416c1.174 0 2.125-.814 2.125-1.818s-.951-1.818-2.125-1.818H7.792z" fill="#EAEAEA"/></svg>