<svg width="19" height="22" fill="none" xmlns="http://www.w3.org/2000/svg"><path fill-rule="evenodd" clip-rule="evenodd" d="M2 0a2 2 0 0 0-2 2v18a2 2 0 0 0 2 2h14.48a2 2 0 0 0 2-2V2a2 2 0 0 0-2-2H2zm2.235 5.333c-.638 0-1.155.448-1.155 1 0 .553.517 1 1.155 1h10.01c.638 0 1.155-.447 1.155-1 0-.552-.517-1-1.155-1H4.235zm0 3.334c-.638 0-1.155.447-1.155 1 0 .552.517 1 1.155 1h10.01c.638 0 1.155-.448 1.155-1 0-.553-.517-1-1.155-1H4.235zM3.08 13c0-.552.517-1 1.155-1h10.01c.638 0 1.155.448 1.155 1s-.517 1-1.155 1H4.235c-.638 0-1.155-.448-1.155-1zm1.155 2.333c-.638 0-1.155.448-1.155 1 0 .553.517 1 1.155 1h10.01c.638 0 1.155-.447 1.155-1 0-.552-.517-1-1.155-1H4.235z" fill="#412ABD"/></svg>