<svg width="135" height="24" fill="none" xmlns="http://www.w3.org/2000/svg"><path d="M.792 19.238c1.758 0 4.674.167 7.076.167 6.005 0 8.878-1.928 8.878-5.49 0-2.348-1.415-3.9-4.503-4.444v-.084c2.316-.335 3.86-2.096 3.86-4.318 0-3.395-2.917-4.862-8.32-4.862-2.788 0-5.319.168-6.991.168v18.863zM8.34 10.77c3.088 0 4.76.923 4.76 2.893 0 1.97-1.758 3.018-4.932 3.018-1.544 0-2.916-.084-3.945-.126V10.77H8.34zm-.3-7.838c2.487 0 4.417.754 4.417 2.808 0 1.844-1.63 2.934-3.903 2.934H4.223V3.057c.857-.042 2.273-.125 3.817-.125zM35.105.825H30.86l-7.678 8.853 8.204 9.257h4.487l-8.698-9.257L35.105.825zM22.416.825h-3.233v18.11h3.233V.825zM47.39.423c-2.506 0-4.93 1.086-6.183 2.536V.825h-3.233v22.537h3.233V18.09c1.294.845 3.194 1.247 5.133 1.247 5.697 0 9.455-4.226 9.455-9.738 0-5.354-3.233-9.176-8.405-9.176zm-1.33 15.889c-1.737 0-3.233-.323-4.848-1.408V5.936a6.933 6.933 0 0 1 5.25-2.502c3.766 0 5.9 2.614 5.9 6.277-.002 3.831-2.426 6.61-6.306 6.61l.004-.01zM76.037 8.714c0-4.99-3.767-8.29-8.445-8.29-5.983 0-9.375 4.192-9.375 9.457 0 5.716 3.838 9.458 9.75 9.458 2.424 0 5.052-.765 6.83-2.374l-1.011-2.536c-1.172 1.086-3.233 1.891-5.578 1.891-3.545 0-6.06-2.012-6.344-5.433h13.983c.139-.716.203-1.444.19-2.173zm-14.386-.442c.368-2.778 2.469-4.839 5.784-4.839 3.15 0 5.096 1.852 5.254 4.828l-11.038.011zM93.944 15.917V.825h-12.41l-.283 4.788c-.323 4.95-1.575 8.774-2.788 10.304h-2.26v7.445h3.032v-4.427h14.709v4.427h3.031v-7.445h-3.031zm-3.233 0H81.9c.848-1.128 2.06-4.427 2.463-9.048l.202-3.019h6.143l.002 12.067zM102.147 14.308V.825h-3.233v18.11h3.233l10.508-13.48v13.48h3.231V.825h-3.231l-10.508 13.483zM118.432.825v3.22h6.667v14.89h3.233V4.045H135V.824h-16.568z" fill="#3A3A3A"/></svg>