<svg width="40" height="53" fill="none" xmlns="http://www.w3.org/2000/svg"><path d="M20 0C12.832 0 7 5.849 7 13.038c0 8.922 11.634 22.02 12.129 22.573.465.52 1.278.518 1.742 0C21.366 35.057 33 21.96 33 13.038 33 5.848 27.168 0 20 0zm0 19.598c-3.607 0-6.54-2.943-6.54-6.56 0-3.617 2.934-6.56 6.54-6.56s6.54 2.943 6.54 6.56c0 3.617-2.934 6.56-6.54 6.56z" fill="#412ABD" filter="url(#filter0_d)"/><defs><filter id="filter0_d" x="0" y="0" width="40" height="53" filterUnits="userSpaceOnUse" color-interpolation-filters="sRGB"><feFlood flood-opacity="0" result="BackgroundImageFix"/><feColorMatrix in="SourceAlpha" values="0 0 0 0 0 0 0 0 0 0 0 0 0 0 0 0 0 0 127 0"/><feOffset dy="10"/><feGaussianBlur stdDeviation="3.5"/><feColorMatrix values="0 0 0 0 1 0 0 0 0 1 0 0 0 0 1 0 0 0 0.7 0"/><feBlend in2="BackgroundImageFix" result="effect1_dropShadow"/><feBlend in="SourceGraphic" in2="effect1_dropShadow" result="shape"/></filter></defs></svg>