<svg width="18" height="18" viewBox="0 0 18 18" fill="none" xmlns="http://www.w3.org/2000/svg">
<path d="M2.3112 0.000488281H15.6899C16.9609 0.000488281 18 1.03993 18 2.31097V15.6896C18 16.9603 16.9609 17.9991 15.6899 17.9991H2.3112C1.04016 17.9991 0 16.9603 0 15.6896V2.31097C0 1.03993 1.04016 0.000488281 2.3112 0.000488281ZM13.1128 1.99951C12.6665 1.99951 12.3025 2.36497 12.3025 2.81101V4.74985C12.3025 5.19607 12.6665 5.56069 13.1128 5.56069H15.1469C15.5925 5.56069 15.9573 5.19607 15.9573 4.74985V2.81101C15.9573 2.36497 15.5925 1.99951 15.1469 1.99951H13.1128ZM15.965 7.61185H14.3813C14.5315 8.10235 14.6129 8.61961 14.6129 9.15739C14.6129 12.1503 12.1069 14.5778 9.01692 14.5778C5.9277 14.5778 3.42168 12.1503 3.42168 9.15739C3.42168 8.61961 3.50388 8.10235 3.65334 7.61185H2.001V15.2158C2.001 15.6095 2.32254 15.9299 2.71596 15.9299H15.2504C15.6442 15.9299 15.965 15.6095 15.965 15.2158V7.61185ZM9.01698 5.45845C7.02138 5.45845 5.40258 7.02613 5.40258 8.96173C5.40258 10.8953 7.02138 12.4642 9.01698 12.4642C11.0137 12.4642 12.6325 10.8953 12.6325 8.96173C12.6325 7.02607 11.0137 5.45845 9.01698 5.45845Z" fill="#9E9DA0"/>
</svg>
