<svg width="25" height="16" fill="none" xmlns="http://www.w3.org/2000/svg"><path d="M24.867 14.45a2.034 2.034 0 0 0-.084-.183c-.434-.876-1.263-1.952-2.486-3.227l-.026-.029-.013-.014-.013-.015h-.013c-.556-.594-.907-.993-1.055-1.197-.27-.39-.33-.784-.182-1.183.104-.302.495-.94 1.171-1.913.356-.516.638-.93.846-1.24 1.502-2.24 2.152-3.67 1.953-4.294l-.078-.145c-.052-.088-.186-.168-.403-.241-.217-.073-.495-.085-.833-.037l-3.749.03c-.06-.025-.147-.022-.26.007l-.17.044-.065.036-.052.044a.612.612 0 0 0-.143.153 1.039 1.039 0 0 0-.13.256 25.225 25.225 0 0 1-1.393 3.285 31.866 31.866 0 0 1-.885 1.57c-.269.443-.494.769-.677.978-.182.21-.347.377-.494.504-.148.126-.26.18-.339.16a8.637 8.637 0 0 1-.221-.058.938.938 0 0 1-.293-.358 1.749 1.749 0 0 1-.15-.57 7.034 7.034 0 0 1-.045-.59c-.004-.166-.002-.4.006-.702.01-.302.014-.506.014-.613 0-.37.006-.771.019-1.205l.032-1.029c.01-.253.013-.52.013-.803 0-.282-.015-.504-.045-.664a2.48 2.48 0 0 0-.136-.468.768.768 0 0 0-.267-.35 1.416 1.416 0 0 0-.436-.197c-.46-.117-1.046-.18-1.758-.19-1.614-.02-2.65.098-3.11.35a1.801 1.801 0 0 0-.495.439c-.156.214-.178.33-.065.35.52.087.889.297 1.106.628l.078.175c.06.127.122.35.182.672.061.32.1.676.117 1.065.044.711.044 1.32 0 1.825-.043.507-.084.9-.123 1.183a2.59 2.59 0 0 1-.332 1.008.239.239 0 0 1-.065.073.882.882 0 0 1-.352.073c-.121 0-.269-.069-.442-.205a3.294 3.294 0 0 1-.54-.562 7.568 7.568 0 0 1-.632-1 18.232 18.232 0 0 1-.729-1.519l-.208-.423a38.35 38.35 0 0 1-.533-1.19 24.437 24.437 0 0 1-.6-1.511.96.96 0 0 0-.312-.468L4.907.921A.865.865 0 0 0 4.7.797a1.268 1.268 0 0 0-.3-.094L.834.732c-.364 0-.612.092-.742.277l-.052.088A.522.522 0 0 0 0 1.33c0 .107.026.239.078.395a50.963 50.963 0 0 0 1.699 3.971c.611 1.275 1.143 2.302 1.594 3.08.451.78.911 1.514 1.38 2.205.469.692.779 1.135.93 1.33.152.194.272.34.359.437l.325.35c.208.234.514.514.918.84.403.326.85.647 1.34.964.49.316 1.061.574 1.712.774.65.2 1.284.28 1.9.24h1.497c.304-.029.534-.136.69-.32l.052-.074c.035-.058.068-.148.098-.27.03-.121.045-.255.045-.401-.009-.419.02-.796.085-1.132.065-.335.139-.588.221-.759.083-.17.176-.314.28-.43.104-.117.178-.188.222-.212a.803.803 0 0 1 .103-.051c.209-.078.454-.003.736.226.282.23.547.511.794.847.247.336.545.713.892 1.132.347.418.65.73.91.934l.261.175c.174.117.4.224.677.322.277.097.52.121.729.073l3.332-.059c.33 0 .586-.06.768-.182.182-.122.29-.256.325-.402.035-.146.037-.311.007-.497a2.009 2.009 0 0 0-.092-.386z" fill="#9E9DA0"/></svg>