<svg width="18" height="18" fill="none" xmlns="http://www.w3.org/2000/svg"><path d="M14.625 12.375H13.5a2.25 2.25 0 0 1-2.25-2.25v-.723a5.686 5.686 0 0 0 1.077-2.03c.023-.125.143-.187.223-.273a1.39 1.39 0 0 0 .192-1.675c-.044-.078-.123-.146-.119-.244 0-.66.004-1.32 0-1.98-.018-.795-.246-1.623-.804-2.213-.45-.476-1.069-.76-1.707-.88a5.668 5.668 0 0 0-2.449.057c-.692.174-1.342.58-1.745 1.18-.356.523-.512 1.157-.538 1.783-.01.67-.002 1.344-.004 2.017.015.134-.1.226-.15.337-.305.552-.171 1.304.318 1.706.124.085.147.241.192.376.213.665.567 1.28 1.014 1.815v.747a2.25 2.25 0 0 1-2.25 2.25H3.375S1.336 12.938 0 15.75v1.125C0 17.497.503 18 1.125 18h15.75c.622 0 1.125-.503 1.125-1.125V15.75c-1.336-2.812-3.375-3.375-3.375-3.375z" fill="#fff"/></svg>

