<svg width="16" height="17" fill="none" xmlns="http://www.w3.org/2000/svg"><path d="M15.647 6.814a1.157 1.157 0 0 0-.919-.41H7.076l3.185-3.196c.276-.276.413-.607.413-.993 0-.385-.137-.717-.413-.993L9.446.415A1.335 1.335 0 0 0 8.468 0c-.385 0-.714.138-.99.415L.402 7.507A1.4 1.4 0 0 0 0 8.5c0 .386.134.713.402.982l7.076 7.114c.283.27.613.404.99.404.384 0 .71-.135.978-.404l.815-.829c.275-.262.413-.59.413-.982 0-.393-.137-.72-.413-.982l-3.185-3.208h7.652c.377 0 .683-.136.919-.41A1.46 1.46 0 0 0 16 9.199V7.802a1.46 1.46 0 0 0-.353-.988z" fill="#9E9DA0"/></svg>