<svg width="633" height="235" fill="none" xmlns="http://www.w3.org/2000/svg"><path d="M4.08 226.842a4.08 4.08 0 1 1 0 8.158 4.08 4.08 0 0 1 0-8.158zm13.569 0a4.08 4.08 0 1 1 0 8.158 4.08 4.08 0 0 1 0-8.158zm13.591 0a4.08 4.08 0 1 1 0 8.158 4.08 4.08 0 0 1 0-8.158zm13.59 0a4.08 4.08 0 1 1 .002 8.158 4.08 4.08 0 0 1-.001-8.158zm13.57 0a4.08 4.08 0 1 1 .001 8.158 4.08 4.08 0 0 1 0-8.158zm13.591 0a4.08 4.08 0 1 1 .001 8.158 4.08 4.08 0 0 1 0-8.158zm13.591 0a4.08 4.08 0 1 1 .001 8.158 4.08 4.08 0 0 1 0-8.158zm13.569 0a4.08 4.08 0 1 1 0 8.159 4.08 4.08 0 0 1 0-8.159zm13.592 0a4.079 4.079 0 1 1 0 8.158 4.08 4.08 0 1 1 0-8.158zm13.591 0a4.079 4.079 0 1 1 0 8.158 4.08 4.08 0 1 1 0-8.158zm13.569 0a4.08 4.08 0 1 1 0 8.16 4.08 4.08 0 0 1 0-8.16zm13.591 0a4.08 4.08 0 1 1 0 8.16 4.08 4.08 0 0 1 0-8.16zm13.591 0a4.08 4.08 0 1 1 0 8.16 4.08 4.08 0 0 1 0-8.16zm13.569 0a4.08 4.08 0 1 1 0 8.16 4.08 4.08 0 0 1 0-8.16zm13.592 0a4.079 4.079 0 1 1 0 8.158 4.08 4.08 0 1 1 0-8.158zm13.569 0a4.079 4.079 0 1 1 0 8.158 4.079 4.079 0 1 1 0-8.158zm13.591 0a4.079 4.079 0 1 1 0 8.158 4.08 4.08 0 1 1 0-8.158zm13.591 0a4.08 4.08 0 1 1 0 8.16 4.08 4.08 0 0 1 0-8.16zm13.569 0a4.08 4.08 0 1 1 0 8.16 4.08 4.08 0 0 1 0-8.16zm13.591 0a4.08 4.08 0 1 1 0 8.16 4.08 4.08 0 0 1 0-8.16zm13.592 0a4.079 4.079 0 1 1 0 8.158 4.079 4.079 0 1 1 0-8.158zm13.568 0a4.079 4.079 0 1 1 .002 8.158 4.079 4.079 0 0 1-.002-8.158zm13.592 0a4.079 4.079 0 1 1 0 8.158 4.08 4.08 0 1 1 0-8.158zm13.591 0a4.079 4.079 0 1 1 0 8.158 4.08 4.08 0 1 1 0-8.158zm13.569 0a4.08 4.08 0 1 1 0 8.16 4.08 4.08 0 0 1 0-8.16zm13.591 0a4.08 4.08 0 1 1 0 8.16 4.08 4.08 0 0 1 0-8.16zm13.591 0a4.079 4.079 0 1 1 .002 8.158 4.079 4.079 0 0 1-.002-8.158zm13.569 0a4.08 4.08 0 1 1 0 8.16 4.08 4.08 0 0 1 0-8.16zm13.592 0a4.079 4.079 0 1 1 0 8.158 4.08 4.08 0 1 1 0-8.158zm13.591 0a4.079 4.079 0 1 1 0 8.158 4.08 4.08 0 1 1 0-8.158zm13.569 0a4.079 4.079 0 1 1 0 8.158 4.08 4.08 0 1 1 0-8.158zm13.591 0a4.08 4.08 0 1 1 0 8.16 4.08 4.08 0 0 1 0-8.16zm13.591 0a4.08 4.08 0 1 1 0 8.16 4.08 4.08 0 0 1 0-8.16zm13.569 0a4.08 4.08 0 1 1 0 8.16 4.08 4.08 0 0 1 0-8.16zm13.592 0a4.079 4.079 0 1 1 0 8.158 4.079 4.079 0 1 1 0-8.158zm13.568 0a4.079 4.079 0 1 1 .002 8.158 4.079 4.079 0 0 1-.002-8.158zm13.592 0a4.079 4.079 0 1 1 0 8.158 4.08 4.08 0 1 1 0-8.158zm13.591 0a4.079 4.079 0 1 1 0 8.158 4.08 4.08 0 1 1 0-8.158zm13.569 0a4.08 4.08 0 1 1 0 8.16 4.08 4.08 0 0 1 0-8.16zm13.591 0a4.08 4.08 0 1 1 0 8.16 4.08 4.08 0 0 1 0-8.16zm13.591 0a4.079 4.079 0 1 1 .002 8.158 4.079 4.079 0 0 1-.002-8.158zm13.569 0a4.079 4.079 0 1 1 .002 8.158 4.079 4.079 0 0 1-.002-8.158zm13.592 0a4.079 4.079 0 1 1 0 8.158 4.08 4.08 0 1 1 0-8.158zm13.591 0a4.079 4.079 0 1 1 0 8.158 4.08 4.08 0 1 1 0-8.158zm13.569 0a4.08 4.08 0 1 1 0 8.16 4.08 4.08 0 0 1 0-8.16zm13.591 0a4.08 4.08 0 1 1 0 8.16 4.08 4.08 0 0 1 0-8.16zm13.591 0a4.079 4.079 0 1 1 .002 8.158 4.079 4.079 0 0 1-.002-8.158zM4.08 213.274a4.08 4.08 0 1 1 0 8.158 4.08 4.08 0 0 1 0-8.158zm13.569 0a4.08 4.08 0 1 1 0 8.158 4.08 4.08 0 0 1 0-8.158zm13.591 0a4.08 4.08 0 1 1 0 8.158 4.08 4.08 0 0 1 0-8.158zm13.59 0a4.08 4.08 0 1 1 .002 8.158 4.08 4.08 0 0 1-.001-8.158zm13.57 0a4.08 4.08 0 1 1 .001 8.158 4.08 4.08 0 0 1 0-8.158zm13.591 0a4.08 4.08 0 1 1 .001 8.158 4.08 4.08 0 0 1 0-8.158zm13.591 0a4.08 4.08 0 1 1 .001 8.158 4.08 4.08 0 0 1 0-8.158zm13.569 0a4.08 4.08 0 1 1 0 8.159 4.08 4.08 0 0 1 0-8.159zm13.592 0a4.079 4.079 0 1 1 0 8.158 4.08 4.08 0 1 1 0-8.158zm13.591 0a4.079 4.079 0 1 1 0 8.158 4.08 4.08 0 1 1 0-8.158zm13.569 0a4.08 4.08 0 1 1 0 8.16 4.08 4.08 0 0 1 0-8.16zm13.591 0a4.08 4.08 0 1 1 0 8.16 4.08 4.08 0 0 1 0-8.16zm13.591 0a4.08 4.08 0 1 1 0 8.16 4.08 4.08 0 0 1 0-8.16zm13.569 0a4.08 4.08 0 1 1 0 8.16 4.08 4.08 0 0 1 0-8.16zm13.592 0a4.079 4.079 0 1 1 0 8.158 4.08 4.08 0 1 1 0-8.158zm13.569 0a4.079 4.079 0 1 1 0 8.158 4.079 4.079 0 1 1 0-8.158zm13.591 0a4.079 4.079 0 1 1 0 8.158 4.08 4.08 0 1 1 0-8.158zm13.591 0a4.08 4.08 0 1 1 0 8.16 4.08 4.08 0 0 1 0-8.16zm13.569 0a4.08 4.08 0 1 1 0 8.16 4.08 4.08 0 0 1 0-8.16zm13.591 0a4.08 4.08 0 1 1 0 8.16 4.08 4.08 0 0 1 0-8.16zm13.592 0a4.079 4.079 0 1 1 0 8.158 4.079 4.079 0 1 1 0-8.158zm13.568 0a4.079 4.079 0 1 1 .002 8.158 4.079 4.079 0 0 1-.002-8.158zm13.592 0a4.079 4.079 0 1 1 0 8.158 4.08 4.08 0 1 1 0-8.158zm13.591 0a4.079 4.079 0 1 1 0 8.158 4.08 4.08 0 1 1 0-8.158zm13.569 0a4.08 4.08 0 1 1 0 8.16 4.08 4.08 0 0 1 0-8.16zm13.591 0a4.08 4.08 0 1 1 0 8.16 4.08 4.08 0 0 1 0-8.16zm13.591 0a4.079 4.079 0 1 1 .002 8.158 4.079 4.079 0 0 1-.002-8.158zm13.569 0a4.08 4.08 0 1 1 0 8.16 4.08 4.08 0 0 1 0-8.16zm13.592 0a4.079 4.079 0 1 1 0 8.158 4.08 4.08 0 1 1 0-8.158zm13.591 0a4.079 4.079 0 1 1 0 8.158 4.08 4.08 0 1 1 0-8.158zm13.569 0a4.079 4.079 0 1 1 0 8.158 4.08 4.08 0 1 1 0-8.158zm13.591 0a4.08 4.08 0 1 1 0 8.16 4.08 4.08 0 0 1 0-8.16zm13.591 0a4.08 4.08 0 1 1 0 8.16 4.08 4.08 0 0 1 0-8.16zm13.569 0a4.08 4.08 0 1 1 0 8.16 4.08 4.08 0 0 1 0-8.16zm13.592 0a4.079 4.079 0 1 1 0 8.158 4.079 4.079 0 1 1 0-8.158zm13.568 0a4.079 4.079 0 1 1 .002 8.158 4.079 4.079 0 0 1-.002-8.158zm13.592 0a4.079 4.079 0 1 1 0 8.158 4.08 4.08 0 1 1 0-8.158zm13.591 0a4.079 4.079 0 1 1 0 8.158 4.08 4.08 0 1 1 0-8.158zm13.569 0a4.08 4.08 0 1 1 0 8.16 4.08 4.08 0 0 1 0-8.16zm13.591 0a4.08 4.08 0 1 1 0 8.16 4.08 4.08 0 0 1 0-8.16zm13.591 0a4.079 4.079 0 1 1 .002 8.158 4.079 4.079 0 0 1-.002-8.158zm13.569 0a4.079 4.079 0 1 1 .002 8.158 4.079 4.079 0 0 1-.002-8.158zm13.592 0a4.079 4.079 0 1 1 0 8.158 4.08 4.08 0 1 1 0-8.158zm13.591 0a4.079 4.079 0 1 1 0 8.158 4.08 4.08 0 1 1 0-8.158zm13.569 0a4.08 4.08 0 1 1 0 8.16 4.08 4.08 0 0 1 0-8.16zm13.591 0a4.08 4.08 0 1 1 0 8.16 4.08 4.08 0 0 1 0-8.16zm13.591 0a4.079 4.079 0 1 1 .002 8.158 4.079 4.079 0 0 1-.002-8.158zM4.08 199.683a4.08 4.08 0 1 1-.001 8.16 4.08 4.08 0 0 1 0-8.16zm13.569 0a4.08 4.08 0 1 1-.001 8.16 4.08 4.08 0 0 1 0-8.16zm13.591 0a4.08 4.08 0 1 1-.001 8.16 4.08 4.08 0 0 1 0-8.16zm13.59 0a4.08 4.08 0 1 1 0 8.16 4.08 4.08 0 0 1 0-8.16zm13.57 0a4.08 4.08 0 1 1 0 8.16 4.08 4.08 0 0 1 0-8.16zm13.591 0a4.08 4.08 0 1 1 0 8.16 4.08 4.08 0 0 1 0-8.16zm13.591 0a4.08 4.08 0 1 1 0 8.16 4.08 4.08 0 0 1 0-8.16zm13.569 0a4.08 4.08 0 1 1-.001 8.16 4.08 4.08 0 0 1 .001-8.16zm13.592 0a4.08 4.08 0 1 1-.001 8.16 4.08 4.08 0 0 1 .001-8.16zm13.591 0a4.08 4.08 0 1 1-.001 8.16 4.08 4.08 0 0 1 .001-8.16zm13.569 0a4.08 4.08 0 1 1 0 8.16 4.08 4.08 0 0 1 0-8.16zm13.591 0a4.08 4.08 0 1 1 0 8.16 4.08 4.08 0 0 1 0-8.16zm13.591 0a4.08 4.08 0 1 1 0 8.16 4.08 4.08 0 0 1 0-8.16zm13.569 0a4.08 4.08 0 1 1 0 8.16 4.08 4.08 0 0 1 0-8.16zm13.592 0a4.08 4.08 0 1 1-.001 8.16 4.08 4.08 0 0 1 .001-8.16zm13.569 0a4.08 4.08 0 1 1-.001 8.16 4.08 4.08 0 0 1 .001-8.16zm13.591 0a4.08 4.08 0 1 1-.001 8.16 4.08 4.08 0 0 1 .001-8.16zm13.591 0a4.08 4.08 0 1 1 0 8.16 4.08 4.08 0 0 1 0-8.16zm13.569 0a4.08 4.08 0 1 1 0 8.16 4.08 4.08 0 0 1 0-8.16zm13.591 0a4.08 4.08 0 1 1 0 8.16 4.08 4.08 0 0 1 0-8.16zm13.592 0a4.08 4.08 0 1 1-.001 8.16 4.08 4.08 0 0 1 .001-8.16zm13.568 0a4.08 4.08 0 1 1 0 8.16 4.08 4.08 0 0 1 0-8.16zm13.592 0a4.08 4.08 0 1 1-.001 8.16 4.08 4.08 0 0 1 .001-8.16zm13.591 0a4.08 4.08 0 1 1-.001 8.16 4.08 4.08 0 0 1 .001-8.16zm13.569 0a4.08 4.08 0 1 1 0 8.16 4.08 4.08 0 0 1 0-8.16zm13.591 0a4.08 4.08 0 1 1 0 8.16 4.08 4.08 0 0 1 0-8.16zm13.591 0a4.08 4.08 0 1 1 0 8.16 4.08 4.08 0 0 1 0-8.16zm13.569 0a4.08 4.08 0 1 1 0 8.16 4.08 4.08 0 0 1 0-8.16zm13.592 0a4.08 4.08 0 1 1-.001 8.16 4.08 4.08 0 0 1 .001-8.16zm13.591 0a4.08 4.08 0 1 1-.001 8.16 4.08 4.08 0 0 1 .001-8.16zm13.569 0a4.08 4.08 0 1 1-.001 8.16 4.08 4.08 0 0 1 .001-8.16zm13.591 0a4.08 4.08 0 1 1 0 8.16 4.08 4.08 0 0 1 0-8.16zm13.591 0a4.08 4.08 0 1 1 0 8.16 4.08 4.08 0 0 1 0-8.16zm13.569 0a4.08 4.08 0 1 1 0 8.16 4.08 4.08 0 0 1 0-8.16zm13.592 0a4.08 4.08 0 1 1-.001 8.16 4.08 4.08 0 0 1 .001-8.16zm13.568 0a4.08 4.08 0 1 1 0 8.16 4.08 4.08 0 0 1 0-8.16zm13.592 0a4.08 4.08 0 1 1-.001 8.16 4.08 4.08 0 0 1 .001-8.16zm13.591 0a4.08 4.08 0 1 1-.001 8.16 4.08 4.08 0 0 1 .001-8.16zm13.569 0a4.08 4.08 0 1 1 0 8.16 4.08 4.08 0 0 1 0-8.16zm13.591 0a4.08 4.08 0 1 1 0 8.16 4.08 4.08 0 0 1 0-8.16zm13.591 0a4.08 4.08 0 1 1 0 8.16 4.08 4.08 0 0 1 0-8.16zm13.569 0a4.08 4.08 0 1 1 0 8.16 4.08 4.08 0 0 1 0-8.16zm13.592 0a4.08 4.08 0 1 1-.001 8.16 4.08 4.08 0 0 1 .001-8.16zm13.591 0a4.08 4.08 0 1 1-.001 8.16 4.08 4.08 0 0 1 .001-8.16zm13.569 0a4.08 4.08 0 1 1 0 8.16 4.08 4.08 0 0 1 0-8.16zm13.591 0a4.08 4.08 0 1 1 0 8.16 4.08 4.08 0 0 1 0-8.16zm13.591 0a4.08 4.08 0 1 1 0 8.16 4.08 4.08 0 0 1 0-8.16zM4.08 186.093a4.08 4.08 0 1 1-.001 8.16 4.08 4.08 0 0 1 0-8.16zm13.569 0a4.08 4.08 0 1 1-.001 8.16 4.08 4.08 0 0 1 0-8.16zm13.591 0a4.08 4.08 0 1 1-.001 8.16 4.08 4.08 0 0 1 0-8.16zm13.59 0a4.08 4.08 0 1 1 0 8.16 4.08 4.08 0 0 1 0-8.16zm13.57 0a4.08 4.08 0 1 1 0 8.16 4.08 4.08 0 0 1 0-8.16zm13.591 0a4.08 4.08 0 1 1 0 8.16 4.08 4.08 0 0 1 0-8.16zm13.591 0a4.08 4.08 0 1 1 0 8.16 4.08 4.08 0 0 1 0-8.16zm13.569 0a4.08 4.08 0 1 1-.001 8.16 4.08 4.08 0 0 1 .001-8.16zm13.592 0a4.08 4.08 0 1 1-.001 8.16 4.08 4.08 0 0 1 .001-8.16zm13.591 0a4.08 4.08 0 1 1-.001 8.16 4.08 4.08 0 0 1 .001-8.16zm13.569 0a4.08 4.08 0 1 1 0 8.16 4.08 4.08 0 0 1 0-8.16zm13.591 0a4.08 4.08 0 1 1 0 8.16 4.08 4.08 0 0 1 0-8.16zm13.591 0a4.08 4.08 0 1 1 0 8.16 4.08 4.08 0 0 1 0-8.16zm13.569 0a4.08 4.08 0 1 1 0 8.16 4.08 4.08 0 0 1 0-8.16zm13.592 0a4.08 4.08 0 1 1-.001 8.16 4.08 4.08 0 0 1 .001-8.16zm13.569 0a4.08 4.08 0 1 1-.001 8.16 4.08 4.08 0 0 1 .001-8.16zm13.591 0a4.08 4.08 0 1 1-.001 8.16 4.08 4.08 0 0 1 .001-8.16zm13.591 0a4.08 4.08 0 1 1 0 8.16 4.08 4.08 0 0 1 0-8.16zm13.569 0a4.08 4.08 0 1 1 0 8.16 4.08 4.08 0 0 1 0-8.16zm13.591 0a4.08 4.08 0 1 1 0 8.16 4.08 4.08 0 0 1 0-8.16zm13.592 0a4.08 4.08 0 1 1-.001 8.16 4.08 4.08 0 0 1 .001-8.16zm13.568 0a4.08 4.08 0 1 1 0 8.16 4.08 4.08 0 0 1 0-8.16zm13.592 0a4.08 4.08 0 1 1-.001 8.16 4.08 4.08 0 0 1 .001-8.16zm13.591 0a4.08 4.08 0 1 1-.001 8.16 4.08 4.08 0 0 1 .001-8.16zm13.569 0a4.08 4.08 0 1 1 0 8.16 4.08 4.08 0 0 1 0-8.16zm13.591 0a4.08 4.08 0 1 1 0 8.16 4.08 4.08 0 0 1 0-8.16zm13.591 0a4.08 4.08 0 1 1 0 8.16 4.08 4.08 0 0 1 0-8.16zm13.569 0a4.08 4.08 0 1 1 0 8.16 4.08 4.08 0 0 1 0-8.16zm13.592 0a4.08 4.08 0 1 1-.001 8.16 4.08 4.08 0 0 1 .001-8.16zm13.591 0a4.08 4.08 0 1 1-.001 8.16 4.08 4.08 0 0 1 .001-8.16zm13.569 0a4.08 4.08 0 1 1-.001 8.16 4.08 4.08 0 0 1 .001-8.16zm13.591 0a4.08 4.08 0 1 1 0 8.16 4.08 4.08 0 0 1 0-8.16zm13.591 0a4.08 4.08 0 1 1 0 8.16 4.08 4.08 0 0 1 0-8.16zm13.569 0a4.08 4.08 0 1 1 0 8.16 4.08 4.08 0 0 1 0-8.16zm13.592 0a4.08 4.08 0 1 1-.001 8.16 4.08 4.08 0 0 1 .001-8.16zm13.568 0a4.08 4.08 0 1 1 0 8.16 4.08 4.08 0 0 1 0-8.16zm13.592 0a4.08 4.08 0 1 1-.001 8.16 4.08 4.08 0 0 1 .001-8.16zm13.591 0a4.08 4.08 0 1 1-.001 8.16 4.08 4.08 0 0 1 .001-8.16zm13.569 0a4.08 4.08 0 1 1 0 8.16 4.08 4.08 0 0 1 0-8.16zm13.591 0a4.08 4.08 0 1 1 0 8.16 4.08 4.08 0 0 1 0-8.16zm13.591 0a4.08 4.08 0 1 1 0 8.16 4.08 4.08 0 0 1 0-8.16zm13.569 0a4.08 4.08 0 1 1 0 8.16 4.08 4.08 0 0 1 0-8.16zm13.592 0a4.08 4.08 0 1 1-.001 8.16 4.08 4.08 0 0 1 .001-8.16zm13.591 0a4.08 4.08 0 1 1-.001 8.16 4.08 4.08 0 0 1 .001-8.16zm13.569 0a4.08 4.08 0 1 1 0 8.16 4.08 4.08 0 0 1 0-8.16zm13.591 0a4.08 4.08 0 1 1 0 8.16 4.08 4.08 0 0 1 0-8.16zm13.591 0a4.08 4.08 0 1 1 0 8.16 4.08 4.08 0 0 1 0-8.16zM4.08 172.814a3.791 3.791 0 1 1 0 7.582 3.791 3.791 0 0 1 0-7.582zm13.569 0a3.791 3.791 0 1 1 0 7.582 3.791 3.791 0 0 1 0-7.582zm13.591 0a3.791 3.791 0 1 1 0 7.582 3.791 3.791 0 0 1 0-7.582zm13.591 0a3.791 3.791 0 1 1 0 7.582 3.791 3.791 0 0 1 0-7.582zm13.569 0a3.791 3.791 0 1 1 0 7.582 3.791 3.791 0 0 1 0-7.582zm13.591 0a3.791 3.791 0 1 1 .001 7.582 3.791 3.791 0 0 1 0-7.582zm13.591 0a3.791 3.791 0 1 1 .001 7.582 3.791 3.791 0 0 1 0-7.582zm13.569 0a3.791 3.791 0 1 1 0 7.583 3.791 3.791 0 0 1 0-7.583zm13.592 0a3.79 3.79 0 1 1 0 7.582 3.792 3.792 0 0 1 0-7.582zm13.591 0a3.79 3.79 0 1 1 0 7.581 3.79 3.79 0 0 1 0-7.581zm13.569 0a3.79 3.79 0 1 1 0 7.582 3.792 3.792 0 0 1 0-7.582zm13.591 0a3.791 3.791 0 1 1 .001 7.583 3.791 3.791 0 0 1-.001-7.583zm13.591 0a3.791 3.791 0 1 1 .001 7.583 3.791 3.791 0 0 1-.001-7.583zm13.569 0a3.791 3.791 0 1 1 .001 7.583 3.791 3.791 0 0 1-.001-7.583zm13.591 0a3.791 3.791 0 1 1 .001 7.583 3.791 3.791 0 0 1-.001-7.583zm13.57 0a3.79 3.79 0 1 1 0 7.582 3.792 3.792 0 0 1 0-7.582zm13.591 0a3.79 3.79 0 1 1 0 7.582 3.792 3.792 0 0 1 0-7.582zm13.591 0a3.79 3.79 0 1 1 0 7.581 3.79 3.79 0 0 1 0-7.581zm13.569 0a3.79 3.79 0 1 1 0 7.581 3.79 3.79 0 0 1 0-7.581zm13.591 0a3.791 3.791 0 1 1 .001 7.583 3.791 3.791 0 0 1-.001-7.583zm13.591 0a3.791 3.791 0 1 1 .001 7.583 3.791 3.791 0 0 1-.001-7.583zm13.57 0a3.791 3.791 0 1 1 0 7.583 3.791 3.791 0 0 1 0-7.583zm13.591 0a3.79 3.79 0 1 1 0 7.582 3.792 3.792 0 0 1 0-7.582zm13.591 0a3.79 3.79 0 1 1 0 7.581 3.79 3.79 0 0 1 0-7.581zm13.569 0a3.79 3.79 0 1 1 0 7.581 3.79 3.79 0 0 1 0-7.581zm13.591 0a3.791 3.791 0 1 1 .001 7.583 3.791 3.791 0 0 1-.001-7.583zm13.591 0a3.791 3.791 0 1 1 .001 7.583 3.791 3.791 0 0 1-.001-7.583zm13.569 0a3.791 3.791 0 1 1 .001 7.583 3.791 3.791 0 0 1-.001-7.583zm13.592 0a3.791 3.791 0 1 1 0 7.583 3.791 3.791 0 0 1 0-7.583zm13.591 0a3.79 3.79 0 1 1 0 7.581 3.79 3.79 0 0 1 0-7.581zm13.569 0a3.79 3.79 0 1 1 0 7.582 3.792 3.792 0 0 1 0-7.582zm13.591 0a3.79 3.79 0 1 1 0 7.581 3.79 3.79 0 0 1 0-7.581zm13.591 0a3.791 3.791 0 1 1 .001 7.583 3.791 3.791 0 0 1-.001-7.583zm13.569 0a3.791 3.791 0 1 1 .001 7.583 3.791 3.791 0 0 1-.001-7.583zm13.591 0a3.791 3.791 0 1 1 .001 7.583 3.791 3.791 0 0 1-.001-7.583zm13.57 0a3.79 3.79 0 1 1 0 7.582 3.792 3.792 0 0 1 0-7.582zm13.591 0a3.79 3.79 0 1 1 0 7.582 3.792 3.792 0 0 1 0-7.582zm13.591 0a3.79 3.79 0 1 1 0 7.581 3.79 3.79 0 0 1 0-7.581zm13.569 0a3.79 3.79 0 1 1 0 7.581 3.79 3.79 0 0 1 0-7.581zm13.591 0a3.791 3.791 0 1 1 .001 7.583 3.791 3.791 0 0 1-.001-7.583zm13.591 0a3.791 3.791 0 1 1 .001 7.583 3.791 3.791 0 0 1-.001-7.583zm13.57 0a3.791 3.791 0 1 1 0 7.583 3.791 3.791 0 0 1 0-7.583zm13.591 0a3.79 3.79 0 1 1 0 7.582 3.792 3.792 0 0 1 0-7.582zm13.591 0a3.79 3.79 0 1 1 0 7.581 3.79 3.79 0 0 1 0-7.581zm13.569 0a3.79 3.79 0 1 1 0 7.581 3.79 3.79 0 0 1 0-7.581zm13.591 0a3.791 3.791 0 1 1 .001 7.583 3.791 3.791 0 0 1-.001-7.583zm13.591 0a3.791 3.791 0 1 1 .001 7.583 3.791 3.791 0 0 1-.001-7.583zM4.08 159.556a3.46 3.46 0 1 1-.001 6.918 3.46 3.46 0 0 1 0-6.918zm13.568 0a3.46 3.46 0 1 1 0 6.918 3.46 3.46 0 0 1 0-6.918zm13.592 0a3.46 3.46 0 1 1 0 6.918 3.46 3.46 0 0 1 0-6.918zm13.59 0a3.46 3.46 0 1 1 0 6.918 3.46 3.46 0 0 1 0-6.918zm13.57 0a3.46 3.46 0 1 1 0 6.918 3.46 3.46 0 0 1 0-6.918zm13.591 0a3.46 3.46 0 1 1 0 6.918 3.46 3.46 0 0 1 0-6.918zm13.591 0a3.46 3.46 0 1 1 0 6.918 3.46 3.46 0 0 1 0-6.918zm13.569 0a3.459 3.459 0 1 1 0 6.917 3.459 3.459 0 0 1 0-6.917zm13.592 0a3.46 3.46 0 1 1 0 6.919 3.46 3.46 0 0 1 0-6.919zm13.591 0a3.46 3.46 0 1 1 0 6.919 3.46 3.46 0 0 1 0-6.919zm13.569 0a3.46 3.46 0 1 1 0 6.919 3.46 3.46 0 0 1 0-6.919zm13.591 0a3.46 3.46 0 1 1 0 6.919 3.46 3.46 0 0 1 0-6.919zm13.591 0a3.459 3.459 0 1 1 0 6.918 3.459 3.459 0 0 1 0-6.918zm13.569 0a3.459 3.459 0 1 1 0 6.918 3.459 3.459 0 0 1 0-6.918zm13.592 0a3.459 3.459 0 1 1-.001 6.917 3.459 3.459 0 0 1 .001-6.917zm13.569 0a3.459 3.459 0 1 1-.001 6.917 3.459 3.459 0 0 1 .001-6.917zm13.591 0a3.46 3.46 0 1 1 0 6.919 3.46 3.46 0 0 1 0-6.919zm13.591 0a3.46 3.46 0 1 1 0 6.919 3.46 3.46 0 0 1 0-6.919zm13.569 0a3.46 3.46 0 1 1 0 6.919 3.46 3.46 0 0 1 0-6.919zm13.591 0a3.46 3.46 0 1 1 0 6.919 3.46 3.46 0 0 1 0-6.919zm13.592 0a3.459 3.459 0 1 1-.001 6.917 3.459 3.459 0 0 1 .001-6.917zm13.568 0a3.459 3.459 0 1 1 0 6.918 3.459 3.459 0 0 1 0-6.918zm13.592 0a3.46 3.46 0 1 1 0 6.919 3.46 3.46 0 0 1 0-6.919zm13.591 0a3.46 3.46 0 1 1 0 6.919 3.46 3.46 0 0 1 0-6.919zm13.569 0a3.46 3.46 0 1 1 0 6.919 3.46 3.46 0 0 1 0-6.919zm13.591 0a3.46 3.46 0 1 1 0 6.919 3.46 3.46 0 0 1 0-6.919zm13.591 0a3.459 3.459 0 1 1 0 6.918 3.459 3.459 0 0 1 0-6.918zm13.569 0a3.459 3.459 0 1 1 0 6.918 3.459 3.459 0 0 1 0-6.918zm13.592 0a3.459 3.459 0 1 1-.001 6.917 3.459 3.459 0 0 1 .001-6.917zm13.591 0a3.46 3.46 0 1 1 0 6.919 3.46 3.46 0 0 1 0-6.919zm13.569 0a3.46 3.46 0 1 1 0 6.919 3.46 3.46 0 0 1 0-6.919zm13.591 0a3.46 3.46 0 1 1 0 6.919 3.46 3.46 0 0 1 0-6.919zm13.591 0a3.459 3.459 0 1 1 0 6.918 3.459 3.459 0 0 1 0-6.918zm13.569 0a3.46 3.46 0 1 1 0 6.919 3.46 3.46 0 0 1 0-6.919zm13.592 0a3.459 3.459 0 1 1-.001 6.917 3.459 3.459 0 0 1 .001-6.917zm13.568 0a3.459 3.459 0 1 1 0 6.918 3.459 3.459 0 0 1 0-6.918zm13.592 0a3.46 3.46 0 1 1 0 6.919 3.46 3.46 0 0 1 0-6.919zm13.591 0a3.46 3.46 0 1 1 0 6.919 3.46 3.46 0 0 1 0-6.919zm13.569 0a3.46 3.46 0 1 1 0 6.919 3.46 3.46 0 0 1 0-6.919zm13.591 0a3.46 3.46 0 1 1 0 6.919 3.46 3.46 0 0 1 0-6.919zm13.591 0a3.459 3.459 0 1 1 0 6.918 3.459 3.459 0 0 1 0-6.918zm13.569 0a3.459 3.459 0 1 1 0 6.918 3.459 3.459 0 0 1 0-6.918zm13.592 0a3.46 3.46 0 1 1 0 6.919 3.46 3.46 0 0 1 0-6.919zm13.591 0a3.46 3.46 0 1 1 0 6.919 3.46 3.46 0 0 1 0-6.919zm13.569 0a3.46 3.46 0 1 1 0 6.919 3.46 3.46 0 0 1 0-6.919zm13.591 0a3.46 3.46 0 1 1 0 6.919 3.46 3.46 0 0 1 0-6.919zm13.591 0a3.459 3.459 0 1 1 0 6.918 3.459 3.459 0 0 1 0-6.918zM4.08 146.299a3.126 3.126 0 1 1 0 6.251 3.126 3.126 0 0 1 0-6.251zm13.569 0a3.126 3.126 0 1 1 0 6.252 3.126 3.126 0 0 1 0-6.252zm13.591 0a3.126 3.126 0 1 1 0 6.251 3.126 3.126 0 0 1 0-6.251zm13.591 0a3.126 3.126 0 1 1 0 6.252 3.126 3.126 0 0 1 0-6.252zm13.569 0a3.126 3.126 0 1 1 0 6.252 3.126 3.126 0 0 1 0-6.252zm13.591 0a3.126 3.126 0 1 1 .001 6.251 3.126 3.126 0 0 1 0-6.251zm13.591 0a3.126 3.126 0 1 1 .001 6.251 3.126 3.126 0 0 1 0-6.251zm13.57 0a3.126 3.126 0 1 1 0 6.252 3.126 3.126 0 0 1 0-6.252zm13.591 0a3.126 3.126 0 1 1 0 6.252 3.126 3.126 0 0 1 0-6.252zm13.591 0a3.125 3.125 0 1 1 .001 6.25 3.125 3.125 0 0 1-.001-6.25zm13.569 0a3.126 3.126 0 1 1 0 6.252 3.126 3.126 0 0 1 0-6.252zm13.591 0a3.125 3.125 0 1 1 .001 6.25 3.125 3.125 0 0 1-.001-6.25zm13.591 0a3.126 3.126 0 1 1 .002 6.252 3.126 3.126 0 0 1-.002-6.252zm13.57 0a3.126 3.126 0 1 1 0 6.252 3.126 3.126 0 0 1 0-6.252zm13.591 0a3.126 3.126 0 1 1 0 6.252 3.126 3.126 0 0 1 0-6.252zm13.569 0a3.126 3.126 0 1 1 0 6.252 3.126 3.126 0 0 1 0-6.252zm13.591 0a3.126 3.126 0 1 1 0 6.252 3.126 3.126 0 0 1 0-6.252zm13.591 0a3.125 3.125 0 1 1 .001 6.25 3.125 3.125 0 0 1-.001-6.25zm13.569 0a3.125 3.125 0 1 1 .001 6.25 3.125 3.125 0 0 1-.001-6.25zm13.591 0a3.126 3.126 0 1 1 .002 6.252 3.126 3.126 0 0 1-.002-6.252zm13.591 0a3.126 3.126 0 1 1 .002 6.252 3.126 3.126 0 0 1-.002-6.252zm13.57 0a3.126 3.126 0 1 1 0 6.252 3.126 3.126 0 0 1 0-6.252zm13.591 0a3.126 3.126 0 1 1 0 6.252 3.126 3.126 0 0 1 0-6.252zm13.591 0a3.125 3.125 0 1 1 .001 6.25 3.125 3.125 0 0 1-.001-6.25zm13.569 0a3.126 3.126 0 1 1 0 6.252 3.126 3.126 0 0 1 0-6.252zm13.591 0a3.125 3.125 0 1 1 .001 6.25 3.125 3.125 0 0 1-.001-6.25zm13.591 0a3.126 3.126 0 1 1 .002 6.252 3.126 3.126 0 0 1-.002-6.252zm13.57 0a3.126 3.126 0 1 1 0 6.252 3.126 3.126 0 0 1 0-6.252zm13.591 0a3.126 3.126 0 1 1 0 6.252 3.126 3.126 0 0 1 0-6.252zm13.591 0a3.126 3.126 0 1 1 0 6.252 3.126 3.126 0 0 1 0-6.252zm13.569 0a3.126 3.126 0 1 1 0 6.252 3.126 3.126 0 0 1 0-6.252zm13.591 0a3.125 3.125 0 1 1 .001 6.25 3.125 3.125 0 0 1-.001-6.25zm13.591 0a3.125 3.125 0 1 1 .001 6.25 3.125 3.125 0 0 1-.001-6.25zm13.569 0a3.126 3.126 0 1 1 .002 6.252 3.126 3.126 0 0 1-.002-6.252zm13.591 0a3.126 3.126 0 1 1 .002 6.252 3.126 3.126 0 0 1-.002-6.252zm13.57 0a3.126 3.126 0 1 1 0 6.252 3.126 3.126 0 0 1 0-6.252zm13.591 0a3.126 3.126 0 1 1 0 6.252 3.126 3.126 0 0 1 0-6.252zm13.591 0a3.125 3.125 0 1 1 .001 6.25 3.125 3.125 0 0 1-.001-6.25zm13.569 0a3.125 3.125 0 1 1 .001 6.25 3.125 3.125 0 0 1-.001-6.25zm13.591 0a3.126 3.126 0 1 1 .002 6.252 3.126 3.126 0 0 1-.002-6.252zm13.591 0a3.126 3.126 0 1 1 .002 6.252 3.126 3.126 0 0 1-.002-6.252zm13.57 0a3.126 3.126 0 1 1 0 6.252 3.126 3.126 0 0 1 0-6.252zm13.591 0a3.126 3.126 0 1 1 0 6.252 3.126 3.126 0 0 1 0-6.252zm13.591 0a3.125 3.125 0 1 1 .001 6.25 3.125 3.125 0 0 1-.001-6.25zm13.569 0a3.126 3.126 0 1 1 0 6.252 3.126 3.126 0 0 1 0-6.252zm13.591 0a3.126 3.126 0 1 1 .002 6.252 3.126 3.126 0 0 1-.002-6.252zm13.591 0a3.126 3.126 0 1 1 .002 6.252 3.126 3.126 0 0 1-.002-6.252zM4.08 133.063a2.794 2.794 0 1 1 0 5.588 2.794 2.794 0 0 1 0-5.588zm13.569 0a2.794 2.794 0 1 1-.001 5.588 2.794 2.794 0 0 1 0-5.588zm13.591 0a2.794 2.794 0 1 1 0 5.588 2.794 2.794 0 0 1 0-5.588zm13.591 0a2.794 2.794 0 1 1 0 5.588 2.794 2.794 0 0 1 0-5.588zm13.569 0a2.794 2.794 0 1 1 0 5.588 2.794 2.794 0 0 1 0-5.588zm13.591 0a2.794 2.794 0 1 1 0 5.588 2.794 2.794 0 0 1 0-5.588zm13.592 0a2.794 2.794 0 1 1-.001 5.588 2.794 2.794 0 0 1 0-5.588zm13.568 0a2.794 2.794 0 1 1 0 5.588 2.794 2.794 0 0 1 0-5.588zm13.592 0a2.793 2.793 0 1 1 0 5.587 2.793 2.793 0 0 1 0-5.587zm13.591 0a2.794 2.794 0 1 1 0 5.588 2.794 2.794 0 0 1 0-5.588zm13.569 0a2.794 2.794 0 1 1 0 5.588 2.794 2.794 0 0 1 0-5.588zm13.591 0a2.794 2.794 0 1 1 0 5.588 2.794 2.794 0 0 1 0-5.588zm13.591 0a2.794 2.794 0 1 1 0 5.588 2.794 2.794 0 0 1 0-5.588zm13.569 0a2.794 2.794 0 1 1 0 5.588 2.794 2.794 0 0 1 0-5.588zm13.592 0a2.793 2.793 0 1 1 0 5.587 2.793 2.793 0 0 1 0-5.587zm13.569 0a2.794 2.794 0 1 1-.002 5.588 2.794 2.794 0 0 1 .002-5.588zm13.591 0a2.794 2.794 0 1 1 0 5.588 2.794 2.794 0 0 1 0-5.588zm13.591 0a2.794 2.794 0 1 1 0 5.588 2.794 2.794 0 0 1 0-5.588zm13.569 0a2.794 2.794 0 1 1 0 5.588 2.794 2.794 0 0 1 0-5.588zm13.591 0a2.794 2.794 0 1 1 0 5.588 2.794 2.794 0 0 1 0-5.588zm13.592 0a2.793 2.793 0 1 1 0 5.587 2.793 2.793 0 0 1 0-5.587zm13.569 0a2.794 2.794 0 1 1-.002 5.588 2.794 2.794 0 0 1 .002-5.588zm13.591 0a2.794 2.794 0 1 1 0 5.588 2.794 2.794 0 0 1 0-5.588zm13.591 0a2.794 2.794 0 1 1 0 5.588 2.794 2.794 0 0 1 0-5.588zm13.569 0a2.794 2.794 0 1 1 0 5.588 2.794 2.794 0 0 1 0-5.588zm13.591 0a2.794 2.794 0 1 1 0 5.588 2.794 2.794 0 0 1 0-5.588zm13.592 0a2.794 2.794 0 1 1-.002 5.588 2.794 2.794 0 0 1 .002-5.588zm13.568 0a2.794 2.794 0 1 1 0 5.588 2.794 2.794 0 0 1 0-5.588zm13.592 0a2.793 2.793 0 1 1 0 5.587 2.793 2.793 0 0 1 0-5.587zm13.591 0a2.794 2.794 0 1 1 0 5.588 2.794 2.794 0 0 1 0-5.588zm13.569 0a2.794 2.794 0 1 1 0 5.588 2.794 2.794 0 0 1 0-5.588zm13.591 0a2.794 2.794 0 1 1 0 5.588 2.794 2.794 0 0 1 0-5.588zm13.591 0a2.794 2.794 0 1 1 0 5.588 2.794 2.794 0 0 1 0-5.588zm13.569 0a2.794 2.794 0 1 1 0 5.588 2.794 2.794 0 0 1 0-5.588zm13.591 0a2.794 2.794 0 1 1 0 5.588 2.794 2.794 0 0 1 0-5.588zm13.57 0a2.794 2.794 0 1 1-.002 5.588 2.794 2.794 0 0 1 .002-5.588zm13.591 0a2.794 2.794 0 1 1-.002 5.588 2.794 2.794 0 0 1 .002-5.588zm13.591 0a2.794 2.794 0 1 1 0 5.588 2.794 2.794 0 0 1 0-5.588zm13.569 0a2.794 2.794 0 1 1 0 5.588 2.794 2.794 0 0 1 0-5.588zm13.591 0a2.794 2.794 0 1 1 0 5.588 2.794 2.794 0 0 1 0-5.588zm13.591 0a2.794 2.794 0 1 1 0 5.588 2.794 2.794 0 0 1 0-5.588zm13.57 0a2.794 2.794 0 1 1-.002 5.588 2.794 2.794 0 0 1 .002-5.588zm13.591 0a2.793 2.793 0 1 1 0 5.587 2.793 2.793 0 0 1 0-5.587zm13.591 0a2.794 2.794 0 1 1 0 5.588 2.794 2.794 0 0 1 0-5.588zm13.569 0a2.794 2.794 0 1 1 0 5.588 2.794 2.794 0 0 1 0-5.588zm13.591 0a2.794 2.794 0 1 1 0 5.588 2.794 2.794 0 0 1 0-5.588zm13.591 0a2.794 2.794 0 1 1 0 5.588 2.794 2.794 0 0 1 0-5.588zM4.08 119.783a2.484 2.484 0 1 1-.001 4.967 2.484 2.484 0 0 1 0-4.967zm13.569 0a2.483 2.483 0 1 1 0 4.967 2.483 2.483 0 0 1 0-4.967zm13.591 0a2.484 2.484 0 1 1 0 4.967 2.484 2.484 0 0 1 0-4.967zm13.591 0a2.484 2.484 0 1 1 0 4.967 2.484 2.484 0 0 1 0-4.967zm13.569 0a2.484 2.484 0 1 1 0 4.967 2.484 2.484 0 0 1 0-4.967zm13.591 0a2.484 2.484 0 1 1 0 4.967 2.484 2.484 0 0 1 0-4.967zm13.591 0a2.484 2.484 0 1 1 0 4.967 2.484 2.484 0 0 1 0-4.967zm13.57 0a2.484 2.484 0 1 1-.001 4.967 2.484 2.484 0 0 1 0-4.967zm13.591 0a2.484 2.484 0 1 1-.001 4.967 2.484 2.484 0 0 1 .001-4.967zm13.591 0a2.484 2.484 0 1 1-.001 4.967 2.484 2.484 0 0 1 .001-4.967zm13.569 0a2.484 2.484 0 1 1-.001 4.967 2.484 2.484 0 0 1 .001-4.967zm13.591 0a2.483 2.483 0 1 1 0 4.966 2.483 2.483 0 0 1 0-4.966zm13.591 0a2.484 2.484 0 1 1 0 4.968 2.484 2.484 0 0 1 0-4.968zm13.57 0a2.484 2.484 0 1 1-.001 4.967 2.484 2.484 0 0 1 .001-4.967zm13.591 0a2.484 2.484 0 1 1-.001 4.967 2.484 2.484 0 0 1 .001-4.967zm13.569 0a2.484 2.484 0 1 1-.001 4.967 2.484 2.484 0 0 1 .001-4.967zm13.591 0a2.484 2.484 0 1 1-.001 4.967 2.484 2.484 0 0 1 .001-4.967zm13.591 0a2.483 2.483 0 1 1 0 4.966 2.483 2.483 0 0 1 0-4.966zm13.569 0a2.483 2.483 0 1 1 0 4.966 2.483 2.483 0 0 1 0-4.966zm13.591 0a2.484 2.484 0 1 1 0 4.968 2.484 2.484 0 0 1 0-4.968zm13.592 0a2.484 2.484 0 1 1-.001 4.967 2.484 2.484 0 0 1 .001-4.967zm13.569 0a2.484 2.484 0 1 1-.001 4.967 2.484 2.484 0 0 1 .001-4.967zm13.591 0a2.484 2.484 0 1 1-.001 4.967 2.484 2.484 0 0 1 .001-4.967zm13.591 0a2.484 2.484 0 1 1-.001 4.967 2.484 2.484 0 0 1 .001-4.967zm13.569 0a2.484 2.484 0 1 1-.001 4.967 2.484 2.484 0 0 1 .001-4.967zm13.591 0a2.484 2.484 0 1 1-.001 4.967 2.484 2.484 0 0 1 .001-4.967zm13.591 0a2.484 2.484 0 1 1 0 4.968 2.484 2.484 0 0 1 0-4.968zm13.569 0a2.484 2.484 0 1 1 0 4.968 2.484 2.484 0 0 1 0-4.968zm13.592 0a2.484 2.484 0 1 1-.001 4.967 2.484 2.484 0 0 1 .001-4.967zm13.591 0a2.484 2.484 0 1 1-.001 4.967 2.484 2.484 0 0 1 .001-4.967zm13.569 0a2.484 2.484 0 1 1-.001 4.967 2.484 2.484 0 0 1 .001-4.967zm13.591 0a2.484 2.484 0 1 1-.001 4.967 2.484 2.484 0 0 1 .001-4.967zm13.591 0a2.484 2.484 0 1 1 0 4.968 2.484 2.484 0 0 1 0-4.968zm13.569 0a2.483 2.483 0 1 1 0 4.966 2.483 2.483 0 0 1 0-4.966zm13.592 0a2.484 2.484 0 1 1-.001 4.967 2.484 2.484 0 0 1 .001-4.967zm13.568 0a2.484 2.484 0 1 1 0 4.968 2.484 2.484 0 0 1 0-4.968zm13.592 0a2.484 2.484 0 1 1-.001 4.967 2.484 2.484 0 0 1 .001-4.967zm13.591 0a2.484 2.484 0 1 1-.001 4.967 2.484 2.484 0 0 1 .001-4.967zm13.569 0a2.483 2.483 0 1 1 0 4.966 2.483 2.483 0 0 1 0-4.966zm13.591 0a2.483 2.483 0 1 1 0 4.966 2.483 2.483 0 0 1 0-4.966zm13.591 0a2.484 2.484 0 1 1 0 4.968 2.484 2.484 0 0 1 0-4.968zm13.569 0a2.484 2.484 0 1 1 0 4.968 2.484 2.484 0 0 1 0-4.968zm13.592 0a2.484 2.484 0 1 1-.001 4.967 2.484 2.484 0 0 1 .001-4.967zm13.591 0a2.484 2.484 0 1 1-.001 4.967 2.484 2.484 0 0 1 .001-4.967zm13.569 0a2.484 2.484 0 1 1-.001 4.967 2.484 2.484 0 0 1 .001-4.967zm13.591 0a2.484 2.484 0 1 1-.001 4.967 2.484 2.484 0 0 1 .001-4.967zm13.591 0a2.484 2.484 0 1 1 0 4.968 2.484 2.484 0 0 1 0-4.968zM4.08 106.504a2.172 2.172 0 1 1 .001 4.344 2.172 2.172 0 0 1-.001-4.344zm13.569 0a2.172 2.172 0 1 1 .001 4.344 2.172 2.172 0 0 1-.001-4.344zm13.591 0a2.172 2.172 0 1 1 .001 4.344 2.172 2.172 0 0 1-.001-4.344zm13.591 0a2.172 2.172 0 1 1 .001 4.344 2.172 2.172 0 0 1-.001-4.344zm13.569 0a2.172 2.172 0 1 1 .002 4.344 2.172 2.172 0 0 1-.002-4.344zm13.591 0a2.172 2.172 0 1 1 .002 4.344 2.172 2.172 0 0 1-.002-4.344zm13.592 0a2.172 2.172 0 1 1 .001 4.344 2.172 2.172 0 0 1-.001-4.344zm13.568 0a2.172 2.172 0 1 1 0 4.345 2.173 2.173 0 0 1 0-4.345zm13.592 0a2.172 2.172 0 1 1 .001 4.345 2.172 2.172 0 0 1-.001-4.345zm13.591 0a2.172 2.172 0 1 1 .001 4.345 2.172 2.172 0 0 1-.001-4.345zm13.569 0a2.172 2.172 0 1 1 .001 4.345 2.172 2.172 0 0 1-.001-4.345zm13.591 0a2.172 2.172 0 1 1 .001 4.345 2.172 2.172 0 0 1-.001-4.345zm13.591 0a2.172 2.172 0 1 1 .001 4.345 2.172 2.172 0 0 1-.001-4.345zm13.569 0a2.172 2.172 0 1 1 .001 4.345 2.172 2.172 0 0 1-.001-4.345zm13.591 0a2.172 2.172 0 1 1 0 4.345 2.172 2.172 0 0 1 0-4.345zm13.57 0a2.171 2.171 0 1 1 0 4.345 2.173 2.173 0 0 1 0-4.345zm13.591 0a2.172 2.172 0 1 1 .001 4.345 2.172 2.172 0 0 1-.001-4.345zm13.591 0a2.172 2.172 0 1 1 .001 4.345 2.172 2.172 0 0 1-.001-4.345zm13.569 0a2.172 2.172 0 1 1 .001 4.345 2.172 2.172 0 0 1-.001-4.345zm13.591 0a2.172 2.172 0 1 1 .001 4.345 2.172 2.172 0 0 1-.001-4.345zm13.591 0a2.172 2.172 0 1 1 .001 4.345 2.172 2.172 0 0 1-.001-4.345zm13.57 0a2.171 2.171 0 1 1 0 4.345 2.173 2.173 0 0 1 0-4.345zm13.591 0a2.171 2.171 0 1 1 0 4.345 2.173 2.173 0 0 1 0-4.345zm13.591 0a2.172 2.172 0 1 1 .001 4.345 2.172 2.172 0 0 1-.001-4.345zm13.569 0a2.172 2.172 0 1 1 .001 4.345 2.172 2.172 0 0 1-.001-4.345zm13.591 0a2.172 2.172 0 1 1 .001 4.345 2.172 2.172 0 0 1-.001-4.345zm13.591 0a2.172 2.172 0 1 1 .001 4.345 2.172 2.172 0 0 1-.001-4.345zm13.569 0a2.172 2.172 0 1 1 .001 4.345 2.172 2.172 0 0 1-.001-4.345zm13.592 0a2.171 2.171 0 1 1 0 4.345 2.173 2.173 0 0 1 0-4.345zm13.591 0a2.172 2.172 0 1 1 .001 4.345 2.172 2.172 0 0 1-.001-4.345zm13.569 0a2.172 2.172 0 1 1 .001 4.345 2.172 2.172 0 0 1-.001-4.345zm13.591 0a2.172 2.172 0 1 1 .001 4.345 2.172 2.172 0 0 1-.001-4.345zm13.591 0a2.172 2.172 0 1 1 .001 4.345 2.172 2.172 0 0 1-.001-4.345zm13.569 0a2.172 2.172 0 1 1 .001 4.345 2.172 2.172 0 0 1-.001-4.345zm13.591 0a2.172 2.172 0 1 1 .001 4.345 2.172 2.172 0 0 1-.001-4.345zm13.57 0a2.171 2.171 0 1 1 0 4.345 2.173 2.173 0 0 1 0-4.345zm13.591 0a2.171 2.171 0 1 1 0 4.345 2.173 2.173 0 0 1 0-4.345zm13.591 0a2.172 2.172 0 1 1 .001 4.345 2.172 2.172 0 0 1-.001-4.345zm13.569 0a2.172 2.172 0 1 1 .001 4.345 2.172 2.172 0 0 1-.001-4.345zm13.591 0a2.172 2.172 0 1 1 .001 4.345 2.172 2.172 0 0 1-.001-4.345zm13.591 0a2.172 2.172 0 1 1 .001 4.345 2.172 2.172 0 0 1-.001-4.345zm13.57 0a2.171 2.171 0 1 1 0 4.345 2.173 2.173 0 0 1 0-4.345zm13.591 0a2.171 2.171 0 1 1 0 4.345 2.173 2.173 0 0 1 0-4.345zm13.591 0a2.172 2.172 0 1 1 .001 4.345 2.172 2.172 0 0 1-.001-4.345zm13.569 0a2.172 2.172 0 1 1 .001 4.345 2.172 2.172 0 0 1-.001-4.345zm13.591 0a2.172 2.172 0 1 1 .001 4.345 2.172 2.172 0 0 1-.001-4.345zm13.591 0a2.172 2.172 0 1 1 .001 4.345 2.172 2.172 0 0 1-.001-4.345zM4.08 93.246a1.862 1.862 0 1 1 0 3.725 1.862 1.862 0 0 1 0-3.725zm13.569 0a1.862 1.862 0 1 1 0 3.725 1.862 1.862 0 0 1 0-3.725zm13.591 0a1.862 1.862 0 1 1 0 3.725 1.862 1.862 0 0 1 0-3.725zm13.59 0a1.862 1.862 0 1 1 .001 3.725 1.862 1.862 0 0 1 0-3.725zm13.57 0a1.862 1.862 0 1 1 0 3.725 1.862 1.862 0 0 1 0-3.725zm13.591 0a1.862 1.862 0 1 1 0 3.725 1.862 1.862 0 0 1 0-3.725zm13.591 0a1.862 1.862 0 1 1 0 3.725 1.862 1.862 0 0 1 0-3.725zm13.569 0a1.863 1.863 0 1 1 0 3.725 1.863 1.863 0 0 1 0-3.725zm13.592 0a1.862 1.862 0 1 1 0 3.725 1.862 1.862 0 0 1 0-3.725zm13.591 0a1.862 1.862 0 1 1 0 3.725 1.862 1.862 0 0 1 0-3.725zm13.569 0a1.862 1.862 0 1 1 0 3.724 1.862 1.862 0 0 1 0-3.724zm13.591 0a1.862 1.862 0 1 1 0 3.724 1.862 1.862 0 0 1 0-3.724zm13.591 0a1.863 1.863 0 1 1 0 3.725 1.863 1.863 0 0 1 0-3.725zm13.569 0a1.863 1.863 0 1 1 0 3.725 1.863 1.863 0 0 1 0-3.725zm13.592 0a1.862 1.862 0 1 1 0 3.725 1.862 1.862 0 0 1 0-3.725zm13.569 0a1.862 1.862 0 1 1 0 3.725 1.862 1.862 0 0 1 0-3.725zm13.591 0a1.862 1.862 0 1 1 0 3.725 1.862 1.862 0 0 1 0-3.725zm13.591 0a1.862 1.862 0 1 1 0 3.725 1.862 1.862 0 0 1 0-3.725zm13.569 0a1.863 1.863 0 1 1 0 3.725 1.863 1.863 0 0 1 0-3.725zm13.591 0a1.863 1.863 0 1 1 0 3.725 1.863 1.863 0 0 1 0-3.725zm13.592 0a1.862 1.862 0 1 1 0 3.725 1.862 1.862 0 0 1 0-3.725zm13.568 0a1.863 1.863 0 1 1 0 3.725 1.863 1.863 0 0 1 0-3.725zm13.592 0a1.862 1.862 0 1 1 0 3.725 1.862 1.862 0 0 1 0-3.725zm13.591 0a1.862 1.862 0 1 1 0 3.725 1.862 1.862 0 0 1 0-3.725zm13.569 0a1.862 1.862 0 1 1 0 3.724 1.862 1.862 0 0 1 0-3.724zm13.591 0a1.863 1.863 0 1 1 0 3.725 1.863 1.863 0 0 1 0-3.725zm13.591 0a1.863 1.863 0 1 1 0 3.725 1.863 1.863 0 0 1 0-3.725zm13.569 0a1.863 1.863 0 1 1 0 3.725 1.863 1.863 0 0 1 0-3.725zm13.592 0a1.862 1.862 0 1 1 0 3.725 1.862 1.862 0 0 1 0-3.725zm13.591 0a1.862 1.862 0 1 1 0 3.725 1.862 1.862 0 0 1 0-3.725zm13.569 0a1.862 1.862 0 1 1 0 3.724 1.862 1.862 0 0 1 0-3.724zm13.591 0a1.862 1.862 0 1 1 0 3.724 1.862 1.862 0 0 1 0-3.724zm13.591 0a1.863 1.863 0 1 1 0 3.725 1.863 1.863 0 0 1 0-3.725zm13.569 0a1.863 1.863 0 1 1 0 3.725 1.863 1.863 0 0 1 0-3.725zm13.592 0a1.862 1.862 0 1 1 0 3.725 1.862 1.862 0 0 1 0-3.725zm13.568 0a1.863 1.863 0 1 1 0 3.725 1.863 1.863 0 0 1 0-3.725zm13.592 0a1.862 1.862 0 1 1 0 3.725 1.862 1.862 0 0 1 0-3.725zm13.591 0a1.862 1.862 0 1 1 0 3.724 1.862 1.862 0 0 1 0-3.724zm13.569 0a1.862 1.862 0 1 1 0 3.724 1.862 1.862 0 0 1 0-3.724zm13.591 0a1.863 1.863 0 1 1 0 3.725 1.863 1.863 0 0 1 0-3.725zm13.591 0a1.863 1.863 0 1 1 0 3.725 1.863 1.863 0 0 1 0-3.725zm13.569 0a1.863 1.863 0 1 1 0 3.725 1.863 1.863 0 0 1 0-3.725zm13.592 0a1.862 1.862 0 1 1 0 3.725 1.862 1.862 0 0 1 0-3.725zm13.591 0a1.862 1.862 0 1 1 0 3.725 1.862 1.862 0 0 1 0-3.725zm13.569 0a1.862 1.862 0 1 1 0 3.724 1.862 1.862 0 0 1 0-3.724zm13.591 0a1.862 1.862 0 1 1 0 3.724 1.862 1.862 0 0 1 0-3.724zm13.591 0a1.863 1.863 0 1 1 0 3.725 1.863 1.863 0 0 1 0-3.725zM4.08 79.944a1.574 1.574 0 1 1 0 3.148 1.574 1.574 0 0 1 0-3.148zm13.569 0a1.574 1.574 0 1 1 0 3.149 1.574 1.574 0 0 1 0-3.149zm13.591 0a1.574 1.574 0 1 1 0 3.149 1.574 1.574 0 0 1 0-3.149zm13.591 0a1.574 1.574 0 1 1 0 3.149 1.574 1.574 0 0 1 0-3.149zm13.569 0a1.574 1.574 0 1 1 0 3.149 1.574 1.574 0 0 1 0-3.149zm13.591 0a1.574 1.574 0 1 1 0 3.149 1.574 1.574 0 0 1 0-3.149zm13.591 0a1.574 1.574 0 1 1 0 3.148 1.574 1.574 0 0 1 0-3.148zm13.569 0a1.574 1.574 0 1 1 0 3.149 1.574 1.574 0 0 1 0-3.149zm13.592 0a1.574 1.574 0 1 1 0 3.149 1.574 1.574 0 0 1 0-3.149zm13.591 0a1.574 1.574 0 1 1 0 3.149 1.574 1.574 0 0 1 0-3.149zm13.569 0a1.574 1.574 0 1 1 0 3.149 1.574 1.574 0 0 1 0-3.149zm13.591 0a1.574 1.574 0 1 1 0 3.147 1.574 1.574 0 0 1 0-3.147zm13.591 0a1.574 1.574 0 1 1 0 3.147 1.574 1.574 0 0 1 0-3.147zm13.569 0a1.574 1.574 0 1 1 .001 3.15 1.574 1.574 0 0 1-.001-3.15zm13.592 0a1.574 1.574 0 1 1 0 3.149 1.574 1.574 0 0 1 0-3.149zm13.569 0a1.574 1.574 0 1 1 0 3.149 1.574 1.574 0 0 1 0-3.149zm13.591 0a1.574 1.574 0 1 1 0 3.149 1.574 1.574 0 0 1 0-3.149zm13.591 0a1.574 1.574 0 1 1 0 3.149 1.574 1.574 0 0 1 0-3.149zm13.569 0a1.574 1.574 0 1 1 0 3.149 1.574 1.574 0 0 1 0-3.149zm13.591 0a1.574 1.574 0 1 1 .001 3.15 1.574 1.574 0 0 1-.001-3.15zm13.591 0a1.574 1.574 0 1 1 .001 3.15 1.574 1.574 0 0 1-.001-3.15zm13.57 0a1.574 1.574 0 1 1 0 3.149 1.574 1.574 0 0 1 0-3.149zm13.591 0a1.574 1.574 0 1 1 0 3.149 1.574 1.574 0 0 1 0-3.149zm13.591 0a1.574 1.574 0 1 1 0 3.149 1.574 1.574 0 0 1 0-3.149zm13.569 0a1.574 1.574 0 1 1 0 3.149 1.574 1.574 0 0 1 0-3.149zm13.591 0a1.574 1.574 0 1 1 0 3.147 1.574 1.574 0 0 1 0-3.147zm13.591 0a1.574 1.574 0 1 1 0 3.147 1.574 1.574 0 0 1 0-3.147zm13.569 0a1.574 1.574 0 1 1 .001 3.15 1.574 1.574 0 0 1-.001-3.15zm13.592 0a1.574 1.574 0 1 1 0 3.149 1.574 1.574 0 0 1 0-3.149zm13.591 0a1.574 1.574 0 1 1 0 3.149 1.574 1.574 0 0 1 0-3.149zm13.569 0a1.574 1.574 0 1 1 0 3.149 1.574 1.574 0 0 1 0-3.149zm13.591 0a1.574 1.574 0 1 1 0 3.147 1.574 1.574 0 0 1 0-3.147zm13.591 0a1.574 1.574 0 1 1 0 3.147 1.574 1.574 0 0 1 0-3.147zm13.569 0a1.574 1.574 0 1 1 .001 3.15 1.574 1.574 0 0 1-.001-3.15zm13.591 0a1.574 1.574 0 1 1 .001 3.15 1.574 1.574 0 0 1-.001-3.15zm13.57 0a1.574 1.574 0 1 1 0 3.149 1.574 1.574 0 0 1 0-3.149zm13.591 0a1.574 1.574 0 1 1 0 3.149 1.574 1.574 0 0 1 0-3.149zm13.591 0a1.574 1.574 0 1 1 0 3.149 1.574 1.574 0 0 1 0-3.149zm13.569 0a1.574 1.574 0 1 1 0 3.149 1.574 1.574 0 0 1 0-3.149zm13.591 0a1.574 1.574 0 1 1 0 3.147 1.574 1.574 0 0 1 0-3.147zm13.591 0a1.574 1.574 0 1 1 .001 3.15 1.574 1.574 0 0 1-.001-3.15zm13.57 0a1.574 1.574 0 1 1 0 3.149 1.574 1.574 0 0 1 0-3.149zm13.591 0a1.574 1.574 0 1 1 0 3.149 1.574 1.574 0 0 1 0-3.149zm13.591 0a1.574 1.574 0 1 1 0 3.149 1.574 1.574 0 0 1 0-3.149zm13.569 0a1.574 1.574 0 1 1 0 3.149 1.574 1.574 0 0 1 0-3.149zm13.591 0a1.574 1.574 0 1 1 0 3.147 1.574 1.574 0 0 1 0-3.147zm13.591 0a1.574 1.574 0 1 1 0 3.147 1.574 1.574 0 0 1 0-3.147zM4.08 66.642a1.286 1.286 0 1 1 0 2.572 1.286 1.286 0 0 1 0-2.572zm13.568 0a1.286 1.286 0 1 1 0 2.572 1.286 1.286 0 0 1 0-2.572zm13.592 0a1.286 1.286 0 1 1 0 2.572 1.286 1.286 0 0 1 0-2.572zm13.59 0a1.286 1.286 0 1 1 .001 2.572 1.286 1.286 0 0 1 0-2.572zm13.57 0a1.286 1.286 0 1 1 0 2.572 1.286 1.286 0 0 1 0-2.572zm13.591 0a1.286 1.286 0 1 1 0 2.572 1.286 1.286 0 0 1 0-2.572zm13.591 0a1.286 1.286 0 1 1 0 2.572 1.286 1.286 0 0 1 0-2.572zm13.569 0a1.286 1.286 0 1 1 0 2.572 1.286 1.286 0 0 1 0-2.572zm13.592 0a1.286 1.286 0 1 1 0 2.573 1.286 1.286 0 0 1 0-2.573zm13.591 0a1.286 1.286 0 1 1 0 2.573 1.286 1.286 0 0 1 0-2.573zm13.569 0a1.286 1.286 0 1 1 0 2.573 1.286 1.286 0 0 1 0-2.573zm13.591 0a1.286 1.286 0 1 1 0 2.573 1.286 1.286 0 0 1 0-2.573zm13.591 0a1.285 1.285 0 1 1 .001 2.571 1.285 1.285 0 0 1-.001-2.57zm13.569 0a1.285 1.285 0 1 1 .001 2.571 1.285 1.285 0 0 1-.001-2.57zm13.592 0a1.286 1.286 0 1 1 0 2.573 1.286 1.286 0 0 1 0-2.573zm13.569 0a1.285 1.285 0 1 1 0 2.57 1.285 1.285 0 0 1 0-2.57zm13.591 0a1.286 1.286 0 1 1 0 2.573 1.286 1.286 0 0 1 0-2.573zm13.591 0a1.286 1.286 0 1 1 0 2.573 1.286 1.286 0 0 1 0-2.573zm13.569 0a1.286 1.286 0 1 1 0 2.573 1.286 1.286 0 0 1 0-2.573zm13.591 0a1.286 1.286 0 1 1 0 2.573 1.286 1.286 0 0 1 0-2.573zm13.592 0a1.285 1.285 0 1 1 0 2.57 1.285 1.285 0 0 1 0-2.57zm13.568 0a1.285 1.285 0 1 1 .001 2.571 1.285 1.285 0 0 1-.001-2.57zm13.592 0a1.286 1.286 0 1 1 0 2.573 1.286 1.286 0 0 1 0-2.573zm13.591 0a1.286 1.286 0 1 1 0 2.573 1.286 1.286 0 0 1 0-2.573zm13.569 0a1.286 1.286 0 1 1 0 2.573 1.286 1.286 0 0 1 0-2.573zm13.591 0a1.286 1.286 0 1 1 0 2.573 1.286 1.286 0 0 1 0-2.573zm13.591 0a1.285 1.285 0 1 1 .001 2.571 1.285 1.285 0 0 1-.001-2.57zm13.569 0a1.285 1.285 0 1 1 .001 2.571 1.285 1.285 0 0 1-.001-2.57zm13.592 0a1.286 1.286 0 1 1 0 2.573 1.286 1.286 0 0 1 0-2.573zm13.591 0a1.286 1.286 0 1 1 0 2.573 1.286 1.286 0 0 1 0-2.573zm13.569 0a1.286 1.286 0 1 1 0 2.573 1.286 1.286 0 0 1 0-2.573zm13.591 0a1.286 1.286 0 1 1 0 2.573 1.286 1.286 0 0 1 0-2.573zm13.591 0a1.285 1.285 0 1 1 .001 2.571 1.285 1.285 0 0 1-.001-2.57zm13.569 0a1.286 1.286 0 1 1 0 2.573 1.286 1.286 0 0 1 0-2.573zm13.592 0a1.286 1.286 0 1 1 0 2.573 1.286 1.286 0 0 1 0-2.573zm13.568 0a1.285 1.285 0 1 1 .001 2.571 1.285 1.285 0 0 1-.001-2.57zm13.592 0a1.286 1.286 0 1 1 0 2.573 1.286 1.286 0 0 1 0-2.573zm13.591 0a1.286 1.286 0 1 1 0 2.573 1.286 1.286 0 0 1 0-2.573zm13.569 0a1.286 1.286 0 1 1 0 2.573 1.286 1.286 0 0 1 0-2.573zm13.591 0a1.286 1.286 0 1 1 0 2.573 1.286 1.286 0 0 1 0-2.573zm13.591 0a1.285 1.285 0 1 1 .001 2.571 1.285 1.285 0 0 1-.001-2.57zm13.569 0a1.285 1.285 0 1 1 .001 2.571 1.285 1.285 0 0 1-.001-2.57zm13.592 0a1.286 1.286 0 1 1 0 2.573 1.286 1.286 0 0 1 0-2.573zm13.591 0a1.286 1.286 0 1 1 0 2.573 1.286 1.286 0 0 1 0-2.573zm13.569 0a1.286 1.286 0 1 1 0 2.573 1.286 1.286 0 0 1 0-2.573zm13.591 0a1.286 1.286 0 1 1 0 2.573 1.286 1.286 0 0 1 0-2.573zm13.591 0a1.285 1.285 0 1 1 .001 2.571 1.285 1.285 0 0 1-.001-2.57zM4.08 53.363a.998.998 0 1 1 0 1.995.998.998 0 0 1 0-1.995zm13.569 0a.998.998 0 1 1 0 1.995.998.998 0 0 1 0-1.995zm13.591 0a.998.998 0 1 1 0 1.995.998.998 0 0 1 0-1.995zm13.591 0a.998.998 0 1 1 0 1.995.998.998 0 0 1 0-1.995zm13.569 0a.998.998 0 1 1 0 1.995.998.998 0 0 1 0-1.995zm13.591 0a.998.998 0 1 1 0 1.995.998.998 0 0 1 0-1.995zm13.591 0a.998.998 0 1 1 0 1.995.998.998 0 0 1 0-1.995zm13.569 0a.997.997 0 1 1 0 1.994.997.997 0 0 1 0-1.994zm13.592 0a.997.997 0 1 1 0 1.994.997.997 0 0 1 0-1.994zm13.591 0a.998.998 0 1 1 0 1.995.998.998 0 0 1 0-1.995zm13.569 0a.998.998 0 1 1 0 1.995.998.998 0 0 1 0-1.995zm13.591 0a.998.998 0 1 1 0 1.995.998.998 0 0 1 0-1.995zm13.591 0a.998.998 0 1 1 0 1.995.998.998 0 0 1 0-1.995zm13.569 0a.998.998 0 1 1 0 1.995.998.998 0 0 1 0-1.995zm13.592 0a.997.997 0 1 1 0 1.994.997.997 0 0 1 0-1.994zm13.569 0a.997.997 0 1 1 0 1.994.997.997 0 0 1 0-1.994zm13.591 0a.997.997 0 1 1 0 1.994.997.997 0 0 1 0-1.994zm13.591 0a.998.998 0 1 1 0 1.995.998.998 0 0 1 0-1.995zm13.569 0a.998.998 0 1 1 0 1.995.998.998 0 0 1 0-1.995zm13.591 0a.998.998 0 1 1 0 1.995.998.998 0 0 1 0-1.995zm13.591 0a.998.998 0 1 1 0 1.995.998.998 0 0 1 0-1.995zm13.57 0a.997.997 0 1 1 0 1.994.997.997 0 0 1 0-1.994zm13.591 0a.997.997 0 1 1 0 1.994.997.997 0 0 1 0-1.994zm13.591 0a.998.998 0 1 1 0 1.995.998.998 0 0 1 0-1.995zm13.569 0a.998.998 0 1 1 0 1.995.998.998 0 0 1 0-1.995zm13.591 0a.998.998 0 1 1 0 1.995.998.998 0 0 1 0-1.995zm13.591 0a.998.998 0 1 1 0 1.995.998.998 0 0 1 0-1.995zm13.569 0a.998.998 0 1 1 0 1.995.998.998 0 0 1 0-1.995zm13.592 0a.997.997 0 1 1 0 1.994.997.997 0 0 1 0-1.994zm13.591 0a.998.998 0 1 1 0 1.995.998.998 0 0 1 0-1.995zm13.569 0a.998.998 0 1 1 0 1.995.998.998 0 0 1 0-1.995zm13.591 0a.998.998 0 1 1 0 1.995.998.998 0 0 1 0-1.995zm13.591 0a.998.998 0 1 1 0 1.995.998.998 0 0 1 0-1.995zm13.569 0a.998.998 0 1 1 0 1.995.998.998 0 0 1 0-1.995zm13.591 0a.998.998 0 1 1 0 1.995.998.998 0 0 1 0-1.995zm13.57 0a.997.997 0 1 1 0 1.994.997.997 0 0 1 0-1.994zm13.591 0a.997.997 0 1 1 0 1.994.997.997 0 0 1 0-1.994zm13.591 0a.998.998 0 1 1 0 1.995.998.998 0 0 1 0-1.995zm13.569 0a.998.998 0 1 1 0 1.995.998.998 0 0 1 0-1.995zm13.591 0a.998.998 0 1 1 0 1.995.998.998 0 0 1 0-1.995zm13.591 0a.998.998 0 1 1 0 1.995.998.998 0 0 1 0-1.995zm13.57 0a.997.997 0 1 1 0 1.994.997.997 0 0 1 0-1.994zm13.591 0a.997.997 0 1 1 0 1.994.997.997 0 0 1 0-1.994zm13.591 0a.998.998 0 1 1 0 1.995.998.998 0 0 1 0-1.995zm13.569 0a.998.998 0 1 1 0 1.995.998.998 0 0 1 0-1.995zm13.591 0a.998.998 0 1 1 0 1.995.998.998 0 0 1 0-1.995zm13.591 0a.998.998 0 1 1 0 1.995.998.998 0 0 1 0-1.995zM4.08 40.06a.71.71 0 1 1 0 1.42.71.71 0 0 1 0-1.42zm13.568 0a.71.71 0 1 1 0 1.42.71.71 0 0 1 0-1.42zm13.592 0a.71.71 0 1 1 0 1.42.71.71 0 0 1 0-1.42zm13.59 0a.71.71 0 1 1 0 1.42.71.71 0 0 1 0-1.42zm13.57 0a.71.71 0 1 1 0 1.42.71.71 0 0 1 0-1.42zm13.591 0a.71.71 0 1 1 0 1.42.71.71 0 0 1 0-1.42zm13.591 0a.71.71 0 1 1 0 1.42.71.71 0 0 1 0-1.42zm13.569 0a.71.71 0 1 1 0 1.42.71.71 0 0 1 0-1.42zm13.592 0a.709.709 0 1 1 0 1.419.709.709 0 0 1 0-1.418zm13.591 0a.709.709 0 1 1 0 1.419.709.709 0 0 1 0-1.418zm13.569 0a.709.709 0 1 1 0 1.419.709.709 0 0 1 0-1.418zm13.591 0a.71.71 0 1 1 0 1.42.71.71 0 0 1 0-1.42zm13.591 0a.71.71 0 1 1 0 1.42.71.71 0 0 1 0-1.42zm13.569 0a.71.71 0 1 1 0 1.42.71.71 0 0 1 0-1.42zm13.592 0a.71.71 0 1 1-.001 1.42.71.71 0 0 1 .001-1.42zm13.569 0a.71.71 0 1 1-.001 1.42.71.71 0 0 1 .001-1.42zm13.591 0a.709.709 0 1 1 0 1.419.709.709 0 0 1 0-1.418zm13.591 0a.709.709 0 1 1 0 1.419.709.709 0 0 1 0-1.418zm13.569 0a.71.71 0 1 1 0 1.42.71.71 0 0 1 0-1.42zm13.591 0a.71.71 0 1 1 0 1.42.71.71 0 0 1 0-1.42zm13.592 0a.71.71 0 1 1-.001 1.42.71.71 0 0 1 .001-1.42zm13.568 0a.71.71 0 1 1 0 1.42.71.71 0 0 1 0-1.42zm13.592 0a.709.709 0 1 1 0 1.419.709.709 0 0 1 0-1.418zm13.591 0a.709.709 0 1 1 0 1.419.709.709 0 0 1 0-1.418zm13.569 0a.71.71 0 1 1 0 1.42.71.71 0 0 1 0-1.42zm13.591 0a.71.71 0 1 1 0 1.42.71.71 0 0 1 0-1.42zm13.591 0a.71.71 0 1 1 0 1.42.71.71 0 0 1 0-1.42zm13.569 0a.71.71 0 1 1 0 1.42.71.71 0 0 1 0-1.42zm13.592 0a.709.709 0 1 1 0 1.419.709.709 0 0 1 0-1.418zm13.591 0a.709.709 0 1 1 0 1.419.709.709 0 0 1 0-1.418zm13.569 0a.709.709 0 1 1 0 1.419.709.709 0 0 1 0-1.418zm13.591 0a.71.71 0 1 1 0 1.42.71.71 0 0 1 0-1.42zm13.591 0a.71.71 0 1 1 0 1.42.71.71 0 0 1 0-1.42zm13.569 0a.71.71 0 1 1 0 1.42.71.71 0 0 1 0-1.42zm13.592 0a.71.71 0 1 1-.001 1.42.71.71 0 0 1 .001-1.42zm13.568 0a.71.71 0 1 1 0 1.42.71.71 0 0 1 0-1.42zm13.592 0a.709.709 0 1 1 0 1.419.709.709 0 0 1 0-1.418zm13.591 0a.709.709 0 1 1 0 1.419.709.709 0 0 1 0-1.418zm13.569 0a.71.71 0 1 1 0 1.42.71.71 0 0 1 0-1.42zm13.591 0a.71.71 0 1 1 0 1.42.71.71 0 0 1 0-1.42zm13.591 0a.71.71 0 1 1 0 1.42.71.71 0 0 1 0-1.42zm13.569 0a.71.71 0 1 1 0 1.42.71.71 0 0 1 0-1.42zm13.592 0a.709.709 0 1 1 0 1.419.709.709 0 0 1 0-1.418zm13.591 0a.709.709 0 1 1 0 1.419.709.709 0 0 1 0-1.418zm13.569 0a.71.71 0 1 1 0 1.42.71.71 0 0 1 0-1.42zm13.591 0a.71.71 0 1 1 0 1.42.71.71 0 0 1 0-1.42zm13.591 0a.71.71 0 1 1 0 1.42.71.71 0 0 1 0-1.42zM4.08 26.715a.466.466 0 1 1 0 .93.466.466 0 0 1 0-.93zm13.569 0a.466.466 0 1 1 0 .93.466.466 0 0 1 0-.93zm13.591 0a.466.466 0 1 1 0 .93.466.466 0 0 1 0-.93zm13.591 0a.466.466 0 1 1 0 .93.466.466 0 0 1 0-.93zm13.569 0a.466.466 0 1 1 0 .93.466.466 0 0 1 0-.93zm13.591 0a.466.466 0 1 1 0 .93.466.466 0 0 1 0-.93zm13.591 0a.466.466 0 1 1 0 .93.466.466 0 0 1 0-.93zm13.569 0a.466.466 0 1 1 0 .93.466.466 0 0 1 0-.93zm13.592 0a.465.465 0 1 1 0 .93.465.465 0 0 1 0-.93zm13.591 0a.466.466 0 1 1 0 .932.466.466 0 0 1 0-.932zm13.569 0a.465.465 0 1 1 0 .93.465.465 0 0 1 0-.93zm13.591 0a.466.466 0 1 1 0 .932.466.466 0 0 1 0-.932zm13.591 0a.466.466 0 1 1 0 .932.466.466 0 0 1 0-.932zm13.569 0a.465.465 0 1 1 .001.93.465.465 0 0 1-.001-.93zm13.591 0a.465.465 0 1 1 .001.93.465.465 0 0 1-.001-.93zm13.57 0a.465.465 0 1 1 0 .93.465.465 0 0 1 0-.93zm13.591 0a.465.465 0 1 1 0 .93.465.465 0 0 1 0-.93zm13.591 0a.466.466 0 1 1 0 .932.466.466 0 0 1 0-.932zm13.569 0a.466.466 0 1 1 0 .932.466.466 0 0 1 0-.932zm13.591 0a.466.466 0 1 1 0 .932.466.466 0 0 1 0-.932zm13.591 0a.465.465 0 1 1 .001.93.465.465 0 0 1-.001-.93zm13.57 0a.465.465 0 1 1 0 .93.465.465 0 0 1 0-.93zm13.591 0a.465.465 0 1 1 0 .93.465.465 0 0 1 0-.93zm13.591 0a.466.466 0 1 1 0 .932.466.466 0 0 1 0-.932zm13.569 0a.465.465 0 1 1 0 .93.465.465 0 0 1 0-.93zm13.591 0a.466.466 0 1 1 0 .932.466.466 0 0 1 0-.932zm13.591 0a.465.465 0 1 1 .001.93.465.465 0 0 1-.001-.93zm13.569 0a.465.465 0 1 1 .001.93.465.465 0 0 1-.001-.93zm13.592 0a.465.465 0 1 1 0 .93.465.465 0 0 1 0-.93zm13.591 0a.466.466 0 1 1 0 .932.466.466 0 0 1 0-.932zm13.569 0a.465.465 0 1 1 0 .93.465.465 0 0 1 0-.93zm13.591 0a.466.466 0 1 1 0 .932.466.466 0 0 1 0-.932zm13.591 0a.466.466 0 1 1 0 .932.466.466 0 0 1 0-.932zm13.569 0a.466.466 0 1 1 0 .932.466.466 0 0 1 0-.932zm13.591 0a.465.465 0 1 1 .001.93.465.465 0 0 1-.001-.93zm13.57 0a.465.465 0 1 1 0 .93.465.465 0 0 1 0-.93zm13.591 0a.465.465 0 1 1 0 .93.465.465 0 0 1 0-.93zm13.591 0a.466.466 0 1 1 0 .932.466.466 0 0 1 0-.932zm13.569 0a.466.466 0 1 1 0 .932.466.466 0 0 1 0-.932zm13.591 0a.466.466 0 1 1 0 .932.466.466 0 0 1 0-.932zm13.591 0a.466.466 0 1 1 0 .932.466.466 0 0 1 0-.932zm13.57 0a.465.465 0 1 1 0 .93.465.465 0 0 1 0-.93zm13.591 0a.465.465 0 1 1 0 .93.465.465 0 0 1 0-.93zm13.591 0a.466.466 0 1 1 0 .932.466.466 0 0 1 0-.932zm13.569 0a.465.465 0 1 1 0 .93.465.465 0 0 1 0-.93zm13.591 0a.466.466 0 1 1 0 .932.466.466 0 0 1 0-.932zm13.591 0a.466.466 0 1 1 0 .932.466.466 0 0 1 0-.932zM4.08 13.39a.222.222 0 1 1 0 .444.222.222 0 0 1 0-.444zm13.569 0a.222.222 0 1 1 0 .444.222.222 0 0 1 0-.444zm13.591 0a.222.222 0 1 1 0 .444.222.222 0 0 1 0-.444zm13.591 0a.222.222 0 1 1 0 .444.222.222 0 0 1 0-.444zm13.569 0a.222.222 0 1 1 0 .444.222.222 0 0 1 0-.444zm13.591 0a.222.222 0 1 1 0 .444.222.222 0 0 1 0-.444zm13.591 0a.222.222 0 1 1 0 .444.222.222 0 0 1 0-.444zm13.57 0a.222.222 0 1 1 0 .444.222.222 0 0 1 0-.444zm13.591 0a.221.221 0 1 1 0 .443.221.221 0 0 1 0-.443zm13.591 0zm13.569 0zm13.591 0a.222.222 0 1 1 0 .444.222.222 0 0 1 0-.444zm13.591 0a.222.222 0 1 1 0 .444.222.222 0 0 1 0-.444zm13.569 0a.222.222 0 1 1 0 .444.222.222 0 0 1 0-.444zm13.592 0a.221.221 0 1 1 0 .443.221.221 0 0 1 0-.443zm13.569 0a.221.221 0 1 1 0 .443.221.221 0 0 1 0-.443zm13.591 0zm13.591 0zm13.569 0a.222.222 0 1 1 0 .444.222.222 0 0 1 0-.444zm13.591 0a.222.222 0 1 1 0 .444.222.222 0 0 1 0-.444zm13.592 0a.221.221 0 1 1 0 .443.221.221 0 0 1 0-.443zm13.568 0a.222.222 0 1 1 0 .444.222.222 0 0 1 0-.444zm13.592 0a.221.221 0 1 1 0 .443.221.221 0 0 1 0-.443zm13.591 0zm13.569 0zm13.591 0a.222.222 0 1 1 0 .444.222.222 0 0 1 0-.444zm13.591 0a.222.222 0 1 1 0 .444.222.222 0 0 1 0-.444zm13.569 0a.222.222 0 1 1 0 .444.222.222 0 0 1 0-.444zm13.592 0a.221.221 0 1 1 0 .443.221.221 0 0 1 0-.443zm13.591 0a.221.221 0 1 1 0 .443.221.221 0 0 1 0-.443zm13.569 0zm13.591 0zm13.591 0a.222.222 0 1 1 0 .444.222.222 0 0 1 0-.444zm13.569 0a.222.222 0 1 1 0 .444.222.222 0 0 1 0-.444zm13.592 0a.221.221 0 1 1 0 .443.221.221 0 0 1 0-.443zm13.568 0a.222.222 0 1 1 0 .444.222.222 0 0 1 0-.444zm13.592 0zm13.591 0zm13.569 0zm13.591 0a.222.222 0 1 1 0 .444.222.222 0 0 1 0-.444zm13.591 0a.222.222 0 1 1 0 .444.222.222 0 0 1 0-.444zm13.569 0a.222.222 0 1 1 0 .444.222.222 0 0 1 0-.444zm13.592 0a.221.221 0 1 1 0 .443.221.221 0 0 1 0-.443zm13.591 0zm13.569 0zm13.591 0zm13.591 0a.222.222 0 1 1 0 .444.222.222 0 0 1 0-.444zM4.08 0a.022.022 0 1 1 0 .044.022.022 0 0 1 0-.044zm13.569 0a.022.022 0 1 1 0 .044.022.022 0 0 1 0-.044zM31.24 0a.022.022 0 1 1 0 .044.022.022 0 0 1 0-.044zm13.591 0c.012 0 .022.01.022.022A.022.022 0 1 1 44.831 0zM58.4 0a.022.022 0 1 1 0 .044.022.022 0 0 1 0-.044zm13.591 0a.022.022 0 1 1 0 .044.022.022 0 0 1 0-.044zm13.592 0c.012 0 .022.01.022.022A.022.022 0 1 1 85.583 0zm13.568 0a.022.022 0 1 1 0 .044.022.022 0 0 1 0-.044zm13.592 0a.022.022 0 0 1 0 .044.022.022 0 0 1 0-.044zm13.591 0a.022.022 0 0 1 0 .044.022.022 0 0 1 0-.044zm13.569 0a.022.022 0 0 1 0 .044.022.022 0 0 1 0-.044zm13.591 0a.022.022 0 0 1 0 .044.022.022 0 0 1 0-.044zm13.591 0c.013 0 .023.01.023.022 0 .012-.01.022-.023.022a.022.022 0 0 1 0-.044zm13.569 0c.013 0 .023.01.023.022 0 .012-.01.022-.023.022a.022.022 0 0 1 0-.044zm13.592 0a.022.022 0 0 1 0 .044.022.022 0 0 1-.022-.022c0-.012.009-.022.022-.022zm13.569 0a.022.022 0 0 1 0 .044.022.022 0 0 1-.023-.022c0-.012.01-.022.023-.022zm13.591 0a.022.022 0 0 1 0 .044.022.022 0 0 1 0-.044zm13.591 0a.022.022 0 0 1 0 .044.022.022 0 0 1 0-.044zm13.569 0a.022.022 0 0 1 0 .044.022.022 0 0 1 0-.044zm13.591 0c.013 0 .022.01.022.022a.022.022 0 0 1-.022.022.022.022 0 0 1 0-.044zm13.592 0a.022.022 0 0 1 0 .044.022.022 0 0 1-.023-.022c0-.012.01-.022.023-.022zm13.569 0a.022.022 0 0 1 0 .044.022.022 0 0 1-.023-.022c0-.012.01-.022.023-.022zm13.591 0a.022.022 0 0 1 0 .044.022.022 0 0 1 0-.044zM316.5 0a.022.022 0 0 1 0 .044.022.022 0 0 1 0-.044zm13.569 0a.022.022 0 0 1 0 .044.022.022 0 0 1 0-.044zm13.591 0a.022.022 0 0 1 0 .044.022.022 0 0 1 0-.044zm13.592 0a.022.022 0 0 1 0 .044.022.022 0 0 1-.023-.022c0-.012.01-.022.023-.022zm13.568 0c.013 0 .023.01.023.022 0 .012-.01.022-.023.022a.022.022 0 0 1 0-.044zm13.592 0a.022.022 0 0 1 0 .044.022.022 0 0 1 0-.044zm13.591 0a.022.022 0 0 1 0 .044.022.022 0 0 1 0-.044zm13.569 0a.022.022 0 0 1 0 .044.022.022 0 0 1 0-.044zm13.591 0a.022.022 0 0 1 0 .044.022.022 0 0 1 0-.044zm13.591 0a.022.022 0 0 1 0 .044.022.022 0 0 1 0-.044zm13.569 0c.013 0 .023.01.023.022 0 .012-.01.022-.023.022a.022.022 0 0 1 0-.044zm13.591 0c.013 0 .023.01.023.022 0 .012-.01.022-.023.022a.022.022 0 0 1 0-.044zm13.57 0a.022.022 0 0 1 0 .044.022.022 0 0 1-.023-.022c0-.012.01-.022.023-.022zm13.591 0a.022.022 0 0 1 0 .044.022.022 0 0 1-.023-.022c0-.012.01-.022.023-.022zm13.591 0a.022.022 0 0 1 0 .044.022.022 0 0 1 0-.044zm13.569 0a.022.022 0 0 1 0 .044.022.022 0 0 1 0-.044zm13.591 0c.013 0 .022.01.022.022a.022.022 0 0 1-.022.022.022.022 0 0 1 0-.044zm13.591 0c.013 0 .023.01.023.022 0 .012-.01.022-.023.022a.022.022 0 0 1 0-.044zm13.57 0a.022.022 0 0 1 0 .044.022.022 0 0 1-.023-.022c0-.012.01-.022.023-.022zm13.591 0a.022.022 0 0 1 0 .044.022.022 0 0 1 0-.044zm13.591 0a.022.022 0 0 1 0 .044.022.022 0 0 1 0-.044zm13.569 0a.022.022 0 0 1 0 .044.022.022 0 0 1 0-.044zm13.591 0a.022.022 0 0 1 0 .044.022.022 0 0 1 0-.044zm13.591 0a.022.022 0 0 1 0 .044.022.022 0 0 1 0-.044z" fill="#fff" fill-opacity=".05"/></svg>