<svg width="633" height="235" fill="none" xmlns="http://www.w3.org/2000/svg"><path d="M4.08 8.158A4.08 4.08 0 1 0 4.08 0a4.08 4.08 0 0 0 0 8.158zm13.569 0a4.08 4.08 0 1 0 0-8.158 4.08 4.08 0 0 0 0 8.158zm13.591 0a4.08 4.08 0 1 0 0-8.158 4.08 4.08 0 0 0 0 8.158zm13.59 0A4.08 4.08 0 1 0 44.832 0a4.08 4.08 0 0 0 0 8.158zm13.57 0A4.08 4.08 0 1 0 58.4 0a4.08 4.08 0 0 0 0 8.158zm13.591 0a4.08 4.08 0 1 0 0-8.158 4.08 4.08 0 0 0 0 8.158zm13.591 0a4.08 4.08 0 1 0 0-8.158 4.08 4.08 0 0 0 0 8.158zm13.569 0a4.08 4.08 0 1 0 0-8.159 4.08 4.08 0 0 0 0 8.16zm13.592 0a4.079 4.079 0 1 0 0-8.157 4.079 4.079 0 0 0 0 8.157zm13.591 0a4.079 4.079 0 1 0 0-8.157 4.079 4.079 0 0 0 0 8.157zm13.569 0a4.08 4.08 0 1 0 0-8.16 4.08 4.08 0 0 0 0 8.16zm13.591 0a4.08 4.08 0 1 0 0-8.16 4.08 4.08 0 0 0 0 8.16zm13.591 0a4.08 4.08 0 1 0 0-8.16 4.08 4.08 0 0 0 0 8.16zm13.569 0a4.08 4.08 0 1 0 0-8.16 4.08 4.08 0 0 0 0 8.16zm13.592 0a4.079 4.079 0 1 0 0-8.157 4.079 4.079 0 0 0 0 8.157zm13.569 0a4.079 4.079 0 1 0 0-8.157 4.079 4.079 0 0 0 0 8.157zm13.591 0a4.079 4.079 0 1 0 0-8.157 4.079 4.079 0 0 0 0 8.157zm13.591 0a4.08 4.08 0 1 0 0-8.16 4.08 4.08 0 0 0 0 8.16zm13.569 0a4.08 4.08 0 1 0 0-8.16 4.08 4.08 0 0 0 0 8.16zm13.591 0a4.08 4.08 0 1 0 0-8.16 4.08 4.08 0 0 0 0 8.16zm13.592 0a4.079 4.079 0 1 0 0-8.157 4.079 4.079 0 0 0 0 8.157zm13.568 0A4.08 4.08 0 1 0 289.319 0a4.08 4.08 0 0 0-.002 8.158zm13.592 0a4.079 4.079 0 1 0 0-8.157 4.079 4.079 0 0 0 0 8.157zm13.591 0a4.079 4.079 0 1 0 0-8.157 4.079 4.079 0 0 0 0 8.157zm13.569 0a4.08 4.08 0 1 0 0-8.16 4.08 4.08 0 0 0 0 8.16zm13.591 0a4.08 4.08 0 1 0 0-8.16 4.08 4.08 0 0 0 0 8.16zm13.591 0A4.08 4.08 0 1 0 357.253 0a4.08 4.08 0 0 0-.002 8.158zm13.569 0a4.08 4.08 0 1 0 0-8.16 4.08 4.08 0 0 0 0 8.16zm13.592 0a4.079 4.079 0 1 0 0-8.157 4.079 4.079 0 0 0 0 8.157zm13.591 0a4.079 4.079 0 1 0 0-8.157 4.079 4.079 0 0 0 0 8.157zm13.569 0a4.079 4.079 0 1 0 0-8.157 4.079 4.079 0 0 0 0 8.157zm13.591 0a4.08 4.08 0 1 0 0-8.16 4.08 4.08 0 0 0 0 8.16zm13.591 0a4.08 4.08 0 1 0 0-8.16 4.08 4.08 0 0 0 0 8.16zm13.569 0a4.08 4.08 0 1 0 0-8.16 4.08 4.08 0 0 0 0 8.16zm13.592 0a4.079 4.079 0 1 0 0-8.157 4.079 4.079 0 0 0 0 8.157zm13.568 0A4.08 4.08 0 1 0 479.485 0a4.08 4.08 0 0 0-.002 8.158zm13.592 0a4.079 4.079 0 1 0 0-8.157 4.079 4.079 0 0 0 0 8.157zm13.591 0a4.079 4.079 0 1 0 0-8.157 4.079 4.079 0 0 0 0 8.157zm13.569 0a4.08 4.08 0 1 0 0-8.16 4.08 4.08 0 0 0 0 8.16zm13.591 0a4.08 4.08 0 1 0 0-8.16 4.08 4.08 0 0 0 0 8.16zm13.591 0A4.08 4.08 0 1 0 547.419 0a4.08 4.08 0 0 0-.002 8.158zm13.569 0A4.08 4.08 0 1 0 560.988 0a4.08 4.08 0 0 0-.002 8.158zm13.592 0a4.079 4.079 0 1 0 0-8.157 4.079 4.079 0 0 0 0 8.157zm13.591 0a4.079 4.079 0 1 0 0-8.157 4.079 4.079 0 0 0 0 8.157zm13.569 0a4.08 4.08 0 1 0 0-8.16 4.08 4.08 0 0 0 0 8.16zm13.591 0a4.08 4.08 0 1 0 0-8.16 4.08 4.08 0 0 0 0 8.16zm13.591 0A4.08 4.08 0 1 0 628.922 0a4.08 4.08 0 0 0-.002 8.158zM4.08 21.726a4.08 4.08 0 1 0 0-8.158 4.08 4.08 0 0 0 0 8.158zm13.569 0a4.08 4.08 0 1 0 0-8.158 4.08 4.08 0 0 0 0 8.158zm13.591 0a4.08 4.08 0 1 0 0-8.158 4.08 4.08 0 0 0 0 8.158zm13.59 0a4.08 4.08 0 1 0 .001-8.158 4.08 4.08 0 0 0 0 8.158zm13.57 0a4.08 4.08 0 1 0 0-8.158 4.08 4.08 0 0 0 0 8.158zm13.591 0a4.08 4.08 0 1 0 0-8.158 4.08 4.08 0 0 0 0 8.158zm13.591 0a4.08 4.08 0 1 0 0-8.158 4.08 4.08 0 0 0 0 8.158zm13.569 0a4.08 4.08 0 1 0 0-8.159 4.08 4.08 0 0 0 0 8.16zm13.592 0a4.079 4.079 0 1 0 0-8.157 4.079 4.079 0 0 0 0 8.157zm13.591 0a4.079 4.079 0 1 0 0-8.157 4.079 4.079 0 0 0 0 8.157zm13.569 0a4.08 4.08 0 1 0 0-8.16 4.08 4.08 0 0 0 0 8.16zm13.591 0a4.08 4.08 0 1 0 0-8.16 4.08 4.08 0 0 0 0 8.16zm13.591 0a4.08 4.08 0 1 0 0-8.16 4.08 4.08 0 0 0 0 8.16zm13.569 0a4.08 4.08 0 1 0 0-8.16 4.08 4.08 0 0 0 0 8.16zm13.592 0a4.079 4.079 0 1 0 0-8.157 4.079 4.079 0 0 0 0 8.157zm13.569 0a4.079 4.079 0 1 0 0-8.157 4.079 4.079 0 0 0 0 8.157zm13.591 0a4.079 4.079 0 1 0 0-8.157 4.079 4.079 0 0 0 0 8.157zm13.591 0a4.08 4.08 0 1 0 0-8.16 4.08 4.08 0 0 0 0 8.16zm13.569 0a4.08 4.08 0 1 0 0-8.16 4.08 4.08 0 0 0 0 8.16zm13.591 0a4.08 4.08 0 1 0 0-8.16 4.08 4.08 0 0 0 0 8.16zm13.592 0a4.079 4.079 0 1 0 0-8.157 4.079 4.079 0 0 0 0 8.157zm13.568 0a4.08 4.08 0 1 0 .002-8.158 4.08 4.08 0 0 0-.002 8.158zm13.592 0a4.079 4.079 0 1 0 0-8.157 4.079 4.079 0 0 0 0 8.157zm13.591 0a4.079 4.079 0 1 0 0-8.157 4.079 4.079 0 0 0 0 8.157zm13.569 0a4.08 4.08 0 1 0 0-8.16 4.08 4.08 0 0 0 0 8.16zm13.591 0a4.08 4.08 0 1 0 0-8.16 4.08 4.08 0 0 0 0 8.16zm13.591 0a4.08 4.08 0 1 0 .002-8.158 4.08 4.08 0 0 0-.002 8.158zm13.569 0a4.08 4.08 0 1 0 0-8.16 4.08 4.08 0 0 0 0 8.16zm13.592 0a4.079 4.079 0 1 0 0-8.157 4.079 4.079 0 0 0 0 8.157zm13.591 0a4.079 4.079 0 1 0 0-8.157 4.079 4.079 0 0 0 0 8.157zm13.569 0a4.079 4.079 0 1 0 0-8.157 4.079 4.079 0 0 0 0 8.157zm13.591 0a4.08 4.08 0 1 0 0-8.16 4.08 4.08 0 0 0 0 8.16zm13.591 0a4.08 4.08 0 1 0 0-8.16 4.08 4.08 0 0 0 0 8.16zm13.569 0a4.08 4.08 0 1 0 0-8.16 4.08 4.08 0 0 0 0 8.16zm13.592 0a4.079 4.079 0 1 0 0-8.157 4.079 4.079 0 0 0 0 8.157zm13.568 0a4.08 4.08 0 1 0 .002-8.158 4.08 4.08 0 0 0-.002 8.158zm13.592 0a4.079 4.079 0 1 0 0-8.157 4.079 4.079 0 0 0 0 8.157zm13.591 0a4.079 4.079 0 1 0 0-8.157 4.079 4.079 0 0 0 0 8.157zm13.569 0a4.08 4.08 0 1 0 0-8.16 4.08 4.08 0 0 0 0 8.16zm13.591 0a4.08 4.08 0 1 0 0-8.16 4.08 4.08 0 0 0 0 8.16zm13.591 0a4.08 4.08 0 1 0 .002-8.158 4.08 4.08 0 0 0-.002 8.158zm13.569 0a4.08 4.08 0 1 0 .002-8.158 4.08 4.08 0 0 0-.002 8.158zm13.592 0a4.079 4.079 0 1 0 0-8.157 4.079 4.079 0 0 0 0 8.157zm13.591 0a4.079 4.079 0 1 0 0-8.157 4.079 4.079 0 0 0 0 8.157zm13.569 0a4.08 4.08 0 1 0 0-8.16 4.08 4.08 0 0 0 0 8.16zm13.591 0a4.08 4.08 0 1 0 0-8.16 4.08 4.08 0 0 0 0 8.16zm13.591 0a4.08 4.08 0 1 0 .002-8.158 4.08 4.08 0 0 0-.002 8.158zM4.08 35.316a4.08 4.08 0 1 0 0-8.158 4.08 4.08 0 0 0 0 8.158zm13.569 0a4.08 4.08 0 1 0 0-8.158 4.08 4.08 0 0 0 0 8.158zm13.591 0a4.08 4.08 0 1 0 0-8.158 4.08 4.08 0 0 0 0 8.158zm13.59 0a4.08 4.08 0 1 0 .001-8.158 4.08 4.08 0 0 0 0 8.158zm13.57 0a4.08 4.08 0 1 0 0-8.158 4.08 4.08 0 0 0 0 8.158zm13.591 0a4.08 4.08 0 1 0 0-8.158 4.08 4.08 0 0 0 0 8.158zm13.591 0a4.08 4.08 0 1 0 0-8.158 4.08 4.08 0 0 0 0 8.158zm13.569 0a4.08 4.08 0 1 0 0-8.159 4.08 4.08 0 0 0 0 8.16zm13.592 0a4.079 4.079 0 1 0 0-8.157 4.079 4.079 0 0 0 0 8.157zm13.591 0a4.079 4.079 0 1 0 0-8.157 4.079 4.079 0 0 0 0 8.157zm13.569 0a4.08 4.08 0 1 0 0-8.16 4.08 4.08 0 0 0 0 8.16zm13.591 0a4.08 4.08 0 1 0 0-8.16 4.08 4.08 0 0 0 0 8.16zm13.591 0a4.08 4.08 0 1 0 0-8.16 4.08 4.08 0 0 0 0 8.16zm13.569 0a4.08 4.08 0 1 0 0-8.16 4.08 4.08 0 0 0 0 8.16zm13.592 0a4.079 4.079 0 1 0 0-8.157 4.079 4.079 0 0 0 0 8.157zm13.569 0a4.079 4.079 0 1 0 0-8.157 4.079 4.079 0 0 0 0 8.157zm13.591 0a4.079 4.079 0 1 0 0-8.157 4.079 4.079 0 0 0 0 8.157zm13.591 0a4.08 4.08 0 1 0 0-8.16 4.08 4.08 0 0 0 0 8.16zm13.569 0a4.08 4.08 0 1 0 0-8.16 4.08 4.08 0 0 0 0 8.16zm13.591 0a4.08 4.08 0 1 0 0-8.16 4.08 4.08 0 0 0 0 8.16zm13.592 0a4.079 4.079 0 1 0 0-8.157 4.079 4.079 0 0 0 0 8.157zm13.568 0a4.08 4.08 0 1 0 .002-8.158 4.08 4.08 0 0 0-.002 8.158zm13.592 0a4.079 4.079 0 1 0 0-8.157 4.079 4.079 0 0 0 0 8.157zm13.591 0a4.079 4.079 0 1 0 0-8.157 4.079 4.079 0 0 0 0 8.157zm13.569 0a4.08 4.08 0 1 0 0-8.16 4.08 4.08 0 0 0 0 8.16zm13.591 0a4.08 4.08 0 1 0 0-8.16 4.08 4.08 0 0 0 0 8.16zm13.591 0a4.08 4.08 0 1 0 .002-8.158 4.08 4.08 0 0 0-.002 8.158zm13.569 0a4.08 4.08 0 1 0 0-8.16 4.08 4.08 0 0 0 0 8.16zm13.592 0a4.079 4.079 0 1 0 0-8.157 4.079 4.079 0 0 0 0 8.157zm13.591 0a4.079 4.079 0 1 0 0-8.157 4.079 4.079 0 0 0 0 8.157zm13.569 0a4.079 4.079 0 1 0 0-8.157 4.079 4.079 0 0 0 0 8.157zm13.591 0a4.08 4.08 0 1 0 0-8.16 4.08 4.08 0 0 0 0 8.16zm13.591 0a4.08 4.08 0 1 0 0-8.16 4.08 4.08 0 0 0 0 8.16zm13.569 0a4.08 4.08 0 1 0 0-8.16 4.08 4.08 0 0 0 0 8.16zm13.592 0a4.079 4.079 0 1 0 0-8.157 4.079 4.079 0 0 0 0 8.157zm13.568 0a4.08 4.08 0 1 0 .002-8.158 4.08 4.08 0 0 0-.002 8.158zm13.592 0a4.079 4.079 0 1 0 0-8.157 4.079 4.079 0 0 0 0 8.157zm13.591 0a4.079 4.079 0 1 0 0-8.157 4.079 4.079 0 0 0 0 8.157zm13.569 0a4.08 4.08 0 1 0 0-8.16 4.08 4.08 0 0 0 0 8.16zm13.591 0a4.08 4.08 0 1 0 0-8.16 4.08 4.08 0 0 0 0 8.16zm13.591 0a4.08 4.08 0 1 0 .002-8.158 4.08 4.08 0 0 0-.002 8.158zm13.569 0a4.08 4.08 0 1 0 .002-8.158 4.08 4.08 0 0 0-.002 8.158zm13.592 0a4.079 4.079 0 1 0 0-8.157 4.079 4.079 0 0 0 0 8.157zm13.591 0a4.079 4.079 0 1 0 0-8.157 4.079 4.079 0 0 0 0 8.157zm13.569 0a4.08 4.08 0 1 0 0-8.16 4.08 4.08 0 0 0 0 8.16zm13.591 0a4.08 4.08 0 1 0 0-8.16 4.08 4.08 0 0 0 0 8.16zm13.591 0a4.08 4.08 0 1 0 .002-8.158 4.08 4.08 0 0 0-.002 8.158zM4.08 48.907a4.08 4.08 0 1 0 0-8.16 4.08 4.08 0 0 0 0 8.16zm13.569 0a4.08 4.08 0 1 0 0-8.16 4.08 4.08 0 0 0 0 8.16zm13.591 0a4.08 4.08 0 1 0 0-8.16 4.08 4.08 0 0 0 0 8.16zm13.59 0a4.08 4.08 0 1 0 .001-8.16 4.08 4.08 0 0 0 0 8.16zm13.57 0a4.08 4.08 0 1 0 0-8.159 4.08 4.08 0 0 0 0 8.159zm13.591 0a4.08 4.08 0 1 0 0-8.16 4.08 4.08 0 0 0 0 8.16zm13.591 0a4.08 4.08 0 1 0 0-8.16 4.08 4.08 0 0 0 0 8.16zm13.569 0a4.08 4.08 0 1 0 0-8.16 4.08 4.08 0 0 0 0 8.16zm13.592 0a4.079 4.079 0 1 0 0-8.158 4.079 4.079 0 0 0 0 8.158zm13.591 0a4.079 4.079 0 1 0 0-8.158 4.079 4.079 0 0 0 0 8.158zm13.569 0a4.08 4.08 0 1 0 0-8.16 4.08 4.08 0 0 0 0 8.16zm13.591 0a4.08 4.08 0 1 0 0-8.16 4.08 4.08 0 0 0 0 8.16zm13.591 0a4.08 4.08 0 1 0 0-8.16 4.08 4.08 0 0 0 0 8.16zm13.569 0a4.08 4.08 0 1 0 0-8.16 4.08 4.08 0 0 0 0 8.16zm13.592 0a4.079 4.079 0 1 0 0-8.158 4.079 4.079 0 0 0 0 8.158zm13.569 0a4.079 4.079 0 1 0 0-8.158 4.079 4.079 0 0 0 0 8.158zm13.591 0a4.079 4.079 0 1 0 0-8.158 4.079 4.079 0 0 0 0 8.158zm13.591 0a4.08 4.08 0 1 0 0-8.16 4.08 4.08 0 0 0 0 8.16zm13.569 0a4.08 4.08 0 1 0 0-8.16 4.08 4.08 0 0 0 0 8.16zm13.591 0a4.08 4.08 0 1 0 0-8.16 4.08 4.08 0 0 0 0 8.16zm13.592 0a4.079 4.079 0 1 0 0-8.158 4.079 4.079 0 0 0 0 8.158zm13.568 0a4.08 4.08 0 1 0 .002-8.159 4.08 4.08 0 0 0-.002 8.159zm13.592 0a4.079 4.079 0 1 0 0-8.158 4.079 4.079 0 0 0 0 8.158zm13.591 0a4.079 4.079 0 1 0 0-8.158 4.079 4.079 0 0 0 0 8.158zm13.569 0a4.08 4.08 0 1 0 0-8.16 4.08 4.08 0 0 0 0 8.16zm13.591 0a4.08 4.08 0 1 0 0-8.16 4.08 4.08 0 0 0 0 8.16zm13.591 0a4.08 4.08 0 1 0 .002-8.159 4.08 4.08 0 0 0-.002 8.159zm13.569 0a4.08 4.08 0 1 0 0-8.16 4.08 4.08 0 0 0 0 8.16zm13.592 0a4.079 4.079 0 1 0 0-8.158 4.079 4.079 0 0 0 0 8.158zm13.591 0a4.079 4.079 0 1 0 0-8.158 4.079 4.079 0 0 0 0 8.158zm13.569 0a4.079 4.079 0 1 0 0-8.158 4.079 4.079 0 0 0 0 8.158zm13.591 0a4.08 4.08 0 1 0 0-8.16 4.08 4.08 0 0 0 0 8.16zm13.591 0a4.08 4.08 0 1 0 0-8.16 4.08 4.08 0 0 0 0 8.16zm13.569 0a4.08 4.08 0 1 0 0-8.16 4.08 4.08 0 0 0 0 8.16zm13.592 0a4.079 4.079 0 1 0 0-8.158 4.079 4.079 0 0 0 0 8.158zm13.568 0a4.08 4.08 0 1 0 .002-8.159 4.08 4.08 0 0 0-.002 8.159zm13.592 0a4.079 4.079 0 1 0 0-8.158 4.079 4.079 0 0 0 0 8.158zm13.591 0a4.079 4.079 0 1 0 0-8.158 4.079 4.079 0 0 0 0 8.158zm13.569 0a4.08 4.08 0 1 0 0-8.16 4.08 4.08 0 0 0 0 8.16zm13.591 0a4.08 4.08 0 1 0 0-8.16 4.08 4.08 0 0 0 0 8.16zm13.591 0a4.08 4.08 0 1 0 .002-8.159 4.08 4.08 0 0 0-.002 8.159zm13.569 0a4.08 4.08 0 1 0 .002-8.159 4.08 4.08 0 0 0-.002 8.159zm13.592 0a4.079 4.079 0 1 0 0-8.158 4.079 4.079 0 0 0 0 8.158zm13.591 0a4.079 4.079 0 1 0 0-8.158 4.079 4.079 0 0 0 0 8.158zm13.569 0a4.08 4.08 0 1 0 0-8.16 4.08 4.08 0 0 0 0 8.16zm13.591 0a4.08 4.08 0 1 0 0-8.16 4.08 4.08 0 0 0 0 8.16zm13.591 0a4.08 4.08 0 1 0 .002-8.159 4.08 4.08 0 0 0-.002 8.159zM4.08 62.186a3.791 3.791 0 1 0 0-7.582 3.791 3.791 0 0 0 0 7.582zm13.569 0a3.791 3.791 0 1 0 0-7.582 3.791 3.791 0 0 0 0 7.582zm13.591 0a3.791 3.791 0 1 0 0-7.582 3.791 3.791 0 0 0 0 7.582zm13.591 0a3.791 3.791 0 1 0 0-7.582 3.791 3.791 0 0 0 0 7.582zm13.569 0a3.791 3.791 0 1 0 0-7.582 3.791 3.791 0 0 0 0 7.582zm13.591 0a3.791 3.791 0 1 0 0-7.582 3.791 3.791 0 0 0 0 7.582zm13.591 0a3.791 3.791 0 1 0 0-7.582 3.791 3.791 0 0 0 0 7.582zm13.569 0a3.792 3.792 0 1 0 0-7.583 3.792 3.792 0 0 0 0 7.583zm13.592 0a3.79 3.79 0 1 0 0-7.581 3.79 3.79 0 0 0 0 7.581zm13.591 0a3.79 3.79 0 1 0 0-7.581 3.79 3.79 0 0 0 0 7.581zm13.569 0a3.79 3.79 0 1 0 0-7.581 3.79 3.79 0 0 0 0 7.581zm13.591 0a3.792 3.792 0 1 0 0-7.583 3.792 3.792 0 0 0 0 7.583zm13.591 0a3.792 3.792 0 1 0 0-7.583 3.792 3.792 0 0 0 0 7.583zm13.569 0a3.792 3.792 0 1 0 0-7.583 3.792 3.792 0 0 0 0 7.583zm13.591 0a3.792 3.792 0 1 0 0-7.583 3.792 3.792 0 0 0 0 7.583zm13.57 0a3.79 3.79 0 1 0 0-7.581 3.79 3.79 0 0 0 0 7.581zm13.591 0a3.79 3.79 0 1 0 0-7.581 3.79 3.79 0 0 0 0 7.581zm13.591 0a3.79 3.79 0 1 0 0-7.581 3.79 3.79 0 0 0 0 7.581zm13.569 0a3.79 3.79 0 1 0 0-7.581 3.79 3.79 0 0 0 0 7.581zm13.591 0a3.792 3.792 0 1 0 0-7.583 3.792 3.792 0 0 0 0 7.583zm13.591 0a3.792 3.792 0 1 0 0-7.583 3.792 3.792 0 0 0 0 7.583zm13.57 0a3.791 3.791 0 1 0 0-7.583 3.791 3.791 0 0 0 0 7.583zm13.591 0a3.79 3.79 0 1 0 0-7.581 3.79 3.79 0 0 0 0 7.581zm13.591 0a3.79 3.79 0 1 0 0-7.581 3.79 3.79 0 0 0 0 7.581zm13.569 0a3.79 3.79 0 1 0 0-7.581 3.79 3.79 0 0 0 0 7.581zm13.591 0a3.792 3.792 0 1 0 0-7.583 3.792 3.792 0 0 0 0 7.583zm13.591 0a3.792 3.792 0 1 0 0-7.583 3.792 3.792 0 0 0 0 7.583zm13.569 0a3.792 3.792 0 1 0 0-7.583 3.792 3.792 0 0 0 0 7.583zm13.592 0a3.791 3.791 0 1 0 0-7.583 3.791 3.791 0 0 0 0 7.583zm13.591 0a3.79 3.79 0 1 0 0-7.581 3.79 3.79 0 0 0 0 7.581zm13.569 0a3.79 3.79 0 1 0 0-7.581 3.79 3.79 0 0 0 0 7.581zm13.591 0a3.79 3.79 0 1 0 0-7.581 3.79 3.79 0 0 0 0 7.581zm13.591 0a3.792 3.792 0 1 0 0-7.583 3.792 3.792 0 0 0 0 7.583zm13.569 0a3.792 3.792 0 1 0 0-7.583 3.792 3.792 0 0 0 0 7.583zm13.591 0a3.792 3.792 0 1 0 0-7.583 3.792 3.792 0 0 0 0 7.583zm13.57 0a3.79 3.79 0 1 0 0-7.581 3.79 3.79 0 0 0 0 7.581zm13.591 0a3.79 3.79 0 1 0 0-7.581 3.79 3.79 0 0 0 0 7.581zm13.591 0a3.79 3.79 0 1 0 0-7.581 3.79 3.79 0 0 0 0 7.581zm13.569 0a3.79 3.79 0 1 0 0-7.581 3.79 3.79 0 0 0 0 7.581zm13.591 0a3.792 3.792 0 1 0 0-7.583 3.792 3.792 0 0 0 0 7.583zm13.591 0a3.792 3.792 0 1 0 0-7.583 3.792 3.792 0 0 0 0 7.583zm13.57 0a3.791 3.791 0 1 0 0-7.583 3.791 3.791 0 0 0 0 7.583zm13.591 0a3.79 3.79 0 1 0 0-7.581 3.79 3.79 0 0 0 0 7.581zm13.591 0a3.79 3.79 0 1 0 0-7.581 3.79 3.79 0 0 0 0 7.581zm13.569 0a3.79 3.79 0 1 0 0-7.581 3.79 3.79 0 0 0 0 7.581zm13.591 0a3.792 3.792 0 1 0 0-7.583 3.792 3.792 0 0 0 0 7.583zm13.591 0a3.792 3.792 0 1 0 0-7.583 3.792 3.792 0 0 0 0 7.583zM4.08 75.444a3.459 3.459 0 1 0 0-6.917 3.459 3.459 0 0 0 0 6.917zm13.568 0a3.459 3.459 0 1 0 0-6.917 3.459 3.459 0 0 0 0 6.917zm13.592 0a3.459 3.459 0 1 0 0-6.917 3.459 3.459 0 0 0 0 6.917zm13.59 0a3.459 3.459 0 1 0 .001-6.917 3.459 3.459 0 0 0 0 6.917zm13.57 0a3.459 3.459 0 1 0 0-6.917 3.459 3.459 0 0 0 0 6.917zm13.591 0a3.459 3.459 0 1 0 0-6.917 3.459 3.459 0 0 0 0 6.917zm13.591 0a3.459 3.459 0 1 0 0-6.917 3.459 3.459 0 0 0 0 6.917zm13.569 0a3.458 3.458 0 1 0 .001-6.917 3.458 3.458 0 0 0 0 6.917zm13.592 0a3.459 3.459 0 1 0 0-6.918 3.459 3.459 0 0 0 0 6.918zm13.591 0a3.459 3.459 0 1 0 0-6.918 3.459 3.459 0 0 0 0 6.918zm13.569 0a3.459 3.459 0 1 0 0-6.918 3.459 3.459 0 0 0 0 6.918zm13.591 0a3.459 3.459 0 1 0 0-6.918 3.459 3.459 0 0 0 0 6.918zm13.591 0a3.458 3.458 0 1 0 .001-6.917 3.458 3.458 0 0 0-.001 6.917zm13.569 0a3.458 3.458 0 1 0 .001-6.917 3.458 3.458 0 0 0-.001 6.917zm13.592 0a3.458 3.458 0 1 0 0-6.916 3.458 3.458 0 0 0 0 6.916zm13.569 0a3.458 3.458 0 1 0 0-6.916 3.458 3.458 0 0 0 0 6.916zm13.591 0a3.459 3.459 0 1 0 0-6.918 3.459 3.459 0 0 0 0 6.918zm13.591 0a3.459 3.459 0 1 0 0-6.918 3.459 3.459 0 0 0 0 6.918zm13.569 0a3.459 3.459 0 1 0 0-6.918 3.459 3.459 0 0 0 0 6.918zm13.591 0a3.459 3.459 0 1 0 0-6.918 3.459 3.459 0 0 0 0 6.918zm13.592 0a3.458 3.458 0 1 0 0-6.916 3.458 3.458 0 0 0 0 6.916zm13.568 0a3.458 3.458 0 1 0 .001-6.917 3.458 3.458 0 0 0-.001 6.917zm13.592 0a3.459 3.459 0 1 0 0-6.918 3.459 3.459 0 0 0 0 6.918zm13.591 0a3.459 3.459 0 1 0 0-6.918 3.459 3.459 0 0 0 0 6.918zm13.569 0a3.459 3.459 0 1 0 0-6.918 3.459 3.459 0 0 0 0 6.918zm13.591 0a3.459 3.459 0 1 0 0-6.918 3.459 3.459 0 0 0 0 6.918zm13.591 0a3.458 3.458 0 1 0 .001-6.917 3.458 3.458 0 0 0-.001 6.917zm13.569 0a3.458 3.458 0 1 0 .001-6.917 3.458 3.458 0 0 0-.001 6.917zm13.592 0a3.458 3.458 0 1 0 0-6.916 3.458 3.458 0 0 0 0 6.916zm13.591 0a3.459 3.459 0 1 0 0-6.918 3.459 3.459 0 0 0 0 6.918zm13.569 0a3.459 3.459 0 1 0 0-6.918 3.459 3.459 0 0 0 0 6.918zm13.591 0a3.459 3.459 0 1 0 0-6.918 3.459 3.459 0 0 0 0 6.918zm13.591 0a3.458 3.458 0 1 0 .001-6.917 3.458 3.458 0 0 0-.001 6.917zm13.569 0a3.459 3.459 0 1 0 0-6.918 3.459 3.459 0 0 0 0 6.918zm13.592 0a3.458 3.458 0 1 0 0-6.916 3.458 3.458 0 0 0 0 6.916zm13.568 0a3.458 3.458 0 1 0 .001-6.917 3.458 3.458 0 0 0-.001 6.917zm13.592 0a3.459 3.459 0 1 0 0-6.918 3.459 3.459 0 0 0 0 6.918zm13.591 0a3.459 3.459 0 1 0 0-6.918 3.459 3.459 0 0 0 0 6.918zm13.569 0a3.459 3.459 0 1 0 0-6.918 3.459 3.459 0 0 0 0 6.918zm13.591 0a3.459 3.459 0 1 0 0-6.918 3.459 3.459 0 0 0 0 6.918zm13.591 0a3.458 3.458 0 1 0 .001-6.917 3.458 3.458 0 0 0-.001 6.917zm13.569 0a3.458 3.458 0 1 0 .001-6.917 3.458 3.458 0 0 0-.001 6.917zm13.592 0a3.459 3.459 0 1 0 0-6.918 3.459 3.459 0 0 0 0 6.918zm13.591 0a3.459 3.459 0 1 0 0-6.918 3.459 3.459 0 0 0 0 6.918zm13.569 0a3.459 3.459 0 1 0 0-6.918 3.459 3.459 0 0 0 0 6.918zm13.591 0a3.459 3.459 0 1 0 0-6.918 3.459 3.459 0 0 0 0 6.918zm13.591 0a3.458 3.458 0 1 0 .001-6.917 3.458 3.458 0 0 0-.001 6.917zM4.08 88.701a3.126 3.126 0 1 0 0-6.252 3.126 3.126 0 0 0 0 6.252zm13.569 0a3.126 3.126 0 1 0 0-6.252 3.126 3.126 0 0 0 0 6.252zm13.591 0a3.126 3.126 0 1 0 0-6.252 3.126 3.126 0 0 0 0 6.252zm13.591 0a3.126 3.126 0 1 0 0-6.252 3.126 3.126 0 0 0 0 6.252zm13.569 0a3.126 3.126 0 1 0 0-6.252 3.126 3.126 0 0 0 0 6.252zm13.591 0a3.126 3.126 0 1 0 0-6.252 3.126 3.126 0 0 0 0 6.252zm13.591 0a3.126 3.126 0 1 0 0-6.252 3.126 3.126 0 0 0 0 6.252zm13.57 0a3.126 3.126 0 1 0 0-6.252 3.126 3.126 0 0 0 0 6.252zm13.591 0a3.126 3.126 0 1 0 0-6.252 3.126 3.126 0 0 0 0 6.252zm13.591 0a3.126 3.126 0 1 0 0-6.25 3.126 3.126 0 0 0 0 6.25zm13.569 0a3.126 3.126 0 1 0 0-6.252 3.126 3.126 0 0 0 0 6.252zm13.591 0a3.126 3.126 0 1 0 0-6.25 3.126 3.126 0 0 0 0 6.25zm13.591 0a3.126 3.126 0 1 0 .001-6.252 3.126 3.126 0 0 0-.001 6.252zm13.57 0a3.126 3.126 0 1 0 0-6.252 3.126 3.126 0 0 0 0 6.252zm13.591 0a3.126 3.126 0 1 0 0-6.252 3.126 3.126 0 0 0 0 6.252zm13.569 0a3.126 3.126 0 1 0 0-6.252 3.126 3.126 0 0 0 0 6.252zm13.591 0a3.126 3.126 0 1 0 0-6.252 3.126 3.126 0 0 0 0 6.252zm13.591 0a3.126 3.126 0 1 0 0-6.25 3.126 3.126 0 0 0 0 6.25zm13.569 0a3.126 3.126 0 1 0 0-6.25 3.126 3.126 0 0 0 0 6.25zm13.591 0a3.126 3.126 0 1 0 .001-6.252 3.126 3.126 0 0 0-.001 6.252zm13.591 0a3.126 3.126 0 1 0 .001-6.252 3.126 3.126 0 0 0-.001 6.252zm13.57 0a3.126 3.126 0 1 0 0-6.252 3.126 3.126 0 0 0 0 6.252zm13.591 0a3.126 3.126 0 1 0 0-6.252 3.126 3.126 0 0 0 0 6.252zm13.591 0a3.126 3.126 0 1 0 0-6.25 3.126 3.126 0 0 0 0 6.25zm13.569 0a3.126 3.126 0 1 0 0-6.252 3.126 3.126 0 0 0 0 6.252zm13.591 0a3.126 3.126 0 1 0 0-6.25 3.126 3.126 0 0 0 0 6.25zm13.591 0a3.126 3.126 0 1 0 .001-6.252 3.126 3.126 0 0 0-.001 6.252zm13.57 0a3.126 3.126 0 1 0 0-6.252 3.126 3.126 0 0 0 0 6.252zm13.591 0a3.126 3.126 0 1 0 0-6.252 3.126 3.126 0 0 0 0 6.252zm13.591 0a3.126 3.126 0 1 0 0-6.252 3.126 3.126 0 0 0 0 6.252zm13.569 0a3.126 3.126 0 1 0 0-6.252 3.126 3.126 0 0 0 0 6.252zm13.591 0a3.126 3.126 0 1 0 0-6.25 3.126 3.126 0 0 0 0 6.25zm13.591 0a3.126 3.126 0 1 0 0-6.25 3.126 3.126 0 0 0 0 6.25zm13.569 0a3.126 3.126 0 1 0 .001-6.252 3.126 3.126 0 0 0-.001 6.252zm13.591 0a3.126 3.126 0 1 0 .001-6.252 3.126 3.126 0 0 0-.001 6.252zm13.57 0a3.126 3.126 0 1 0 0-6.252 3.126 3.126 0 0 0 0 6.252zm13.591 0a3.126 3.126 0 1 0 0-6.252 3.126 3.126 0 0 0 0 6.252zm13.591 0a3.126 3.126 0 1 0 0-6.25 3.126 3.126 0 0 0 0 6.25zm13.569 0a3.126 3.126 0 1 0 0-6.25 3.126 3.126 0 0 0 0 6.25zm13.591 0a3.126 3.126 0 1 0 .001-6.252 3.126 3.126 0 0 0-.001 6.252zm13.591 0a3.126 3.126 0 1 0 .001-6.252 3.126 3.126 0 0 0-.001 6.252zm13.57 0a3.126 3.126 0 1 0 0-6.252 3.126 3.126 0 0 0 0 6.252zm13.591 0a3.126 3.126 0 1 0 0-6.252 3.126 3.126 0 0 0 0 6.252zm13.591 0a3.126 3.126 0 1 0 0-6.25 3.126 3.126 0 0 0 0 6.25zm13.569 0a3.126 3.126 0 1 0 0-6.252 3.126 3.126 0 0 0 0 6.252zm13.591 0a3.126 3.126 0 1 0 .001-6.252 3.126 3.126 0 0 0-.001 6.252zm13.591 0a3.126 3.126 0 1 0 .001-6.252 3.126 3.126 0 0 0-.001 6.252zM4.08 101.937a2.794 2.794 0 1 0 0-5.588 2.794 2.794 0 0 0 0 5.588zm13.569 0a2.794 2.794 0 1 0 0-5.588 2.794 2.794 0 0 0 0 5.588zm13.591 0a2.794 2.794 0 1 0 0-5.587 2.794 2.794 0 0 0 0 5.587zm13.591 0a2.794 2.794 0 1 0 0-5.587 2.794 2.794 0 0 0 0 5.587zm13.569 0a2.794 2.794 0 1 0 0-5.588 2.794 2.794 0 0 0 0 5.588zm13.591 0a2.794 2.794 0 1 0 0-5.587 2.794 2.794 0 0 0 0 5.587zm13.592 0a2.794 2.794 0 1 0 0-5.588 2.794 2.794 0 0 0 0 5.588zm13.568 0a2.794 2.794 0 1 0 0-5.588 2.794 2.794 0 0 0 0 5.588zm13.592 0a2.793 2.793 0 1 0 0-5.586 2.793 2.793 0 0 0 0 5.586zm13.591 0a2.794 2.794 0 1 0 0-5.588 2.794 2.794 0 0 0 0 5.588zm13.569 0a2.794 2.794 0 1 0 0-5.588 2.794 2.794 0 0 0 0 5.588zm13.591 0a2.794 2.794 0 1 0 0-5.588 2.794 2.794 0 0 0 0 5.588zm13.591 0a2.794 2.794 0 1 0 0-5.588 2.794 2.794 0 0 0 0 5.588zm13.569 0a2.794 2.794 0 1 0 0-5.588 2.794 2.794 0 0 0 0 5.588zm13.592 0a2.793 2.793 0 1 0 0-5.586 2.793 2.793 0 0 0 0 5.586zm13.569 0a2.794 2.794 0 1 0-.002-5.588 2.794 2.794 0 0 0 .002 5.588zm13.591 0a2.794 2.794 0 1 0 0-5.588 2.794 2.794 0 0 0 0 5.588zm13.591 0a2.794 2.794 0 1 0 0-5.588 2.794 2.794 0 0 0 0 5.588zm13.569 0a2.794 2.794 0 1 0 0-5.588 2.794 2.794 0 0 0 0 5.588zm13.591 0a2.794 2.794 0 1 0 0-5.588 2.794 2.794 0 0 0 0 5.588zm13.592 0a2.793 2.793 0 1 0 0-5.586 2.793 2.793 0 0 0 0 5.586zm13.569 0a2.794 2.794 0 1 0-.002-5.588 2.794 2.794 0 0 0 .002 5.588zm13.591 0a2.794 2.794 0 1 0 0-5.588 2.794 2.794 0 0 0 0 5.588zm13.591 0a2.794 2.794 0 1 0 0-5.588 2.794 2.794 0 0 0 0 5.588zm13.569 0a2.794 2.794 0 1 0 0-5.588 2.794 2.794 0 0 0 0 5.588zm13.591 0a2.794 2.794 0 1 0 0-5.588 2.794 2.794 0 0 0 0 5.588zm13.592 0a2.794 2.794 0 1 0-.002-5.588 2.794 2.794 0 0 0 .002 5.588zm13.568 0a2.794 2.794 0 1 0 0-5.588 2.794 2.794 0 0 0 0 5.588zm13.592 0a2.793 2.793 0 1 0 0-5.586 2.793 2.793 0 0 0 0 5.586zm13.591 0a2.794 2.794 0 1 0 0-5.588 2.794 2.794 0 0 0 0 5.588zm13.569 0a2.794 2.794 0 1 0 0-5.588 2.794 2.794 0 0 0 0 5.588zm13.591 0a2.794 2.794 0 1 0 0-5.588 2.794 2.794 0 0 0 0 5.588zm13.591 0a2.794 2.794 0 1 0 0-5.588 2.794 2.794 0 0 0 0 5.588zm13.569 0a2.794 2.794 0 1 0 0-5.588 2.794 2.794 0 0 0 0 5.588zm13.591 0a2.794 2.794 0 1 0 0-5.588 2.794 2.794 0 0 0 0 5.588zm13.57 0a2.794 2.794 0 1 0-.002-5.588 2.794 2.794 0 0 0 .002 5.588zm13.591 0a2.794 2.794 0 1 0-.002-5.588 2.794 2.794 0 0 0 .002 5.588zm13.591 0a2.794 2.794 0 1 0 0-5.588 2.794 2.794 0 0 0 0 5.588zm13.569 0a2.794 2.794 0 1 0 0-5.588 2.794 2.794 0 0 0 0 5.588zm13.591 0a2.794 2.794 0 1 0 0-5.588 2.794 2.794 0 0 0 0 5.588zm13.591 0a2.794 2.794 0 1 0 0-5.588 2.794 2.794 0 0 0 0 5.588zm13.57 0a2.794 2.794 0 1 0-.002-5.588 2.794 2.794 0 0 0 .002 5.588zm13.591 0a2.793 2.793 0 1 0 0-5.586 2.793 2.793 0 0 0 0 5.586zm13.591 0a2.794 2.794 0 1 0 0-5.588 2.794 2.794 0 0 0 0 5.588zm13.569 0a2.794 2.794 0 1 0 0-5.588 2.794 2.794 0 0 0 0 5.588zm13.591 0a2.794 2.794 0 1 0 0-5.588 2.794 2.794 0 0 0 0 5.588zm13.591 0a2.794 2.794 0 1 0 0-5.588 2.794 2.794 0 0 0 0 5.588zM4.08 115.217a2.484 2.484 0 1 0-.001-4.967 2.484 2.484 0 0 0 0 4.967zm13.569 0a2.483 2.483 0 1 0 0-4.967 2.483 2.483 0 0 0 0 4.967zm13.591 0a2.484 2.484 0 1 0 0-4.967 2.484 2.484 0 0 0 0 4.967zm13.591 0a2.484 2.484 0 1 0 0-4.967 2.484 2.484 0 0 0 0 4.967zm13.569 0a2.484 2.484 0 1 0 0-4.967 2.484 2.484 0 0 0 0 4.967zm13.591 0a2.484 2.484 0 1 0 0-4.967 2.484 2.484 0 0 0 0 4.967zm13.591 0a2.484 2.484 0 1 0 0-4.967 2.484 2.484 0 0 0 0 4.967zm13.57 0a2.484 2.484 0 1 0-.001-4.967 2.484 2.484 0 0 0 0 4.967zm13.591 0a2.484 2.484 0 1 0-.001-4.967 2.484 2.484 0 0 0 .001 4.967zm13.591 0a2.484 2.484 0 1 0-.001-4.967 2.484 2.484 0 0 0 .001 4.967zm13.569 0a2.484 2.484 0 1 0-.001-4.967 2.484 2.484 0 0 0 .001 4.967zm13.591 0a2.483 2.483 0 1 0 0-4.966 2.483 2.483 0 0 0 0 4.966zm13.591 0a2.484 2.484 0 1 0 0-4.968 2.484 2.484 0 0 0 0 4.968zm13.57 0a2.484 2.484 0 1 0-.001-4.967 2.484 2.484 0 0 0 .001 4.967zm13.591 0a2.484 2.484 0 1 0-.001-4.967 2.484 2.484 0 0 0 .001 4.967zm13.569 0a2.484 2.484 0 1 0-.001-4.967 2.484 2.484 0 0 0 .001 4.967zm13.591 0a2.484 2.484 0 1 0-.001-4.967 2.484 2.484 0 0 0 .001 4.967zm13.591 0a2.483 2.483 0 1 0 0-4.966 2.483 2.483 0 0 0 0 4.966zm13.569 0a2.483 2.483 0 1 0 0-4.966 2.483 2.483 0 0 0 0 4.966zm13.591 0a2.484 2.484 0 1 0 0-4.968 2.484 2.484 0 0 0 0 4.968zm13.592 0a2.484 2.484 0 1 0-.001-4.967 2.484 2.484 0 0 0 .001 4.967zm13.569 0a2.484 2.484 0 1 0-.001-4.967 2.484 2.484 0 0 0 .001 4.967zm13.591 0a2.484 2.484 0 1 0-.001-4.967 2.484 2.484 0 0 0 .001 4.967zm13.591 0a2.484 2.484 0 1 0-.001-4.967 2.484 2.484 0 0 0 .001 4.967zm13.569 0a2.484 2.484 0 1 0-.001-4.967 2.484 2.484 0 0 0 .001 4.967zm13.591 0a2.484 2.484 0 1 0-.001-4.967 2.484 2.484 0 0 0 .001 4.967zm13.591 0a2.484 2.484 0 1 0 0-4.968 2.484 2.484 0 0 0 0 4.968zm13.569 0a2.484 2.484 0 1 0 0-4.968 2.484 2.484 0 0 0 0 4.968zm13.592 0a2.484 2.484 0 1 0-.001-4.967 2.484 2.484 0 0 0 .001 4.967zm13.591 0a2.484 2.484 0 1 0-.001-4.967 2.484 2.484 0 0 0 .001 4.967zm13.569 0a2.484 2.484 0 1 0-.001-4.967 2.484 2.484 0 0 0 .001 4.967zm13.591 0a2.484 2.484 0 1 0-.001-4.967 2.484 2.484 0 0 0 .001 4.967zm13.591 0a2.484 2.484 0 1 0 0-4.968 2.484 2.484 0 0 0 0 4.968zm13.569 0a2.483 2.483 0 1 0 0-4.966 2.483 2.483 0 0 0 0 4.966zm13.592 0a2.484 2.484 0 1 0-.001-4.967 2.484 2.484 0 0 0 .001 4.967zm13.568 0a2.484 2.484 0 1 0 0-4.968 2.484 2.484 0 0 0 0 4.968zm13.592 0a2.484 2.484 0 1 0-.001-4.967 2.484 2.484 0 0 0 .001 4.967zm13.591 0a2.484 2.484 0 1 0-.001-4.967 2.484 2.484 0 0 0 .001 4.967zm13.569 0a2.483 2.483 0 1 0 0-4.966 2.483 2.483 0 0 0 0 4.966zm13.591 0a2.483 2.483 0 1 0 0-4.966 2.483 2.483 0 0 0 0 4.966zm13.591 0a2.484 2.484 0 1 0 0-4.968 2.484 2.484 0 0 0 0 4.968zm13.569 0a2.484 2.484 0 1 0 0-4.968 2.484 2.484 0 0 0 0 4.968zm13.592 0a2.484 2.484 0 1 0-.001-4.967 2.484 2.484 0 0 0 .001 4.967zm13.591 0a2.484 2.484 0 1 0-.001-4.967 2.484 2.484 0 0 0 .001 4.967zm13.569 0a2.484 2.484 0 1 0-.001-4.967 2.484 2.484 0 0 0 .001 4.967zm13.591 0a2.484 2.484 0 1 0-.001-4.967 2.484 2.484 0 0 0 .001 4.967zm13.591 0a2.484 2.484 0 1 0 0-4.968 2.484 2.484 0 0 0 0 4.968zM4.08 128.496a2.172 2.172 0 1 0 .001-4.344 2.172 2.172 0 0 0-.001 4.344zm13.569 0a2.172 2.172 0 1 0 .001-4.344 2.172 2.172 0 0 0-.001 4.344zm13.591 0a2.172 2.172 0 1 0 .001-4.344 2.172 2.172 0 0 0-.001 4.344zm13.591 0a2.172 2.172 0 1 0 .001-4.344 2.172 2.172 0 0 0-.001 4.344zm13.569 0a2.172 2.172 0 1 0 .002-4.344 2.172 2.172 0 0 0-.002 4.344zm13.591 0a2.172 2.172 0 1 0 .002-4.344 2.172 2.172 0 0 0-.002 4.344zm13.592 0a2.172 2.172 0 1 0 .001-4.344 2.172 2.172 0 0 0-.001 4.344zm13.568 0a2.172 2.172 0 1 0 0-4.345 2.173 2.173 0 0 0 0 4.345zm13.592 0a2.172 2.172 0 1 0 .001-4.345 2.172 2.172 0 0 0-.001 4.345zm13.591 0a2.172 2.172 0 1 0 .001-4.345 2.172 2.172 0 0 0-.001 4.345zm13.569 0a2.172 2.172 0 1 0 .001-4.345 2.172 2.172 0 0 0-.001 4.345zm13.591 0a2.172 2.172 0 1 0 .001-4.345 2.172 2.172 0 0 0-.001 4.345zm13.591 0a2.172 2.172 0 1 0 .001-4.345 2.172 2.172 0 0 0-.001 4.345zm13.569 0a2.172 2.172 0 1 0 .001-4.345 2.172 2.172 0 0 0-.001 4.345zm13.591 0a2.172 2.172 0 1 0 0-4.345 2.172 2.172 0 0 0 0 4.345zm13.57 0a2.171 2.171 0 1 0 0-4.345 2.173 2.173 0 0 0 0 4.345zm13.591 0a2.172 2.172 0 1 0 .001-4.345 2.172 2.172 0 0 0-.001 4.345zm13.591 0a2.172 2.172 0 1 0 .001-4.345 2.172 2.172 0 0 0-.001 4.345zm13.569 0a2.172 2.172 0 1 0 .001-4.345 2.172 2.172 0 0 0-.001 4.345zm13.591 0a2.172 2.172 0 1 0 .001-4.345 2.172 2.172 0 0 0-.001 4.345zm13.591 0a2.172 2.172 0 1 0 .001-4.345 2.172 2.172 0 0 0-.001 4.345zm13.57 0a2.171 2.171 0 1 0 0-4.345 2.173 2.173 0 0 0 0 4.345zm13.591 0a2.171 2.171 0 1 0 0-4.345 2.173 2.173 0 0 0 0 4.345zm13.591 0a2.172 2.172 0 1 0 .001-4.345 2.172 2.172 0 0 0-.001 4.345zm13.569 0a2.172 2.172 0 1 0 .001-4.345 2.172 2.172 0 0 0-.001 4.345zm13.591 0a2.172 2.172 0 1 0 .001-4.345 2.172 2.172 0 0 0-.001 4.345zm13.591 0a2.172 2.172 0 1 0 .001-4.345 2.172 2.172 0 0 0-.001 4.345zm13.569 0a2.172 2.172 0 1 0 .001-4.345 2.172 2.172 0 0 0-.001 4.345zm13.592 0a2.171 2.171 0 1 0 0-4.345 2.173 2.173 0 0 0 0 4.345zm13.591 0a2.172 2.172 0 1 0 .001-4.345 2.172 2.172 0 0 0-.001 4.345zm13.569 0a2.172 2.172 0 1 0 .001-4.345 2.172 2.172 0 0 0-.001 4.345zm13.591 0a2.172 2.172 0 1 0 .001-4.345 2.172 2.172 0 0 0-.001 4.345zm13.591 0a2.172 2.172 0 1 0 .001-4.345 2.172 2.172 0 0 0-.001 4.345zm13.569 0a2.172 2.172 0 1 0 .001-4.345 2.172 2.172 0 0 0-.001 4.345zm13.591 0a2.172 2.172 0 1 0 .001-4.345 2.172 2.172 0 0 0-.001 4.345zm13.57 0a2.171 2.171 0 1 0 0-4.345 2.173 2.173 0 0 0 0 4.345zm13.591 0a2.171 2.171 0 1 0 0-4.345 2.173 2.173 0 0 0 0 4.345zm13.591 0a2.172 2.172 0 1 0 .001-4.345 2.172 2.172 0 0 0-.001 4.345zm13.569 0a2.172 2.172 0 1 0 .001-4.345 2.172 2.172 0 0 0-.001 4.345zm13.591 0a2.172 2.172 0 1 0 .001-4.345 2.172 2.172 0 0 0-.001 4.345zm13.591 0a2.172 2.172 0 1 0 .001-4.345 2.172 2.172 0 0 0-.001 4.345zm13.57 0a2.171 2.171 0 1 0 0-4.345 2.173 2.173 0 0 0 0 4.345zm13.591 0a2.171 2.171 0 1 0 0-4.345 2.173 2.173 0 0 0 0 4.345zm13.591 0a2.172 2.172 0 1 0 .001-4.345 2.172 2.172 0 0 0-.001 4.345zm13.569 0a2.172 2.172 0 1 0 .001-4.345 2.172 2.172 0 0 0-.001 4.345zm13.591 0a2.172 2.172 0 1 0 .001-4.345 2.172 2.172 0 0 0-.001 4.345zm13.591 0a2.172 2.172 0 1 0 .001-4.345 2.172 2.172 0 0 0-.001 4.345zM4.08 141.754a1.862 1.862 0 1 0 0-3.725 1.862 1.862 0 0 0 0 3.725zm13.569 0a1.862 1.862 0 1 0 0-3.725 1.862 1.862 0 0 0 0 3.725zm13.591 0a1.862 1.862 0 1 0 0-3.725 1.862 1.862 0 0 0 0 3.725zm13.59 0a1.862 1.862 0 1 0 0-3.725 1.862 1.862 0 0 0 0 3.725zm13.57 0a1.862 1.862 0 1 0 0-3.725 1.862 1.862 0 0 0 0 3.725zm13.591 0a1.862 1.862 0 1 0 0-3.725 1.862 1.862 0 0 0 0 3.725zm13.591 0a1.862 1.862 0 1 0 0-3.725 1.862 1.862 0 0 0 0 3.725zm13.569 0a1.863 1.863 0 1 0 0-3.725 1.863 1.863 0 0 0 0 3.725zm13.592 0a1.862 1.862 0 1 0 0-3.725 1.862 1.862 0 0 0 0 3.725zm13.591 0a1.862 1.862 0 1 0 0-3.725 1.862 1.862 0 0 0 0 3.725zm13.569 0a1.862 1.862 0 1 0 0-3.724 1.862 1.862 0 0 0 0 3.724zm13.591 0a1.862 1.862 0 1 0 0-3.724 1.862 1.862 0 0 0 0 3.724zm13.591 0a1.863 1.863 0 1 0 0-3.725 1.863 1.863 0 0 0 0 3.725zm13.569 0a1.863 1.863 0 1 0 0-3.725 1.863 1.863 0 0 0 0 3.725zm13.592 0a1.862 1.862 0 1 0 0-3.725 1.862 1.862 0 0 0 0 3.725zm13.569 0a1.862 1.862 0 1 0 0-3.725 1.862 1.862 0 0 0 0 3.725zm13.591 0a1.862 1.862 0 1 0 0-3.725 1.862 1.862 0 0 0 0 3.725zm13.591 0a1.862 1.862 0 1 0 0-3.725 1.862 1.862 0 0 0 0 3.725zm13.569 0a1.863 1.863 0 1 0 0-3.725 1.863 1.863 0 0 0 0 3.725zm13.591 0a1.863 1.863 0 1 0 0-3.725 1.863 1.863 0 0 0 0 3.725zm13.592 0a1.862 1.862 0 1 0 0-3.725 1.862 1.862 0 0 0 0 3.725zm13.568 0a1.863 1.863 0 1 0 0-3.725 1.863 1.863 0 0 0 0 3.725zm13.592 0a1.862 1.862 0 1 0 0-3.725 1.862 1.862 0 0 0 0 3.725zm13.591 0a1.862 1.862 0 1 0 0-3.725 1.862 1.862 0 0 0 0 3.725zm13.569 0a1.862 1.862 0 1 0 0-3.724 1.862 1.862 0 0 0 0 3.724zm13.591 0a1.863 1.863 0 1 0 0-3.725 1.863 1.863 0 0 0 0 3.725zm13.591 0a1.863 1.863 0 1 0 0-3.725 1.863 1.863 0 0 0 0 3.725zm13.569 0a1.863 1.863 0 1 0 0-3.725 1.863 1.863 0 0 0 0 3.725zm13.592 0a1.862 1.862 0 1 0 0-3.725 1.862 1.862 0 0 0 0 3.725zm13.591 0a1.862 1.862 0 1 0 0-3.725 1.862 1.862 0 0 0 0 3.725zm13.569 0a1.862 1.862 0 1 0 0-3.724 1.862 1.862 0 0 0 0 3.724zm13.591 0a1.862 1.862 0 1 0 0-3.724 1.862 1.862 0 0 0 0 3.724zm13.591 0a1.863 1.863 0 1 0 0-3.725 1.863 1.863 0 0 0 0 3.725zm13.569 0a1.863 1.863 0 1 0 0-3.725 1.863 1.863 0 0 0 0 3.725zm13.592 0a1.862 1.862 0 1 0 0-3.725 1.862 1.862 0 0 0 0 3.725zm13.568 0a1.863 1.863 0 1 0 0-3.725 1.863 1.863 0 0 0 0 3.725zm13.592 0a1.862 1.862 0 1 0 0-3.725 1.862 1.862 0 0 0 0 3.725zm13.591 0a1.862 1.862 0 1 0 0-3.724 1.862 1.862 0 0 0 0 3.724zm13.569 0a1.862 1.862 0 1 0 0-3.724 1.862 1.862 0 0 0 0 3.724zm13.591 0a1.863 1.863 0 1 0 0-3.725 1.863 1.863 0 0 0 0 3.725zm13.591 0a1.863 1.863 0 1 0 0-3.725 1.863 1.863 0 0 0 0 3.725zm13.569 0a1.863 1.863 0 1 0 0-3.725 1.863 1.863 0 0 0 0 3.725zm13.592 0a1.862 1.862 0 1 0 0-3.725 1.862 1.862 0 0 0 0 3.725zm13.591 0a1.862 1.862 0 1 0 0-3.725 1.862 1.862 0 0 0 0 3.725zm13.569 0a1.862 1.862 0 1 0 0-3.724 1.862 1.862 0 0 0 0 3.724zm13.591 0a1.862 1.862 0 1 0 0-3.724 1.862 1.862 0 0 0 0 3.724zm13.591 0a1.863 1.863 0 1 0 0-3.725 1.863 1.863 0 0 0 0 3.725zM4.08 155.056a1.574 1.574 0 1 0 0-3.149 1.574 1.574 0 0 0 0 3.149zm13.569 0a1.574 1.574 0 1 0 0-3.149 1.574 1.574 0 0 0 0 3.149zm13.591 0a1.574 1.574 0 1 0 0-3.149 1.574 1.574 0 0 0 0 3.149zm13.591 0a1.574 1.574 0 1 0 0-3.149 1.574 1.574 0 0 0 0 3.149zm13.569 0a1.574 1.574 0 1 0 0-3.149 1.574 1.574 0 0 0 0 3.149zm13.591 0a1.574 1.574 0 1 0 0-3.149 1.574 1.574 0 0 0 0 3.149zm13.591 0a1.574 1.574 0 1 0 0-3.148 1.574 1.574 0 0 0 0 3.148zm13.569 0a1.574 1.574 0 1 0 0-3.149 1.574 1.574 0 0 0 0 3.149zm13.592 0a1.574 1.574 0 1 0 0-3.149 1.574 1.574 0 0 0 0 3.149zm13.591 0a1.574 1.574 0 1 0 0-3.149 1.574 1.574 0 0 0 0 3.149zm13.569 0a1.574 1.574 0 1 0 0-3.149 1.574 1.574 0 0 0 0 3.149zm13.591 0a1.574 1.574 0 1 0 0-3.147 1.574 1.574 0 0 0 0 3.147zm13.591 0a1.574 1.574 0 1 0 0-3.147 1.574 1.574 0 0 0 0 3.147zm13.569 0a1.575 1.575 0 1 0 0-3.15 1.575 1.575 0 0 0 0 3.15zm13.592 0a1.574 1.574 0 1 0 0-3.149 1.574 1.574 0 0 0 0 3.149zm13.569 0a1.574 1.574 0 1 0 0-3.149 1.574 1.574 0 0 0 0 3.149zm13.591 0a1.574 1.574 0 1 0 0-3.149 1.574 1.574 0 0 0 0 3.149zm13.591 0a1.574 1.574 0 1 0 0-3.149 1.574 1.574 0 0 0 0 3.149zm13.569 0a1.574 1.574 0 1 0 0-3.149 1.574 1.574 0 0 0 0 3.149zm13.591 0a1.575 1.575 0 1 0 0-3.15 1.575 1.575 0 0 0 0 3.15zm13.591 0a1.575 1.575 0 1 0 0-3.15 1.575 1.575 0 0 0 0 3.15zm13.57 0a1.574 1.574 0 1 0 0-3.149 1.574 1.574 0 0 0 0 3.149zm13.591 0a1.574 1.574 0 1 0 0-3.149 1.574 1.574 0 0 0 0 3.149zm13.591 0a1.574 1.574 0 1 0 0-3.149 1.574 1.574 0 0 0 0 3.149zm13.569 0a1.574 1.574 0 1 0 0-3.149 1.574 1.574 0 0 0 0 3.149zm13.591 0a1.574 1.574 0 1 0 0-3.147 1.574 1.574 0 0 0 0 3.147zm13.591 0a1.574 1.574 0 1 0 0-3.147 1.574 1.574 0 0 0 0 3.147zm13.569 0a1.575 1.575 0 1 0 0-3.15 1.575 1.575 0 0 0 0 3.15zm13.592 0a1.574 1.574 0 1 0 0-3.149 1.574 1.574 0 0 0 0 3.149zm13.591 0a1.574 1.574 0 1 0 0-3.149 1.574 1.574 0 0 0 0 3.149zm13.569 0a1.574 1.574 0 1 0 0-3.149 1.574 1.574 0 0 0 0 3.149zm13.591 0a1.574 1.574 0 1 0 0-3.147 1.574 1.574 0 0 0 0 3.147zm13.591 0a1.574 1.574 0 1 0 0-3.147 1.574 1.574 0 0 0 0 3.147zm13.569 0a1.575 1.575 0 1 0 0-3.15 1.575 1.575 0 0 0 0 3.15zm13.591 0a1.575 1.575 0 1 0 0-3.15 1.575 1.575 0 0 0 0 3.15zm13.57 0a1.574 1.574 0 1 0 0-3.149 1.574 1.574 0 0 0 0 3.149zm13.591 0a1.574 1.574 0 1 0 0-3.149 1.574 1.574 0 0 0 0 3.149zm13.591 0a1.574 1.574 0 1 0 0-3.149 1.574 1.574 0 0 0 0 3.149zm13.569 0a1.574 1.574 0 1 0 0-3.149 1.574 1.574 0 0 0 0 3.149zm13.591 0a1.574 1.574 0 1 0 0-3.147 1.574 1.574 0 0 0 0 3.147zm13.591 0a1.575 1.575 0 1 0 0-3.15 1.575 1.575 0 0 0 0 3.15zm13.57 0a1.574 1.574 0 1 0 0-3.149 1.574 1.574 0 0 0 0 3.149zm13.591 0a1.574 1.574 0 1 0 0-3.149 1.574 1.574 0 0 0 0 3.149zm13.591 0a1.574 1.574 0 1 0 0-3.149 1.574 1.574 0 0 0 0 3.149zm13.569 0a1.574 1.574 0 1 0 0-3.149 1.574 1.574 0 0 0 0 3.149zm13.591 0a1.574 1.574 0 1 0 0-3.147 1.574 1.574 0 0 0 0 3.147zm13.591 0a1.574 1.574 0 1 0 0-3.147 1.574 1.574 0 0 0 0 3.147zM4.08 168.358a1.286 1.286 0 1 0 0-2.572 1.286 1.286 0 0 0 0 2.572zm13.568 0a1.286 1.286 0 1 0 0-2.572 1.286 1.286 0 0 0 0 2.572zm13.592 0a1.286 1.286 0 1 0 0-2.572 1.286 1.286 0 0 0 0 2.572zm13.59 0a1.286 1.286 0 1 0 0-2.572 1.286 1.286 0 0 0 0 2.572zm13.57 0a1.286 1.286 0 1 0 0-2.572 1.286 1.286 0 0 0 0 2.572zm13.591 0a1.286 1.286 0 1 0 0-2.572 1.286 1.286 0 0 0 0 2.572zm13.591 0a1.286 1.286 0 1 0 0-2.572 1.286 1.286 0 0 0 0 2.572zm13.569 0a1.286 1.286 0 1 0 0-2.572 1.286 1.286 0 0 0 0 2.572zm13.592 0a1.286 1.286 0 1 0 0-2.573 1.286 1.286 0 0 0 0 2.573zm13.591 0a1.286 1.286 0 1 0 0-2.573 1.286 1.286 0 0 0 0 2.573zm13.569 0a1.286 1.286 0 1 0 0-2.573 1.286 1.286 0 0 0 0 2.573zm13.591 0a1.286 1.286 0 1 0 0-2.573 1.286 1.286 0 0 0 0 2.573zm13.591 0a1.286 1.286 0 1 0 0-2.571 1.286 1.286 0 0 0 0 2.571zm13.569 0a1.286 1.286 0 1 0 0-2.571 1.286 1.286 0 0 0 0 2.571zm13.592 0a1.286 1.286 0 1 0 0-2.573 1.286 1.286 0 0 0 0 2.573zm13.569 0a1.285 1.285 0 1 0 0-2.57 1.285 1.285 0 0 0 0 2.57zm13.591 0a1.286 1.286 0 1 0 0-2.573 1.286 1.286 0 0 0 0 2.573zm13.591 0a1.286 1.286 0 1 0 0-2.573 1.286 1.286 0 0 0 0 2.573zm13.569 0a1.286 1.286 0 1 0 0-2.573 1.286 1.286 0 0 0 0 2.573zm13.591 0a1.286 1.286 0 1 0 0-2.573 1.286 1.286 0 0 0 0 2.573zm13.592 0a1.285 1.285 0 1 0 0-2.57 1.285 1.285 0 0 0 0 2.57zm13.568 0a1.286 1.286 0 1 0 0-2.571 1.286 1.286 0 0 0 0 2.571zm13.592 0a1.286 1.286 0 1 0 0-2.573 1.286 1.286 0 0 0 0 2.573zm13.591 0a1.286 1.286 0 1 0 0-2.573 1.286 1.286 0 0 0 0 2.573zm13.569 0a1.286 1.286 0 1 0 0-2.573 1.286 1.286 0 0 0 0 2.573zm13.591 0a1.286 1.286 0 1 0 0-2.573 1.286 1.286 0 0 0 0 2.573zm13.591 0a1.286 1.286 0 1 0 0-2.571 1.286 1.286 0 0 0 0 2.571zm13.569 0a1.286 1.286 0 1 0 0-2.571 1.286 1.286 0 0 0 0 2.571zm13.592 0a1.286 1.286 0 1 0 0-2.573 1.286 1.286 0 0 0 0 2.573zm13.591 0a1.286 1.286 0 1 0 0-2.573 1.286 1.286 0 0 0 0 2.573zm13.569 0a1.286 1.286 0 1 0 0-2.573 1.286 1.286 0 0 0 0 2.573zm13.591 0a1.286 1.286 0 1 0 0-2.573 1.286 1.286 0 0 0 0 2.573zm13.591 0a1.286 1.286 0 1 0 0-2.571 1.286 1.286 0 0 0 0 2.571zm13.569 0a1.286 1.286 0 1 0 0-2.573 1.286 1.286 0 0 0 0 2.573zm13.592 0a1.286 1.286 0 1 0 0-2.573 1.286 1.286 0 0 0 0 2.573zm13.568 0a1.286 1.286 0 1 0 0-2.571 1.286 1.286 0 0 0 0 2.571zm13.592 0a1.286 1.286 0 1 0 0-2.573 1.286 1.286 0 0 0 0 2.573zm13.591 0a1.286 1.286 0 1 0 0-2.573 1.286 1.286 0 0 0 0 2.573zm13.569 0a1.286 1.286 0 1 0 0-2.573 1.286 1.286 0 0 0 0 2.573zm13.591 0a1.286 1.286 0 1 0 0-2.573 1.286 1.286 0 0 0 0 2.573zm13.591 0a1.286 1.286 0 1 0 0-2.571 1.286 1.286 0 0 0 0 2.571zm13.569 0a1.286 1.286 0 1 0 0-2.571 1.286 1.286 0 0 0 0 2.571zm13.592 0a1.286 1.286 0 1 0 0-2.573 1.286 1.286 0 0 0 0 2.573zm13.591 0a1.286 1.286 0 1 0 0-2.573 1.286 1.286 0 0 0 0 2.573zm13.569 0a1.286 1.286 0 1 0 0-2.573 1.286 1.286 0 0 0 0 2.573zm13.591 0a1.286 1.286 0 1 0 0-2.573 1.286 1.286 0 0 0 0 2.573zm13.591 0a1.286 1.286 0 1 0 0-2.571 1.286 1.286 0 0 0 0 2.571zM4.08 181.637a.997.997 0 1 0 0-1.994.997.997 0 0 0 0 1.994zm13.569 0a.997.997 0 1 0 0-1.994.997.997 0 0 0 0 1.994zm13.591 0a.997.997 0 1 0 0-1.994.997.997 0 0 0 0 1.994zm13.591 0a.997.997 0 1 0 .001-1.994.997.997 0 0 0-.001 1.994zm13.569 0a.997.997 0 1 0 .001-1.994.997.997 0 0 0-.001 1.994zm13.591 0a.997.997 0 1 0 .001-1.994.997.997 0 0 0 0 1.994zm13.591 0a.997.997 0 1 0 .002-1.994.997.997 0 0 0-.002 1.994zm13.569 0a.997.997 0 1 0 .002-1.994.997.997 0 0 0-.002 1.994zm13.592 0a.997.997 0 1 0 .001-1.993.997.997 0 0 0-.001 1.993zm13.591 0a.997.997 0 1 0 .001-1.995.997.997 0 0 0-.001 1.995zm13.569 0a.997.997 0 1 0 .001-1.995.997.997 0 0 0-.001 1.995zm13.591 0a.997.997 0 1 0 .001-1.995.997.997 0 0 0-.001 1.995zm13.591 0a.997.997 0 1 0 .001-1.995.997.997 0 0 0-.001 1.995zm13.569 0a.997.997 0 1 0 .001-1.995.997.997 0 0 0-.001 1.995zm13.592 0a.997.997 0 1 0 .001-1.993.997.997 0 0 0-.001 1.993zm13.569 0a.997.997 0 1 0 .001-1.993.997.997 0 0 0-.001 1.993zm13.591 0a.997.997 0 1 0 .001-1.993.997.997 0 0 0-.001 1.993zm13.591 0a.997.997 0 1 0 .001-1.995.997.997 0 0 0-.001 1.995zm13.569 0a.997.997 0 1 0 .001-1.995.997.997 0 0 0-.001 1.995zm13.591 0a.997.997 0 1 0 .001-1.995.997.997 0 0 0-.001 1.995zm13.591 0a.997.997 0 1 0 .001-1.995.997.997 0 0 0-.001 1.995zm13.57 0a.997.997 0 1 0 .001-1.993.997.997 0 0 0-.001 1.993zm13.591 0a.997.997 0 1 0 .001-1.993.997.997 0 0 0-.001 1.993zm13.591 0a.997.997 0 1 0 .001-1.995.997.997 0 0 0-.001 1.995zm13.569 0a.997.997 0 1 0 .001-1.995.997.997 0 0 0-.001 1.995zm13.591 0a.997.997 0 1 0 .001-1.995.997.997 0 0 0-.001 1.995zm13.591 0a.997.997 0 1 0 .001-1.995.997.997 0 0 0-.001 1.995zm13.569 0a.997.997 0 1 0 .001-1.995.997.997 0 0 0-.001 1.995zm13.592 0a.997.997 0 1 0 .001-1.993.997.997 0 0 0-.001 1.993zm13.591 0a.997.997 0 1 0 .001-1.995.997.997 0 0 0-.001 1.995zm13.569 0a.997.997 0 1 0 .001-1.995.997.997 0 0 0-.001 1.995zm13.591 0a.997.997 0 1 0 .001-1.995.997.997 0 0 0-.001 1.995zm13.591 0a.997.997 0 1 0 .001-1.995.997.997 0 0 0-.001 1.995zm13.569 0a.997.997 0 1 0 .001-1.995.997.997 0 0 0-.001 1.995zm13.591 0a.997.997 0 1 0 .001-1.995.997.997 0 0 0-.001 1.995zm13.57 0a.997.997 0 1 0 .001-1.993.997.997 0 0 0-.001 1.993zm13.591 0a.997.997 0 1 0 .001-1.993.997.997 0 0 0-.001 1.993zm13.591 0a.997.997 0 1 0 .001-1.995.997.997 0 0 0-.001 1.995zm13.569 0a.997.997 0 1 0 .001-1.995.997.997 0 0 0-.001 1.995zm13.591 0a.997.997 0 1 0 .001-1.995.997.997 0 0 0-.001 1.995zm13.591 0a.997.997 0 1 0 .001-1.995.997.997 0 0 0-.001 1.995zm13.57 0a.997.997 0 1 0 .001-1.993.997.997 0 0 0-.001 1.993zm13.591 0a.997.997 0 1 0 .001-1.993.997.997 0 0 0-.001 1.993zm13.591 0a.997.997 0 1 0 .001-1.995.997.997 0 0 0-.001 1.995zm13.569 0a.997.997 0 1 0 .001-1.995.997.997 0 0 0-.001 1.995zm13.591 0a.997.997 0 1 0 .001-1.995.997.997 0 0 0-.001 1.995zm13.591 0a.997.997 0 1 0 .001-1.995.997.997 0 0 0-.001 1.995zM4.08 194.939a.709.709 0 1 0 0-1.418.709.709 0 0 0 0 1.418zm13.568 0a.709.709 0 1 0 .001-1.418.709.709 0 0 0 0 1.418zm13.592 0a.709.709 0 1 0 0-1.418.709.709 0 0 0 0 1.418zm13.59 0a.709.709 0 1 0 .002-1.418.709.709 0 0 0-.001 1.418zm13.57 0a.709.709 0 1 0 .001-1.418.709.709 0 0 0 0 1.418zm13.591 0a.709.709 0 1 0 .001-1.418.709.709 0 0 0 0 1.418zm13.591 0a.709.709 0 1 0 .001-1.418.709.709 0 0 0 0 1.418zm13.569 0a.709.709 0 1 0 .001-1.418.709.709 0 0 0 0 1.418zm13.592 0a.708.708 0 1 0 .001-1.417.708.708 0 0 0-.001 1.417zm13.591 0a.708.708 0 1 0 .001-1.417.708.708 0 0 0-.001 1.417zm13.569 0a.708.708 0 1 0 .001-1.417.708.708 0 0 0-.001 1.417zm13.591 0a.71.71 0 1 0 .001-1.419.71.71 0 0 0-.001 1.419zm13.591 0a.71.71 0 1 0 .001-1.419.71.71 0 0 0-.001 1.419zm13.569 0a.71.71 0 1 0 .001-1.419.71.71 0 0 0-.001 1.419zm13.592 0a.71.71 0 1 0 0-1.418.71.71 0 0 0 0 1.418zm13.569 0a.71.71 0 1 0 0-1.418.71.71 0 0 0 0 1.418zm13.591 0a.708.708 0 1 0 .001-1.417.708.708 0 0 0-.001 1.417zm13.591 0a.708.708 0 1 0 .001-1.417.708.708 0 0 0-.001 1.417zm13.569 0a.71.71 0 1 0 .001-1.419.71.71 0 0 0-.001 1.419zm13.591 0a.71.71 0 1 0 .001-1.419.71.71 0 0 0-.001 1.419zm13.592 0a.71.71 0 1 0 0-1.418.71.71 0 0 0 0 1.418zm13.568 0a.71.71 0 1 0 .001-1.419.71.71 0 0 0-.001 1.419zm13.592 0a.708.708 0 1 0 .001-1.417.708.708 0 0 0-.001 1.417zm13.591 0a.708.708 0 1 0 .001-1.417.708.708 0 0 0-.001 1.417zm13.569 0a.71.71 0 1 0 .001-1.419.71.71 0 0 0-.001 1.419zm13.591 0a.71.71 0 1 0 .001-1.419.71.71 0 0 0-.001 1.419zm13.591 0a.71.71 0 1 0 .001-1.419.71.71 0 0 0-.001 1.419zm13.569 0a.71.71 0 1 0 .001-1.419.71.71 0 0 0-.001 1.419zm13.592 0a.708.708 0 1 0 .001-1.417.708.708 0 0 0-.001 1.417zm13.591 0a.708.708 0 1 0 .001-1.417.708.708 0 0 0-.001 1.417zm13.569 0a.708.708 0 1 0 .001-1.417.708.708 0 0 0-.001 1.417zm13.591 0a.71.71 0 1 0 .001-1.419.71.71 0 0 0-.001 1.419zm13.591 0a.71.71 0 1 0 .001-1.419.71.71 0 0 0-.001 1.419zm13.569 0a.71.71 0 1 0 .001-1.419.71.71 0 0 0-.001 1.419zm13.592 0a.71.71 0 1 0 0-1.418.71.71 0 0 0 0 1.418zm13.568 0a.71.71 0 1 0 .001-1.419.71.71 0 0 0-.001 1.419zm13.592 0a.708.708 0 1 0 .001-1.417.708.708 0 0 0-.001 1.417zm13.591 0a.708.708 0 1 0 .001-1.417.708.708 0 0 0-.001 1.417zm13.569 0a.71.71 0 1 0 .001-1.419.71.71 0 0 0-.001 1.419zm13.591 0a.71.71 0 1 0 .001-1.419.71.71 0 0 0-.001 1.419zm13.591 0a.71.71 0 1 0 .001-1.419.71.71 0 0 0-.001 1.419zm13.569 0a.71.71 0 1 0 .001-1.419.71.71 0 0 0-.001 1.419zm13.592 0a.708.708 0 1 0 .001-1.417.708.708 0 0 0-.001 1.417zm13.591 0a.708.708 0 1 0 .001-1.417.708.708 0 0 0-.001 1.417zm13.569 0a.71.71 0 1 0 .001-1.419.71.71 0 0 0-.001 1.419zm13.591 0a.71.71 0 1 0 .001-1.419.71.71 0 0 0-.001 1.419zm13.591 0a.71.71 0 1 0 .001-1.419.71.71 0 0 0-.001 1.419zM4.08 208.285a.465.465 0 1 0 0-.93.465.465 0 0 0 0 .93zm13.569 0a.465.465 0 1 0 0-.93.465.465 0 0 0 0 .93zm13.591 0a.465.465 0 1 0 0-.93.465.465 0 0 0 0 .93zm13.591 0a.465.465 0 1 0 0-.93.465.465 0 0 0 0 .93zm13.569 0a.465.465 0 1 0 0-.93.465.465 0 0 0 0 .93zm13.591 0a.465.465 0 1 0 .001-.93.465.465 0 0 0 0 .93zm13.591 0a.465.465 0 1 0 .001-.93.465.465 0 0 0 0 .93zm13.569 0a.465.465 0 1 0 .001-.93.465.465 0 0 0 0 .93zm13.592 0a.465.465 0 1 0 0-.93.465.465 0 0 0 0 .93zm13.591 0a.466.466 0 1 0 0-.931.466.466 0 0 0 0 .931zm13.569 0a.465.465 0 1 0 0-.93.465.465 0 0 0 0 .93zm13.591 0a.466.466 0 1 0 0-.931.466.466 0 0 0 0 .931zm13.591 0a.466.466 0 1 0 0-.931.466.466 0 0 0 0 .931zm13.569 0a.465.465 0 1 0 .002-.93.465.465 0 0 0-.002.93zm13.591 0a.465.465 0 1 0 .002-.93.465.465 0 0 0-.002.93zm13.57 0a.465.465 0 1 0 0-.93.465.465 0 0 0 0 .93zm13.591 0a.465.465 0 1 0 0-.93.465.465 0 0 0 0 .93zm13.591 0a.466.466 0 1 0 0-.931.466.466 0 0 0 0 .931zm13.569 0a.466.466 0 1 0 0-.931.466.466 0 0 0 0 .931zm13.591 0a.466.466 0 1 0 0-.931.466.466 0 0 0 0 .931zm13.591 0a.465.465 0 1 0 .002-.93.465.465 0 0 0-.002.93zm13.57 0a.465.465 0 1 0 0-.93.465.465 0 0 0 0 .93zm13.591 0a.465.465 0 1 0 0-.93.465.465 0 0 0 0 .93zm13.591 0a.466.466 0 1 0 0-.931.466.466 0 0 0 0 .931zm13.569 0a.465.465 0 1 0 0-.93.465.465 0 0 0 0 .93zm13.591 0a.466.466 0 1 0 0-.931.466.466 0 0 0 0 .931zm13.591 0a.465.465 0 1 0 .002-.93.465.465 0 0 0-.002.93zm13.569 0a.465.465 0 1 0 .002-.93.465.465 0 0 0-.002.93zm13.592 0a.465.465 0 1 0 0-.93.465.465 0 0 0 0 .93zm13.591 0a.466.466 0 1 0 0-.931.466.466 0 0 0 0 .931zm13.569 0a.465.465 0 1 0 0-.93.465.465 0 0 0 0 .93zm13.591 0a.466.466 0 1 0 0-.931.466.466 0 0 0 0 .931zm13.591 0a.466.466 0 1 0 0-.931.466.466 0 0 0 0 .931zm13.569 0a.466.466 0 1 0 0-.931.466.466 0 0 0 0 .931zm13.591 0a.465.465 0 1 0 .002-.93.465.465 0 0 0-.002.93zm13.57 0a.465.465 0 1 0 0-.93.465.465 0 0 0 0 .93zm13.591 0a.465.465 0 1 0 0-.93.465.465 0 0 0 0 .93zm13.591 0a.466.466 0 1 0 0-.931.466.466 0 0 0 0 .931zm13.569 0a.466.466 0 1 0 0-.931.466.466 0 0 0 0 .931zm13.591 0a.466.466 0 1 0 0-.931.466.466 0 0 0 0 .931zm13.591 0a.466.466 0 1 0 0-.931.466.466 0 0 0 0 .931zm13.57 0a.465.465 0 1 0 0-.93.465.465 0 0 0 0 .93zm13.591 0a.465.465 0 1 0 0-.93.465.465 0 0 0 0 .93zm13.591 0a.466.466 0 1 0 0-.931.466.466 0 0 0 0 .931zm13.569 0a.465.465 0 1 0 0-.93.465.465 0 0 0 0 .93zm13.591 0a.466.466 0 1 0 0-.931.466.466 0 0 0 0 .931zm13.591 0a.466.466 0 1 0 0-.931.466.466 0 0 0 0 .931zM4.08 221.609a.221.221 0 1 0 0-.443.221.221 0 0 0 0 .443zm13.569 0a.221.221 0 1 0 0-.443.221.221 0 0 0 0 .443zm13.591 0a.221.221 0 1 0 0-.443.221.221 0 0 0 0 .443zm13.591 0a.221.221 0 1 0 0-.443.221.221 0 0 0 0 .443zm13.569 0a.221.221 0 1 0 0-.443.221.221 0 0 0 0 .443zm13.591 0a.221.221 0 1 0 .001-.443.221.221 0 0 0 0 .443zm13.591 0a.221.221 0 1 0 .001-.443.221.221 0 0 0 0 .443zm13.57 0a.221.221 0 1 0 0-.443.221.221 0 0 0 0 .443zm13.591 0a.221.221 0 1 0 0-.442.221.221 0 0 0 0 .442zm13.591 0a.222.222 0 1 0 0-.444.222.222 0 0 0 0 .444zm13.569 0a.222.222 0 1 0 0-.444.222.222 0 0 0 0 .444zm13.591 0a.221.221 0 1 0 0-.443.222.222 0 0 0 0 .443zm13.591 0a.221.221 0 1 0 .001-.443.221.221 0 0 0-.001.443zm13.569 0a.221.221 0 1 0 .001-.443.221.221 0 0 0-.001.443zm13.592 0a.221.221 0 1 0 0-.442.221.221 0 0 0 0 .442zm13.569 0a.221.221 0 1 0 0-.442.221.221 0 0 0 0 .442zm13.591 0a.222.222 0 1 0 0-.444.222.222 0 0 0 0 .444zm13.591 0a.222.222 0 1 0 0-.444.222.222 0 0 0 0 .444zm13.569 0a.221.221 0 1 0 0-.443.222.222 0 0 0 0 .443zm13.591 0a.221.221 0 1 0 0-.443.222.222 0 0 0 0 .443zm13.592 0a.221.221 0 1 0 0-.442.221.221 0 0 0 0 .442zm13.568 0a.221.221 0 1 0 .001-.443.221.221 0 0 0-.001.443zm13.592 0a.221.221 0 1 0 0-.442.221.221 0 0 0 0 .442zm13.591 0a.222.222 0 1 0 0-.444.222.222 0 0 0 0 .444zm13.569 0a.222.222 0 1 0 0-.444.222.222 0 0 0 0 .444zm13.591 0a.221.221 0 1 0 0-.443.222.222 0 0 0 0 .443zm13.591 0a.221.221 0 1 0 .001-.443.221.221 0 0 0-.001.443zm13.569 0a.221.221 0 1 0 .001-.443.221.221 0 0 0-.001.443zm13.592 0a.221.221 0 1 0 0-.442.221.221 0 0 0 0 .442zm13.591 0a.221.221 0 1 0 0-.442.221.221 0 0 0 0 .442zm13.569 0a.222.222 0 1 0 0-.444.222.222 0 0 0 0 .444zm13.591 0a.222.222 0 1 0 0-.444.222.222 0 0 0 0 .444zm13.591 0a.221.221 0 1 0 .001-.443.221.221 0 0 0-.001.443zm13.569 0a.221.221 0 1 0 .001-.443.221.221 0 0 0-.001.443zm13.592 0a.221.221 0 1 0 0-.442.221.221 0 0 0 0 .442zm13.568 0a.221.221 0 1 0 .001-.443.221.221 0 0 0-.001.443zm13.592 0a.222.222 0 1 0 0-.444.222.222 0 0 0 0 .444zm13.591 0a.222.222 0 1 0 0-.444.222.222 0 0 0 0 .444zm13.569 0a.222.222 0 1 0 0-.444.222.222 0 0 0 0 .444zm13.591 0a.221.221 0 1 0 0-.443.222.222 0 0 0 0 .443zm13.591 0a.221.221 0 1 0 .001-.443.221.221 0 0 0-.001.443zm13.569 0a.221.221 0 1 0 .001-.443.221.221 0 0 0-.001.443zm13.592 0a.221.221 0 1 0 0-.442.221.221 0 0 0 0 .442zm13.591 0a.222.222 0 1 0 0-.444.222.222 0 0 0 0 .444zm13.569 0a.222.222 0 1 0 0-.444.222.222 0 0 0 0 .444zm13.591 0a.222.222 0 1 0 0-.444.222.222 0 0 0 0 .444zm13.591 0a.221.221 0 1 0 .001-.443.221.221 0 0 0-.001.443zM4.08 235c.012 0 .022-.01.022-.022a.022.022 0 0 0-.045 0c0 .012.01.022.023.022zm13.569 0c.012 0 .022-.01.022-.022a.022.022 0 0 0-.045 0c0 .012.01.022.023.022zm13.591 0c.012 0 .022-.01.022-.022a.022.022 0 0 0-.044 0c0 .012.01.022.022.022zm13.591 0c.012 0 .022-.01.022-.022a.022.022 0 0 0-.044 0c0 .012.01.022.022.022zm13.569 0c.012 0 .022-.01.022-.022a.022.022 0 0 0-.044 0c0 .012.01.022.022.022zm13.591 0c.013 0 .022-.01.022-.022a.022.022 0 0 0-.044 0c0 .012.01.022.022.022zm13.592 0c.012 0 .022-.01.022-.022a.022.022 0 0 0-.045 0c0 .012.01.022.023.022zm13.568 0c.013 0 .023-.01.023-.022a.022.022 0 0 0-.045 0c0 .012.01.022.022.022zm13.592 0c.012 0 .022-.01.022-.022a.022.022 0 0 0-.022-.022.022.022 0 0 0-.022.022c0 .012.01.022.022.022zm13.591 0c.012 0 .022-.01.022-.022a.022.022 0 0 0-.022-.022.022.022 0 0 0-.022.022c0 .012.01.022.022.022zm13.569 0c.012 0 .022-.01.022-.022a.022.022 0 0 0-.022-.022.022.022 0 0 0-.022.022c0 .012.01.022.022.022zm13.591 0c.012 0 .022-.01.022-.022a.022.022 0 0 0-.022-.022.022.022 0 0 0-.022.022c0 .012.01.022.022.022zm13.591 0c.013 0 .023-.01.023-.022a.022.022 0 0 0-.023-.022.022.022 0 0 0-.022.022c0 .012.01.022.022.022zm13.569 0c.013 0 .023-.01.023-.022a.022.022 0 0 0-.023-.022.022.022 0 0 0-.022.022c0 .012.01.022.022.022zm13.592 0c.012 0 .022-.01.022-.022a.022.022 0 0 0-.022-.022.022.022 0 0 0-.022.022c0 .012.009.022.022.022zm13.569 0c.012 0 .022-.01.022-.022a.022.022 0 0 0-.022-.022.022.022 0 0 0-.023.022c0 .012.01.022.023.022zm13.591 0c.012 0 .022-.01.022-.022a.022.022 0 0 0-.022-.022.022.022 0 0 0-.022.022c0 .012.01.022.022.022zm13.591 0c.012 0 .022-.01.022-.022a.022.022 0 0 0-.022-.022.022.022 0 0 0-.022.022c0 .012.01.022.022.022zm13.569 0c.012 0 .022-.01.022-.022a.022.022 0 0 0-.022-.022.022.022 0 0 0-.022.022c0 .012.01.022.022.022zm13.591 0c.013 0 .022-.01.022-.022a.022.022 0 0 0-.022-.022.022.022 0 0 0-.022.022c0 .012.01.022.022.022zm13.592 0c.012 0 .022-.01.022-.022a.022.022 0 0 0-.022-.022.022.022 0 0 0-.023.022c0 .012.01.022.023.022zm13.569 0c.012 0 .022-.01.022-.022a.022.022 0 0 0-.022-.022.022.022 0 0 0-.023.022c0 .012.01.022.023.022zm13.591 0c.012 0 .022-.01.022-.022a.022.022 0 0 0-.022-.022.022.022 0 0 0-.022.022c0 .012.01.022.022.022zm13.591 0c.012 0 .022-.01.022-.022a.022.022 0 0 0-.022-.022.022.022 0 0 0-.022.022c0 .012.01.022.022.022zm13.569 0c.012 0 .022-.01.022-.022a.022.022 0 0 0-.022-.022.022.022 0 0 0-.022.022c0 .012.01.022.022.022zm13.591 0c.012 0 .022-.01.022-.022a.022.022 0 0 0-.022-.022.022.022 0 0 0-.022.022c0 .012.01.022.022.022zm13.592 0c.012 0 .022-.01.022-.022a.022.022 0 0 0-.022-.022.022.022 0 0 0-.023.022c0 .012.01.022.023.022zm13.568 0c.013 0 .023-.01.023-.022a.022.022 0 0 0-.023-.022.022.022 0 0 0-.022.022c0 .012.01.022.022.022zm13.592 0c.012 0 .022-.01.022-.022a.022.022 0 0 0-.022-.022.022.022 0 0 0-.022.022c0 .012.01.022.022.022zm13.591 0c.012 0 .022-.01.022-.022a.022.022 0 0 0-.022-.022.022.022 0 0 0-.022.022c0 .012.01.022.022.022zm13.569 0c.012 0 .022-.01.022-.022a.022.022 0 0 0-.022-.022.022.022 0 0 0-.022.022c0 .012.01.022.022.022zm13.591 0c.012 0 .022-.01.022-.022a.022.022 0 0 0-.022-.022.022.022 0 0 0-.022.022c0 .012.01.022.022.022zm13.591 0c.012 0 .022-.01.022-.022a.022.022 0 0 0-.022-.022.022.022 0 0 0-.022.022c0 .012.01.022.022.022zm13.569 0c.013 0 .023-.01.023-.022a.022.022 0 0 0-.023-.022.022.022 0 0 0-.022.022c0 .012.01.022.022.022zm13.591 0c.013 0 .023-.01.023-.022a.022.022 0 0 0-.023-.022.022.022 0 0 0-.022.022c0 .012.01.022.022.022zm13.57 0c.012 0 .022-.01.022-.022a.022.022 0 0 0-.022-.022.022.022 0 0 0-.023.022c0 .012.01.022.023.022zm13.591 0c.012 0 .022-.01.022-.022a.022.022 0 0 0-.022-.022.022.022 0 0 0-.023.022c0 .012.01.022.023.022zm13.591 0c.012 0 .022-.01.022-.022a.022.022 0 0 0-.022-.022.022.022 0 0 0-.022.022c0 .012.01.022.022.022zm13.569 0c.012 0 .022-.01.022-.022a.022.022 0 0 0-.022-.022.022.022 0 0 0-.022.022c0 .012.01.022.022.022zm13.591 0c.013 0 .022-.01.022-.022a.022.022 0 0 0-.022-.022.022.022 0 0 0-.022.022c0 .012.01.022.022.022zm13.591 0c.013 0 .023-.01.023-.022a.022.022 0 0 0-.023-.022.022.022 0 0 0-.022.022c0 .012.01.022.022.022zm13.57 0c.012 0 .022-.01.022-.022a.022.022 0 0 0-.022-.022.022.022 0 0 0-.023.022c0 .012.01.022.023.022zm13.591 0c.012 0 .022-.01.022-.022a.022.022 0 0 0-.022-.022.022.022 0 0 0-.022.022c0 .012.01.022.022.022zm13.591 0c.012 0 .022-.01.022-.022a.022.022 0 0 0-.022-.022.022.022 0 0 0-.022.022c0 .012.01.022.022.022zm13.569 0c.012 0 .022-.01.022-.022a.022.022 0 0 0-.022-.022.022.022 0 0 0-.022.022c0 .012.01.022.022.022zm13.591 0c.012 0 .022-.01.022-.022a.022.022 0 0 0-.022-.022.022.022 0 0 0-.022.022c0 .012.01.022.022.022zm13.591 0c.012 0 .022-.01.022-.022a.022.022 0 0 0-.022-.022.022.022 0 0 0-.022.022c0 .012.01.022.022.022z" fill="#fff" fill-opacity=".05"/></svg>