<svg width="89" height="98" fill="none" xmlns="http://www.w3.org/2000/svg"><path d="M40.307 49.346v-12.34H31.56V0H89v37.005H51.001L40.307 49.346zm-6.041-15.04h8.746v7.79l6.754-7.79h36.529V2.699h-52.03v31.609zm7.448 34.263h-2.706a5.458 5.458 0 0 1 .828-2.906 5.478 5.478 0 0 1 2.247-2.024 4.004 4.004 0 0 0 2.281-3.778 4.06 4.06 0 0 0-1.187-2.656 4.08 4.08 0 0 0-2.663-1.184 4.02 4.02 0 0 0-3.854 2.432 3.996 3.996 0 0 0-.32 1.57h-2.706a6.689 6.689 0 0 1 2.044-4.825 6.72 6.72 0 0 1 4.9-1.885 6.727 6.727 0 0 1 4.124 1.548 6.686 6.686 0 0 1 1.723 8.126 6.71 6.71 0 0 1-3.142 3.08 2.766 2.766 0 0 0-1.57 2.502zm.748 4.254H38.26v3.67h4.202v-3.67zm0 7.241H38.26v3.67h4.202v-3.67zm-28.368-1.979h-5.69a8.424 8.424 0 0 1-5.94-2.458A8.382 8.382 0 0 1 0 69.702V58.08a8.382 8.382 0 0 1 2.464-5.925 8.424 8.424 0 0 1 5.94-2.458h5.69c1.435 0 2.811.569 3.826 1.58a5.39 5.39 0 0 1 1.584 3.817V72.67a5.388 5.388 0 0 1-1.578 3.828 5.41 5.41 0 0 1-3.832 1.587zm-5.69-25.68c-1.51 0-2.958.597-4.026 1.661a5.678 5.678 0 0 0-1.673 4.014v11.622a5.673 5.673 0 0 0 1.67 4.02 5.7 5.7 0 0 0 4.029 1.665h5.69c.717 0 1.405-.285 1.913-.79a2.695 2.695 0 0 0 .792-1.909V55.112c0-.716-.285-1.402-.792-1.908a2.709 2.709 0 0 0-1.913-.79l-5.69-.01zm63.923 25.68h-5.699a5.417 5.417 0 0 1-3.825-1.58 5.39 5.39 0 0 1-1.585-3.817V55.112a5.39 5.39 0 0 1 1.585-3.816 5.417 5.417 0 0 1 3.825-1.58h5.69a8.424 8.424 0 0 1 5.94 2.457 8.382 8.382 0 0 1 2.464 5.925v11.604a8.382 8.382 0 0 1-2.46 5.922 8.424 8.424 0 0 1-5.935 2.461zm-5.699-25.68a2.71 2.71 0 0 0-1.913.79 2.695 2.695 0 0 0-.792 1.908V72.67c0 .716.285 1.402.792 1.908a2.71 2.71 0 0 0 1.913.79h5.69a5.71 5.71 0 0 0 4.03-1.664 5.684 5.684 0 0 0 1.669-4.02V58.08c0-1.507-.6-2.953-1.67-4.02a5.706 5.706 0 0 0-4.029-1.664l-5.69.009z" fill="#fff"/><path d="M77.548 52.405h-7.935v-8.816c0-2.57-.339-5.128-1.01-7.61l-.46-1.7h8.25l.253 1.08c.606 2.699.909 5.456.902 8.221v8.825zm-5.257-2.699h2.552V43.59a34.32 34.32 0 0 0-.64-6.575h-2.57c.456 2.162.686 4.366.685 6.575l-.027 6.117zM11.11 52.405H3.155v-8.816a37.236 37.236 0 0 1 8.334-23.334A37.4 37.4 0 0 1 32.642 7.277l1.623-.342v8.096l-1.019.26a29.222 29.222 0 0 0-15.954 10.346A29.097 29.097 0 0 0 11.11 43.59v8.815zm-5.258-2.699h2.552V43.59a31.781 31.781 0 0 1 6.426-19.2 31.914 31.914 0 0 1 16.73-11.454v-2.627a34.677 34.677 0 0 0-18.5 12.3A34.531 34.531 0 0 0 5.851 43.59v6.116zM55.636 9.175H42.678v2.698h12.958V9.175zm20.758 2.923H64.572v2.699h11.822v-2.699zM63.869 22.19H44.915v2.699h18.954v-2.698zm13.796 3.536h-8.494v2.698h8.494v-2.698zm-38.747 70.79h-8.052a19.863 19.863 0 0 1-14.028-5.796 19.764 19.764 0 0 1-5.81-13.993h2.705a17.07 17.07 0 0 0 5.018 12.085 17.154 17.154 0 0 0 12.115 5.005h8.052v2.699z" fill="#fff"/><path d="M42.336 98h-3.94a5.038 5.038 0 0 1-3.559-1.47 5.013 5.013 0 0 1 0-7.098 5.038 5.038 0 0 1 3.558-1.47h3.94c1.335 0 2.615.528 3.559 1.47a5.013 5.013 0 0 1 0 7.098A5.038 5.038 0 0 1 42.336 98zm-3.94-7.34a2.33 2.33 0 0 0-1.646.68 2.318 2.318 0 0 0 0 3.282 2.33 2.33 0 0 0 1.645.68h3.94a2.33 2.33 0 0 0 1.646-.68 2.318 2.318 0 0 0 0-3.282 2.33 2.33 0 0 0-1.645-.68h-3.94z" fill="#fff"/></svg>