<svg width="102" height="98" fill="none" xmlns="http://www.w3.org/2000/svg"><path d="M102 76.218H85.862v-2.829H99.19V27.553H2.81v45.836h44.593v2.829H0V24.724h102v51.494z" fill="#fff"/><path d="M15.717 40.405h-8.43V32.06h8.43v8.345zm-5.62-2.829h2.81V34.89h-2.81v2.687zm21.412 2.829h-8.43V32.06h8.43v8.345zm-5.62-2.829h2.81V34.89h-2.81v2.687zm37.212 2.829h-8.43V32.06h8.43v8.345zm-5.62-2.829h2.81V34.89h-2.81v2.687zM47.31 40.405h-8.43V32.06h8.43v8.345zm-5.62-2.829h2.81V34.89h-2.81v2.687zm37.213 2.829h-8.43V32.06h8.43v8.345zm-5.62-2.829h2.81V34.89h-2.81v2.687zm21.411 2.829h-8.43V32.06h8.43v8.345zm-5.62-2.829h2.81V34.89h-2.81v2.687zM15.717 54.634h-8.43v-8.326h8.43v8.326zm-5.62-2.829h2.81v-2.668h-2.81v2.668zm21.412 2.829h-8.43v-8.326h8.43v8.326zm-5.62-2.829h2.81v-2.668h-2.81v2.668zm21.421 2.829h-8.43v-8.326h8.43v8.326zm-5.62-2.829h2.81v-2.668h-2.81v2.668zm53.004 2.829h-8.43v-8.326h8.43v8.326zm-5.62-2.829h2.81v-2.668h-2.81v2.668zm-73.357 17.03h-8.43v-8.298h8.43v8.298zm-5.62-2.829h2.81v-2.64h-2.81v2.64zm21.412 2.829h-8.43v-8.298h8.43v8.298zm-5.62-2.829h2.81v-2.64h-2.81v2.64zm20.896 2.829H38.9v-8.298h5.45l2.436 8.298zm-5.076-2.829h1.32l-.787-2.64h-.533v2.64zm52.985 2.829h-8.43v-8.298h8.43v8.298zm-5.62-2.829h2.81v-2.64h-2.81v2.64z" fill="#fff"/><path d="M83.36 90.853l-2.66-.943 3.466-10.278V51.437a2.316 2.316 0 0 0-.613-1.72 2.285 2.285 0 0 0-1.667-.727 2.272 2.272 0 0 0-1.667.726 2.303 2.303 0 0 0-.614 1.721V64.64h-2.8V45.525a2.317 2.317 0 0 0-.614-1.72 2.284 2.284 0 0 0-1.667-.728 2.273 2.273 0 0 0-1.667.727 2.303 2.303 0 0 0-.614 1.721v15.087h-2.81V38.227a2.317 2.317 0 0 0-.614-1.721 2.287 2.287 0 0 0-1.667-.727 2.272 2.272 0 0 0-1.667.727 2.303 2.303 0 0 0-.613 1.72v20.85h-2.81v-16.37a2.308 2.308 0 0 0-.718-1.531 2.277 2.277 0 0 0-3.127 0c-.423.4-.68.947-.717 1.53v28.016a2.244 2.244 0 0 1-.502 1.42 2.207 2.207 0 0 1-2.764.555 2.23 2.23 0 0 1-1.005-1.117l-4.046-9.863a2.34 2.34 0 0 0-1.121-1.284 2.319 2.319 0 0 0-1.689-.178 2.328 2.328 0 0 0-1.456 1.217 2.362 2.362 0 0 0-.08 1.904l5.058 13.003a8.568 8.568 0 0 0 4.29 4.668c4.683 2.216 7.109 5.186 7.109 8.609h-2.81c0-2.829-2.988-4.856-5.498-6.054a11.38 11.38 0 0 1-5.704-6.185l-5.077-13.013a5.215 5.215 0 0 1 .08-3.966 5.164 5.164 0 0 1 2.842-2.748 5.117 5.117 0 0 1 3.94.08 5.168 5.168 0 0 1 2.73 2.862l2.893 7.035v-24.96a5.147 5.147 0 0 1 .643-2.5 5.106 5.106 0 0 1 1.771-1.865 5.062 5.062 0 0 1 4.958-.218 5.144 5.144 0 0 1 1.596-3.473 5.077 5.077 0 0 1 3.54-1.394 5.078 5.078 0 0 1 3.513 1.46 5.145 5.145 0 0 1 1.532 3.502v2.725a5.057 5.057 0 0 1 4.958.217 5.106 5.106 0 0 1 1.771 1.866c.423.764.644 1.625.642 2.5v1.329a5.058 5.058 0 0 1 4.958.218 5.105 5.105 0 0 1 1.772 1.865c.422.765.643 1.625.642 2.5V80.15L83.36 90.853z" fill="#fff"/><path d="M88.044 97.057H54.381v-8.081h33.663v8.081zM57.22 94.228h28.015v-2.423H57.191l.028 2.423zm-16.916-8.533H12.232v2.828h28.072v-2.828zm0 9.476H28.708V98h11.596v-2.829zm5.601-86.166H11.51v2.829h34.394V9.005zM58.502 0H37.438v2.829h21.066V0zm23.641 14.502h-19.51v2.83h19.51v-2.83zm8.346-9.91H72.177v2.829H90.49V4.592z" fill="#fff"/></svg>