<svg width="72" height="75" fill="none" xmlns="http://www.w3.org/2000/svg"><path d="M43.696 24.323a3.594 3.594 0 0 0 .006 5.104l.277.277a3.627 3.627 0 0 0 5.122.003l4.788-4.765.627-.63a3.602 3.602 0 0 0 0-5.106l-.283-.28c-1.408-1.41-3.701-1.41-5.124 0l-5.413 5.397zm11.174 1.605l-4.785 4.767a3.61 3.61 0 0 0 0 5.101l.275.28a3.637 3.637 0 0 0 5.124 0l.635-.635 4.145-4.124.627-.633a3.602 3.602 0 0 0 .005-5.107l-.278-.276a3.633 3.633 0 0 0-5.124-.003l-.624.63zm15.795 23.168L49.291 70.39c-1.783 1.776-4.7 1.776-6.478.002l-3.68-3.667-3.894 3.873s-5.795 5.734-13.65 4.113c-.06-.013-.124-.02-.182-.034-.341-.074-.69-.174-1.037-.277a14.48 14.48 0 0 1-.868-.29c-.283-.105-.568-.2-.857-.329a16.501 16.501 0 0 1-1.748-.877c-.172-.103-.355-.23-.532-.34a18.263 18.263 0 0 1-1.492-1.028c-.193-.147-.389-.295-.59-.456a24.313 24.313 0 0 1-2.01-1.786c-7.568-7.54-7.238-14.256-5.822-17.647.005-.011 1.158-4.243 2.558-9.287.394-1.433.814-2.925 1.224-4.419l-8.896-8.864a4.565 4.565 0 0 1 0-6.456L22.711 1.332c1.783-1.776 4.7-1.776 6.479 0l12.4 12.348 1.128-1.125a3.64 3.64 0 0 1 5.126 0l.278.282a3.596 3.596 0 0 1 0 5.101l-.632.635-4.14 4.127-.64.632a3.628 3.628 0 0 1-5.119 0l-.275-.274a3.607 3.607 0 0 1 0-5.106l.63-.633v-.002l1.396-1.392L28.84 5.466 5.488 28.721l5.735 5.708c.976-3.479 1.849-6.512 2.309-7.956 1.452-4.582 5.119-4.413 6.862-1.625 1.357 2.147.304 7.04-.4 12.58-.14 1.093-.507 2.89-.936 4.798l23.26 23.168 23.34-23.255-1.733-1.726-2.037 2.03a3.634 3.634 0 0 1-5.121 0l-.283-.283a3.6 3.6 0 0 1 0-5.101l4.78-4.76.627-.632a3.64 3.64 0 0 1 5.126-.002l.275.276a3.597 3.597 0 0 1 0 5.107l-.627.627.006.006-.498.49 4.49 4.471a4.564 4.564 0 0 1 .002 6.454zM10.942 18.492c.212.216.569.21.78-.003l6.841-6.814a.546.546 0 0 0 0-.778.553.553 0 0 0-.78-.002l-6.84 6.814a.552.552 0 0 0 0 .783zm47.415 36.411a2.294 2.294 0 0 0-3.24 0 2.282 2.282 0 0 0 0 3.228 2.295 2.295 0 0 0 3.24.003 2.286 2.286 0 0 0 0-3.23z" fill="#EAEAEA"/></svg>