<svg width="23" height="34" fill="none" xmlns="http://www.w3.org/2000/svg"><path d="M13.993 20.318c-3.584 2.088-6.252 3.273-8.318 3.423v-1.633c0-.315 0-.968.016-1.723 1.28-.122 3.407-1.157 6.628-3.033 4.351-2.547 6.655-4.187 6.717-5.435.069-1.177-1.974-2.74-6.252-5.238C8.432 4.133 5.38 2.955 4.271 3.517c-.79.398-.67 1.987-.802 4.917-.43.11-.846.267-1.242.468A6.29 6.29 0 0 0 0 10.792C.07 4.885.124 1.64 2.5.44c2.374-1.2 6.561.11 11.97 3.268 5.497 3.21 8.105 5.603 7.939 8.406-.162 2.715-3.006 5.046-8.417 8.204z" fill="url(#paint0_linear)"/><path d="M13.997 30.606c-5.5 3.167-9.368 4.231-11.673 2.71C.081 31.846 0 28.23 0 22.002c0-6.336.768-9.773 3.24-11.012 2.304-1.144 5.52 0 10.522 2.81a63.395 63.395 0 0 1-2.584 1.531l-.796.452c-2.927-1.568-4.738-2.224-5.634-1.787-1.037.51-1.355 3.064-1.355 7.977 0 5.034.01 7.812 1.05 8.494.973.641 3.575-.352 7.862-2.809 4.353-2.513 6.658-4.132 6.72-5.363.03-.51-.341-1.085-1.127-1.787a31.693 31.693 0 0 0 2.742-1.933c1.265 1.305 1.852 2.553 1.77 3.914-.162 2.68-3.007 4.978-8.42 8.096l.007.02z" fill="url(#paint1_linear)"/><defs><linearGradient id="paint0_linear" x1="11.209" x2="11.209" y2="23.741" gradientUnits="userSpaceOnUse"><stop stop-color="#98EA34"/><stop offset="1" stop-color="#2BCC2B"/></linearGradient><linearGradient id="paint1_linear" x1="11.209" y1="10.552" x2="11.209" y2="34" gradientUnits="userSpaceOnUse"><stop stop-color="#0F9EDE"/><stop offset="1" stop-color="#34BDEE"/></linearGradient></defs></svg>