<svg width="18" height="18" viewBox="0 0 18 18" fill="none" xmlns="http://www.w3.org/2000/svg"><path d="M2.311 0H15.69C16.96 0 18 1.04 18 2.311V15.69c0 1.27-1.04 2.31-2.31 2.31H2.31A2.317 2.317 0 0 1 0 15.69V2.31C0 1.04 1.04.001 2.311.001zm10.802 2a.813.813 0 0 0-.81.811V4.75c0 .446.363.81.81.81h2.034c.445 0 .81-.364.81-.81V2.81a.814.814 0 0 0-.81-.811h-2.034zm2.852 5.612h-1.584c.15.49.232 1.008.232 1.545 0 2.993-2.506 5.42-5.596 5.42-3.09 0-5.595-2.427-5.595-5.42a5.3 5.3 0 0 1 .231-1.545H2.001v7.604c0 .394.322.714.715.714H15.25c.394 0 .715-.32.715-.714V7.612zM9.017 5.458c-1.996 0-3.614 1.568-3.614 3.504 0 1.933 1.618 3.502 3.614 3.502 1.997 0 3.616-1.569 3.616-3.502 0-1.936-1.62-3.504-3.616-3.504z" fill="#9E9DA0"/></svg>